<svg xmlns="http://www.w3.org/2000/svg" xmlns:xlink="http://www.w3.org/1999/xlink" width="200" height="200" viewBox="0 0 200 200">
  <defs>
    <filter id="Rectángulo_33232" x="0" y="0" width="200" height="200" filterUnits="userSpaceOnUse">
      <feOffset dy="3" input="SourceAlpha"/>
      <feGaussianBlur stdDeviation="3" result="blur"/>
      <feFlood flood-opacity="0.161"/>
      <feComposite operator="in" in2="blur"/>
      <feComposite in="SourceGraphic"/>
    </filter>
  </defs>
  <g id="Grupo_78694" data-name="Grupo 78694" transform="translate(-591 -921.863)">
    <g transform="matrix(1, 0, 0, 1, 591, 921.86)" filter="url(#Rectángulo_33232)">
      <path id="Rectángulo_33232-2" data-name="Rectángulo 33232" d="M0,0H91a91,91,0,0,1,91,91v0a91,91,0,0,1-91,91h0A91,91,0,0,1,0,91V0A0,0,0,0,1,0,0Z" transform="translate(9 6)" fill="#77cfd9"/>
    </g>
    <path id="Rectángulo_33235" data-name="Rectángulo 33235" d="M0,0H22.976a16,16,0,0,1,16,16v6.976a16,16,0,0,1-16,16H16a16,16,0,0,1-16-16V0A0,0,0,0,1,0,0Z" transform="translate(611 936.863)" fill="#419ca6"/>
    <path id="fish-bones" d="M91.247,2.957A2.7,2.7,0,0,0,89.028.738,71.98,71.98,0,0,0,78.312,0C70.474,0,59.247,1.167,50.275,6.726a2.694,2.694,0,0,0-.486,4.2L63.521,24.654l-4.468,4.468L45.321,15.39A2.695,2.695,0,1,0,41.51,19.2L55.242,32.933,50.773,37.4l-9.48-9.481a2.7,2.7,0,0,0-3.811,3.811l9.481,9.481L42.5,45.679,37.217,40.4a2.695,2.695,0,0,0-3.811,3.811l5.278,5.278-4.57,4.57A24.985,24.985,0,0,0,.79,55.864a2.695,2.695,0,0,0,1.053,4.462l22.363,7.454,7.454,22.362A2.7,2.7,0,0,0,36.121,91.2a24.983,24.983,0,0,0,1.8-33.324l4.57-4.57,5.278,5.278a2.695,2.695,0,0,0,3.811-3.811L46.306,49.49l4.468-4.468L60.254,54.5a2.7,2.7,0,0,0,3.811-3.811l-9.481-9.48,4.468-4.468L72.784,50.475A2.695,2.695,0,0,0,76.6,46.664L62.864,32.932l4.468-4.467L81.063,42.2a2.7,2.7,0,0,0,1.906.79,2.724,2.724,0,0,0,.31-.018,2.7,2.7,0,0,0,1.981-1.258C94.93,26.1,91.4,3.895,91.247,2.957ZM74.3,14.614a2.7,2.7,0,1,1,.789-1.9A2.717,2.717,0,0,1,74.3,14.614Zm0,0" transform="translate(645 975.839)" fill="#fff"/>
  </g>
</svg>
