<svg xmlns="http://www.w3.org/2000/svg" width="401.586" height="378.106" viewBox="0 0 401.586 378.106">
  <g id="Grupo_78710" data-name="Grupo 78710" transform="translate(-49.912 -72.292)">
    <path id="Trazado_111294" data-name="Trazado 111294" d="M120.2,445.939l210.559-2.857c36.428.052,72.255-26.439,94.131-67.384s29.783-95.112,22.636-144.736-28.851-94.224-58.281-123.62c-18.138-18.117-39.354-30.77-61.642-34.159s-45.633,2.838-64.749,19.567c-33.288,29.131-51.317,86.568-86.981,109.494-16.61,10.677-35.274,12.566-52.91,19.181-34.717,13.021-67.712,50.341-72.32,99.922-3.382,36.383,5.082,63.46,22.58,92.085C87.7,437.107,99.173,448.66,120.2,445.939" fill="#c1bdb2" opacity="0.13"/>
    <g id="Grupo_74910" data-name="Grupo 74910">
      <path id="Trazado_111295" data-name="Trazado 111295" d="M408.5,444.5c0,3.26-72.219,5.9-161.306,5.9S85.89,447.756,85.89,444.5s72.219-5.9,161.306-5.9S408.5,441.237,408.5,444.5Z" fill="#b3dac9"/>
      <g id="Grupo_74809" data-name="Grupo 74809">
        <g id="Grupo_74800" data-name="Grupo 74800">
          <path id="Trazado_111296" data-name="Trazado 111296" d="M296.44,412.507c6.133-12.627,13.644-24.989,24.665-33.683,4.222-3.33,9.031-6.118,14.328-7.044s11.142.234,15.049,3.928c.733.694,1.546,1.529,2.551,1.437a3.3,3.3,0,0,0,1.7-.935c6.943-5.8,15.316-9.634,23.812-12.748,17.633-6.465,37.3-10.084,55.1-4.1,7.7,2.588,15.408,7.715,17.356,15.6,1.934,7.824-2.4,15.882-7.842,21.829-8.983,9.827-21.179,16.3-33.918,20.173s-26.086,5.284-39.366,6.219c-23.08,1.626-51.757-2.616-73.444-10.676" fill="#b3dac9"/>
          <g id="Grupo_74799" data-name="Grupo 74799">
            <g id="Grupo_74795" data-name="Grupo 74795">
              <path id="Trazado_111297" data-name="Trazado 111297" d="M302.535,410.318c9.166-1.165,18.332-2.331,27.478-3.644s18.26-2.774,27.326-4.528c9.03-1.747,18.008-3.781,26.87-6.246,8.788-2.445,17.4-5.436,26.036-8.357a233.037,233.037,0,0,1,26.085-7.576q1.64-.348,3.289-.652c.723-.133.653-1.287-.078-1.152a195.966,195.966,0,0,0-26.143,7.1c-8.632,2.868-17.2,5.945-25.928,8.5-8.848,2.591-17.823,4.732-26.858,6.561-9.068,1.836-18.2,3.352-27.352,4.706s-18.306,2.538-27.472,3.705l-3.33.424c-.735.093-.662,1.246.077,1.152Z" fill="#fff"/>
            </g>
            <g id="Grupo_74796" data-name="Grupo 74796">
              <path id="Trazado_111298" data-name="Trazado 111298" d="M322.625,407.469l16.638-8.377,16.821-8.47,9.306-4.686a.581.581,0,0,0,.163-.8.592.592,0,0,0-.8-.163l-16.638,8.377-16.82,8.469-9.306,4.686a.582.582,0,0,0-.164.8.592.592,0,0,0,.8.163Z" fill="#fff"/>
            </g>
            <g id="Grupo_74797" data-name="Grupo 74797">
              <path id="Trazado_111299" data-name="Trazado 111299" d="M360.518,401.479c6.138,1.364,12.242,2.872,18.341,4.4,6.288,1.576,12.569,3.181,18.869,4.712,3.362.817,6.73,1.612,10.109,2.363.725.161.943-.973.217-1.134-6.138-1.364-12.242-2.872-18.34-4.4-6.289-1.576-12.57-3.181-18.87-4.712-3.362-.817-6.73-1.613-10.108-2.363a.578.578,0,0,0-.218,1.134Z" fill="#fff"/>
            </g>
            <g id="Grupo_74798" data-name="Grupo 74798">
              <path id="Trazado_111300" data-name="Trazado 111300" d="M395.326,392.468a106.172,106.172,0,0,1,18.433-14.24c1.8-1.087,3.641-2.11,5.535-3.022a.6.6,0,0,0,.364-.731.582.582,0,0,0-.731-.364,92.624,92.624,0,0,0-19.642,13.238q-2.474,2.112-4.829,4.359a.581.581,0,0,0,.055.814.59.59,0,0,0,.815-.054Z" fill="#fff"/>
            </g>
          </g>
        </g>
        <g id="Grupo_74806" data-name="Grupo 74806">
          <path id="Trazado_111301" data-name="Trazado 111301" d="M296.032,379.717a63.843,63.843,0,0,1-1.829-36.186,40.177,40.177,0,0,1,7.333-15.887c3.7-4.571,8.974-8.043,14.809-8.77a3.319,3.319,0,0,0,2.337-.887,3.154,3.154,0,0,0,.455-1.789c.936-16.329,12.032-30.2,23.744-41.617,5.379-5.242,11.066-10.282,17.666-13.866s14.236-5.64,21.67-4.569a34.374,34.374,0,0,1,12.33,4.531,24.432,24.432,0,0,1,9.02,8.3c2.618,4.45,3.009,9.969,1.888,15.009a41.108,41.108,0,0,1-6.546,13.936,80.84,80.84,0,0,1-14.7,16.306,3.23,3.23,0,0,0-1.4,2c-.094,1.165,1.047,1.992,1.967,2.714,5,3.924,6.309,11.286,4.513,17.387s-6.131,11.124-10.808,15.432c-9.649,8.889-21.19,15.564-33.332,20.531a75.437,75.437,0,0,1-16.732,5.007c-4.346.684-8.758.8-13.147,1.117-5.611.4-13.66.573-19.238,1.305" fill="#509d7f"/>
          <g id="Grupo_74805" data-name="Grupo 74805">
            <g id="Grupo_74801" data-name="Grupo 74801">
              <path id="Trazado_111302" data-name="Trazado 111302" d="M299.713,378.039q9-9.93,17.739-20.082,8.781-10.2,17.3-20.613,8.484-10.369,16.7-20.951t16.171-21.365q7.95-10.784,15.627-21.765.969-1.385,1.932-2.772c.419-.6-.438-1.38-.861-.771q-7.643,11-15.558,21.815-7.95,10.855-16.174,21.509-8.187,10.605-16.639,21t-17.162,20.577q-8.709,10.179-17.674,20.138-1.131,1.256-2.265,2.508a.577.577,0,0,0,.86.77Z" fill="#fff"/>
            </g>
            <g id="Grupo_74802" data-name="Grupo 74802">
              <path id="Trazado_111303" data-name="Trazado 111303" d="M316.057,359.461c1.758-6.075,3.7-12.094,5.775-18.069,2.055-5.934,4.234-11.825,6.464-17.7q1.9-5,3.838-9.985a.594.594,0,0,0-.253-.777.582.582,0,0,0-.776.253c-2.3,5.922-4.574,11.85-6.768,17.809s-4.31,11.965-6.271,18.013q-1.648,5.085-3.14,10.221c-.207.714.925.941,1.131.231Z" fill="#fff"/>
            </g>
            <g id="Grupo_74803" data-name="Grupo 74803">
              <path id="Trazado_111304" data-name="Trazado 111304" d="M336.907,334.563q8.4-3.969,16.491-8.546c5.479-3.114,10.835-6.453,15.987-10.084q4.2-2.963,8.194-6.21a.594.594,0,0,0,.163-.8.582.582,0,0,0-.8-.163,156.785,156.785,0,0,1-14.993,10.765c-5.262,3.357-10.683,6.463-16.21,9.362q-4.553,2.387-9.2,4.583a.594.594,0,0,0-.361.732.582.582,0,0,0,.732.361Z" fill="#fff"/>
            </g>
            <g id="Grupo_74804" data-name="Grupo 74804">
              <path id="Trazado_111305" data-name="Trazado 111305" d="M359.146,306.282a145.736,145.736,0,0,1,3.855-14.3c1.522-4.732,3.247-9.4,5.116-14q1.563-3.854,3.256-7.652c.3-.678-.727-1.2-1.029-.524-2.018,4.541-3.914,9.135-5.645,13.793-1.749,4.71-3.336,9.483-4.683,14.323q-1.122,4.035-2,8.131a.578.578,0,0,0,1.132.231Z" fill="#fff"/>
            </g>
          </g>
        </g>
        <g id="Grupo_74808" data-name="Grupo 74808">
          <g id="Grupo_74807" data-name="Grupo 74807">
            <path id="Trazado_111306" data-name="Trazado 111306" d="M360.154,358.881q4.677-3.885,9.673-7.364t10.3-6.54q5.234-3.02,10.707-5.6,5.526-2.59,11.257-4.71,5.7-2.107,11.572-3.724.727-.2,1.456-.392a.67.67,0,1,0-.413-1.275q-5.925,1.566-11.7,3.633-5.724,2.051-11.261,4.58-5.608,2.562-10.991,5.585-5.319,2.992-10.372,6.429T360.6,356.8q-.585.475-1.165.958a.692.692,0,0,0-.2.925.674.674,0,0,0,.925.2Z" fill="#1e976f"/>
          </g>
          <path id="Trazado_111307" data-name="Trazado 111307" d="M405.909,332.434a91.357,91.357,0,0,1,29.554-11.96c4.171-.883,8.566-1.463,12.649-.24,1.9.57,4.018,2.338,3.209,4.153a3.682,3.682,0,0,1-1.363,1.411c-4.858,3.372-10.837,4.646-16.671,5.613-9.352,1.549-17.9.672-27.378,1.023" fill="#1e976f"/>
          <path id="Trazado_111308" data-name="Trazado 111308" d="M390.59,338.4a91.332,91.332,0,0,1,17.172-26.864c2.889-3.134,6.136-6.152,10.174-7.519,1.882-.637,4.63-.421,5.021,1.528a3.681,3.681,0,0,1-.294,1.94c-2.009,5.562-6.146,10.062-10.343,14.228-6.728,6.679-14.209,10.915-21.73,16.687" fill="#1e976f"/>
          <path id="Trazado_111309" data-name="Trazado 111309" d="M394.627,336.329a91.349,91.349,0,0,1,31.883-.033c4.2.742,8.49,1.849,11.819,4.511,1.552,1.241,2.852,3.671,1.422,5.052a3.684,3.684,0,0,1-1.792.8c-5.767,1.309-11.788.253-17.56-1.034-9.253-2.062-16.856-6.076-25.772-9.295" fill="#1e976f"/>
          <path id="Trazado_111310" data-name="Trazado 111310" d="M373.959,347.726a91.324,91.324,0,0,1,10.915-29.956c2.137-3.688,4.65-7.34,8.294-9.553,1.7-1.032,4.427-1.418,5.233.4a3.682,3.682,0,0,1,.135,1.957c-.751,5.866-3.809,11.158-7,16.138-5.114,7.983-11.493,13.746-17.578,21.015" fill="#1e976f"/>
          <path id="Trazado_111311" data-name="Trazado 111311" d="M363.983,355a76.83,76.83,0,0,1,3.614-26.566c1.1-3.413,2.51-6.863,5.108-9.332,1.212-1.152,3.385-1.957,4.372-.608a3.1,3.1,0,0,1,.46,1.584c.432,4.954-1.135,9.85-2.866,14.512-2.775,7.474-6.987,13.349-10.688,20.41" fill="#1e976f"/>
          <path id="Trazado_111312" data-name="Trazado 111312" d="M376.713,346.266a91.373,91.373,0,0,1,31.883-.032c4.2.742,8.49,1.848,11.819,4.511,1.552,1.241,2.852,3.671,1.422,5.052a3.674,3.674,0,0,1-1.792.8c-5.767,1.309-11.788.253-17.56-1.033-9.253-2.062-16.856-6.076-25.772-9.3" fill="#1e976f"/>
          <path id="Trazado_111313" data-name="Trazado 111313" d="M367.606,352.372a69.374,69.374,0,0,1,23.889,3.913c3.053,1.074,6.132,2.433,8.3,4.839,1.01,1.121,1.683,3.1.442,3.96a2.79,2.79,0,0,1-1.441.377c-4.482.268-8.862-1.266-13.028-2.943-6.677-2.687-11.877-6.633-18.159-10.146" fill="#1e976f"/>
        </g>
      </g>
      <g id="Grupo_74818" data-name="Grupo 74818">
        <g id="Grupo_74815" data-name="Grupo 74815">
          <path id="Trazado_111314" data-name="Trazado 111314" d="M167.318,424.958c-1.311-12.056-3.819-24.3-10.251-34.578-2.464-3.938-5.562-7.606-9.6-9.9s-9.131-3.054-13.384-1.187a3.15,3.15,0,0,1-2.493.425,2.852,2.852,0,0,1-1.114-1.257c-3.956-6.742-9.65-12.3-15.653-17.3-12.458-10.392-27.4-19.064-43.621-19.383-7.016-.137-14.778,1.788-18.66,7.633-3.851,5.8-2.669,13.617.021,20.037,4.444,10.608,12.477,19.427,21.71,26.285s19.676,11.895,30.2,16.523c18.3,8.043,42.856,12.946,62.841,12.707" fill="#b3dac9"/>
          <g id="Grupo_74814" data-name="Grupo 74814">
            <g id="Grupo_74810" data-name="Grupo 74810">
              <path id="Trazado_111315" data-name="Trazado 111315" d="M163,421.4c-7.115-3.617-14.23-7.234-21.286-10.966s-14.043-7.574-20.905-11.641c-6.836-4.051-13.545-8.319-20.034-12.9-6.436-4.548-12.567-9.489-18.741-14.379a201.326,201.326,0,0,0-19.008-13.759q-1.233-.761-2.485-1.488c-.549-.319-.156-1.237.4-.914A169.255,169.255,0,0,1,80.13,368.741c6.186,4.846,12.255,9.843,18.612,14.466,6.44,4.684,13.116,9.039,19.931,13.158,6.841,4.135,13.825,8.027,20.875,11.794s14.148,7.395,21.263,11.014l2.585,1.314c.571.29.175,1.206-.4.915Z" fill="#fff"/>
            </g>
            <g id="Grupo_74811" data-name="Grupo 74811">
              <path id="Trazado_111316" data-name="Trazado 111316" d="M147.489,413.234q-5.547-5.829-11.092-11.659l-11.213-11.786-6.2-6.522a.5.5,0,0,1,.1-.7.511.511,0,0,1,.7.1l11.092,11.659q5.607,5.893,11.213,11.786l6.2,6.522a.5.5,0,0,1-.1.7.51.51,0,0,1-.7-.1Z" fill="#fff"/>
            </g>
            <g id="Grupo_74812" data-name="Grupo 74812">
              <path id="Trazado_111317" data-name="Trazado 111317" d="M118.415,397.327c-5.388-.679-10.792-1.23-16.2-1.763-5.573-.55-11.149-1.074-16.718-1.664-2.973-.315-5.944-.648-8.91-1.022-.637-.08-.484-1.066.154-.986,5.388.679,10.792,1.23,16.2,1.764,5.573.549,11.149,1.073,16.718,1.663,2.973.315,5.944.648,8.91,1.022.637.08.484,1.066-.154.986Z" fill="#fff"/>
            </g>
            <g id="Grupo_74813" data-name="Grupo 74813">
              <path id="Trazado_111318" data-name="Trazado 111318" d="M92.731,379.861a91.732,91.732,0,0,0-10.844-16.95c-1.147-1.408-2.346-2.776-3.621-4.069a.516.516,0,0,1-.083-.7.5.5,0,0,1,.7-.083A79.969,79.969,0,0,1,91,374.545q1.4,2.438,2.658,4.951a.5.5,0,0,1-.282.646.51.51,0,0,1-.647-.281Z" fill="#fff"/>
            </g>
          </g>
        </g>
        <g id="Grupo_74817" data-name="Grupo 74817">
          <g id="Grupo_74816" data-name="Grupo 74816">
            <path id="Trazado_111319" data-name="Trazado 111319" d="M166.955,357.026q-5.1-3.316-9.9-7.059t-9.3-7.906q-4.432-4.1-8.512-8.57-4.111-4.512-7.831-9.36-3.7-4.824-6.982-9.951-.406-.635-.806-1.275a.67.67,0,0,0-1.095.772q3.247,5.2,6.933,10.1,3.653,4.861,7.707,9.4,4.107,4.6,8.587,8.845,4.434,4.2,9.211,8.006t9.858,7.193q.629.417,1.26.829a.692.692,0,0,0,.944-.081.674.674,0,0,0-.081-.944Z" fill="#1e976f"/>
          </g>
          <path id="Trazado_111320" data-name="Trazado 111320" d="M128.152,321.149a91.357,91.357,0,0,1-20.172-24.69c-2.078-3.722-3.933-7.749-3.973-12.011-.018-1.988,1.044-4.531,3.017-4.295a3.682,3.682,0,0,1,1.752.884c4.658,3.643,7.645,8.977,10.295,14.264,4.248,8.474,5.942,16.9,9.081,25.848" fill="#1e976f"/>
          <path id="Trazado_111321" data-name="Trazado 111321" d="M138.387,334.015a91.336,91.336,0,0,1-30.743-8.452c-3.849-1.831-7.692-4.04-10.193-7.492-1.166-1.61-1.772-4.3-.026-5.248a3.677,3.677,0,0,1,1.939-.294c5.908.273,11.431,2.893,16.653,5.669,8.37,4.449,14.631,10.341,22.37,15.817" fill="#1e976f"/>
          <path id="Trazado_111322" data-name="Trazado 111322" d="M135.211,330.773a91.327,91.327,0,0,1-9.467-30.445c-.534-4.229-.748-8.657.81-12.624.726-1.851,2.663-3.811,4.4-2.854a3.682,3.682,0,0,1,1.293,1.475c2.957,5.122,3.731,11.185,4.21,17.08.769,9.448-.815,17.9-1.251,27.368" fill="#1e976f"/>
          <path id="Trazado_111323" data-name="Trazado 111323" d="M152.215,347.142a91.339,91.339,0,0,1-31.845-1.56c-4.155-.95-8.388-2.27-11.579-5.1-1.489-1.317-2.665-3.809-1.168-5.117a3.682,3.682,0,0,1,1.829-.708c5.825-1.019,11.786.336,17.487,1.909,9.138,2.522,16.531,6.91,25.276,10.571" fill="#1e976f"/>
          <path id="Trazado_111324" data-name="Trazado 111324" d="M162.115,354.518a76.8,76.8,0,0,1-26.445,4.41c-3.585-.038-7.3-.366-10.426-2.117-1.458-.816-2.871-2.654-1.874-3.995a3.093,3.093,0,0,1,1.376-.91c4.6-1.878,9.745-1.83,14.711-1.557,7.96.439,14.819,2.724,22.658,4.169" fill="#1e976f"/>
          <path id="Trazado_111325" data-name="Trazado 111325" d="M150.005,344.943a91.328,91.328,0,0,1-9.467-30.445c-.534-4.229-.747-8.657.81-12.624.727-1.851,2.663-3.811,4.4-2.854a3.684,3.684,0,0,1,1.294,1.475c2.957,5.122,3.73,11.185,4.21,17.08.768,9.448-.815,17.9-1.252,27.368" fill="#1e976f"/>
          <path id="Trazado_111326" data-name="Trazado 111326" d="M158.533,351.835a69.362,69.362,0,0,1-3.333-23.977c.122-3.234.509-6.577,2.166-9.357.773-1.3,2.466-2.526,3.652-1.594a2.786,2.786,0,0,1,.787,1.265c1.583,4.2,1.414,8.839,1.045,13.314-.591,7.174-2.821,13.308-4.317,20.349" fill="#1e976f"/>
        </g>
      </g>
      <g id="Grupo_74819" data-name="Grupo 74819">
        <path id="Trazado_111327" data-name="Trazado 111327" d="M271.655,232.415c0-18.832-13.575-30.746-34.1-30.746-16.849,0-30.4,7.483-40.3,20.221a10.159,10.159,0,0,1-13.946,2.167l-22.162-15.831a10.051,10.051,0,0,1-2.632-13.662c17.585-26.707,45.642-43.242,84.408-43.242,47.354,0,80.186,25.75,80.186,71.1,0,57.12-45.762,67.151-52.27,100.94a10.1,10.1,0,0,1-9.9,8.21H233.2A10.072,10.072,0,0,1,223.2,320.141C229.52,275.856,271.655,263.343,271.655,232.415ZM216.093,393.064c0-19.6,12.628-29.674,30.306-29.674s30.307,10.073,30.307,29.674c0,19.216-12.627,30.75-30.307,30.75S216.093,412.28,216.093,393.064Z" fill="#e0ab6c"/>
        <path id="Trazado_111328" data-name="Trazado 111328" d="M278.049,232.241c0-18.832-13.575-30.746-34.1-30.746-16.849,0-30.4,7.483-40.3,20.221a10.159,10.159,0,0,1-13.946,2.167l-22.162-15.831a10.05,10.05,0,0,1-2.632-13.662c17.585-26.707,45.642-43.242,84.407-43.242,47.355,0,80.187,25.75,80.187,71.1,0,57.12-45.762,67.151-52.27,100.94a10.1,10.1,0,0,1-9.9,8.21H239.6a10.072,10.072,0,0,1-10.007-11.43C235.913,275.683,278.049,263.169,278.049,232.241ZM222.487,392.89c0-19.6,12.628-29.674,30.306-29.674S283.1,373.29,283.1,392.89c0,19.217-12.628,30.75-30.307,30.75S222.487,412.107,222.487,392.89Z" fill="#f3d1a4"/>
      </g>
      <g id="Grupo_74820" data-name="Grupo 74820">
        <path id="Trazado_111329" data-name="Trazado 111329" d="M391.147,166.338c.892-3.622-1.154-6.556-5.1-7.528a9.793,9.793,0,0,0-8.708,1.98,2.012,2.012,0,0,1-2.785-.244l-3.512-4.094a1.991,1.991,0,0,1,.141-2.752c4.647-4.3,10.826-6.154,18.281-4.318,9.107,2.242,14.2,8.75,12.053,17.471-2.7,10.985-11.981,10.747-14.833,16.937a2,2,0,0,1-2.293,1.109l-5.334-1.313a1.994,1.994,0,0,1-1.383-2.672C380.986,172.7,389.682,172.285,391.147,166.338ZM372.853,194.6c.928-3.769,3.834-5.108,7.234-4.271s5.351,3.373,4.423,7.142a6,6,0,1,1-11.657-2.871Z" fill="#b3dac9"/>
        <path id="Trazado_111330" data-name="Trazado 111330" d="M119.4,215.46c-1.805-3.264-5.3-4.029-8.856-2.062a9.79,9.79,0,0,0-5.048,7.367,2.013,2.013,0,0,1-2.21,1.712l-5.358-.621a1.991,1.991,0,0,1-1.766-2.116c.489-6.314,3.768-11.869,10.488-15.583,8.208-4.538,16.366-3.221,20.712,4.64,5.474,9.9-1.5,16.025.612,22.505a2,2,0,0,1-.93,2.372l-4.807,2.658a2,2,0,0,1-2.83-1.022C116.263,227.028,122.368,220.821,119.4,215.46Zm5.764,33.171c-1.879-3.4-.655-6.354,2.409-8.048s6.219-1.158,8.1,2.239a6,6,0,1,1-10.506,5.809Z" fill="#b3dac9"/>
        <path id="Trazado_111331" data-name="Trazado 111331" d="M255.26,97.834c.052-3.02-2.092-4.969-5.382-5.025a7.929,7.929,0,0,0-6.519,3.13,1.629,1.629,0,0,1-2.242.309l-3.51-2.6a1.611,1.611,0,0,1-.384-2.2c2.894-4.233,7.439-6.807,13.655-6.7,7.594.132,12.787,4.352,12.661,11.624-.159,9.16-7.525,10.641-8.663,16.041a1.618,1.618,0,0,1-1.611,1.289l-4.447-.077a1.615,1.615,0,0,1-1.573-1.861C248.382,104.683,255.174,102.793,255.26,97.834ZM245.9,123.44c.054-3.143,2.107-4.723,4.942-4.674s4.832,1.7,4.778,4.843a4.861,4.861,0,1,1-9.72-.169Z" fill="#b3dac9"/>
      </g>
      <g id="Grupo_74869" data-name="Grupo 74869">
        <g id="Grupo_74821" data-name="Grupo 74821">
          <path id="Trazado_111332" data-name="Trazado 111332" d="M328.133,417.825a38.746,38.746,0,0,0-1.091,16.09s-7.612,4.023-15.072-1.091c0,0,6.2-4.715,4.255-17.362" fill="#ff9670"/>
          <path id="Trazado_111333" data-name="Trazado 111333" d="M294.62,441.542a2.545,2.545,0,0,1,1.032-1.131c2.53-1.438,8.692-4.849,18.006-9.428a32.29,32.29,0,0,0,13.141.753,62.317,62.317,0,0,1,.746,9.492C322.694,441.443,303.974,442.2,294.62,441.542Z" fill="#602b29"/>
          <path id="Trazado_111334" data-name="Trazado 111334" d="M327.545,441.228c-.023,1.073-.066,2.1-.14,2.977H294.35v-1.556a2.557,2.557,0,0,1,.27-1.107C303.974,442.2,322.694,441.443,327.545,441.228Z" fill="#400e09"/>
          <path id="Trazado_111335" data-name="Trazado 111335" d="M305.55,436.393a.585.585,0,1,1-.585-.585A.585.585,0,0,1,305.55,436.393Z" fill="#400e09"/>
          <path id="Trazado_111336" data-name="Trazado 111336" d="M309.933,434.516a.586.586,0,1,1-.586-.585A.585.585,0,0,1,309.933,434.516Z" fill="#400e09"/>
          <path id="Trazado_111337" data-name="Trazado 111337" d="M314.256,432.23a.586.586,0,1,1-.586-.586A.585.585,0,0,1,314.256,432.23Z" fill="#400e09"/>
        </g>
        <g id="Grupo_74822" data-name="Grupo 74822">
          <path id="Trazado_111338" data-name="Trazado 111338" d="M348.917,414.275s3.785,14.462,2.05,20.219c0,0,7.612,4.023,15.072-1.091,0,0-7.274-2.453-4.8-23" fill="#ff9670"/>
          <path id="Trazado_111339" data-name="Trazado 111339" d="M383.389,442.121a2.551,2.551,0,0,0-1.032-1.131c-2.53-1.438-8.692-4.849-18.006-9.428a32.283,32.283,0,0,1-13.14.753,62.258,62.258,0,0,0-.747,9.493C355.316,442.022,374.035,442.774,383.389,442.121Z" fill="#602b29"/>
          <path id="Trazado_111340" data-name="Trazado 111340" d="M350.464,441.808c.024,1.072.067,2.1.14,2.976H383.66v-1.556a2.544,2.544,0,0,0-.271-1.107C374.035,442.774,355.316,442.022,350.464,441.808Z" fill="#400e09"/>
          <path id="Trazado_111341" data-name="Trazado 111341" d="M365.608,433.187a.585.585,0,1,1-.586-.585A.585.585,0,0,1,365.608,433.187Z" fill="#400e09"/>
          <path id="Trazado_111342" data-name="Trazado 111342" d="M375.611,438.01a.585.585,0,1,1-.585-.585A.585.585,0,0,1,375.611,438.01Z" fill="#400e09"/>
          <path id="Trazado_111343" data-name="Trazado 111343" d="M370.109,435.724a.585.585,0,1,1-.585-.586A.585.585,0,0,1,370.109,435.724Z" fill="#400e09"/>
        </g>
        <g id="Grupo_74823" data-name="Grupo 74823">
          <path id="Trazado_111344" data-name="Trazado 111344" d="M324.06,184.791a18.159,18.159,0,0,1,1.861,13.239A34.887,34.887,0,0,1,320,210.468a34.23,34.23,0,0,0,16.99,5.629,14.34,14.34,0,0,0,7.006-1.008,14.922,14.922,0,0,1-4.08-7.2,38.939,38.939,0,0,1-1.337-15.918" fill="#ff9670"/>
          <path id="Trazado_111345" data-name="Trazado 111345" d="M330.689,193.564a30.193,30.193,0,0,0,7.605,2.992,38.557,38.557,0,0,1,.283-4.581l-14.517-7.184a15.661,15.661,0,0,1,1.372,2.948A14.15,14.15,0,0,0,330.689,193.564Z" fill="#fc7f51"/>
        </g>
        <g id="Grupo_74834" data-name="Grupo 74834">
          <g id="Grupo_74824" data-name="Grupo 74824">
            <rect id="Rect치ngulo_33254" data-name="Rect치ngulo 33254" width="4.413" height="0.658" transform="matrix(0.981, -0.195, 0.195, 0.981, 346.595, 173.999)" fill="#d03711"/>
          </g>
          <path id="Trazado_111346" data-name="Trazado 111346" d="M332.151,162.051c4.035-1.1,8.5.456,11.515,3.358a21.618,21.618,0,0,1,5.882,11.532,37.543,37.543,0,0,1,.066,10.888,11.248,11.248,0,0,1-1.5,4.33,5.9,5.9,0,0,1-2.61,2.034,17.587,17.587,0,0,1-7.419.222c-4.115-.739-7.721-1.97-10.65-4.954s-3.055-5.774-2.489-9.917" fill="#ff9670"/>
          <g id="Grupo_74825" data-name="Grupo 74825">
            <path id="Trazado_111347" data-name="Trazado 111347" d="M325.755,182.976a5.846,5.846,0,0,0-1.979-1.113,2.708,2.708,0,0,0-2.2.247,2.537,2.537,0,0,0-1.064,1.839,4.081,4.081,0,0,0,.4,2.13,4.191,4.191,0,0,0,2.844,2.47,2.68,2.68,0,0,0,3.086-1.752,3.974,3.974,0,0,0-.434-2.5" fill="#ff9670"/>
            <path id="Trazado_111348" data-name="Trazado 111348" d="M324.764,183.792a2.09,2.09,0,0,0-.7-.4.962.962,0,0,0-.782.088.9.9,0,0,0-.377.653,1.447,1.447,0,0,0,.141.756,1.487,1.487,0,0,0,1.009.876.95.95,0,0,0,1.1-.621,1.407,1.407,0,0,0-.153-.889" fill="#fc7f51"/>
          </g>
          <g id="Grupo_74826" data-name="Grupo 74826">
            <path id="Trazado_111349" data-name="Trazado 111349" d="M320.645,169.127a15.76,15.76,0,0,1-4.295.028,9.458,9.458,0,0,1-3.531-1.1,7.775,7.775,0,0,1-3.589-5.327,10.7,10.7,0,0,1,.987-6.446,8.436,8.436,0,0,1,3.751-4.1,9.518,9.518,0,0,1,5.907-.428c2.361.453,4.8,1.451,6.075,3.488,1.5,2.4.986,5.514.16,8.22" fill="#2d0e0b"/>
            <path id="Trazado_111350" data-name="Trazado 111350" d="M349.2,169.93a14.313,14.313,0,0,0-9.424-10.818,17.467,17.467,0,0,0-14.48,1.755,38.877,38.877,0,0,0-3.95,2.848,18.276,18.276,0,0,0-3.1,2.849,11.161,11.161,0,0,0-2.235,7.141,19.162,19.162,0,0,0,1.814,7.363,3.946,3.946,0,0,0,1.468,1.961c1.53.867,3.36-.4,5.11-.567a.906.906,0,0,1,.589.091,1.05,1.05,0,0,1,.333.829,37.676,37.676,0,0,0,3.811,13.495,6.351,6.351,0,0,0,1.653,2.288,48.959,48.959,0,0,1-2.287-15.957c.017-.012.064-.814.066-.835.072-.864.276-2.336.338-2.638.557-2.7,1.144-3.586,1.7-6.283q.764,1.643,1.528,3.286c.155.335.348.7.7.811a1.338,1.338,0,0,0,1.018-.259l5.874-3.371a1.27,1.27,0,0,0,.575-.514,1.255,1.255,0,0,0,.046-.648l-.362-3.483,3.045,2.885a1.044,1.044,0,0,0,1.4.284l4.287-1.641a.848.848,0,0,0,.426-.272A.828.828,0,0,0,349.2,169.93Z" fill="#2d0e0b"/>
            <path id="Trazado_111351" data-name="Trazado 111351" d="M316.877,169.926a37.3,37.3,0,0,1,10.271-9.963,1.53,1.53,0,0,0-1-2.815c-4.577.609-10.29,3.128-12.019,11.572A1.536,1.536,0,0,0,316.877,169.926Z" fill="#d03711"/>
          </g>
          <g id="Grupo_74827" data-name="Grupo 74827">
            <path id="Trazado_111352" data-name="Trazado 111352" d="M339.024,175.118c-1.985.023-4.508.246-5.473,1.436-.479.591-1.107.5-.673-.131,1.346-1.969,3.3-2.274,6.185-2.532a.6.6,0,0,1,.577.659c-.01.3-.3.635-.616.568Z" fill="#2d0e0b"/>
          </g>
          <g id="Grupo_74828" data-name="Grupo 74828">
            <path id="Trazado_111353" data-name="Trazado 111353" d="M332.924,184.984c.449,1.446,2.534,2.085,4.66,1.426s3.484-2.364,3.036-3.811-2.534-2.085-4.659-1.427S332.476,183.537,332.924,184.984Z" fill="#fc7f51"/>
            <path id="Trazado_111354" data-name="Trazado 111354" d="M346.235,174.495c.17.547.563.911.879.814s.435-.621.265-1.169-.563-.912-.879-.814S346.065,173.947,346.235,174.495Z" fill="#2d0e0b"/>
            <path id="Trazado_111355" data-name="Trazado 111355" d="M337.122,178.148c.191.618.694,1.011,1.123.878s.622-.741.431-1.359-.7-1.011-1.124-.879S336.93,177.53,337.122,178.148Z" fill="#2d0e0b"/>
            <path id="Trazado_111356" data-name="Trazado 111356" d="M345.037,180.743a2.815,2.815,0,0,0,.815-.771,5.181,5.181,0,0,1-2.689-3.489.393.393,0,0,1,.244-.482.386.386,0,0,1,.482.245,4.478,4.478,0,0,0,2.711,3.237.386.386,0,0,1,.167.514,3.573,3.573,0,0,1-1.308,1.384C345.038,181.634,344.615,181,345.037,180.743Z" fill="#f46e45"/>
            <path id="Trazado_111357" data-name="Trazado 111357" d="M347.627,183.8a5.642,5.642,0,0,1-4.25,1.429S347.523,187.176,347.627,183.8Z" fill="#e53e3e"/>
          </g>
          <g id="Grupo_74833" data-name="Grupo 74833">
            <g id="Grupo_74829" data-name="Grupo 74829">
              <path id="Trazado_111358" data-name="Trazado 111358" d="M337.222,183.047a4.472,4.472,0,0,1-2.171-.57,4.774,4.774,0,0,1-2.242-2.779,4.621,4.621,0,0,1,2.926-5.828,4.4,4.4,0,0,1,3.467.372,4.775,4.775,0,0,1,2.242,2.781,4.619,4.619,0,0,1-2.926,5.827A4.4,4.4,0,0,1,337.222,183.047Zm-.191-8.716a3.71,3.71,0,0,0-1.1.168,3.958,3.958,0,0,0-2.491,5,4.107,4.107,0,0,0,1.932,2.4,3.741,3.741,0,0,0,2.952.32,3.958,3.958,0,0,0,2.491-5,4.109,4.109,0,0,0-1.932-2.4A3.808,3.808,0,0,0,337.031,174.331Z" fill="#d03711"/>
            </g>
            <g id="Grupo_74830" data-name="Grupo 74830">
              <path id="Trazado_111359" data-name="Trazado 111359" d="M347.693,179.027a4.6,4.6,0,0,1-4.188-3.673c-.64-2.512.577-5,2.712-5.543a3.7,3.7,0,0,1,3.1.651,5.125,5.125,0,0,1,1.931,2.916h0a5.121,5.121,0,0,1-.3,3.484,3.7,3.7,0,0,1-2.413,2.059A3.408,3.408,0,0,1,347.693,179.027Zm-.62-8.665a2.767,2.767,0,0,0-.694.087c-1.783.455-2.787,2.582-2.237,4.743s2.448,3.548,4.236,3.091a3.052,3.052,0,0,0,1.982-1.706,4.462,4.462,0,0,0,.254-3.036h0A4.467,4.467,0,0,0,348.936,171,3.191,3.191,0,0,0,347.073,170.362Z" fill="#d03711"/>
            </g>
            <g id="Grupo_74831" data-name="Grupo 74831">
              <rect id="Rect치ngulo_33255" data-name="Rect치ngulo 33255" width="4.413" height="0.658" transform="matrix(0.981, -0.195, 0.195, 0.981, 328.732, 180.141)" fill="#d03711"/>
            </g>
            <g id="Grupo_74832" data-name="Grupo 74832">
              <path id="Trazado_111360" data-name="Trazado 111360" d="M341.214,176.854l-.519-.4c.065-.083,1.6-2.01,3.336-1.223l-.269.6C342.49,175.253,341.225,176.838,341.214,176.854Z" fill="#d03711"/>
            </g>
          </g>
        </g>
        <g id="Grupo_74842" data-name="Grupo 74842">
          <g id="Grupo_74835" data-name="Grupo 74835">
            <path id="Trazado_111361" data-name="Trazado 111361" d="M310.389,261.008s-4.637,11.7-6.771,33.408-12.939,127.336-12.939,127.336,36.156,4.421,48.13,1.8c0,0-4.375-109.579-2.218-129.417l8.431,128.949s28.972,1.638,45.619-3.228c0,0-24.754-133.459-36.04-158.178" fill="#ef7926"/>
            <path id="Trazado_111362" data-name="Trazado 111362" d="M336.013,309.839q-.2-1.191-.392-2.384c-1.936,27.047-4.035,54.187-6.983,81.1-1.029,9.4-.109,22.761-9.715,28.018-4.286,2.346-9.259,3.082-14.008,3.875-3.791.634-7.582,1.189-11.387,1.633,8.749.972,35.34,3.648,45.281,1.473C338.809,423.553,335.728,346.375,336.013,309.839Z" fill="#e26a1a"/>
            <path id="Trazado_111363" data-name="Trazado 111363" d="M319.143,268.971c11.666-1.929,24.824-1.61,35.464-7.278,0,0,0-1.131-.006-1.135l-44.212.45s-2.481,6.266-4.648,18.122C308.655,274.079,312.673,270.041,319.143,268.971Z" fill="#e26a1a"/>
            <path id="Trazado_111364" data-name="Trazado 111364" d="M377.207,419.531c-5.932-.786-13.011-1.1-18.51-3.6-3.96-1.8-6.28-4.943-7.56-9.038-1.931-6.18-2.69-12.98-3.715-19.356-2.421-15.067-3.149-30.341-5.394-45.429-.967-6.495-2.276-12.925-3.566-19.356l6.56,100.332s25.484,1.44,42.383-2.395C383.893,420.564,380.285,419.938,377.207,419.531Z" fill="#e26a1a"/>
          </g>
          <g id="Grupo_74841" data-name="Grupo 74841">
            <g id="Grupo_74836" data-name="Grupo 74836">
              <path id="Trazado_111365" data-name="Trazado 111365" d="M300.773,421.7q-.2-15.894.339-31.787t1.829-31.732q1.278-15.758,3.29-31.445,2.033-15.855,4.816-31.6,2.762-15.625,6.255-31.111.432-1.914.876-3.827c.111-.479-.627-.684-.738-.2q-3.6,15.534-6.464,31.225-2.841,15.568-4.951,31.259-2.121,15.771-3.506,31.629-1.382,15.832-2.02,31.719-.642,15.961-.53,31.942.014,1.967.039,3.934a.383.383,0,0,0,.765,0Z" fill="#f3d1a4"/>
            </g>
            <g id="Grupo_74837" data-name="Grupo 74837">
              <path id="Trazado_111366" data-name="Trazado 111366" d="M324.5,258.129c.048,10.676-.221,21.35-.632,32.018-.42,10.879-.986,21.751-1.54,32.624-.554,10.892-1.1,21.785-1.464,32.685-.364,10.79-.44,21.575-.455,32.37-.014,10.471-.035,20.944-.248,31.414q-.037,1.847-.084,3.693a.383.383,0,0,0,.765,0c.259-10.321.3-20.646.326-30.97.021-10.824.016-21.643.333-32.463.32-10.88.837-21.753,1.385-32.624s1.129-21.763,1.583-32.65c.447-10.706.774-21.418.8-32.133q0-1.983-.005-3.964a.383.383,0,0,0-.765,0Z" fill="#f3d1a4"/>
            </g>
            <g id="Grupo_74838" data-name="Grupo 74838">
              <path id="Trazado_111367" data-name="Trazado 111367" d="M334.076,260.314q1.47,13.355,2.092,26.786.174,3.8.279,7.6a.383.383,0,0,0,.765,0q-.373-13.418-1.6-26.793-.351-3.8-.769-7.6c-.054-.485-.819-.49-.765,0Z" fill="#f3d1a4"/>
            </g>
            <g id="Grupo_74839" data-name="Grupo 74839">
              <path id="Trazado_111368" data-name="Trazado 111368" d="M342.292,261.52c2.348,10.334,4.113,20.793,5.467,31.3s2.3,21.04,3.071,31.594c.763,10.53,1.34,21.071,1.935,31.612.6,10.595,1.217,21.191,2.063,31.77.835,10.445,1.895,20.874,3.373,31.248q.284,2,.59,3.989c.074.485.812.279.738-.2-1.606-10.494-2.758-21.052-3.656-31.63s-1.543-21.167-2.149-31.761c-.6-10.542-1.163-21.086-1.889-31.62-.727-10.56-1.621-21.111-2.89-31.621-1.253-10.378-2.871-20.717-5.047-30.944q-.42-1.971-.868-3.938c-.109-.48-.847-.277-.738.2Z" fill="#f3d1a4"/>
            </g>
            <g id="Grupo_74840" data-name="Grupo 74840">
              <path id="Trazado_111369" data-name="Trazado 111369" d="M350.963,260.844q3.94,15.474,7.475,31.048t6.646,31.218q3.115,15.645,5.815,31.368t4.979,31.5q2.295,15.882,4.163,31.82.228,1.949.45,3.9c.056.484.822.489.766,0q-1.8-15.81-4.02-31.568-2.221-15.789-4.863-31.516-2.655-15.807-5.73-31.542t-6.571-31.393q-3.495-15.66-7.407-31.223-.48-1.906-.965-3.813a.383.383,0,0,0-.738.2Z" fill="#f3d1a4"/>
            </g>
          </g>
        </g>
        <g id="Grupo_74868" data-name="Grupo 74868">
          <path id="Trazado_111370" data-name="Trazado 111370" d="M354.343,208.142a12.05,12.05,0,0,1,6.527,5.866,51.7,51.7,0,0,1,3.285,8.353c2.536,7.262,6.206,14.416,6.094,22.108A10.486,10.486,0,0,1,368.2,251.2c-1.716,2.013-4.421,2.822-6.969,3.533a11.369,11.369,0,0,1-4.191.62,7.348,7.348,0,0,1-5.266-3.649,16.207,16.207,0,0,1-1.953-6.295c-.806-5.811-.392-11.712.022-17.563.41-5.789.865-11.747,3.44-16.948" fill="#8969e2"/>
          <g id="Grupo_74867" data-name="Grupo 74867">
            <path id="Trazado_111371" data-name="Trazado 111371" d="M324.838,202.88c-5.269,1.469-12.494,4.085-17.106,7.026-.718.458-.289,1.436-.686,2.19-.872,1.653,1.223,2.762,1.932,4.491,1.942,4.734,1,10.112,1.715,15.179,1.067,7.591,5.859,14.579,5.364,22.23a3.458,3.458,0,0,0,.167,1.786c.478.955,1.73,1.155,2.8,1.233q14.278,1.045,28.6,1.4a2.616,2.616,0,0,0,1.6-.308,2.7,2.7,0,0,0,.83-1.828,52.325,52.325,0,0,1,3.141-10.8c1.45-3.52,3.306-6.953,3.8-10.727a31.022,31.022,0,0,0,.113-5.056q-.258-8.083-.517-16.168a5.59,5.59,0,0,0-.542-2.692,5.345,5.345,0,0,0-2.179-1.786,61.613,61.613,0,0,0-12.192-5.047,5.786,5.786,0,0,0-2.606-.327c-1.269.226-2.241,1.215-3.348,1.876-2.779,1.658-8.775-.209-10.885-2.663" fill="#8969e2"/>
            <path id="Trazado_111372" data-name="Trazado 111372" d="M353.56,210.864a4.346,4.346,0,0,0-2.122-3.726c-1.224-.865-2.659-1.4-3.867-2.29a4.205,4.205,0,0,1-1.978-3.788,5.536,5.536,0,0,1,.71-1.741l1.84-3.355a5.18,5.18,0,0,0,.064-5.65l-1.6-4.207a1,1,0,0,1-.082-.722c.221-.534,1.027-.3,1.5.031a36.053,36.053,0,0,1,4.75,3.934,16.96,16.96,0,0,1,4.013,5.554,45.7,45.7,0,0,1,1.328,4.685,64.612,64.612,0,0,0,3.309,8.03,127.25,127.25,0,0,1,5.117,14.942,50.42,50.42,0,0,1,2,8.552,48.358,48.358,0,0,1,.174,6.416,49.14,49.14,0,0,1-.909,10.037c-.434,1.9-1.56,4.105-3.505,4.077-1.466-.021-2.543-1.348-3.312-2.6a45.522,45.522,0,0,1-5.851-17.2,180.483,180.483,0,0,1-1.587-20.985" fill="#ff9670"/>
            <path id="Trazado_111373" data-name="Trazado 111373" d="M316.278,248.85c12.156-1.332,24.447,2.292,36.6.977,2.507-.271,5.4-.632,7.218,1.118,1.641,1.581,1.571,4.4.271,6.275a8.98,8.98,0,0,1-5.771,3.338,52.78,52.78,0,0,1-6.811.507c-2.892.181-5.751.71-8.637.968a46.323,46.323,0,0,1-21.344-3.159" fill="#ff9670"/>
            <g id="Grupo_74843" data-name="Grupo 74843">
              <path id="Trazado_111374" data-name="Trazado 111374" d="M324.472,202.65s9.307,6.474,14.776.782A77.249,77.249,0,0,1,347.263,206s-4.266,8.371-12.683,1.148c0,0-8.048,10.6-16.165-1.952Z" fill="#7359d1"/>
              <path id="Trazado_111375" data-name="Trazado 111375" d="M324.678,202.167s9.3,5.116,14.016.2c0,0,2.978,1.4,6.362,2.72,0,0-3.68,7.221-10.941.99,0,0-6.943,9.146-13.945-1.684Z" fill="#a694ea"/>
            </g>
            <path id="Trazado_111376" data-name="Trazado 111376" d="M308.709,209.936s3.819,1.079,5.9,16.926,3.806,16.327,3.806,16.327,18.432,5.127,21.484,6.577L341,263.051s-26.475.97-35.2-2.043-3.841-41.189-3.841-41.189S303.689,209.017,308.709,209.936Z" fill="#8969e2"/>
            <g id="Grupo_74862" data-name="Grupo 74862">
              <g id="Grupo_74844" data-name="Grupo 74844">
                <path id="Trazado_111377" data-name="Trazado 111377" d="M311.742,217.932a.383.383,0,0,0,0-.765.383.383,0,0,0,0,.765Z" fill="#f3d1a4"/>
              </g>
              <g id="Grupo_74845" data-name="Grupo 74845">
                <path id="Trazado_111378" data-name="Trazado 111378" d="M304.826,232.393a.383.383,0,0,0,0-.765.383.383,0,0,0,0,.765Z" fill="#f3d1a4"/>
              </g>
              <g id="Grupo_74846" data-name="Grupo 74846">
                <path id="Trazado_111379" data-name="Trazado 111379" d="M320.545,237.213a.383.383,0,0,0,0-.765.383.383,0,0,0,0,.765Z" fill="#f3d1a4"/>
              </g>
              <g id="Grupo_74847" data-name="Grupo 74847">
                <path id="Trazado_111380" data-name="Trazado 111380" d="M307.97,249.369a.383.383,0,0,0,0-.765.383.383,0,0,0,0,.765Z" fill="#f3d1a4"/>
              </g>
              <g id="Grupo_74848" data-name="Grupo 74848">
                <path id="Trazado_111381" data-name="Trazado 111381" d="M313,260.477a.383.383,0,0,0,0-.766.383.383,0,0,0,0,.766Z" fill="#f3d1a4"/>
              </g>
              <g id="Grupo_74849" data-name="Grupo 74849">
                <path id="Trazado_111382" data-name="Trazado 111382" d="M325.784,249.788a.383.383,0,0,0,0-.765.383.383,0,0,0,0,.765Z" fill="#f3d1a4"/>
              </g>
              <g id="Grupo_74850" data-name="Grupo 74850">
                <path id="Trazado_111383" data-name="Trazado 111383" d="M337.311,260.058a.383.383,0,0,0,0-.766.383.383,0,0,0,0,.766Z" fill="#f3d1a4"/>
              </g>
              <g id="Grupo_74851" data-name="Grupo 74851">
                <path id="Trazado_111384" data-name="Trazado 111384" d="M337.311,242.662a.383.383,0,0,0,0-.765.383.383,0,0,0,0,.765Z" fill="#f3d1a4"/>
              </g>
              <g id="Grupo_74852" data-name="Grupo 74852">
                <path id="Trazado_111385" data-name="Trazado 111385" d="M325.994,228.411a.383.383,0,0,0,0-.765.383.383,0,0,0,0,.765Z" fill="#f3d1a4"/>
              </g>
              <g id="Grupo_74853" data-name="Grupo 74853">
                <path id="Trazado_111386" data-name="Trazado 111386" d="M318.03,207.663a.383.383,0,0,0,0-.766.383.383,0,0,0,0,.766Z" fill="#f3d1a4"/>
              </g>
              <g id="Grupo_74854" data-name="Grupo 74854">
                <path id="Trazado_111387" data-name="Trazado 111387" d="M326.2,216.465a.383.383,0,0,0,0-.765.383.383,0,0,0,0,.765Z" fill="#f3d1a4"/>
              </g>
              <g id="Grupo_74855" data-name="Grupo 74855">
                <path id="Trazado_111388" data-name="Trazado 111388" d="M339.407,226.944a.383.383,0,0,0,0-.765.383.383,0,0,0,0,.765Z" fill="#f3d1a4"/>
              </g>
              <g id="Grupo_74856" data-name="Grupo 74856">
                <path id="Trazado_111389" data-name="Trazado 111389" d="M342.131,214.788a.383.383,0,0,0,0-.765.383.383,0,0,0,0,.765Z" fill="#f3d1a4"/>
              </g>
              <g id="Grupo_74857" data-name="Grupo 74857">
                <path id="Trazado_111390" data-name="Trazado 111390" d="M351.772,210.178a.383.383,0,0,0,0-.766.383.383,0,0,0,0,.766Z" fill="#f3d1a4"/>
              </g>
              <g id="Grupo_74858" data-name="Grupo 74858">
                <path id="Trazado_111391" data-name="Trazado 111391" d="M351.772,223.8a.383.383,0,0,0,0-.765.383.383,0,0,0,0,.765Z" fill="#f3d1a4"/>
              </g>
              <g id="Grupo_74859" data-name="Grupo 74859">
                <path id="Trazado_111392" data-name="Trazado 111392" d="M350.724,238.68a.383.383,0,0,0,0-.765.383.383,0,0,0,0,.765Z" fill="#f3d1a4"/>
              </g>
              <g id="Grupo_74860" data-name="Grupo 74860">
                <path id="Trazado_111393" data-name="Trazado 111393" d="M351.353,247.692a.383.383,0,0,0,0-.765.383.383,0,0,0,0,.765Z" fill="#f3d1a4"/>
              </g>
              <g id="Grupo_74861" data-name="Grupo 74861">
                <path id="Trazado_111394" data-name="Trazado 111394" d="M362.251,252.932a.383.383,0,0,0,0-.766.383.383,0,0,0,0,.766Z" fill="#f3d1a4"/>
              </g>
            </g>
            <g id="Grupo_74866" data-name="Grupo 74866">
              <g id="Grupo_74863" data-name="Grupo 74863">
                <path id="Trazado_111395" data-name="Trazado 111395" d="M312.112,223.915q.372,4.82.743,9.639c.2,2.6.188,5.368,1.029,7.86a7.144,7.144,0,0,0,1.64,2.795,6.568,6.568,0,0,0,3.259,1.674,30.17,30.17,0,0,0,4.23.509c1.6.127,3.194.219,4.794.286,3.609.151,7.221.178,10.833.2a.383.383,0,0,0,0-.765,168.693,168.693,0,0,1-18.126-.723,8.252,8.252,0,0,1-3.784-1.17,5.592,5.592,0,0,1-1.969-2.629c-.892-2.29-.9-4.867-1.082-7.285l-.8-10.4c-.038-.488-.8-.492-.766,0Z" fill="#7359d1"/>
              </g>
              <g id="Grupo_74864" data-name="Grupo 74864">
                <path id="Trazado_111396" data-name="Trazado 111396" d="M309.964,243.225a32.811,32.811,0,0,1,3.863.231.385.385,0,0,0,.383-.383.391.391,0,0,0-.383-.382,32.391,32.391,0,0,0-3.863-.231.383.383,0,0,0,0,.765Z" fill="#7359d1"/>
              </g>
              <g id="Grupo_74865" data-name="Grupo 74865">
                <path id="Trazado_111397" data-name="Trazado 111397" d="M348.951,224.283c1.369,6.468,2.746,13.012,2.692,19.656a39.9,39.9,0,0,1-.439,5.694c-.074.482.664.689.738.2,1.021-6.709.173-13.483-1.1-20.1-.362-1.891-.759-3.775-1.158-5.659-.1-.482-.84-.278-.738.2Z" fill="#7359d1"/>
              </g>
            </g>
          </g>
        </g>
      </g>
      <g id="Grupo_74909" data-name="Grupo 74909">
        <g id="Grupo_74870" data-name="Grupo 74870">
          <path id="Trazado_111398" data-name="Trazado 111398" d="M169.965,416.171a38.74,38.74,0,0,0-1.091,16.089s-7.612,4.023-15.072-1.091c0,0,6.2-4.715,4.255-17.362" fill="#ff9670"/>
          <path id="Trazado_111399" data-name="Trazado 111399" d="M136.452,439.887a2.551,2.551,0,0,1,1.032-1.131c2.53-1.438,8.692-4.849,18.006-9.428a32.29,32.29,0,0,0,13.141.753,62.322,62.322,0,0,1,.746,9.493C164.526,439.788,145.806,440.54,136.452,439.887Z" fill="#d03711"/>
          <path id="Trazado_111400" data-name="Trazado 111400" d="M169.377,439.574c-.023,1.072-.066,2.1-.14,2.976H136.182v-1.555a2.558,2.558,0,0,1,.27-1.108C145.806,440.54,164.526,439.788,169.377,439.574Z" fill="#400e09"/>
          <circle id="Elipse_4647" data-name="Elipse 4647" cx="0.585" cy="0.585" r="0.585" transform="translate(146.212 434.153)" fill="#400e09"/>
          <path id="Trazado_111401" data-name="Trazado 111401" d="M151.765,432.861a.586.586,0,1,1-.586-.585A.586.586,0,0,1,151.765,432.861Z" fill="#400e09"/>
          <path id="Trazado_111402" data-name="Trazado 111402" d="M156.087,430.575a.585.585,0,1,1-.585-.586A.585.585,0,0,1,156.087,430.575Z" fill="#400e09"/>
        </g>
        <g id="Grupo_74871" data-name="Grupo 74871">
          <path id="Trazado_111403" data-name="Trazado 111403" d="M202.37,414.483s.667,12.766-1.068,18.523c0,0,7.612,4.023,15.072-1.091,0,0-5.334-1.841-2.857-22.386" fill="#ff9670"/>
          <path id="Trazado_111404" data-name="Trazado 111404" d="M233.724,440.633a2.545,2.545,0,0,0-1.032-1.131c-2.53-1.438-8.692-4.849-18.006-9.428a32.287,32.287,0,0,1-13.14.753,62.253,62.253,0,0,0-.747,9.492C205.651,440.533,224.37,441.286,233.724,440.633Z" fill="#d03711"/>
          <path id="Trazado_111405" data-name="Trazado 111405" d="M200.8,440.319c.024,1.073.067,2.1.14,2.977h33.056V441.74a2.544,2.544,0,0,0-.271-1.107C224.37,441.286,205.651,440.533,200.8,440.319Z" fill="#400e09"/>
          <path id="Trazado_111406" data-name="Trazado 111406" d="M215.943,431.7a.585.585,0,1,1-.586-.586A.585.585,0,0,1,215.943,431.7Z" fill="#400e09"/>
          <path id="Trazado_111407" data-name="Trazado 111407" d="M225.946,436.522a.585.585,0,1,1-.585-.586A.585.585,0,0,1,225.946,436.522Z" fill="#400e09"/>
          <path id="Trazado_111408" data-name="Trazado 111408" d="M220.444,434.235a.585.585,0,1,1-.585-.585A.585.585,0,0,1,220.444,434.235Z" fill="#400e09"/>
        </g>
        <g id="Grupo_74872" data-name="Grupo 74872">
          <path id="Trazado_111409" data-name="Trazado 111409" d="M192.928,160.573c1.569,6.17.283,12.809-2.475,18.546a2.924,2.924,0,0,0-.423,2.253,2.577,2.577,0,0,0,1.252,1.174,16.293,16.293,0,0,0,15.932-.255.846.846,0,0,0,.38-.358c.136-.324-.146-.658-.382-.919-1.313-1.448-.625-3.174-1.2-5.044-2.444-8.017-.935-15.313,1.9-23.008" fill="#ff9670"/>
          <path id="Trazado_111410" data-name="Trazado 111410" d="M193.546,167.878a20.528,20.528,0,0,0,7.253-3.668,13.871,13.871,0,0,0,4.413-5.3,4.091,4.091,0,0,1,1.248-1.587c.425-1.443.915-2.894,1.454-4.359l-14.986,7.611a35.833,35.833,0,0,1,.618,7.305Z" fill="#fc7f51"/>
        </g>
        <g id="Grupo_74877" data-name="Grupo 74877">
          <path id="Trazado_111411" data-name="Trazado 111411" d="M196.9,129.891a7.551,7.551,0,0,0-4.77,1.224,17.909,17.909,0,0,0-8,9.846,28.336,28.336,0,0,0-1.06,5.058c-.539,4.03-1.1,5.583-.933,9.645a38.938,38.938,0,0,0,1.623,7.477,3.663,3.663,0,0,0,2.875,2.412c1.645.526,3.882.084,5.589-.176a18.491,18.491,0,0,0,15.12-22.915" fill="#ff9670"/>
          <path id="Trazado_111412" data-name="Trazado 111412" d="M220.333,133.245a22.474,22.474,0,0,0-6.686,1.562c.241-.9,3.76-5.684,1.343-4.722-.232,1.289-4.291,6.067-2.178,6.151C213.766,134.936,222.683,134.566,220.333,133.245Z" fill="#2d0e0b"/>
          <g id="Grupo_74875" data-name="Grupo 74875">
            <path id="Trazado_111413" data-name="Trazado 111413" d="M198.5,156.584c-.345,1.4-2.3,2.128-4.357,1.621s-3.452-2.057-3.107-3.46,2.3-2.128,4.358-1.621S198.847,155.181,198.5,156.584Z" fill="#fc7f51"/>
            <g id="Grupo_74873" data-name="Grupo 74873">
              <path id="Trazado_111414" data-name="Trazado 111414" d="M192.145,146.814c2.106-.1,4.795-.021,5.892,1.18.545.6,1.206.465.706-.181-1.551-2-3.645-2.2-6.716-2.3a.641.641,0,0,0-.571.735.614.614,0,0,0,.689.563Z" fill="#2d0e0b"/>
            </g>
            <g id="Grupo_74874" data-name="Grupo 74874">
              <path id="Trazado_111415" data-name="Trazado 111415" d="M186.865,144.007a17.1,17.1,0,0,0-3.145-1.625c-.054.179-.113.355-.169.532-.008.16-.03.316-.05.473a17.623,17.623,0,0,1,2.593,1.6.586.586,0,0,0,.844-.091A.61.61,0,0,0,186.865,144.007Z" fill="#2d0e0b"/>
            </g>
            <path id="Trazado_111416" data-name="Trazado 111416" d="M185.233,147.342c-.131.531-.485.9-.791.825s-.449-.567-.319-1.1.486-.9.792-.825S185.364,146.811,185.233,147.342Z" fill="#2d0e0b"/>
            <path id="Trazado_111417" data-name="Trazado 111417" d="M194.119,150.309c-.148.6-.6,1-1.021.9s-.634-.672-.487-1.271.605-1,1.021-.9S194.266,149.71,194.119,150.309Z" fill="#2d0e0b"/>
            <path id="Trazado_111418" data-name="Trazado 111418" d="M186.726,153.226a2.7,2.7,0,0,1-.82-.688,4.946,4.946,0,0,0,2.365-3.475.375.375,0,0,0-.26-.445.366.366,0,0,0-.445.26,4.274,4.274,0,0,1-2.4,3.236.367.367,0,0,0-.13.5,3.413,3.413,0,0,0,1.324,1.244C186.775,154.074,187.142,153.444,186.726,153.226Z" fill="#f46e45"/>
            <path id="Trazado_111419" data-name="Trazado 111419" d="M184.43,156.28a5.39,5.39,0,0,0,4.129,1.122S184.72,159.493,184.43,156.28Z" fill="#e53e3e"/>
          </g>
          <path id="Trazado_111420" data-name="Trazado 111420" d="M217.981,144.508c-.269-3.809-.644-7.149-3.976-9.015l-.493-.538a9.718,9.718,0,0,0-3.526-5.89,15.967,15.967,0,0,0-4.144-2.415c-7.11-2.538-17.067.015-22.741,1.923l1.366,2.072a30.468,30.468,0,0,1-5.786-.407,24.521,24.521,0,0,0,4.327,9.454c2.622,3.23,6.4,4.556,10.357,5.824s6.445,2.6,10.567,3.161c.461.063-.218,5.846.176,6.094.673.421,2.88-3.261,3.059-2.488,1.055,4.555-3.408,7.862-2.213,12.382,3.461-1.092,8.445-5.693,10.354-9A20.053,20.053,0,0,0,217.981,144.508Z" fill="#2d0e0b"/>
          <g id="Grupo_74876" data-name="Grupo 74876">
            <path id="Trazado_111421" data-name="Trazado 111421" d="M203.306,155.568a15.876,15.876,0,0,1,4.06-5.639,3.016,3.016,0,0,1,1.28-.54,1.416,1.416,0,0,1,1.267.448,1.885,1.885,0,0,1,.336,1.006,6.517,6.517,0,0,1-4.492,6.88,2.032,2.032,0,0,1-2.3-.4,2.358,2.358,0,0,1-.151-1.751" fill="#ff9670"/>
            <path id="Trazado_111422" data-name="Trazado 111422" d="M204.795,153.962a1.979,1.979,0,0,0-.058.9.646.646,0,0,0,.562.518,1.606,1.606,0,0,0,1-.3,3.249,3.249,0,0,0,.815-.8,1.854,1.854,0,0,0,.45-1.569c-.161-.428-.78-.594-1.38-.273a3.136,3.136,0,0,0-.966.925" fill="#fc7f51"/>
          </g>
        </g>
        <g id="Grupo_74883" data-name="Grupo 74883">
          <path id="Trazado_111423" data-name="Trazado 111423" d="M214.268,244.372S225.1,261.1,226.5,280.632s-2.872,144.416-2.872,144.416l-25.469.908s1.926-108.816-.5-122.314L173.593,425.063l-25.705-.7s21.562-165.336,30.084-178.695Z" fill="#400e09"/>
          <g id="Grupo_74878" data-name="Grupo 74878" opacity="0.5">
            <path id="Trazado_111424" data-name="Trazado 111424" d="M192.364,265.328a58.606,58.606,0,0,0-.672,10.545c.085,3.054.41,6.322,2.277,8.862a7.624,7.624,0,0,0,3.535,2.728.386.386,0,0,0,.47-.267c1.837-6.843,1.015-14.015,2.247-20.947.086-.481-.652-.688-.738-.2-1.231,6.93-.411,14.109-2.246,20.947l.47-.268c-2.6-.94-4.107-3.5-4.725-6.068a22.565,22.565,0,0,1-.519-4.6q-.078-2.456.056-4.913.153-2.82.583-5.614c.074-.482-.664-.689-.738-.2Z" fill="#f3d1a4"/>
          </g>
          <g id="Grupo_74879" data-name="Grupo 74879" opacity="0.5">
            <path id="Trazado_111425" data-name="Trazado 111425" d="M208.589,264.179c3.333,5.2,6.972,10.692,12.915,13.128.456.186.654-.554.2-.738-5.731-2.349-9.252-7.774-12.458-12.777-.265-.413-.928-.03-.661.387Z" fill="#f3d1a4"/>
          </g>
          <g id="Grupo_74880" data-name="Grupo 74880" opacity="0.5">
            <path id="Trazado_111426" data-name="Trazado 111426" d="M171.689,273.874a20.53,20.53,0,0,0,6.472-5.193,58.846,58.846,0,0,0,5.526-7.106c.272-.412-.39-.8-.661-.387a57.5,57.5,0,0,1-5.406,6.952,20,20,0,0,1-6.317,5.073c-.448.2-.059.863.386.661Z" fill="#f3d1a4"/>
          </g>
          <g id="Grupo_74881" data-name="Grupo 74881" opacity="0.5">
            <path id="Trazado_111427" data-name="Trazado 111427" d="M199.3,308.734q2.72,22,4.072,44.148,1.343,22.019,1.319,44.092-.014,12.429-.461,24.853c-.018.492.747.492.765,0q.795-22.158.216-44.335-.58-22.052-2.524-44.039-1.1-12.381-2.622-24.719c-.06-.482-.826-.488-.765,0Z" fill="#f3d1a4"/>
          </g>
          <g id="Grupo_74882" data-name="Grupo 74882" opacity="0.5">
            <path id="Trazado_111428" data-name="Trazado 111428" d="M166.427,419.005c.835-7.85,2.121-15.645,3.663-23.386s3.34-15.443,5.2-23.121c1.774-7.341,3.545-14.685,5.447-21.994,1.866-7.168,3.884-14.3,6.27-21.314a162.047,162.047,0,0,1,8.477-20.55q.627-1.25,1.282-2.487c.23-.435-.431-.822-.661-.386a155.209,155.209,0,0,0-8.848,20.383c-2.511,7.04-4.619,14.216-6.543,21.435-1.949,7.315-3.723,14.676-5.513,22.031-1.867,7.676-3.7,15.364-5.3,23.1s-2.962,15.5-3.9,23.333q-.179,1.478-.335,2.955c-.052.49.714.486.766,0Z" fill="#f3d1a4"/>
          </g>
        </g>
        <g id="Grupo_74908" data-name="Grupo 74908">
          <path id="Trazado_111429" data-name="Trazado 111429" d="M178.693,178.52c-3.4,1.208-5.936,4.811-8.1,8.4a124.76,124.76,0,0,0-9.774,20.294,3.132,3.132,0,0,0-.284,1.694,2.42,2.42,0,0,0,.937,1.311q7.548,6.448,15.419,12.241c.276.2.617.408.895.211a1.329,1.329,0,0,0,.364-.84c2.375-13.05,1.944-26.639,1.5-40.03" fill="#1e976f"/>
          <path id="Trazado_111430" data-name="Trazado 111430" d="M220.424,177.779c4.376,1.209,7.629,4.812,10.4,8.4a115.431,115.431,0,0,1,12.563,20.294,1.911,1.911,0,0,1-.839,3q-9.7,6.447-19.818,12.241a1.225,1.225,0,0,1-1.15.21,1.206,1.206,0,0,1-.468-.839c-3.053-13.051-2.5-26.64-1.926-40.03" fill="#1e976f"/>
          <g id="Grupo_74907" data-name="Grupo 74907">
            <g id="Grupo_74884" data-name="Grupo 74884">
              <path id="Trazado_111431" data-name="Trazado 111431" d="M192.549,173.4c2.684,1.078,8.142,1.557,10.849.539a6.107,6.107,0,0,1,1.978-.56,4.863,4.863,0,0,1,1.46.277l12.558,3.756a2.35,2.35,0,0,1,2.122,2.56q.649,6.224,1.3,12.446c.381,3.649.762,7.3.808,10.972.045,3.65-.241,7.294-.466,10.938-.921,14.924-.811,29.89-.98,44.841a2.086,2.086,0,0,1-.569,1.729,2.035,2.035,0,0,1-.906.3c-16.058,2.547-32.448.469-48.573-1.611a88.92,88.92,0,0,0,.354-11.5c-.2-3.571.615-17.683.342-21.249-.488-6.388-1.272-2.224-.616-8.6q1.862-18.067,3.721-36.134a5.366,5.366,0,0,1,.725-2.592,5.2,5.2,0,0,1,2.329-1.573,86.95,86.95,0,0,1,13.566-4.539" fill="#1e976f"/>
              <path id="Trazado_111432" data-name="Trazado 111432" d="M222.326,236.977c-.887,4.27-1.951,8.8-4.441,12.457-4.181,6.134-12.937,6.619-19.687,6.995-6.821.381-16.315,1.064-21.735-3.929a17.175,17.175,0,0,1-4.012-5.716c0,.514.012.953.031,1.294a88.92,88.92,0,0,1-.354,11.5c16.125,2.08,32.515,4.158,48.573,1.611a2.035,2.035,0,0,0,.906-.3,2.086,2.086,0,0,0,.569-1.729c.085-7.48.1-14.963.208-22.443C222.366,236.807,222.344,236.891,222.326,236.977Z" fill="#06593b" opacity="0.5"/>
              <path id="Trazado_111433" data-name="Trazado 111433" d="M243.392,206.477a115.558,115.558,0,0,0-10.59-17.658,51.736,51.736,0,0,1,1.891,11.722c.467,7.661-4.726,14.1-9.706,19.867q8.938-5.208,17.566-10.926a1.911,1.911,0,0,0,.839-3Z" fill="#06593b" opacity="0.5"/>
            </g>
            <g id="Grupo_74885" data-name="Grupo 74885">
              <path id="Trazado_111434" data-name="Trazado 111434" d="M163.928,208.164A38.375,38.375,0,0,1,166,203.691c.234-.433-.426-.819-.661-.386a39.841,39.841,0,0,0-2.146,4.656.385.385,0,0,0,.267.471.392.392,0,0,0,.471-.268Z" fill="#06593b"/>
            </g>
            <g id="Grupo_74891" data-name="Grupo 74891">
              <g id="Grupo_74886" data-name="Grupo 74886">
                <path id="Trazado_111435" data-name="Trazado 111435" d="M221.113,214.317q1.408,2.679,2.588,5.471a.386.386,0,0,0,.523.137.392.392,0,0,0,.138-.524q-1.179-2.788-2.588-5.47c-.23-.437-.89-.05-.661.386Z" fill="#06593b"/>
              </g>
              <g id="Grupo_74887" data-name="Grupo 74887">
                <path id="Trazado_111436" data-name="Trazado 111436" d="M224.933,211.842a50.472,50.472,0,0,1,2.8,5.305c.2.448.863.059.661-.386a50.586,50.586,0,0,0-2.8-5.306.383.383,0,0,0-.661.387Z" fill="#06593b"/>
              </g>
              <g id="Grupo_74888" data-name="Grupo 74888">
                <path id="Trazado_111437" data-name="Trazado 111437" d="M229.127,208.664a35.036,35.036,0,0,0,2.341,5.306c.236.433.9.047.661-.386a33.814,33.814,0,0,1-2.264-5.123c-.16-.463-.9-.264-.738.2Z" fill="#06593b"/>
              </g>
              <g id="Grupo_74889" data-name="Grupo 74889">
                <path id="Trazado_111438" data-name="Trazado 111438" d="M232.924,206.364a42.69,42.69,0,0,1,2.376,4.554.386.386,0,0,0,.524.138.393.393,0,0,0,.137-.524,42.694,42.694,0,0,0-2.376-4.554.383.383,0,0,0-.661.386Z" fill="#06593b"/>
              </g>
              <g id="Grupo_74890" data-name="Grupo 74890">
                <path id="Trazado_111439" data-name="Trazado 111439" d="M237.692,203.867a35.469,35.469,0,0,1,2.122,4.229.4.4,0,0,0,.471.268.386.386,0,0,0,.267-.471,36.855,36.855,0,0,0-2.2-4.412.383.383,0,0,0-.661.386Z" fill="#06593b"/>
              </g>
            </g>
            <g id="Grupo_74900" data-name="Grupo 74900">
              <g id="Grupo_74892" data-name="Grupo 74892">
                <path id="Trazado_111440" data-name="Trazado 111440" d="M175.186,252.1q-.327,3.07-.653,6.142c-.052.49.714.486.766,0q.326-3.07.652-6.142c.052-.489-.714-.486-.765,0Z" fill="#06593b"/>
              </g>
              <g id="Grupo_74893" data-name="Grupo 74893">
                <path id="Trazado_111441" data-name="Trazado 111441" d="M180.4,258.461a41.024,41.024,0,0,0,.609-6.353.383.383,0,0,0-.766,0,39.5,39.5,0,0,1-.581,6.149c-.084.482.653.689.738.2Z" fill="#06593b"/>
              </g>
              <g id="Grupo_74894" data-name="Grupo 74894">
                <path id="Trazado_111442" data-name="Trazado 111442" d="M185.8,258.932q.232-3.414.463-6.829c.034-.491-.732-.489-.765,0q-.231,3.414-.463,6.829c-.034.492.732.489.765,0Z" fill="#06593b"/>
              </g>
              <g id="Grupo_74895" data-name="Grupo 74895">
                <path id="Trazado_111443" data-name="Trazado 111443" d="M192.358,259.384a21.759,21.759,0,0,1,.524-6.955c.115-.479-.623-.683-.738-.2a22.429,22.429,0,0,0-.551,7.159c.041.487.807.492.765,0Z" fill="#06593b"/>
              </g>
              <g id="Grupo_74896" data-name="Grupo 74896">
                <path id="Trazado_111444" data-name="Trazado 111444" d="M198.148,260.18q.131-3.694,0-7.39c-.018-.491-.784-.493-.766,0q.137,3.695.006,7.39c-.018.492.748.492.765,0Z" fill="#06593b"/>
              </g>
              <g id="Grupo_74897" data-name="Grupo 74897">
                <path id="Trazado_111445" data-name="Trazado 111445" d="M204.884,259.841a38.051,38.051,0,0,0,.284-6.481c-.02-.491-.785-.493-.765,0a38.153,38.153,0,0,1-.284,6.481c-.027.207.195.381.382.383a.392.392,0,0,0,.383-.383Z" fill="#06593b"/>
              </g>
              <g id="Grupo_74898" data-name="Grupo 74898">
                <path id="Trazado_111446" data-name="Trazado 111446" d="M210.466,260.409q.241-3.584.484-7.168c.033-.492-.733-.49-.766,0q-.242,3.584-.484,7.168c-.033.492.733.49.766,0Z" fill="#06593b"/>
              </g>
              <g id="Grupo_74899" data-name="Grupo 74899">
                <path id="Trazado_111447" data-name="Trazado 111447" d="M216.379,253.3v6.356c0,.417.766.418.766,0V253.3c0-.417-.766-.418-.766,0Z" fill="#06593b"/>
              </g>
            </g>
            <g id="Grupo_74906" data-name="Grupo 74906">
              <g id="Grupo_74901" data-name="Grupo 74901">
                <path id="Trazado_111448" data-name="Trazado 111448" d="M189.864,178.6a32.9,32.9,0,0,0,2.436-3.156.383.383,0,1,0-.661-.386,31.417,31.417,0,0,1-2.316,3,.392.392,0,0,0,0,.541.387.387,0,0,0,.541,0Z" fill="#06593b"/>
              </g>
              <g id="Grupo_74902" data-name="Grupo 74902">
                <path id="Trazado_111449" data-name="Trazado 111449" d="M194.665,177.07q-.226,1.876-.454,3.752a.385.385,0,0,0,.382.383.392.392,0,0,0,.383-.383q.227-1.877.454-3.752a.384.384,0,0,0-.382-.383.392.392,0,0,0-.383.383Z" fill="#06593b"/>
              </g>
              <g id="Grupo_74903" data-name="Grupo 74903">
                <path id="Trazado_111450" data-name="Trazado 111450" d="M198.7,177.505a23.878,23.878,0,0,1,.385,3.772.383.383,0,0,0,.765,0,25.019,25.019,0,0,0-.412-3.975.383.383,0,1,0-.738.2Z" fill="#06593b"/>
              </g>
              <g id="Grupo_74904" data-name="Grupo 74904">
                <path id="Trazado_111451" data-name="Trazado 111451" d="M202.565,176.579a26.366,26.366,0,0,1,1.785,3.545.4.4,0,0,0,.471.267.384.384,0,0,0,.267-.47,27.479,27.479,0,0,0-1.863-3.729.383.383,0,0,0-.66.387Z" fill="#06593b"/>
              </g>
              <g id="Grupo_74905" data-name="Grupo 74905">
                <path id="Trazado_111452" data-name="Trazado 111452" d="M205.981,175.035a21.393,21.393,0,0,1,3.737,3.17c.337.36.878-.182.541-.541a22.177,22.177,0,0,0-3.892-3.29c-.411-.274-.795.389-.386.661Z" fill="#06593b"/>
              </g>
            </g>
          </g>
        </g>
        <path id="Trazado_111453" data-name="Trazado 111453" d="M176.693,181.392c1.924-7.983,3.652-13.051,7.845-20.111.427-.721,1.276-1.536,1.958-1.049.506.36.4,1.128.237,1.728l-1.548,5.736a3.7,3.7,0,0,0-.191,1.426c.172,1.319,1.6,2.013,2.793,2.6s2.495,1.7,2.132,2.981a3.475,3.475,0,0,1-.952,1.345c-2.929,3.085-4.494,7.239-5.333,11.41s-2.907,14.176-3.479,18.392c-1.44,10.614-3.6,18.5-10.487,23.8a3.863,3.863,0,0,1-3.319.625,2.638,2.638,0,0,1-1.091-.855c-2.571-3.008-3.4-7.207-3.052-11.149a41.838,41.838,0,0,1,3.177-11.394c2.716-6.968,7.8-15.943,11.31-25.489" fill="#ff9670"/>
        <path id="Trazado_111454" data-name="Trazado 111454" d="M244.577,231.748a103.394,103.394,0,0,0-6.642-19.377l-11.81,7.3q2.481,5.4,4.61,10.951a8.2,8.2,0,0,1-.534,9.02A197.509,197.509,0,0,1,213,264.833a2.473,2.473,0,0,0-.732,1.569,2.444,2.444,0,0,0,.534,1.2l3.222,4.7c.185.27.419.568.746.578a1.068,1.068,0,0,0,.76-.482q7.714-8.983,15.431-17.965c3.777-4.4,7.581-8.833,10.384-13.906a12.053,12.053,0,0,0,1.717-4.84A13.125,13.125,0,0,0,244.577,231.748Z" fill="#ff9670"/>
      </g>
    </g>
  </g>
</svg>
