<svg xmlns="http://www.w3.org/2000/svg" xmlns:xlink="http://www.w3.org/1999/xlink" width="200" height="200" viewBox="0 0 200 200">
  <defs>
    <filter id="Rectángulo_33234" x="0" y="0" width="200" height="200" filterUnits="userSpaceOnUse">
      <feOffset dy="3" input="SourceAlpha"/>
      <feGaussianBlur stdDeviation="3" result="blur"/>
      <feFlood flood-opacity="0.161"/>
      <feComposite operator="in" in2="blur"/>
      <feComposite in="SourceGraphic"/>
    </filter>
  </defs>
  <g id="Grupo_78696" data-name="Grupo 78696" transform="translate(-1011 -921.863)">
    <g transform="matrix(1, 0, 0, 1, 1011, 921.86)" filter="url(#Rectángulo_33234)">
      <path id="Rectángulo_33234-2" data-name="Rectángulo 33234" d="M0,0H91a91,91,0,0,1,91,91v0a91,91,0,0,1-91,91h0A91,91,0,0,1,0,91V0A0,0,0,0,1,0,0Z" transform="translate(9 6)" fill="#77cfd9"/>
    </g>
    <path id="Rectángulo_33237" data-name="Rectángulo 33237" d="M0,0H22.976a16,16,0,0,1,16,16v6.976a16,16,0,0,1-16,16H16a16,16,0,0,1-16-16V0A0,0,0,0,1,0,0Z" transform="translate(1030 936.863)" fill="#419ca6"/>
    <g id="Grupo_74715" data-name="Grupo 74715" transform="translate(-122.887 -128.328)">
      <g id="Grupo_74701" data-name="Grupo 74701" transform="translate(1186.528 1145.986)">
        <g id="Grupo_74696" data-name="Grupo 74696" transform="translate(0 18.636)">
          <path id="Trazado_111084" data-name="Trazado 111084" d="M1192.055,1315.729a5.518,5.518,0,0,1-5.527-5.518v-10.6a9.457,9.457,0,0,1,9.447-9.448h19.781a9.46,9.46,0,0,1,9.45,9.448v10.6a5.518,5.518,0,0,1-5.527,5.518c-.175,0-.353-.009-.528-.025a5.338,5.338,0,0,1-3.056-1.355,3.176,3.176,0,0,1-2.764,1.362H1198.4a3.767,3.767,0,0,0-5.82-.007C1192.4,1315.72,1192.234,1315.729,1192.055,1315.729Zm3.919-22.395a6.279,6.279,0,0,0-6.273,6.272v10.6a2.36,2.36,0,0,0,.766,1.733,2.315,2.315,0,0,0,1.58.608,2.487,2.487,0,0,0,2.339-2.507,1.589,1.589,0,1,1,3.177,0v1.655a.842.842,0,0,0,.838.84h14.927a.842.842,0,0,0,.838-.84v-1.64a1.59,1.59,0,0,1,1.583-1.589h0a1.6,1.6,0,0,1,1.594,1.583,2.456,2.456,0,0,0,2.108,2.491h.064a2.435,2.435,0,0,0,1.744-.6,2.352,2.352,0,0,0,.766-1.733v-10.6a6.279,6.279,0,0,0-6.273-6.272Z" transform="translate(-1186.528 -1290.159)" fill="#fff"/>
        </g>
        <g id="Grupo_74697" data-name="Grupo 74697" transform="translate(7.86 18.636)">
          <path id="Trazado_111085" data-name="Trazado 111085" d="M1211.261,1293.335a1.588,1.588,0,1,1,0-3.176h19.777a1.588,1.588,0,0,1,0,3.176Z" transform="translate(-1209.671 -1290.159)" fill="#fff"/>
        </g>
        <g id="Grupo_74698" data-name="Grupo 74698" transform="translate(7.86 30.063)">
          <path id="Trazado_111086" data-name="Trazado 111086" d="M1211.261,1333.85a1.59,1.59,0,0,1-1.59-1.587V1325.4a1.589,1.589,0,1,1,3.177,0v6.866A1.589,1.589,0,0,1,1211.261,1333.85Z" transform="translate(-1209.671 -1323.808)" fill="#fff"/>
        </g>
        <g id="Grupo_74699" data-name="Grupo 74699" transform="translate(27.637 30.063)">
          <path id="Trazado_111087" data-name="Trazado 111087" d="M1269.494,1333.85a1.589,1.589,0,0,1-1.587-1.587V1325.4a1.589,1.589,0,1,1,3.177,0v6.866A1.59,1.59,0,0,1,1269.494,1333.85Z" transform="translate(-1267.907 -1323.808)" fill="#fff"/>
        </g>
        <g id="Grupo_74700" data-name="Grupo 74700" transform="translate(11.108 0)">
          <path id="Trazado_111088" data-name="Trazado 111088" d="M1227.467,1251.739a8.228,8.228,0,1,1,8.227-8.228A8.238,8.238,0,0,1,1227.467,1251.739Zm0-13.28a5.052,5.052,0,1,0,5.053,5.051A5.059,5.059,0,0,0,1227.467,1238.46Z" transform="translate(-1219.237 -1235.284)" fill="#fff"/>
        </g>
      </g>
      <g id="Grupo_74714" data-name="Grupo 74714" transform="translate(1226.065 1100.064)">
        <g id="Grupo_74712" data-name="Grupo 74712" transform="translate(9.894 8.806)">
          <g id="Grupo_74704" data-name="Grupo 74704" transform="translate(7.856 8.143)">
            <g id="Grupo_74702" data-name="Grupo 74702">
              <path id="Trazado_111089" data-name="Trazado 111089" d="M1364.906,1180.222a4.777,4.777,0,0,1-4.793-4.623l-.014-.448a19.036,19.036,0,0,0-3.241-9.892,9.839,9.839,0,1,1,18.033-5.445,9.769,9.769,0,0,1-1.762,5.616,18.964,18.964,0,0,0-3.431,10.17A4.776,4.776,0,0,1,1364.906,1180.222Zm.153-27.073a7.219,7.219,0,0,0-.777.043,6.669,6.669,0,0,0-5.852,5.854,6.578,6.578,0,0,0,1.073,4.448,22.224,22.224,0,0,1,3.769,11.545l.014.449a1.62,1.62,0,0,0,3.238,0,22.112,22.112,0,0,1,4-11.873,6.593,6.593,0,0,0,1.195-3.8,6.671,6.671,0,0,0-2.222-4.967A6.563,6.563,0,0,0,1365.06,1153.148Z" transform="translate(-1355.212 -1149.973)" fill="#fff"/>
            </g>
            <g id="Grupo_74703" data-name="Grupo 74703" transform="translate(4.736 19.859)">
              <path id="Trazado_111090" data-name="Trazado 111090" d="M1374.152,1212.4a8.955,8.955,0,0,1-4.194-.988,1.567,1.567,0,0,1-.745-.961,1.589,1.589,0,0,1,2.314-1.8,5.788,5.788,0,0,0,2.6.576,6.735,6.735,0,0,0,2.821-.635,1.564,1.564,0,0,1,.66-.146,1.6,1.6,0,0,1,1.448.926,1.592,1.592,0,0,1-.785,2.105A9.775,9.775,0,0,1,1374.152,1212.4Z" transform="translate(-1369.158 -1208.45)" fill="#fff"/>
            </g>
          </g>
          <g id="Grupo_74705" data-name="Grupo 74705" transform="translate(16.11)">
            <path id="Trazado_111091" data-name="Trazado 111091" d="M1381.1,1132.027a1.589,1.589,0,0,1-1.587-1.587v-2.856a1.587,1.587,0,1,1,3.174,0v2.856A1.589,1.589,0,0,1,1381.1,1132.027Z" transform="translate(-1379.516 -1125.995)" fill="#fff"/>
          </g>
          <g id="Grupo_74706" data-name="Grupo 74706" transform="translate(5.595 3.826)">
            <path id="Trazado_111092" data-name="Trazado 111092" d="M1351.981,1142.627a1.587,1.587,0,0,1-1.22-.567l-1.836-2.188a1.589,1.589,0,0,1,2.435-2.043l1.833,2.189a1.586,1.586,0,0,1-1.213,2.609Z" transform="translate(-1348.555 -1137.262)" fill="#fff"/>
          </g>
          <g id="Grupo_74707" data-name="Grupo 74707" transform="translate(0 13.515)">
            <path id="Trazado_111093" data-name="Trazado 111093" d="M1336.2,1169.44l-2.81-.494a1.589,1.589,0,0,1,.274-3.154l3.092.521a1.588,1.588,0,0,1-.275,3.152Z" transform="translate(-1332.079 -1165.792)" fill="#fff"/>
          </g>
          <g id="Grupo_74708" data-name="Grupo 74708" transform="translate(1.941 23.108)">
            <path id="Trazado_111094" data-name="Trazado 111094" d="M1339.385,1198.642a1.59,1.59,0,0,1-1.376-.793,1.566,1.566,0,0,1-.16-1.205,1.59,1.59,0,0,1,.738-.965l2.475-1.428a1.588,1.588,0,1,1,1.587,2.751l-2.468,1.428A1.6,1.6,0,0,1,1339.385,1198.642Z" transform="translate(-1337.793 -1194.038)" fill="#fff"/>
          </g>
          <g id="Grupo_74709" data-name="Grupo 74709" transform="translate(27.798 23.108)">
            <path id="Trazado_111095" data-name="Trazado 111095" d="M1418,1198.642a1.6,1.6,0,0,1-.8-.212l-2.475-1.428a1.591,1.591,0,0,1-.738-.965,1.567,1.567,0,0,1,.16-1.206,1.593,1.593,0,0,1,2.172-.581l2.471,1.428a1.588,1.588,0,0,1-.8,2.963Z" transform="translate(-1413.932 -1194.038)" fill="#fff"/>
          </g>
          <g id="Grupo_74710" data-name="Grupo 74710" transform="translate(29.404 13.54)">
            <path id="Trazado_111096" data-name="Trazado 111096" d="M1420.249,1169.513a1.588,1.588,0,0,1-.275-3.152s2.86-.5,2.882-.5a1.63,1.63,0,0,1,1.769,1.289,1.58,1.58,0,0,1-1.284,1.84l-2.814.5Z" transform="translate(-1418.661 -1165.865)" fill="#fff"/>
          </g>
          <g id="Grupo_74711" data-name="Grupo 74711" transform="translate(24.784 3.826)">
            <path id="Trazado_111097" data-name="Trazado 111097" d="M1406.647,1142.627a1.59,1.59,0,0,1-1.583-1.45,1.582,1.582,0,0,1,.367-1.16l1.837-2.188a1.588,1.588,0,1,1,2.432,2.043l-1.836,2.188A1.585,1.585,0,0,1,1406.647,1142.627Z" transform="translate(-1405.058 -1137.262)" fill="#fff"/>
          </g>
        </g>
        <g id="Grupo_74713" data-name="Grupo 74713" transform="translate(0)">
          <path id="Trazado_111098" data-name="Trazado 111098" d="M1314.2,1163.425a4.078,4.078,0,0,1-1.744-.393,4.035,4.035,0,0,1-2.332-3.677v-4.407a8.416,8.416,0,0,1-7.175-8.467v-37.654a8.775,8.775,0,0,1,8.765-8.764h37.65a8.775,8.775,0,0,1,8.765,8.764v39.194a7.232,7.232,0,0,1-7.225,7.223h-25.4l-8.726,7.248A4.058,4.058,0,0,1,1314.2,1163.425Zm-2.486-60.186a5.6,5.6,0,0,0-5.592,5.588v37.654a5.6,5.6,0,0,0,5.592,5.588,1.59,1.59,0,0,1,1.587,1.589v5.7a.855.855,0,0,0,.506.8.983.983,0,0,0,.4.091.862.862,0,0,0,.549-.207l9.229-7.61a1.6,1.6,0,0,1,1.013-.362H1350.9a4.052,4.052,0,0,0,4.047-4.047v-39.194a5.594,5.594,0,0,0-5.588-5.588Z" transform="translate(-1302.947 -1100.064)" fill="#fff"/>
        </g>
      </g>
    </g>
  </g>
</svg>
