<svg xmlns="http://www.w3.org/2000/svg" xmlns:xlink="http://www.w3.org/1999/xlink" width="200" height="200" viewBox="0 0 200 200">
  <defs>
    <filter id="Rectángulo_33231" x="0" y="0" width="200" height="200" filterUnits="userSpaceOnUse">
      <feOffset dy="3" input="SourceAlpha"/>
      <feGaussianBlur stdDeviation="3" result="blur"/>
      <feFlood flood-opacity="0.161"/>
      <feComposite operator="in" in2="blur"/>
      <feComposite in="SourceGraphic"/>
    </filter>
  </defs>
  <g id="Grupo_78707" data-name="Grupo 78707" transform="translate(-361 -921.863)">
    <g transform="matrix(1, 0, 0, 1, 361, 921.86)" filter="url(#Rectángulo_33231)">
      <path id="Rectángulo_33231-2" data-name="Rectángulo 33231" d="M0,0H91a91,91,0,0,1,91,91v0a91,91,0,0,1-91,91h0A91,91,0,0,1,0,91V0A0,0,0,0,1,0,0Z" transform="translate(9 6)" fill="#77cfd9"/>
    </g>
    <path id="Rectángulo_33228" data-name="Rectángulo 33228" d="M0,0H22.976a16,16,0,0,1,16,16v6.976a16,16,0,0,1-16,16H16a16,16,0,0,1-16-16V0A0,0,0,0,1,0,0Z" transform="translate(380 936.863)" fill="#419ca6"/>
    <g id="Grupo_74690" data-name="Grupo 74690" transform="translate(-3766.471 809.929)">
      <g id="Grupo_74676" data-name="Grupo 74676" transform="translate(4194.012 175.179)">
        <g id="Grupo_74663" data-name="Grupo 74663" transform="translate(31.781 0)">
          <g id="Grupo_74653" data-name="Grupo 74653">
            <path id="Trazado_111048" data-name="Trazado 111048" d="M4337.893,227.312a1.673,1.673,0,0,1-1.544-2.33,6.42,6.42,0,1,0-12.334-2.5,1.678,1.678,0,1,1-3.356,0,9.774,9.774,0,0,1,19.548,0,9.653,9.653,0,0,1-.769,3.8A1.666,1.666,0,0,1,4337.893,227.312Z" transform="translate(-4320.658 -212.711)" fill="#fff"/>
          </g>
          <g id="Grupo_74654" data-name="Grupo 74654" transform="translate(0 52.908)">
            <path id="Trazado_111049" data-name="Trazado 111049" d="M4330.43,374.788a9.785,9.785,0,0,1-9.772-9.774,1.678,1.678,0,0,1,3.356,0,6.417,6.417,0,1,0,12.334-2.5,1.677,1.677,0,1,1,3.089-1.309,9.639,9.639,0,0,1,.769,3.8A9.786,9.786,0,0,1,4330.43,374.788Z" transform="translate(-4320.658 -360.185)" fill="#fff"/>
          </g>
          <g id="Grupo_74655" data-name="Grupo 74655" transform="translate(16.495 31.989)">
            <path id="Trazado_111050" data-name="Trazado 111050" d="M4368.314,330.292a1.685,1.685,0,0,1-1.673-1.558,1.674,1.674,0,0,1,1.552-1.793A14.8,14.8,0,0,0,4381.88,311.1a14.545,14.545,0,0,0-2.144-6.668,1.683,1.683,0,0,1,.55-2.309,1.663,1.663,0,0,1,.878-.249,1.682,1.682,0,0,1,1.435.8,18.266,18.266,0,0,1,2.629,8.182,18.158,18.158,0,0,1-16.79,19.433Z" transform="translate(-4366.636 -301.876)" fill="#fff"/>
          </g>
          <g id="Grupo_74656" data-name="Grupo 74656" transform="translate(16.416 6.325)">
            <path id="Trazado_111051" data-name="Trazado 111051" d="M4377.192,247.717a1.707,1.707,0,0,1-.727-.164,1.684,1.684,0,0,1-.784-2.242,8.111,8.111,0,0,0-7.293-11.622h-.011a1.783,1.783,0,0,1-1.959-1.622,1.673,1.673,0,0,1,1.624-1.727h.042a11.832,11.832,0,0,1,5.263,1.13,11.472,11.472,0,0,1,5.36,15.295A1.69,1.69,0,0,1,4377.192,247.717Z" transform="translate(-4366.417 -230.341)" fill="#fff"/>
          </g>
          <g id="Grupo_74657" data-name="Grupo 74657" transform="translate(26.679 16.674)">
            <path id="Trazado_111052" data-name="Trazado 111052" d="M4396.7,281.6a1.658,1.658,0,0,1-1.183-.49,1.678,1.678,0,0,1,0-2.373,11.807,11.807,0,0,0,0-16.691,1.676,1.676,0,1,1,2.37-2.371,15.152,15.152,0,0,1,0,21.435A1.667,1.667,0,0,1,4396.7,281.6Z" transform="translate(-4395.022 -259.186)" fill="#fff"/>
          </g>
          <g id="Grupo_74658" data-name="Grupo 74658" transform="translate(0 8.071)">
            <path id="Trazado_111053" data-name="Trazado 111053" d="M4322.335,286.675a1.679,1.679,0,0,1-1.677-1.678V236.886a1.678,1.678,0,1,1,3.356,0V285A1.68,1.68,0,0,1,4322.335,286.675Z" transform="translate(-4320.658 -235.208)" fill="#fff"/>
          </g>
          <g id="Grupo_74659" data-name="Grupo 74659" transform="translate(7.284 16.035)">
            <path id="Trazado_111054" data-name="Trazado 111054" d="M4346.437,266.843a1.669,1.669,0,0,1-1.665-1.507c-.418-4.059-2.5-4.609-2.524-4.613a1.705,1.705,0,0,1-1.247-2,1.662,1.662,0,0,1,1.616-1.315c.5.068,4.818,1.015,5.492,7.589a1.684,1.684,0,0,1-1.5,1.84Z" transform="translate(-4340.961 -257.406)" fill="#fff"/>
          </g>
          <g id="Grupo_74660" data-name="Grupo 74660" transform="translate(19.388 41.077)">
            <path id="Trazado_111055" data-name="Trazado 111055" d="M4376.205,333.7a1.678,1.678,0,0,1,.173-3.347h0c.162,0,1.225-.083,2.076-2.116a1.679,1.679,0,0,1,1.548-1.028,1.648,1.648,0,0,1,.652.132,1.679,1.679,0,0,1,.893,2.2c-1.292,3.078-3.455,4.174-5.048,4.174Z" transform="translate(-4374.701 -327.208)" fill="#fff"/>
          </g>
          <g id="Grupo_74661" data-name="Grupo 74661" transform="translate(17.368 25.525)">
            <path id="Trazado_111056" data-name="Trazado 111056" d="M4370.749,294.019a1.678,1.678,0,0,1-1.62-2.119,1.657,1.657,0,0,1,.788-1.015c3.063-1.751,1.812-4.278,1.661-4.56a1.679,1.679,0,1,1,2.964-1.577c1.036,1.951,1.752,6.355-2.961,9.051A1.645,1.645,0,0,1,4370.749,294.019Z" transform="translate(-4369.07 -283.857)" fill="#fff"/>
          </g>
          <g id="Grupo_74662" data-name="Grupo 74662" transform="translate(7.449 39.467)">
            <path id="Trazado_111057" data-name="Trazado 111057" d="M4346.544,332.525a1.65,1.65,0,0,1-.493-.074c-2.114-.648-5.734-3.255-4.3-8.5a1.673,1.673,0,0,1,1.613-1.237,1.7,1.7,0,0,1,.444.06,1.673,1.673,0,0,1,1.175,2.061c-.919,3.381,1.748,4.308,2.053,4.4a1.679,1.679,0,0,1-.49,3.283Z" transform="translate(-4341.422 -322.719)" fill="#fff"/>
          </g>
        </g>
        <g id="Grupo_74675" data-name="Grupo 74675" transform="translate(0 0)">
          <g id="Grupo_74673" data-name="Grupo 74673">
            <g id="Grupo_74664" data-name="Grupo 74664" transform="translate(15.589 52.908)">
              <path id="Trazado_111058" data-name="Trazado 111058" d="M4285.3,374.788a9.785,9.785,0,0,1-9.772-9.774,9.647,9.647,0,0,1,.769-3.8,1.678,1.678,0,1,1,3.089,1.309,6.419,6.419,0,1,0,12.333,2.5,1.678,1.678,0,0,1,3.356,0A9.786,9.786,0,0,1,4285.3,374.788Z" transform="translate(-4275.527 -360.185)" fill="#fff"/>
            </g>
            <g id="Grupo_74665" data-name="Grupo 74665" transform="translate(15.589)">
              <path id="Trazado_111059" data-name="Trazado 111059" d="M4277.84,227.312a1.674,1.674,0,0,1-1.544-1.025,9.661,9.661,0,0,1-.769-3.8,9.774,9.774,0,0,1,19.548,0,1.678,1.678,0,1,1-3.356,0,6.419,6.419,0,1,0-12.333,2.5,1.678,1.678,0,0,1-.89,2.2A1.7,1.7,0,0,1,4277.84,227.312Z" transform="translate(-4275.527 -212.711)" fill="#fff"/>
            </g>
            <g id="Grupo_74666" data-name="Grupo 74666" transform="translate(0 7.11)">
              <path id="Trazado_111060" data-name="Trazado 111060" d="M4236.186,260.942a1.684,1.684,0,0,1-1.432-.8,18.163,18.163,0,0,1,14.161-27.612h.011a1.713,1.713,0,0,1,1.786,1.55,1.674,1.674,0,0,1-1.548,1.8,14.8,14.8,0,0,0-11.546,22.507,1.681,1.681,0,0,1-1.431,2.558Z" transform="translate(-4232.075 -232.53)" fill="#fff"/>
            </g>
            <g id="Grupo_74667" data-name="Grupo 74667" transform="translate(5.293 43.81)">
              <path id="Trazado_111061" data-name="Trazado 111061" d="M4258.293,352.208a11.5,11.5,0,0,1-4.965-1.136,11.464,11.464,0,0,1-5.361-15.295,1.691,1.691,0,0,1,1.515-.951,1.657,1.657,0,0,1,.727.166,1.682,1.682,0,0,1,.784,2.239,8.111,8.111,0,0,0,7.293,11.622h.012a1.764,1.764,0,0,1,1.958,1.622,1.672,1.672,0,0,1-1.624,1.727Z" transform="translate(-4246.829 -334.826)" fill="#fff"/>
            </g>
            <g id="Grupo_74668" data-name="Grupo 74668" transform="translate(1.153 28.419)">
              <path id="Trazado_111062" data-name="Trazado 111062" d="M4240.914,314.345a1.658,1.658,0,0,1-1.183-.492,15.152,15.152,0,0,1,0-21.435,1.673,1.673,0,0,1,2.37,0,1.675,1.675,0,0,1,0,2.371,11.809,11.809,0,0,0,0,16.692,1.678,1.678,0,0,1-1.187,2.863Z" transform="translate(-4235.289 -291.926)" fill="#fff"/>
            </g>
            <g id="Grupo_74669" data-name="Grupo 74669" transform="translate(31.781 7.973)">
              <path id="Trazado_111063" data-name="Trazado 111063" d="M4322.335,286.4a1.679,1.679,0,0,1-1.677-1.678V236.613a1.678,1.678,0,1,1,3.356,0v48.111A1.68,1.68,0,0,1,4322.335,286.4Z" transform="translate(-4320.658 -234.935)" fill="#fff"/>
            </g>
            <g id="Grupo_74670" data-name="Grupo 74670" transform="translate(22.306 11.861)">
              <path id="Trazado_111064" data-name="Trazado 111064" d="M4296.635,257.2a1.67,1.67,0,0,1-1.48-.887,7.639,7.639,0,0,1,3.149-10.341,1.678,1.678,0,1,1,1.579,2.961,4.292,4.292,0,0,0-1.767,5.8,1.676,1.676,0,0,1-1.48,2.465Z" transform="translate(-4294.25 -245.771)" fill="#fff"/>
            </g>
            <g id="Grupo_74671" data-name="Grupo 74671" transform="translate(21.434 31.145)">
              <path id="Trazado_111065" data-name="Trazado 111065" d="M4294.066,309.685a1.671,1.671,0,0,1-1.484-.891c-1.036-1.951-1.752-6.355,2.965-9.051a1.661,1.661,0,0,1,.829-.221,1.678,1.678,0,0,1,1.458.844,1.677,1.677,0,0,1-.625,2.29c-3.062,1.754-1.812,4.279-1.661,4.56a1.68,1.68,0,0,1-1.48,2.467Z" transform="translate(-4291.819 -299.523)" fill="#fff"/>
            </g>
            <g id="Grupo_74672" data-name="Grupo 74672" transform="translate(10.578 22.3)">
              <path id="Trazado_111066" data-name="Trazado 111066" d="M4266.417,284.674a1.654,1.654,0,0,1-.441-.058,1.68,1.68,0,0,1-1.179-2.06c.923-3.383-1.744-4.31-2.049-4.4a1.678,1.678,0,0,1,.983-3.21c2.113.648,5.73,3.259,4.3,8.5A1.681,1.681,0,0,1,4266.417,284.674Z" transform="translate(-4261.56 -274.868)" fill="#fff"/>
            </g>
          </g>
          <g id="Grupo_74674" data-name="Grupo 74674" transform="translate(15.591 43.592)">
            <path id="Trazado_111067" data-name="Trazado 111067" d="M4280.843,340.167a1.682,1.682,0,0,1-1.627-1.258c-.147-.576-1.466-1.185-2.344-1.369a1.679,1.679,0,0,1,.339-3.323c.753.121,4.509.968,5.259,3.852a1.687,1.687,0,0,1-1.209,2.045Z" transform="translate(-4275.534 -334.217)" fill="#fff"/>
          </g>
        </g>
      </g>
      <g id="Grupo_74689" data-name="Grupo 74689" transform="translate(4172.717 154.181)">
        <g id="Grupo_74677" data-name="Grupo 74677" transform="translate(53.076 0)">
          <path id="Trazado_111068" data-name="Trazado 111068" d="M4322.335,166.739a1.679,1.679,0,0,1-1.677-1.676v-9.205a1.678,1.678,0,0,1,3.356,0v9.205A1.679,1.679,0,0,1,4322.335,166.739Z" transform="translate(-4320.658 -154.181)" fill="#fff"/>
        </g>
        <g id="Grupo_74678" data-name="Grupo 74678" transform="translate(26.538 7.111)">
          <path id="Trazado_111069" data-name="Trazado 111069" d="M4252.97,185.327a1.679,1.679,0,0,1-1.454-.838l-4.6-7.971a1.675,1.675,0,1,1,2.9-1.678l4.6,7.971a1.654,1.654,0,0,1,.169,1.273,1.671,1.671,0,0,1-1.62,1.243Z" transform="translate(-4246.688 -174.001)" fill="#fff"/>
        </g>
        <g id="Grupo_74679" data-name="Grupo 74679" transform="translate(7.11 26.538)">
          <path id="Trazado_111070" data-name="Trazado 111070" d="M4202.182,236.108a1.641,1.641,0,0,1-.833-.222l-7.975-4.6a1.679,1.679,0,0,1,1.68-2.909l7.971,4.6a1.679,1.679,0,0,1-.844,3.131Z" transform="translate(-4192.537 -228.152)" fill="#fff"/>
        </g>
        <g id="Grupo_74680" data-name="Grupo 74680" transform="translate(0 53.076)">
          <path id="Trazado_111071" data-name="Trazado 111071" d="M4174.394,305.477a1.677,1.677,0,0,1,0-3.355h9.207a1.677,1.677,0,0,1,0,3.355Z" transform="translate(-4172.717 -302.122)" fill="#fff"/>
        </g>
        <g id="Grupo_74681" data-name="Grupo 74681" transform="translate(7.112 75.012)">
          <path id="Trazado_111072" data-name="Trazado 111072" d="M4194.217,371.224a1.679,1.679,0,0,1-.839-3.132l7.971-4.6a1.679,1.679,0,0,1,1.68,2.909l-7.971,4.6A1.69,1.69,0,0,1,4194.217,371.224Z" transform="translate(-4192.541 -363.266)" fill="#fff"/>
        </g>
        <g id="Grupo_74682" data-name="Grupo 74682" transform="translate(26.538 91.072)">
          <path id="Trazado_111073" data-name="Trazado 111073" d="M4248.366,419.356a1.686,1.686,0,0,1-.84-.224,1.676,1.676,0,0,1-.61-2.293l4.6-7.971a1.677,1.677,0,0,1,3.074.405,1.653,1.653,0,0,1-.169,1.273l-4.6,7.971A1.677,1.677,0,0,1,4248.366,419.356Z" transform="translate(-4246.688 -408.03)" fill="#fff"/>
        </g>
        <g id="Grupo_74683" data-name="Grupo 74683" transform="translate(53.076 96.949)">
          <path id="Trazado_111074" data-name="Trazado 111074" d="M4322.335,436.971a1.679,1.679,0,0,1-1.677-1.678v-9.2a1.678,1.678,0,1,1,3.356,0v9.2A1.68,1.68,0,0,1,4322.335,436.971Z" transform="translate(-4320.658 -424.411)" fill="#fff"/>
        </g>
        <g id="Grupo_74684" data-name="Grupo 74684" transform="translate(75.01 91.072)">
          <path id="Trazado_111075" data-name="Trazado 111075" d="M4388.079,419.356a1.679,1.679,0,0,1-1.45-.838l-4.6-7.971a1.651,1.651,0,0,1-.169-1.273,1.678,1.678,0,0,1,3.074-.405l4.6,7.971a1.677,1.677,0,0,1-1.454,2.517Z" transform="translate(-4381.797 -408.03)" fill="#fff"/>
        </g>
        <g id="Grupo_74685" data-name="Grupo 74685" transform="translate(91.07 75.012)">
          <path id="Trazado_111076" data-name="Trazado 111076" d="M4436.211,371.224a1.689,1.689,0,0,1-.84-.224l-7.971-4.6a1.68,1.68,0,0,1,.844-3.133,1.686,1.686,0,0,1,.836.224l7.972,4.6a1.68,1.68,0,0,1-.84,3.132Z" transform="translate(-4426.562 -363.266)" fill="#fff"/>
        </g>
        <g id="Grupo_74686" data-name="Grupo 74686" transform="translate(96.949 53.076)">
          <path id="Trazado_111077" data-name="Trazado 111077" d="M4444.627,305.477a1.677,1.677,0,1,1,0-3.355h9.2a1.677,1.677,0,0,1,0,3.355Z" transform="translate(-4442.947 -302.122)" fill="#fff"/>
        </g>
        <g id="Grupo_74687" data-name="Grupo 74687" transform="translate(91.07 26.538)">
          <path id="Trazado_111078" data-name="Trazado 111078" d="M4428.239,236.108a1.678,1.678,0,0,1-1.45-.838,1.676,1.676,0,0,1,.61-2.292l7.971-4.6a1.693,1.693,0,0,1,.84-.224,1.68,1.68,0,0,1,.84,3.132l-7.972,4.6A1.707,1.707,0,0,1,4428.239,236.108Z" transform="translate(-4426.562 -228.152)" fill="#fff"/>
        </g>
        <g id="Grupo_74688" data-name="Grupo 74688" transform="translate(75.013 7.111)">
          <path id="Trazado_111079" data-name="Trazado 111079" d="M4383.48,185.327a1.674,1.674,0,0,1-1.451-2.516l4.6-7.971a1.677,1.677,0,1,1,2.9,1.678l-4.6,7.971A1.679,1.679,0,0,1,4383.48,185.327Z" transform="translate(-4381.805 -174.001)" fill="#fff"/>
        </g>
      </g>
    </g>
  </g>
</svg>
