<svg xmlns="http://www.w3.org/2000/svg" xmlns:xlink="http://www.w3.org/1999/xlink" width="200" height="200" viewBox="0 0 200 200">
  <defs>
    <filter id="Rectángulo_33233" x="0" y="0" width="200" height="200" filterUnits="userSpaceOnUse">
      <feOffset dy="3" input="SourceAlpha"/>
      <feGaussianBlur stdDeviation="3" result="blur"/>
      <feFlood flood-opacity="0.161"/>
      <feComposite operator="in" in2="blur"/>
      <feComposite in="SourceGraphic"/>
    </filter>
  </defs>
  <g id="Grupo_78695" data-name="Grupo 78695" transform="translate(-801 -921.863)">
    <g transform="matrix(1, 0, 0, 1, 801, 921.86)" filter="url(#Rectángulo_33233)">
      <path id="Rectángulo_33233-2" data-name="Rectángulo 33233" d="M0,0H91a91,91,0,0,1,91,91v0a91,91,0,0,1-91,91h0A91,91,0,0,1,0,91V0A0,0,0,0,1,0,0Z" transform="translate(9 6)" fill="#77cfd9"/>
    </g>
    <path id="Rectángulo_33236" data-name="Rectángulo 33236" d="M0,0H22.976a16,16,0,0,1,16,16v6.976a16,16,0,0,1-16,16H16a16,16,0,0,1-16-16V0A0,0,0,0,1,0,0Z" transform="translate(819 936.863)" fill="#419ca6"/>
    <g id="Grupo_74695" data-name="Grupo 74695" transform="translate(-838.346 798.576)">
      <g id="Grupo_74691" data-name="Grupo 74691" transform="translate(1709.755 163.311)">
        <path id="Trazado_111080" data-name="Trazado 111080" d="M1780.936,222.131a1.838,1.838,0,0,1-1.313-.544l-9.219-9.219a1.857,1.857,0,0,1,2.627-2.625l8.056,8.056,8.994-9.292a1.841,1.841,0,0,1,2.11-.363,1.858,1.858,0,0,1,1.047,1.872,5.827,5.827,0,1,0,5.787-5.2c-.2,0-.642.033-.654.033a1.917,1.917,0,0,1-1.834-1.047,1.86,1.86,0,0,1,.363-2.112l9.294-9.294-25.405-25.1-25.1,25.4,8.064,7.764a1.855,1.855,0,1,1-2.623,2.625l-9.227-9.227a1.85,1.85,0,0,1,0-2.625l27.169-27.167a2.7,2.7,0,0,1,3.744,0l27.169,27.167a1.852,1.852,0,0,1,0,2.627l-8.026,8.024a6.025,6.025,0,0,1,3.619,1.812,9.537,9.537,0,0,1-6.467,16.476h0a9.55,9.55,0,0,1-9.186-6.7l-7.668,8.112A1.871,1.871,0,0,1,1780.936,222.131Z" transform="translate(-1751.349 -163.311)" fill="#fff"/>
      </g>
      <g id="Grupo_74692" data-name="Grupo 74692" transform="translate(1737.488 190.692)">
        <path id="Trazado_111081" data-name="Trazado 111081" d="M1850.778,291.438a1.873,1.873,0,0,1-1.314-.544l-8.026-8.027a6.075,6.075,0,0,1-1.81,3.617,9.441,9.441,0,0,1-6.73,2.95h-.013a9.579,9.579,0,0,1-6.829-2.635,9.545,9.545,0,0,1,3.79-15.965l-8.11-7.668a1.857,1.857,0,0,1,0-2.627l9.919-9.919a1.857,1.857,0,0,1,2.627,2.625l-8.76,8.758,9.294,8.993a1.856,1.856,0,0,1-1.309,3.169c-.409-.033-.617-.044-.826-.044a5.821,5.821,0,0,0-4.04,10.007,5.659,5.659,0,0,0,4.015,1.6,5.883,5.883,0,0,0,4.27-1.788,5.806,5.806,0,0,0,1.547-4.614,1.856,1.856,0,0,1,3.16-1.509l9.294,9.292,25.1-25.4-25.4-25.1-8.581,8.879a1.852,1.852,0,0,1-2.623,0,1.855,1.855,0,0,1,0-2.625l10.04-10.04a1.858,1.858,0,0,1,2.627,0l27.164,27.167a2.645,2.645,0,0,1,0,3.75l-27.164,27.165A1.873,1.873,0,0,1,1850.778,291.438Z" transform="translate(-1821.193 -232.268)" fill="#fff"/>
      </g>
      <g id="Grupo_74693" data-name="Grupo 74693" transform="translate(1709.759 218.439)">
        <path id="Trazado_111082" data-name="Trazado 111082" d="M1780.946,360.967a2.644,2.644,0,0,1-1.876-.775l-27.165-27.169a1.849,1.849,0,0,1,0-2.625l8.026-8.027a5.968,5.968,0,0,1-3.619-1.812,9.536,9.536,0,1,1,15.653-9.78l7.668-8.112a1.9,1.9,0,0,1,2.623,0l9.924,9.921a1.857,1.857,0,1,1-2.627,2.625l-8.756-8.758-8.994,9.294a1.862,1.862,0,0,1-1.317.544,1.811,1.811,0,0,1-.8-.181,1.862,1.862,0,0,1-1.046-1.872,5.815,5.815,0,0,0-1.668-4.738,5.706,5.706,0,0,0-4.107-1.705,5.822,5.822,0,1,0-.013,11.643c.2,0,.642-.033.655-.033a1.927,1.927,0,0,1,1.838,1.046,1.863,1.863,0,0,1-.363,2.114l-9.294,9.292,25.405,25.1,25.1-25.4-8.877-8.577a1.855,1.855,0,0,1,0-2.625,1.852,1.852,0,0,1,2.623,0l10.044,10.04a1.859,1.859,0,0,1,0,2.625l-27.169,27.169A2.634,2.634,0,0,1,1780.946,360.967Z" transform="translate(-1751.359 -302.143)" fill="#fff"/>
      </g>
      <g id="Grupo_74694" data-name="Grupo 74694" transform="translate(1682.361 190.692)">
        <path id="Trazado_111083" data-name="Trazado 111083" d="M1711.614,291.438a1.835,1.835,0,0,1-1.309-.542l-27.169-27.169a2.65,2.65,0,0,1,0-3.746l27.169-27.169a1.853,1.853,0,0,1,2.623,0l8.026,8.027a6.068,6.068,0,0,1,1.814-3.617,9.454,9.454,0,0,1,6.725-2.95h.013a9.517,9.517,0,0,1,3.039,18.6l8.114,7.67a1.86,1.86,0,0,1,0,2.625l-9.923,9.919a1.852,1.852,0,0,1-2.623,0,1.855,1.855,0,0,1,0-2.625l8.756-8.758-9.294-8.991a1.857,1.857,0,0,1,1.313-3.171c.409.033.617.044.826.044a5.816,5.816,0,0,0,4.036-10,5.644,5.644,0,0,0-4.028-1.595,5.753,5.753,0,0,0-5.8,6.4,1.863,1.863,0,0,1-1.847,2.056,1.837,1.837,0,0,1-1.309-.544l-9.3-9.294-25.1,25.4,25.4,25.1,8.581-8.879a1.855,1.855,0,0,1,2.623,2.625l-10.04,10.042A1.844,1.844,0,0,1,1711.614,291.438Z" transform="translate(-1682.361 -232.268)" fill="#fff"/>
      </g>
    </g>
  </g>
</svg>
