<svg xmlns="http://www.w3.org/2000/svg" width="104.706" height="104.707" viewBox="0 0 104.706 104.707">
  <g id="Grupo_78719" data-name="Grupo 78719" transform="translate(10245 1729.959)">
    <g id="Grupo_74926" data-name="Grupo 74926" transform="translate(-10245 -1729.959)">
      <g id="Grupo_74925" data-name="Grupo 74925">
        <path id="Rectangle_33231-2" data-name="Rectangle 33231-2" d="M167.38,630.818v52.354a52.354,52.354,0,0,1-52.353,52.353h0a52.354,52.354,0,0,1-52.353-52.353h0a52.354,52.354,0,0,1,52.353-52.354Z" transform="translate(-62.674 -630.818)" fill="#419ca6"/>
      </g>
    </g>
    <g id="Grupo_74927" data-name="Grupo 74927" transform="translate(-10225.696 -1717.765)">
      <path id="Trazado_111456" data-name="Trazado 111456" d="M99.976,645.95a.96.96,0,0,1-1.035.865h0a.961.961,0,0,1-1.037-.865v-6.173a.962.962,0,0,1,1.037-.865h0a.961.961,0,0,1,1.035.865Z" transform="translate(-64.129 -638.912)" fill="#fff"/>
      <path id="Trazado_111457" data-name="Trazado 111457" d="M87.054,651.345a.964.964,0,0,1-.054,1.35h0a.962.962,0,0,1-1.333.193l-4.591-4.131a.963.963,0,0,1,.054-1.348h0a.962.962,0,0,1,1.333-.194Z" transform="translate(-72.781 -634.803)" fill="#fff"/>
      <path id="Trazado_111458" data-name="Trazado 111458" d="M82.385,664.755a.962.962,0,0,1,.967.942h0a.96.96,0,0,1-.75,1.121l-6.141.648a.967.967,0,0,1-.967-.943h0a.965.965,0,0,1,.75-1.122Z" transform="translate(-75.487 -625.82)" fill="#fff"/>
      <path id="Trazado_111459" data-name="Trazado 111459" d="M118.584,665.6a.963.963,0,0,1-.753-1.121h0a.958.958,0,0,1,.969-.937l6.141.64a.97.97,0,0,1,.753,1.122h0a.969.969,0,0,1-.97.943Z" transform="translate(-54.037 -626.436)" fill="#fff"/>
      <path id="Trazado_111460" data-name="Trazado 111460" d="M114.1,651.977a.963.963,0,0,1-1.336-.191h0a.961.961,0,0,1-.05-1.349L117.3,646.3a.967.967,0,0,1,1.336.191h0a.965.965,0,0,1,.054,1.351Z" transform="translate(-56.753 -635.264)" fill="#fff"/>
      <path id="Trazado_111461" data-name="Trazado 111461" d="M127.956,668.342a22.021,22.021,0,1,0-31.088,20.07v4.542h0v5.96a3.92,3.92,0,0,0,3.156,3.935,8.912,8.912,0,0,0,.547,1.576c.96,2.135,2.576,3.373,3.875,3.373h2.979c1.3,0,2.915-1.238,3.875-3.373a9.026,9.026,0,0,0,.544-1.576A3.927,3.927,0,0,0,115,698.915v-8.058h0v-2.445A22.022,22.022,0,0,0,127.956,668.342ZM97.73,657.332a13.718,13.718,0,0,0-.619,21.53,1.012,1.012,0,0,1,.17,1.35l-.014.02a1.031,1.031,0,0,1-1.51.2,15.787,15.787,0,0,1,.717-24.745,1.029,1.029,0,0,1,1.463.234l.012.018A1.014,1.014,0,0,1,97.73,657.332Zm15.2,41.583a1.98,1.98,0,0,1-.788,1.621,1.56,1.56,0,0,1-.91.3H100.639a1.521,1.521,0,0,1-.912-.3,2,2,0,0,1-.786-1.621v-5.96h13.988Z" transform="translate(-71.217 -635.158)" fill="#fff"/>
    </g>
  </g>
</svg>
