<svg xmlns="http://www.w3.org/2000/svg" xmlns:xlink="http://www.w3.org/1999/xlink" width="514" height="514" viewBox="0 0 514 514">
  <defs>
    <clipPath id="clip-path">
      <rect id="Rectángulo_33360" data-name="Rectángulo 33360" width="514" height="514" transform="translate(874 5204)" fill="#fff" stroke="#707070" stroke-width="1"/>
    </clipPath>
    <linearGradient id="linear-gradient" y1="0.5" x2="1" y2="0.5" gradientUnits="objectBoundingBox">
      <stop offset="0" stop-color="#035159"/>
      <stop offset="1" stop-color="#043f45"/>
    </linearGradient>
  </defs>
  <g id="Enmascarar_grupo_49" data-name="Enmascarar grupo 49" transform="translate(-874 -5204)" clip-path="url(#clip-path)">
    <g id="Grupo_78687" data-name="Grupo 78687" transform="translate(-2574.846 6353.607)">
      <path id="Trazado_111477" data-name="Trazado 111477" d="M4302.852,1246.083H4218.09c0-.095-.005-.19-.005-.288-.1-5.387-.185-10.9-.241-16.569a1.945,1.945,0,0,0-3.782-.651c-2.037,5.77-4.587,11.592-7.052,17.22-.04.095-.082.193-.125.288h-99.849c.028-.1.057-.193.085-.288q15.584-52.659,34.229-104.3,2.308-6.4,4.669-12.792c10.964,4.52,20.6,3.873,32.316,2.16a292.61,292.61,0,0,1,120.225,7.575q.455,6.249.856,12.5c2.025,31.582,3.037,63.209,3.434,94.857C4302.852,1245.89,4302.852,1245.985,4302.852,1246.083Z" transform="translate(-519.646 -1779.69)" fill="#2c2a6c"/>
      <path id="Trazado_111478" data-name="Trazado 111478" d="M4548.311-370.235a103.025,103.025,0,0,1,2.964,38.774,2.605,2.605,0,0,0,.349,2.086,3.025,3.025,0,0,0,1.7.739c19.777,3.983,39.152-.835,56.646-10.63a120.159,120.159,0,0,1-8.52-30.837,238.179,238.179,0,0,1-1.634-25.532q-.431-15.278-.86-30.556c-1.074,11.421-11.093,17.858-19.921,26.09C4569.784-391.473,4557.565-378.864,4548.311-370.235Z" transform="translate(-868.153 -552.38)" fill="#ffa98c"/>
      <path id="Trazado_111479" data-name="Trazado 111479" d="M4426.309,8.112c3.874-17.55-8.923-34.727-23.8-44.477-13.39-8.778-25.731-14.178-38.463-22.945a9.256,9.256,0,0,0-8.764-.96c-12.423,5.1-28.61,7.076-41.217,5.183-3.43-.515-6.852-1.292-10.318-1.216a42.276,42.276,0,0,0-10.986,2.227C4275.33-48.9,4249.275-40.612,4234-30.619c1.359,76.916,7.678,150.59,4.625,227.314a6.806,6.806,0,0,0,4.274,6.611c12.044,4.76,25.417,5.5,38.419,6.147l70.4,3.5c15.2.757,30.559,1.542,45.692-.577,8.761-1.226,11.084-.649,11.358-9.24.269-8.476-1.693-17.5-2.078-26.023a379.064,379.064,0,0,1,5.977-86.333C4417.777,63.331,4420.264,35.5,4426.309,8.112Z" transform="translate(-619.921 -840.832)" fill="#77cfd9"/>
      <path id="Trazado_111480" data-name="Trazado 111480" d="M4476.307-576.123c-13.4,6.884-31.274,5.95-42.058-4.564-10.279-10.022-12.171-25.747-11.991-40.1a210.987,210.987,0,0,1,2.376-29.034c1.615-10.624,4.4-21.777,12.146-29.22,4.457-4.28,10.242-6.973,16.2-8.61,25.88-7.112,57.239,9.377,57.57,38.5C4510.849-622.995,4501.188-588.909,4476.307-576.123Z" transform="translate(-768.592 -344.583)" fill="#ffa98c"/>
      <path id="Trazado_111481" data-name="Trazado 111481" d="M4452.67-435.77a6.625,6.625,0,0,1-.02,1.61q.051-.389.1-.779a6.747,6.747,0,0,1-.178.857h5.651a2.671,2.671,0,0,1-.131-.54q.052.389.1.779a2.788,2.788,0,0,1,0-.675c-.035.26-.069.519-.1.779a2.747,2.747,0,0,1,.186-.69q-.149.35-.3.7a2.687,2.687,0,0,1,.184-.352,2.182,2.182,0,0,0,.348-1.089,2.218,2.218,0,0,0-.052-1.168,2.211,2.211,0,0,0-.525-1,2.211,2.211,0,0,0-.822-.755l-.7-.3a2.952,2.952,0,0,0-1.559,0l-.7.3a2.945,2.945,0,0,0-1.051,1.051,5.971,5.971,0,0,0-.55,1.238,6.319,6.319,0,0,0-.225,1.322,2.83,2.83,0,0,0,0,.6,5.9,5.9,0,0,0,.24,1.358q.148.35.295.7a2.224,2.224,0,0,0,.755.822,1.463,1.463,0,0,0,.646.377,2.21,2.21,0,0,0,1.129.253l.779-.1.7-.3a2.22,2.22,0,0,0,.822-.755,2.21,2.21,0,0,0,.524-1,11,11,0,0,0,.32-1.98,6.607,6.607,0,0,0-.019-1.266,2.2,2.2,0,0,0-.252-1.129,2.193,2.193,0,0,0-.606-.943,2.19,2.19,0,0,0-.942-.606,2.208,2.208,0,0,0-1.129-.253l-.779.1a2.933,2.933,0,0,0-1.293.754l-.458.593a2.924,2.924,0,0,0-.4,1.479Z" transform="translate(-792.343 -542.499)" fill="#2c2a6c"/>
      <path id="Trazado_111482" data-name="Trazado 111482" d="M4584.955-413.223a6.652,6.652,0,0,1-.02,1.61q.051-.39.1-.779a6.833,6.833,0,0,1-.178.857h5.651a2.7,2.7,0,0,1-.132-.54l.105.779a2.789,2.789,0,0,1,0-.675q-.053.389-.1.779a2.747,2.747,0,0,1,.186-.69q-.149.35-.3.7a2.68,2.68,0,0,1,.184-.353,2.182,2.182,0,0,0,.348-1.089,2.208,2.208,0,0,0-.053-1.168,2.195,2.195,0,0,0-.524-1,2.213,2.213,0,0,0-.822-.755l-.7-.3a2.953,2.953,0,0,0-1.559,0l-.7.3a2.944,2.944,0,0,0-1.051,1.051,5.917,5.917,0,0,0-.549,1.238,6.258,6.258,0,0,0-.226,1.322,2.765,2.765,0,0,0,0,.6,5.9,5.9,0,0,0,.24,1.358l.3.7a2.212,2.212,0,0,0,.754.822,1.466,1.466,0,0,0,.646.377,2.21,2.21,0,0,0,1.129.252l.779-.1.7-.3a2.215,2.215,0,0,0,.822-.755,2.209,2.209,0,0,0,.524-1,10.957,10.957,0,0,0,.32-1.98,6.607,6.607,0,0,0-.019-1.266,2.2,2.2,0,0,0-.252-1.129,2.194,2.194,0,0,0-.606-.943,2.2,2.2,0,0,0-.942-.606,2.2,2.2,0,0,0-1.129-.252l-.779.1a2.934,2.934,0,0,0-1.293.754l-.458.593a2.925,2.925,0,0,0-.4,1.479Z" transform="translate(-896.818 -560.307)" fill="#2c2a6c"/>
      <path id="Trazado_111483" data-name="Trazado 111483" d="M4473.447-637.891c-4.817-.879-7.191-6.5-7.389-11.389s.9-9.949-.624-14.6a4.782,4.782,0,0,0-1.4-2.323c-1.127-.9-2.732-.831-4.155-.6-9.543,1.574-19.092,8.488-28.01,4.747-5.907-2.478-9.737-9.218-16.078-10.131-2.094-.3-4.224.1-6.337.015-5.579-.213-10.466-3.674-14.737-7.269-3.2-2.692-6.567-6.559-5.274-10.534.857-2.638,3.571-4.251,6.263-4.921s5.516-.637,8.22-1.254c5.186-1.183,9.507-4.628,14.2-7.122,12.986-6.893,28.909-6.337,42.884-1.77,8.792,2.873,18.153,8.7,19.139,17.9,5.176-.012,9.193,4.631,11.252,9.38a32.487,32.487,0,0,1,.131,24.586C4488.98-646.72,4481.736-636.378,4473.447-637.891Z" transform="translate(-742.457 -329.449)" fill="#2c2a6c"/>
      <path id="Trazado_111484" data-name="Trazado 111484" d="M4497.045-413.758a1.871,1.871,0,0,0-.088-.269,1.5,1.5,0,0,0-1.051-.958c-.974-.181-1.708.856-2.108,1.765a33.657,33.657,0,0,0-1.238,3.321c-.7,2.176-1.252,4.423-1.909,6.618a25.435,25.435,0,0,1-4.094,8.7c-4.372,5.55-10.97,9.42-16.869,13.115a26.274,26.274,0,0,1-4.564,2.306c-2.868,1.068-6.018,1.436-8.01-.734-3.145-3.425-5.42-6.358-9.75-8.256-5.785-2.541-12.511-4.051-18.767-2.927a11.3,11.3,0,0,1-3.689.314c-3.142-.482-3.68-4.726-4.267-7.273-.042.323-.082.652-.122.983-1.536,12.914-.748,31.293,9.338,40.756a21.643,21.643,0,0,0,7.386,4.559,25.536,25.536,0,0,0,2.825.861,27.465,27.465,0,0,0,3.805.654,32.227,32.227,0,0,0,5.437.091,40.984,40.984,0,0,0,10.123-2.026,48.494,48.494,0,0,0,11.223-5.4c.3-.2.6-.4.9-.6l.595-.411c.275-.2.547-.391.819-.589a56.007,56.007,0,0,0,18.827-24.873,74.072,74.072,0,0,0,2.371-7.145,72.85,72.85,0,0,0,1.836-8.627c.328-2.187.558-4.394.683-6.6.008-.113.014-.227.02-.34.023-.4.04-.8.054-1.193C4496.824-409.613,4497.442-412.154,4497.045-413.758Zm-70.789,28.621a3.776,3.776,0,0,1,.414-1.122c.711-1.289,2.411-1.584,3.881-1.635a39.444,39.444,0,0,1,13.614,2.012c2.731.943,10.922,5.428,5.689,8.528a18.5,18.5,0,0,1-14.257,1.8C4432.507-376.441,4425.418-380.869,4426.257-385.136Z" transform="translate(-766.747 -561.214)" fill="#2c2a6c"/>
      <path id="Trazado_111485" data-name="Trazado 111485" d="M4455.632-437.01a41.3,41.3,0,0,1-6.2-.2,6.142,6.142,0,0,1-2.619-.966,3.474,3.474,0,0,1-.347-.293c-.065-.063-.125-.129-.189-.193-.271-.271.038.077-.078-.091-.054-.078-.1-.161-.146-.242-.032-.052-.071-.208,0,0-.021-.063-.036-.134-.059-.2-.092-.247-.017.166-.017-.078,0-.069-.005-.137,0-.206,0,0,.021-.34,0-.155s.031-.169.03-.164c.016-.075.033-.15.051-.225.1-.393.229-.776.362-1.158q.549-1.578,1.1-3.157l2.328-6.727,1.164-3.364a29.419,29.419,0,0,0,1.03-3.239,7.613,7.613,0,0,0-.694-5.327c-1.366-2.527-4.1-3.944-6.753-4.735a26.819,26.819,0,0,0-4.538-.878q-.981-.115-1.967-.174a7.665,7.665,0,0,0-1.186-.008c-.51.048-1,.152-1.388.188a1.25,1.25,0,0,0-1.217,1.217,1.225,1.225,0,0,0,1.217,1.217c.465-.043.927-.113,1.388-.188.236-.039.046,0,0,0,.1-.008.2-.016.305-.019.237-.008.474,0,.71.017q.823.046,1.644.13c.3.031.6.066.9.1-.289-.037.17.025.243.036q.289.043.576.092c.646.11,1.287.243,1.922.406a18.156,18.156,0,0,1,1.949.612c.065.025.484.2.268.1q.225.1.446.2c.308.146.609.3.9.475.273.16.54.332.8.518.057.041.112.082.167.124-.182-.14-.036-.027,0,0,.143.124.288.245.426.376a8.227,8.227,0,0,1,.626.676c.117.139-.108-.152,0,0,.049.07.1.138.148.209q.144.213.27.438c.077.136.146.276.214.416.027.056.109.274.024.048l.075.2a7.85,7.85,0,0,1,.268,1.011c.012.057.046.3.017.075.015.117.024.237.031.355a5.7,5.7,0,0,1-.011.707,7.653,7.653,0,0,1-.347,1.6c-.671,2.239-1.516,4.437-2.28,6.645l-2.329,6.728c-.324.938-.67,1.871-.972,2.817a5.255,5.255,0,0,0-.272,2.512c.375,2.156,2.793,3.373,4.719,3.792a37.693,37.693,0,0,0,7.31.381,1.217,1.217,0,0,0,0-2.433Z" transform="translate(-778.101 -518.719)" fill="#2c2a6c"/>
      <path id="Trazado_111486" data-name="Trazado 111486" d="M4578.272-441.491a16.65,16.65,0,0,1,13.459,2.408,1.228,1.228,0,0,0,1.664-.436,1.24,1.24,0,0,0-.436-1.665,19.065,19.065,0,0,0-15.334-2.653,1.218,1.218,0,0,0,.646,2.346Z" transform="translate(-890.622 -537.98)" fill="#2c2a6c"/>
      <path id="Trazado_111487" data-name="Trazado 111487" d="M4480.759-271.72c-5.739.245-11.817.511-17.187-1.893a1.254,1.254,0,0,0-1.664.436,1.226,1.226,0,0,0,.436,1.665c5.813,2.6,12.181,2.491,18.415,2.225a1.242,1.242,0,0,0,1.217-1.217,1.229,1.229,0,0,0-1.217-1.216Z" transform="translate(-799.792 -672.77)" fill="#2c2a6c"/>
      <path id="Trazado_111488" data-name="Trazado 111488" d="M4499.019-247.839l-3.713-.711a1.3,1.3,0,0,0-.937.123,1.239,1.239,0,0,0-.559.727,1.233,1.233,0,0,0,.85,1.5l3.713.711a1.3,1.3,0,0,0,.937-.123,1.237,1.237,0,0,0,.559-.727,1.233,1.233,0,0,0-.849-1.5Z" transform="translate(-825.084 -692.649)" fill="#2c2a6c"/>
      <path id="Trazado_111489" data-name="Trazado 111489" d="M4779.448-414.1a6.473,6.473,0,0,1,5.74-2.111,6.308,6.308,0,0,1,4.379,4.383,15.312,15.312,0,0,1,.307,6.434c-.521,4.595-1.678,9.291-4.559,12.908a13.119,13.119,0,0,1-8.094,4.823,3.623,3.623,0,0,1-4.166-3.617C4773.159-398.969,4774.307-408.818,4779.448-414.1Z" transform="translate(-1045.65 -560.185)" fill="#ffa98c"/>
      <path id="Trazado_111490" data-name="Trazado 111490" d="M4818.375-405.817a.954.954,0,0,1,.611.049,1.909,1.909,0,0,1,.581.341,3.177,3.177,0,0,1,.885,1.591,13.856,13.856,0,0,1,.383,4.29,17.1,17.1,0,0,1-2.618,8.321c-.834,1.33,1.27,2.553,2.1,1.228a19.662,19.662,0,0,0,2.815-7.992,18.2,18.2,0,0,0,.056-4.187,8.912,8.912,0,0,0-1.18-4.106,4.1,4.1,0,0,0-4.281-1.881,1.232,1.232,0,0,0-.85,1.5,1.239,1.239,0,0,0,1.5.85Z" transform="translate(-1080.229 -566.545)" fill="#f98a6b"/>
      <path id="Trazado_111491" data-name="Trazado 111491" d="M4801.734-607.444a10.984,10.984,0,0,0-1.409-10.223c-.477-.648-1.575-.018-1.091.638a9.818,9.818,0,0,1,1.281,9.249c-.287.762.935,1.091,1.219.336Z" transform="translate(-1066.231 -400.942)" fill="#2c2a6c"/>
      <path id="Trazado_111492" data-name="Trazado 111492" d="M4811.548-572.209l3.735-.79a.636.636,0,0,0,.441-.777.647.647,0,0,0-.777-.441l-3.735.79a.637.637,0,0,0-.441.777.647.647,0,0,0,.777.441Z" transform="translate(-1075.417 -435.459)" fill="#2c2a6c"/>
      <path id="Trazado_111493" data-name="Trazado 111493" d="M5045.287,725.575a19.507,19.507,0,0,1-.81-2.413c-.341-2.117,1.229-3.991,2.534-5.678s2.459-4.055,1.327-5.866c-.436-.7-1.169-1.2-1.452-1.978-.7-1.921,1.634-3.4,2.872-5.019a6.344,6.344,0,0,0,.292-6.721,9.3,9.3,0,0,0-5.444-4.209,1.421,1.421,0,0,0-1.121-.02,1.548,1.548,0,0,0-.58.916,194.389,194.389,0,0,0-8.028,33.73c-.694,4.771-1.5,8.524,4.359,6.712C5042.876,733.9,5046.486,729.6,5045.287,725.575Z" transform="translate(-1252.05 -1436.731)" fill="#ffa98c"/>
      <path id="Trazado_111494" data-name="Trazado 111494" d="M4656.063,251.3c9.82,14.613,26.5,27.059,42.984,14.243,7.25-5.636,10.5-15,12.985-23.93a312.089,312.089,0,0,0,7.59-34.96c1.668-10.581,4.714-20.572,6.8-31.129,3.936-19.9,7.507-41.86,2.607-61.919-1.916-7.843-11.709-19.728-19.592-18.671-5.228.7-8.72,5.687-11.393,10.307a240.448,240.448,0,0,0-22.47,52.384l-34.23-57.527,0,0-.019.01c-6.57,3.527-16.334,4.682-21.992,9.568-5.967,5.152-2.033,9.769.081,17.048,4.245,14.62,7.285,29.561,10.4,44.46,4.68,22.373,9.415,45,18.524,66.03A90.249,90.249,0,0,0,4656.063,251.3Z" transform="translate(-921.748 -963.9)" fill="#77cfd9"/>
      <path id="Trazado_111495" data-name="Trazado 111495" d="M4112.075,99.733c-10.705,33.449-14.714,68.822-15.024,103.994-.067,7.61.1,15.512,3.376,22.354,4.68,9.777,14.881,15.6,25.093,18.842,13.2,4.189,27.177,5.061,41,5.329,27.179.528,54.346-1.159,81.479-2.845a127.376,127.376,0,0,0-10.843-41.151q-44.908-5.873-89.467-14.163a330.022,330.022,0,0,0,7.012-63.028c.159-10.946-.261-22.094-3.749-32.452-2.844-8.444-10.466-23.659-21.323-21.316C4120.1,77.355,4114.687,91.575,4112.075,99.733Z" transform="translate(-511.752 -948.251)" fill="#77cfd9"/>
      <path id="Trazado_111496" data-name="Trazado 111496" d="M4488.724-84.809q-6.632-13.26-13.262-26.521a18.4,18.4,0,0,0-2.936-4.643c-1.7-1.771-4.026-2.787-5.958-4.3a14.5,14.5,0,0,1-5.275-13.393,14.5,14.5,0,0,1,9.137-11.122,63.412,63.412,0,0,1-8.922-.567c-1.819-.245-4.1-1.1-4.05-2.937.038-1.438,1.57-2.338,2.955-2.726,4.606-1.292,9.512-.1,14.29-.324,4.739-.224,9.288-1.841,13.945-2.746s9.792-1.013,13.809,1.512c3.733,2.347,5.881,6.626,6.777,10.944s.716,8.774.825,13.183a100.344,100.344,0,0,0,10.39,41.983,34.9,34.9,0,0,1-26.877,8.763,3.859,3.859,0,0,1-1.937-.591,4.094,4.094,0,0,1-1.185-1.949l-3.665-9.847Z" transform="translate(-796.398 -766.817)" fill="#ffa98c"/>
      <path id="Trazado_111497" data-name="Trazado 111497" d="M4506.7-53.209a48.74,48.74,0,0,0,2.422,9.645c1.142,3.138,2.724,6.057,4.082,9.1a22.419,22.419,0,0,1,1.626,5.008,1.227,1.227,0,0,0,1.5.85,1.243,1.243,0,0,0,.85-1.5,36.279,36.279,0,0,0-3.514-9.035,50.838,50.838,0,0,1-3.484-9.182,48.818,48.818,0,0,1-1.131-5.537,1.225,1.225,0,0,0-1.5-.85,1.248,1.248,0,0,0-.85,1.5Z" transform="translate(-835.272 -845.739)" fill="#f98a6b"/>
      <path id="Trazado_111498" data-name="Trazado 111498" d="M4497.155-19.926l3.236.717a1.286,1.286,0,0,0,.938-.123,1.238,1.238,0,0,0,.559-.727,1.234,1.234,0,0,0-.85-1.5l-3.236-.717a1.287,1.287,0,0,0-.937.123,1.237,1.237,0,0,0-.559.727,1.234,1.234,0,0,0,.85,1.5Z" transform="translate(-827.055 -871.355)" fill="#f98a6b"/>
      <path id="Trazado_111499" data-name="Trazado 111499" d="M4490.344-54.261l3.6,1.072a1.229,1.229,0,0,0,1.5-.85,1.241,1.241,0,0,0-.85-1.5l-3.6-1.072a1.229,1.229,0,0,0-1.5.85,1.242,1.242,0,0,0,.85,1.5Z" transform="translate(-821.674 -844.232)" fill="#f98a6b"/>
      <path id="Trazado_111500" data-name="Trazado 111500" d="M4496.728-147.565q8.086-4.8,16.522-8.976,2.128-1.052,4.276-2.063a29.966,29.966,0,0,1,4-1.727,6.753,6.753,0,0,1,4.126.167c1.322.415,2.627.933,3.906,1.466a13.71,13.71,0,0,1,5.986,4.155,12.94,12.94,0,0,1,2.169,6.509,60.726,60.726,0,0,1-.044,7.767,64.865,64.865,0,0,0,.235,9.08,129.484,129.484,0,0,0,3.661,18.863q.289,1.146.582,2.291a1.218,1.218,0,0,0,2.346-.647,148.845,148.845,0,0,1-4-19.1,62.564,62.564,0,0,1-.425-9.5c.09-2.64.288-5.283.139-7.925a17.221,17.221,0,0,0-1.938-7.589,13.655,13.655,0,0,0-6.107-5.378c-1.281-.623-2.611-1.141-3.943-1.645a15.7,15.7,0,0,0-4.6-1.206,10.138,10.138,0,0,0-4.664,1.1c-1.433.63-2.846,1.31-4.256,1.986q-8.733,4.186-17.114,9.054-1.046.608-2.087,1.226a1.217,1.217,0,0,0,1.228,2.1Z" transform="translate(-825.984 -760.208)" fill="#f98a6b"/>
      <path id="Trazado_111501" data-name="Trazado 111501" d="M4548.009,61.556A42.693,42.693,0,0,0,4561.9,77.4a40.933,40.933,0,0,0,5.149,3.014,1.248,1.248,0,0,0,1.665-.436,1.228,1.228,0,0,0-.437-1.664,40.222,40.222,0,0,1-15.194-12.995,40.872,40.872,0,0,1-2.978-4.994,1.217,1.217,0,1,0-2.1,1.228Z" transform="translate(-867.795 -936.15)" fill="#f98a6b"/>
      <path id="Trazado_111502" data-name="Trazado 111502" d="M4770.944,166.673q6.229,10.072,11.8,20.542T4793.2,208.5q4.841,10.711,8.986,21.726,4.182,11.111,7.646,22.482t6.186,22.941q.335,1.422.658,2.846c.352,1.55,2.7.894,2.347-.657q-2.644-11.64-6.033-23.088-3.374-11.391-7.475-22.542-4.135-11.246-8.983-22.2-4.8-10.851-10.284-21.369-5.506-10.555-11.686-20.727-.756-1.244-1.521-2.481a1.222,1.222,0,0,0-2.1,1.248Z" transform="translate(-1043.83 -1019.165)" fill="#419ca6"/>
      <path id="Trazado_111503" data-name="Trazado 111503" d="M4912.447,291.727a136.746,136.746,0,0,1,3.236-26.611q.828-3.709,1.861-7.366a1.219,1.219,0,0,0-2.346-.657,139.988,139.988,0,0,0-4.795,26.944q-.3,3.839-.389,7.69a1.217,1.217,0,0,0,2.433,0Z" transform="translate(-1153.816 -1091.331)" fill="#419ca6"/>
      <path id="Trazado_111504" data-name="Trazado 111504" d="M4628.76,236.7c2.458,15.228,4.252,30.558,6.741,45.782,2.345,14.347,5.317,28.646,10.056,42.393a139.059,139.059,0,0,0,17.249,34.761,101.412,101.412,0,0,0,12.5,14.721c4.668,4.5,10.027,9.021,16.436,10.562a17.213,17.213,0,0,0,9.161-.233,19.674,19.674,0,0,0,6.854-3.924c4.268-3.647,7.271-8.694,9.78-13.686.623-1.241,1.218-2.5,1.8-3.757a1.283,1.283,0,0,0-.436-1.691,1.216,1.216,0,0,0-1.665.443c-4.114,8.948-10.406,21.251-21.77,20.888-6.412-.2-12.033-4.456-16.613-8.636a95.964,95.964,0,0,1-12.489-13.9,132.435,132.435,0,0,1-17.5-33.461c-4.78-13.147-7.872-26.849-10.267-40.63-2.584-14.869-4.368-29.864-6.638-44.782q-.419-2.752-.862-5.5a1.223,1.223,0,0,0-1.5-.863,1.268,1.268,0,0,0-.85,1.521Z" transform="translate(-931.671 -1074.682)" fill="#419ca6"/>
      <path id="Trazado_111505" data-name="Trazado 111505" d="M4329.349,263.743a131.392,131.392,0,0,1,.122,30.1,255.425,255.425,0,0,1-5.131,29.714c-1.245,5.563-2.589,11.1-3.938,16.639-.376,1.545,1.969,2.2,2.346.657,2.411-9.891,4.8-19.794,6.648-29.814a183.352,183.352,0,0,0,3.3-30.289,118.957,118.957,0,0,0-.917-17.011,1.267,1.267,0,0,0-1.217-1.236,1.232,1.232,0,0,0-1.216,1.236Z" transform="translate(-688.124 -1096.295)" fill="#419ca6"/>
      <path id="Trazado_111506" data-name="Trazado 111506" d="M4363.739,635.668l29.463,4.322,29.463,4.322,16.561,2.429a1.235,1.235,0,0,0,.646-2.384l-29.463-4.322-29.463-4.323-16.562-2.429a1.235,1.235,0,0,0-.646,2.384Z" transform="translate(-721.683 -1389.109)" fill="#419ca6"/>
      <path id="Trazado_111507" data-name="Trazado 111507" d="M4228.424,654.932a88.654,88.654,0,0,1,13.168-15.235q2.127-1.96,4.375-3.776a1.258,1.258,0,0,0,0-1.748,1.231,1.231,0,0,0-1.72,0,89.747,89.747,0,0,0-14.37,14.643q-1.851,2.378-3.554,4.869a1.26,1.26,0,0,0,.437,1.691,1.23,1.23,0,0,0,1.665-.443Z" transform="translate(-613.72 -1389.548)" fill="#419ca6"/>
      <path id="Trazado_111508" data-name="Trazado 111508" d="M4796.451,824.56a60.94,60.94,0,0,1-7.328-10.845c-.185,4.422-.185,6.753-.008,11.057C4789.167,826.038,4794.2,824.554,4796.451,824.56Z" transform="translate(-1058.23 -1531.624)" fill="#ffa98c"/>
      <path id="Trazado_111509" data-name="Trazado 111509" d="M4281.716,870.3q20.566,1.342,41.194,1.073,20.5-.271,40.946-2.141,11.449-1.048,22.847-2.6a1.267,1.267,0,0,0,1.217-1.236c0-.6-.561-1.326-1.217-1.236q-20.427,2.773-41.024,3.944-20.474,1.159-41,.72-11.492-.247-22.968-1a1.236,1.236,0,0,0,0,2.472Z" transform="translate(-656.642 -1571.459)" fill="#419ca6"/>
      <path id="Trazado_111510" data-name="Trazado 111510" d="M4782.482,813.866c-.042-1.068-.033-2.139-.121-3.2a29.973,29.973,0,0,0-.741-4.357,1.226,1.226,0,0,0-1.5-.864,1.265,1.265,0,0,0-.85,1.521c.18.773.349,1.55.481,2.334q.039.233.074.468c.011.073.021.147.031.221.025.172-.037-.316,0-.032.029.261.058.523.078.785.081,1.041.074,2.087.115,3.13a1.216,1.216,0,1,0,2.433,0Z" transform="translate(-1050.533 -1525.05)" fill="#419ca6"/>
      <path id="Trazado_111511" data-name="Trazado 111511" d="M4238.027,1284.424a54.694,54.694,0,0,0,13.358-8.8,55.807,55.807,0,0,0,10.3-12.251,54.729,54.729,0,0,0,4.112-8.1,1,1,0,0,0-.7-1.228,1.024,1.024,0,0,0-1.229.7,52.231,52.231,0,0,1-7.84,13.147,54.034,54.034,0,0,1-11.335,10.454,53.218,53.218,0,0,1-7.675,4.357,1.007,1.007,0,0,0-.358,1.366,1.022,1.022,0,0,0,1.366.358Z" transform="translate(-621.919 -1879.355)" fill="#fff"/>
      <path id="Trazado_111512" data-name="Trazado 111512" d="M4868.324,1289.672a48.608,48.608,0,0,0,4.434,21.226,50.731,50.731,0,0,0,12.891,17.33,47.06,47.06,0,0,0,10.151,6.747,1.023,1.023,0,0,0,1.365-.358,1.007,1.007,0,0,0-.357-1.366,46.823,46.823,0,0,1-16.2-13.217,48.911,48.911,0,0,1-9.047-18.691,45.026,45.026,0,0,1-1.24-11.672,1,1,0,0,0-2,0Z" transform="translate(-1120.879 -1906.761)" fill="#fff"/>
      <path id="Trazado_111513" data-name="Trazado 111513" d="M4040.681-1045.288A9.213,9.213,0,0,0,4033.9-1048a9.5,9.5,0,0,0-6.883,2.785,9.083,9.083,0,0,0-2.776,6.782,8.844,8.844,0,0,0,2.944,7.043,10.036,10.036,0,0,0,6.813,2.488,9.7,9.7,0,0,0,6.631-2.589,8.917,8.917,0,0,0,2.838-7.04A9.2,9.2,0,0,0,4040.681-1045.288Zm21.716-67.751a26.546,26.546,0,0,0-11-9.236,37.232,37.232,0,0,0-16.369-3.331,35.759,35.759,0,0,0-17.416,4.177,30.007,30.007,0,0,0-11.315,10.373,23.112,23.112,0,0,0-3.832,12.315,7.719,7.719,0,0,0,2.488,5.449,8.084,8.084,0,0,0,6.048,2.49q6.068-.029,8.2-7.258,2.265-6.908,5.566-10.472t10.329-3.6a13.885,13.885,0,0,1,9.822,3.462,11.292,11.292,0,0,1,3.844,8.6,9.8,9.8,0,0,1-1.219,4.86,18.34,18.34,0,0,1-3.045,4.073q-1.811,1.828-5.88,5.426a101.353,101.353,0,0,0-7.373,7.1,23.576,23.576,0,0,0-4.37,6.919,23.764,23.764,0,0,0-1.614,9.3q.025,4.278,2.3,6.438a7.768,7.768,0,0,0,5.6,2.143q6.383-.034,7.564-6.682.689-3.135,1.031-4.381a13.523,13.523,0,0,1,.978-2.5,14.2,14.2,0,0,1,1.933-2.756,44.72,44.72,0,0,1,3.466-3.5q7.82-7.063,10.836-10.051a29.006,29.006,0,0,0,5.2-7.085,19.753,19.753,0,0,0,2.154-9.527A22.8,22.8,0,0,0,4062.4-1113.04Z" transform="translate(-437.058)" fill="url(#linear-gradient)"/>
      <path id="Trazado_111514" data-name="Trazado 111514" d="M5366.5-312.256a28.627,28.627,0,0,0-6.512-14.077,40.176,40.176,0,0,0-14.461-10.77,38.649,38.649,0,0,0-18.937-3.913,32.4,32.4,0,0,0-15.818,4.942,24.933,24.933,0,0,0-9.4,10.275,8.337,8.337,0,0,0-.071,6.466,8.75,8.75,0,0,0,4.767,5.212q5.944,2.755,11.347-3.329,5.388-5.714,10.246-7.676t11.745,1.225a14.979,14.979,0,0,1,8.011,7.893,12.2,12.2,0,0,1-.192,10.172,10.611,10.611,0,0,1-3.425,4.187,19.8,19.8,0,0,1-4.846,2.581q-2.605.956-8.235,2.6a109.926,109.926,0,0,0-10.463,3.55,25.538,25.538,0,0,0-7.448,4.756,25.617,25.617,0,0,0-5.846,8.349q-1.944,4.192-.708,7.348a8.374,8.374,0,0,0,4.489,4.664q6.254,2.9,10.46-3.055,2.109-2.745,3.019-3.806a14.41,14.41,0,0,1,2.1-1.99,15.07,15.07,0,0,1,3.154-1.809,48,48,0,0,1,4.992-1.826q10.884-3.316,15.2-4.849a31.457,31.457,0,0,0,8.334-4.532,21.315,21.315,0,0,0,6.479-8.324A24.591,24.591,0,0,0,5366.5-312.256Zm-52.325,56.234a9.929,9.929,0,0,0-5.384-5.764,10.235,10.235,0,0,0-8-.441,9.819,9.819,0,0,0-5.829,5.355,9.551,9.551,0,0,0-.356,8.231,10.846,10.846,0,0,0,5.515,5.561,10.488,10.488,0,0,0,7.669.513,9.622,9.622,0,0,0,6-5.575A9.943,9.943,0,0,0,5314.174-256.022Z" transform="translate(-1456.946 -619.592)" fill="#419ca6"/>
      <path id="Trazado_111515" data-name="Trazado 111515" d="M3516.7-318.322a36.211,36.211,0,0,0-19.061-4.634,50.812,50.812,0,0,0-22.044,5.839q-12.161,6.1-18.778,15.667a40.981,40.981,0,0,0-7.558,19.548q-.941,9.986,2.773,17.391a10.543,10.543,0,0,0,6.344,5.159,11.067,11.067,0,0,0,8.912-.617q7.406-3.715,5.635-13.852-1.416-9.831.466-16.185t10.457-10.663q7.323-3.677,14.119-1.717a15.427,15.427,0,0,1,9.918,8.2,13.434,13.434,0,0,1,1.449,6.686,25.056,25.056,0,0,1-1.259,6.828q-1.105,3.332-3.905,10.2a139.156,139.156,0,0,0-4.722,13.152,32.291,32.291,0,0,0-1.154,11.117,32.388,32.388,0,0,0,3.664,12.358q2.62,5.224,6.717,6.485a10.59,10.59,0,0,0,8.15-.773q7.793-3.908,5.209-12.759c-.7-2.832-1.173-4.827-1.391-5.984a18.183,18.183,0,0,1-.317-3.646,19.1,19.1,0,0,1,.692-4.546,60.769,60.769,0,0,1,2.121-6.379q5.284-13.384,7.165-18.866a39.793,39.793,0,0,0,2.074-11.818,26.961,26.961,0,0,0-3.14-12.966A31.1,31.1,0,0,0,3516.7-318.322Zm14.484,96.059a12.556,12.556,0,0,0-9.943.792,12.948,12.948,0,0,0-6.737,7.576,12.42,12.42,0,0,0,.714,9.984q2.78,5.532,7.868,6.831a13.717,13.717,0,0,0,9.846-1.082,13.265,13.265,0,0,0,6.543-7.188q1.943-4.875-.794-10.33A12.568,12.568,0,0,0,3531.182-222.264Z" transform="translate(0 -633.908)" fill="#f2884b"/>
    </g>
  </g>
</svg>
