<svg xmlns="http://www.w3.org/2000/svg" xmlns:xlink="http://www.w3.org/1999/xlink" width="505" height="415.962" viewBox="0 0 505 415.962">
  <defs>
    <clipPath id="clip-path">
      <path id="Trazado_110738" data-name="Trazado 110738" d="M723.884,81.173c0-27.157-21.566-49.173-48.17-49.173s-48.17,22.015-48.17,49.173a49.685,49.685,0,0,0,7.431,26.246h0c13.4,22.928,16.5,42.131,16.5,42.131h48.479s3.1-19.2,16.5-42.131h0A49.69,49.69,0,0,0,723.884,81.173Z" transform="translate(-627.544 -32)" fill="none"/>
    </clipPath>
  </defs>
  <g id="Grupo_78725" data-name="Grupo 78725" transform="translate(8617 10454.962)">
    <ellipse id="Elipse_4610" data-name="Elipse 4610" cx="34.038" cy="6.892" rx="34.038" ry="6.892" transform="translate(-8294.835 -10052.784)" opacity="0.11"/>
    <g id="Grupo_74346" data-name="Grupo 74346" transform="translate(-8259.168 -10132.274)">
      <g id="Grupo_74345" data-name="Grupo 74345">
        <path id="Trazado_110726" data-name="Trazado 110726" d="M724.554,607.609l-4.757,6.085,3.542,2.752,5.273-6.746Z" transform="translate(-719.798 -607.609)" fill="#eac5b0"/>
      </g>
    </g>
    <g id="Grupo_74347" data-name="Grupo 74347" transform="translate(-8262.28 -10127.856)">
      <path id="Trazado_110727" data-name="Trazado 110727" d="M721.1,619.442l-2.483-3.269-1.575-.683-2.793,1.182,2.568,10.28h0a2.429,2.429,0,0,0,3.06-2.311l.006-.522Z" transform="translate(-714.246 -615.49)" fill="#1a3151"/>
    </g>
    <g id="Grupo_74350" data-name="Grupo 74350" transform="translate(-8273.608 -10132.269)">
      <g id="Grupo_74349" data-name="Grupo 74349">
        <path id="Trazado_110728" data-name="Trazado 110728" d="M698.1,607.62l4.761,6.081-3.54,2.754-5.279-6.742Z" transform="translate(-694.038 -607.62)" fill="#eac5b0"/>
      </g>
    </g>
    <g id="Grupo_74351" data-name="Grupo 74351" transform="translate(-8268.563 -10127.851)">
      <path id="Trazado_110729" data-name="Trazado 110729" d="M703.04,619.879l2.1-3.525,1.489-.854,2.908.863-1.4,10.5h0a2.43,2.43,0,0,1-3.3-1.957l-.064-.518Z" transform="translate(-703.04 -615.5)" fill="#1a3151"/>
    </g>
    <path id="Trazado_110730" data-name="Trazado 110730" d="M719.658,481.832c-3.112-7.33-7.028-12.364-10.368-19.271-3.92-.618-7.861-1.9-11.783-2.822.29-.492.575-.985.871-1.474-5.267.478-10.65-.1-15.9.507-2.179.092-4.359.162-6.55.036.258.41.52.818.778,1.228-3.814,1.181-7.555,2.837-11.4,3.739-2.885,7.309-6.022,12.923-8.42,20.75s-3.951,17.815-6.676,25.949c7.855,12.487,17.973,26.929,25.612,39.5,2.715-1.045,3.422-4.36,6.183-5.279-3.549-11.547-6.622-23.231-10.542-34.661,4.456-7.793,8.367-15.831,12.279-23.873a5.4,5.4,0,0,1,9.388-.542c4.5,7.036,8.926,14.117,13.133,21.347-4.322,12.989-10.1,25.209-15.518,37.75,2.58,1.336,2.51,4.422,5.093,5.753,10.268-13.856,22.953-29.116,31.923-43.933C725.038,498.7,722.77,489.162,719.658,481.832Z" transform="translate(-8948.388 -10674.262)" fill="#1a3151"/>
    <path id="Trazado_110731" data-name="Trazado 110731" d="M708,327.8a12.05,12.05,0,0,0-2.881-1.539,15.37,15.37,0,0,0-5.877-.649c-4.555.144-9.446.823-12.774,3.926-6.279,5.854-5.589,18.961-6.769,27.064q-1.381,9.48-2.762,18.96l-2.54,30.378,35.446.543,11.669-1.861s-3-31.892-3-31.9c-.656-6.976-1.7-13.938-2.555-20.893C715.031,344.3,714.895,332.81,708,327.8Z" transform="translate(-8959.016 -10615.966)" fill="#145566"/>
    <g id="Grupo_74355" data-name="Grupo 74355" transform="translate(-8270.617 -10317.065)">
      <path id="Trazado_110732" data-name="Trazado 110732" d="M714.544,280.744a9.5,9.5,0,0,0-6.754-2.765c-8.673.09-9.334,8.5-7.719,15.047a12.781,12.781,0,0,0,4.553,7.452,8.232,8.232,0,0,0,2.169,1.1,18.966,18.966,0,0,0-.193,3.964c-.046.744-.269,1.39.207,1.989.6.751,1.909.841,2.779.817a3.778,3.778,0,0,0,2.006-.5c.956-.635.727-1.5.687-2.456-.057-1.371.119-2.736,0-4.11a5.551,5.551,0,0,0,.7-.427c2.321-1.681,3.074-4.753,3.508-7.58C717.049,289.6,717.389,283.606,714.544,280.744Z" transform="translate(-699.373 -277.979)" fill="#eac5b0"/>
    </g>
    <g id="Grupo_74356" data-name="Grupo 74356" transform="translate(-8263.251 -10323.507)">
      <path id="Trazado_110733" data-name="Trazado 110733" d="M720.915,283.752c.278.327.751.41,1.09.675,1.131.885.035,2.832.719,4.091.877,1.615.719,4.448-.964,5.789-.572.456-1.341.775-1.58,1.464-.278.8.284,1.842-.29,2.469.914.939,2.481.739,3.693.237s2.4-1.252,3.708-1.2c.417.015.915.08,1.173-.246a1.333,1.333,0,0,0,.183-.714c.3-3,3.853-2.233,4.327-4.667.127-.654-.674-2.269-.66-3.126.023-1.364.8-2.582.339-3.98-.192-.578-.578-1.076-.777-1.652-.4-1.171.018-2.441.26-3.655s.2-2.685-.794-3.423c-.78-.577-1.908-.506-2.676-1.1-1.7-1.313-.453-4.743-2.367-5.721-.982-.5-2.177.047-3.269-.112-1.153-.168-2.023-1.084-2.987-1.737s-2.41-1-3.2-.145c-.663.721-.484,1.925-1.093,2.693-.52.657-1.442.8-2.2,1.156-3.568,1.68,3.152,2.777,4.117,3.954a26.318,26.318,0,0,1,2.27,4C720.623,280.133,720.185,282.894,720.915,283.752Z" transform="translate(-712.513 -266.489)" fill="#1a3151"/>
    </g>
    <g id="Grupo_74357" data-name="Grupo 74357" transform="translate(-8281.461 -10323.074)">
      <path id="Trazado_110734" data-name="Trazado 110734" d="M696.236,275.645c-4.365.926-1.718,4.174-3.112,6.828-.549,1.044-2.051,1.437-2.349,2.578-.24.919.433,1.794.971,2.578s.953,1.917.3,2.612c-.2.209-.471.349-.608.6-.358.656.454,1.324,1.142,1.62s1.53.881,1.256,1.576c-.8,2.033-1.316,1.174-.015,2.9.315.417.858.344,1.163.769a2,2,0,0,1-2.233.51c-2.032-.786-1.471.2-3.058.449-1.672.262-1.724-.249-3.187-1.178-1.365-.868-4.224-1.475-4.707-3.235-.27-.984.5-2,.27-2.986-.212-.929-1.241-1.633-1.717-2.508-.963-1.77.495-3.706.8-5.6.418-2.625-1.14-5.892,1.639-7.547.6-.355,1.327-.57,1.937-.914,1.8-1.015,2.154-2.864,2.857-4.456s2.522-3.3,4.728-2.93c2,.333,3.067,2.232,5.1,2.431a7.8,7.8,0,0,1,2.126.177,1.986,1.986,0,0,1,.968.987c.484.895,1.9,3.9.83,4.73C699.95,276.712,698.086,275.253,696.236,275.645Z" transform="translate(-680.03 -267.261)" fill="#1a3151"/>
    </g>
    <g id="Grupo_74358" data-name="Grupo 74358" transform="translate(-8255.734 -10317.195)">
      <path id="Trazado_110735" data-name="Trazado 110735" d="M732.964,290.51a2.5,2.5,0,0,0,.468-1.056,1.361,1.361,0,0,0-.746-1.366,7.485,7.485,0,0,0-.948-.406c-.672-.282-1.215-.6-.908-1.571a5.1,5.1,0,0,1,.25-.459,2.619,2.619,0,0,0,.111-1.826,1.5,1.5,0,0,0-.928-1,4.425,4.425,0,0,0-1.132-.017c-1.433-.1-.9-1.418-.8-2.222a2.53,2.53,0,0,0-2.243-2.836c-.222-.029-.221.32,0,.349a2.225,2.225,0,0,1,1.682,1.145,2.79,2.79,0,0,1,.093,1.949,1.785,1.785,0,0,0,.359,1.7c.761.662,1.875-.245,2.5.733.6.942-.065,1.735-.339,2.6-.7,2.2,3.8,1.5,2.429,3.875-.354.613-1.029,1.214-.914,1.995a1.024,1.024,0,0,0,1.1.945c.221-.024.225-.372,0-.349-.954.1-.745-1.08-.5-1.506C732.632,290.948,732.812,290.738,732.964,290.51Z" transform="translate(-725.922 -277.747)" fill="#c69c6d"/>
    </g>
    <g id="Grupo_74359" data-name="Grupo 74359" transform="translate(-8275.366 -10315.677)">
      <path id="Trazado_110736" data-name="Trazado 110736" d="M697.861,280.515c-1.22-.152-3.116-.117-3.287,1.482a8.9,8.9,0,0,0,.537,2.363c.262,1.585-1.339,1.921-2.456,2.4-1.2.511-2.237,1.885-.966,2.924q.23.16.452.331l-.272,1.061c-.108.138-.421.248-.558.369a1.037,1.037,0,0,0-.4.615.679.679,0,0,0,.653.815c.225.01.225-.338,0-.348q.051-.456.1-.912.141-.091.285-.178c.091-.076.205-.127.3-.2a1.37,1.37,0,0,0,.363-.421.845.845,0,0,0-.22-1.042c-.294-.292-.6-.392-.8-.8-.335-.7.142-1.315.771-1.684.656-.385,1.438-.5,2.09-.9a2.088,2.088,0,0,0,.843-2.695c-.261-.835-.742-1.944.176-2.556a3.579,3.579,0,0,1,2.391-.27C698.083,280.891,698.082,280.543,697.861,280.515Z" transform="translate(-690.901 -280.457)" fill="#c69c6d"/>
    </g>
    <g id="Grupo_74360" data-name="Grupo 74360" transform="translate(-8278.799 -10309.698)">
      <path id="Trazado_110737" data-name="Trazado 110737" d="M687.025,291.465a.174.174,0,0,0-.092-.336c-.954.28-2.185.757-2.154,1.949a1.138,1.138,0,0,0,.4.86c.392.333.869.309,1.206.742a1.006,1.006,0,0,1-1.171,1.553.174.174,0,0,0-.094.336,1.4,1.4,0,0,0,1.884-1.459,1.5,1.5,0,0,0-.919-1.141c-.687-.386-1.291-.97-.643-1.728A3.186,3.186,0,0,1,687.025,291.465Z" transform="translate(-684.778 -291.121)" fill="#c69c6d"/>
    </g>
    <g id="Grupo_74364" data-name="Grupo 74364" transform="translate(-8310.885 -10454.962)" clip-path="url(#clip-path)">
      <g id="Grupo_74363" data-name="Grupo 74363" transform="translate(-12.327 -3.518)">
        <rect id="Rectángulo_32925" data-name="Rectángulo 32925" width="129.445" height="17.798" transform="translate(0 53.394)" fill="#ffd559"/>
        <rect id="Rectángulo_32926" data-name="Rectángulo 32926" width="129.445" height="17.798" transform="translate(0 71.192)" fill="#ebb044"/>
        <rect id="Rectángulo_32927" data-name="Rectángulo 32927" width="129.445" height="17.798" transform="translate(0 88.99)" fill="#d1e7f5"/>
        <rect id="Rectángulo_32928" data-name="Rectángulo 32928" width="129.445" height="17.798" transform="translate(0 106.788)" fill="#3ababa"/>
        <rect id="Rectángulo_32929" data-name="Rectángulo 32929" width="129.445" height="17.798" fill="#ffd559"/>
        <rect id="Rectángulo_32930" data-name="Rectángulo 32930" width="129.445" height="17.798" transform="translate(0 17.798)" fill="#d1e7f5"/>
        <rect id="Rectángulo_32931" data-name="Rectángulo 32931" width="129.445" height="17.798" transform="translate(0 35.596)" fill="#c8d6a1"/>
      </g>
    </g>
    <path id="Trazado_110739" data-name="Trazado 110739" d="M639.466,89.967c0-23.71,18.828-42.929,42.054-42.929A41.691,41.691,0,0,1,714.856,63.8,41.9,41.9,0,0,0,678.39,42.265c-23.226,0-42.054,19.22-42.054,42.929a43.314,43.314,0,0,0,8.719,26.169A43.414,43.414,0,0,1,639.466,89.967Z" transform="translate(-8942.292 -10491.472)" fill="#fff"/>
    <path id="Trazado_110740" data-name="Trazado 110740" d="M690.145,185.542,684.31,122.6l8.131,6.9,7.095-11.473,7.19,11.107,7.994-6.6-5.841,63h2.488l6.373-68.746-10.451,8.622-7.8-12.05-7.635,12.346-10.575-8.977,6.379,68.805Z" transform="translate(-8962.039 -10522.715)" fill="#f5f6f5"/>
    <path id="Trazado_110741" data-name="Trazado 110741" d="M687.818,305.031v7.719a4.5,4.5,0,0,0,4.448,4.54h19.865a4.5,4.5,0,0,0,4.448-4.54v-7.719Z" transform="translate(-8964.913 -10606.931)" fill="#737270"/>
    <path id="Trazado_110742" data-name="Trazado 110742" d="M669.236,242.111V274.9a2.428,2.428,0,0,0,2.372,2.481h44.851a2.428,2.428,0,0,0,2.372-2.481V242.111Z" transform="translate(-8956.748 -10579.284)" fill="#b0afad"/>
    <g id="Grupo_74368" data-name="Grupo 74368" transform="translate(-8287.513 -10329.03)">
      <rect id="Rectángulo_32932" data-name="Rectángulo 32932" width="49.595" height="6.056" fill="#888482"/>
      <rect id="Rectángulo_32933" data-name="Rectángulo 32933" width="49.595" height="6.056" transform="translate(0 12.933)" fill="#888482"/>
    </g>
    <g id="Grupo_74369" data-name="Grupo 74369" transform="translate(-8287.429 -10337.173)">
      <path id="Trazado_110743" data-name="Trazado 110743" d="M717.738,274.314h22.405v-6.877H726.322A91.713,91.713,0,0,1,717.738,274.314Z" transform="translate(-690.631 -253.239)" fill="#94908b"/>
      <path id="Trazado_110744" data-name="Trazado 110744" d="M751.687,250.253v-8.142h-.78q-3.419,4.438-6.9,8.142Z" transform="translate(-702.175 -242.111)" fill="#94908b"/>
      <path id="Trazado_110745" data-name="Trazado 110745" d="M671.673,298.649h44.851a2.428,2.428,0,0,0,2.373-2.481v-5.662H686.513a72.186,72.186,0,0,1-17.128,6.281A2.389,2.389,0,0,0,671.673,298.649Z" transform="translate(-669.385 -263.376)" fill="#94908b"/>
      <path id="Trazado_110746" data-name="Trazado 110746" d="M733.05,262.691h13.821v-6.056h-7.677Q736.123,259.924,733.05,262.691Z" transform="translate(-697.359 -248.493)" fill="#737270"/>
      <path id="Trazado_110747" data-name="Trazado 110747" d="M699.938,285.76h32.384V279.7H709.917A82.939,82.939,0,0,1,699.938,285.76Z" transform="translate(-682.81 -258.629)" fill="#737270"/>
    </g>
    <path id="Trazado_110748" data-name="Trazado 110748" d="M723.563,313.394c-5.594,5.5-16.308,7.161-19.849,7.571h15.4a4.494,4.494,0,0,0,4.448-4.54Z" transform="translate(-8971.898 -10610.605)" fill="#5d5a5a"/>
    <path id="Trazado_110749" data-name="Trazado 110749" d="M762.187,265.925a7.691,7.691,0,0,0-2.215-3.616c-.782-.679-3.333-2.513-4.275-1.108a.57.57,0,0,0-.07.292,5.837,5.837,0,0,0,.425,3.027c.469.685,1.182.424,1.814,1a.963.963,0,0,1,.03,1.458,2.529,2.529,0,0,1-.911.2c-.308.06-.644.306-.578.612a.743.743,0,0,0,.307.385l1.819,1.439c.881.7,1.859,1.631,1.654,2.733a10.63,10.63,0,0,0,2.965-.181A34.758,34.758,0,0,0,762.187,265.925Z" transform="translate(-8994.699 -10587.445)" fill="#eac5b0"/>
    <path id="Trazado_110750" data-name="Trazado 110750" d="M730.243,318.536c-.4-1.179-.759-2.384-1.1-3.638-.2-.731-2.513-11.807-.669-11.419a41.185,41.185,0,0,0,12.357.636c.607-.058,6.834-.49,6.83-1.072q-.062-9.3-.66-18.589c-.2-3.08-.75-6.253-.753-9.331,0-1.318-.021-1.079,1.081-1.612.9-.433,2.364-.727,3.166,0a4.75,4.75,0,0,1,1.154,2.665c1.623,7.768,4.434,15.212,6.732,22.791,1.516,5,4.287,11.823,1.051,16.751a12.206,12.206,0,0,1-4.417,3.573,160.186,160.186,0,0,1-17.128,8.43,3.823,3.823,0,0,1-2.2.434c-1.086-.227-1.741-1.3-2.266-2.275A46.382,46.382,0,0,1,730.243,318.536Z" transform="translate(-8982.464 -10592.887)" fill="#145566"/>
    <path id="Trazado_110751" data-name="Trazado 110751" d="M660.864,269.624a7.687,7.687,0,0,1,2.215-3.616c.782-.679,3.333-2.514,4.275-1.108a.563.563,0,0,1,.07.291,5.824,5.824,0,0,1-.425,3.027c-.469.685-1.181.425-1.814,1a.962.962,0,0,0-.03,1.458,2.534,2.534,0,0,0,.911.2c.308.059.644.306.577.612a.733.733,0,0,1-.307.385l-1.818,1.44c-.881.7-1.858,1.631-1.654,2.733a10.631,10.631,0,0,1-2.965-.18A34.843,34.843,0,0,1,660.864,269.624Z" transform="translate(-8952.646 -10589.07)" fill="#eac5b0"/>
    <path id="Trazado_110752" data-name="Trazado 110752" d="M677,322.54c.584-3.358.993-6.419.988-7-.017-1.626.21-7.354-1.358-8.218-1.232-.679-6.334,1.191-8.14,1a8.132,8.132,0,0,1-5.35-3.249,19.449,19.449,0,0,1-2.832-5.729c-1.119-3.237-2.507-6.859-2.205-10.3.3-3.4,1.277-6.713,1.28-10.218,0-1.319.022-1.079-1.081-1.612-.9-.433-2.363-.727-3.165,0-2.077,1.88-2.357,6.133-2.989,8.659l-3.041,12.147a20.6,20.6,0,0,0-.917,7.7,17.452,17.452,0,0,0,3.185,7.189,56.558,56.558,0,0,0,22.752,19.482C674.968,332.781,676.164,327.356,677,322.54Z" transform="translate(-8947.456 -10594.512)" fill="#145566"/>
    <g id="Grupo_74379" data-name="Grupo 74379" transform="translate(-8480.274 -10060.378)">
      <path id="Trazado_110753" data-name="Trazado 110753" d="M325.406,736.684l-.018,7.7,4.482.01.02-8.535Z" transform="translate(-325.388 -735.858)" fill="#edd3b8"/>
    </g>
    <g id="Grupo_74380" data-name="Grupo 74380" transform="translate(-8459.885 -10062.102)">
      <path id="Trazado_110754" data-name="Trazado 110754" d="M361.759,734.2l.886,8.319,4.843-.512-.982-9.223Z" transform="translate(-361.759 -732.783)" fill="#edd3b8"/>
    </g>
    <path id="Trazado_110755" data-name="Trazado 110755" d="M367.29,748.737l-4.353.973-1.385,1.242-.086,3.28,11.331,2.1h0a2.623,2.623,0,0,0-.913-4.05l-.514-.241Z" transform="translate(-8821.515 -10801.896)" fill="#1a3151"/>
    <path id="Trazado_110756" data-name="Trazado 110756" d="M320.67,750.136l4.482-.011,1.571,2.059-.176,3.638-11.5.711-.469-1.117a2.4,2.4,0,0,1,1.885-3.349l.255-.034Z" transform="translate(-8800.82 -10802.505)" fill="#1a3151"/>
    <g id="Grupo_74385" data-name="Grupo 74385" transform="translate(-8493.492 -10156.511)">
      <path id="Trazado_110757" data-name="Trazado 110757" d="M301.808,590.887l4.249,37.958,1.689,37.218,14.412.05,5.766-101.736-23.229.363Z" transform="translate(-301.808 -564.377)" fill="#145566"/>
    </g>
    <g id="Grupo_74387" data-name="Grupo 74387" transform="translate(-8472.126 -10156.498)">
      <g id="Grupo_74386" data-name="Grupo 74386">
        <path id="Trazado_110758" data-name="Trazado 110758" d="M361.557,585.844l3.126,37.029-3.958,43.134-13.994-.417-2.02-41.764-2.369-33.774-2.42-25.174,16.756-.48Z" transform="translate(-339.922 -564.399)" fill="#145566"/>
      </g>
    </g>
    <path id="Trazado_110759" data-name="Trazado 110759" d="M330.974,461.891l-16.248.592-8.615,7.7-5.321,28.423-2.95,24.347,37.982.171,9.475-2.39-2.979-25.521-1.43-28.151Z" transform="translate(-8793.557 -10675.855)" fill="#d1e7f5"/>
    <g id="Grupo_74392" data-name="Grupo 74392" transform="translate(-8481.098 -10248.354)">
      <g id="Grupo_74391" data-name="Grupo 74391" transform="translate(0.106 6.092)">
        <g id="Grupo_74390" data-name="Grupo 74390">
          <path id="Trazado_110760" data-name="Trazado 110760" d="M340.235,414.474a10.008,10.008,0,0,0-7.048-3.06c-9.133-.1-10.017,8.745-8.462,15.671a13.455,13.455,0,0,0,4.628,7.946,8.5,8.5,0,0,0,2.26,1.2v0c-.15.468-.243,6.175-.646,6.112a12.488,12.488,0,0,0,6.315-.662c-.027-1.7.236-3.8.109-5.64a6.018,6.018,0,0,0,.75-.434c2.481-1.719,3.343-4.937,3.863-7.9C342.676,423.857,343.167,417.549,340.235,414.474Z" transform="translate(-324.107 -411.413)" fill="#eac5b0"/>
        </g>
      </g>
      <path id="Trazado_110761" data-name="Trazado 110761" d="M338.688,413.813c1.732,2.051,1.857,4.974,1.772,7.653-.114,3.562-.482,7.219-2.115,10.389L345,426.8a7.591,7.591,0,0,0,2.2-2.213,7.277,7.277,0,0,0,.68-3.067c.378-5.614.113-11.729-3.4-16.129a13.134,13.134,0,0,0-9.194-4.832c-2.9-.209-15.047,3.493-10.265,8,1.378,1.3,4.779,1.5,6.544,1.974C334.083,411.2,336.916,411.715,338.688,413.813Z" transform="translate(-323.917 -400.546)" fill="#1a3151"/>
    </g>
    <path id="Trazado_110762" data-name="Trazado 110762" d="M322.4,412.7a2.412,2.412,0,0,0-1.031.214,2.261,2.261,0,0,0-.808.945,18.772,18.772,0,0,0-.345,17.358,13.9,13.9,0,0,1-9.007-10.572,17.871,17.871,0,0,1,3.41-13.733c2.693-3.657,7.042-6.5,11.562-5.975a9.526,9.526,0,0,1,6.723,4.115C338.576,413.556,327.871,412.38,322.4,412.7Z" transform="translate(-8799.311 -10649.042)" fill="#1a3151"/>
    <path id="Trazado_110763" data-name="Trazado 110763" d="M296.894,392.546a1.376,1.376,0,0,1,.21-.391,14.789,14.789,0,0,1,3.742-2.787c.932-.577,2.027.325,2.738.832a.973.973,0,0,1,.47.571.755.755,0,0,1-.084.425c-.353.765-1.209,1-1.758,1.58a1.22,1.22,0,0,0-.46.982c.167.881.971.113,1.415-.087.885.866-.012,1.408-.72,1.939a23.5,23.5,0,0,1-2.756,1.779c-.745.41-1.056.687-1.773.176a17.567,17.567,0,0,1-1.861-1.295c.2-.853.405-1.707.6-2.562A10.514,10.514,0,0,1,296.894,392.546Z" transform="translate(-8792.774 -10643.907)" fill="#eac5b0"/>
    <path id="Trazado_110764" data-name="Trazado 110764" d="M311.877,443.772a5.81,5.81,0,0,0,.041-.767c-.1-7.385-10.88-8.847-16.088-10.083a23.95,23.95,0,0,1-10.815-5.32,140.634,140.634,0,0,1,4.672-26.575c-1.641-1.063-3.28-2.126-4.948-3.149-.056-.035-5.973,14.347-6.463,15.682-1.978,5.387-4.342,10.773-6.056,16.241-.755,2.407,1.923,4.359,3.464,6.174q2.806,3.3,5.722,6.512,5.831,6.417,12.086,12.432l.25.24a5.753,5.753,0,0,0,2.085,1.468c1.524.5,3.142-.318,4.5-1.161a59.447,59.447,0,0,0,7.062-5.122C309.47,448.593,311.559,446.4,311.877,443.772Z" transform="translate(-8782.242 -10647.729)" fill="#d1e7f5"/>
    <path id="Trazado_110765" data-name="Trazado 110765" d="M375.3,397.32a5.1,5.1,0,0,0-.65-.544c-.51-.341-1.185-.475-1.712-.792s-1.172-.714-1.042-1.457,1.158-.325,1.7-.21a1.459,1.459,0,0,0,1.5-.329,1.488,1.488,0,0,0,0-1.826,12.4,12.4,0,0,0-1.394-1.294,5.417,5.417,0,0,1,3.814.969,5,5,0,0,1,1.16,1.683c1.067,2.023,2.25,3.954,3.443,5.91a13.493,13.493,0,0,0-2.739.732c-.863.349-1.106.39-1.807-.282s-1.315-1.525-1.993-2.266C375.5,397.517,375.442,397.463,375.3,397.32Z" transform="translate(-8826.089 -10644.647)" fill="#eac5b0"/>
    <path id="Trazado_110766" data-name="Trazado 110766" d="M365.566,457.682c-2.414-6.117-4.532-12.479-6.9-18.433,4.642-3.8,11.987-2.139,14.041-9.553s1.014-17.066-2.344-24.767a64.556,64.556,0,0,1,6.386-2.252c5.407,9.544,9.028,19.172,7.778,30.415S372.195,449.616,365.566,457.682Z" transform="translate(-8820.282 -10649.837)" fill="#d1e7f5"/>
    <path id="Trazado_110767" data-name="Trazado 110767" d="M316.887,442.344v6.333a3.685,3.685,0,0,0,3.644,3.724h16.278a3.685,3.685,0,0,0,3.644-3.724v-6.333Z" transform="translate(-8801.927 -10667.267)" fill="#1a3151"/>
    <path id="Trazado_110768" data-name="Trazado 110768" d="M346.439,259.055c0-22.278-17.672-40.338-39.471-40.338S267.5,236.777,267.5,259.055a40.791,40.791,0,0,0,6.089,21.53h0c10.983,18.809,13.522,34.562,13.522,34.562h39.724s2.538-15.753,13.522-34.562h0A40.792,40.792,0,0,0,346.439,259.055Z" transform="translate(-8780.225 -10569.005)" fill="#ffd559"/>
    <path id="Trazado_110769" data-name="Trazado 110769" d="M301.66,390.728v26.9a1.991,1.991,0,0,0,1.944,2.035h36.751a1.991,1.991,0,0,0,1.944-2.035v-26.9Z" transform="translate(-8795.235 -10644.586)" fill="#9ea6ad"/>
    <path id="Trazado_110770" data-name="Trazado 110770" d="M361.093,277.2c-10.025,20.031-29.5,50.976-58.651,63.535l.019.109h39.724s2.538-15.753,13.522-34.562h0a40.791,40.791,0,0,0,6.089-21.53A41.361,41.361,0,0,0,361.093,277.2Z" transform="translate(-8795.579 -10594.702)" fill="#fdbe0f"/>
    <path id="Trazado_110771" data-name="Trazado 110771" d="M276.993,265.919c0-19.45,15.428-35.217,34.46-35.217a34.15,34.15,0,0,1,27.316,13.749,34.324,34.324,0,0,0-29.881-17.665c-19.031,0-34.459,15.767-34.459,35.216a35.558,35.558,0,0,0,7.144,21.468A35.643,35.643,0,0,1,276.993,265.919Z" transform="translate(-8783.27 -10572.551)" fill="#ffdf4d"/>
    <path id="Trazado_110772" data-name="Trazado 110772" d="M318.519,344.322l-4.782-51.635,6.663,5.662,5.813-9.412,5.892,9.111,6.551-5.41-4.786,51.684h2.039l5.222-56.395L332.567,295l-6.392-9.885-6.256,10.128-8.665-7.365,5.227,56.443Z" transform="translate(-8799.451 -10598.181)" fill="#f6f7f7"/>
    <path id="Trazado_110773" data-name="Trazado 110773" d="M319.727,380.593l.477,5.149h2.038l-.589-6.361Q320.7,380,319.727,380.593Z" transform="translate(-8803.174 -10639.601)" fill="#edeced"/>
    <path id="Trazado_110774" data-name="Trazado 110774" d="M353.567,350.89l-1.97,21.28h2.038l2.193-23.677Q354.715,349.7,353.567,350.89Z" transform="translate(-8817.178 -10626.028)" fill="#edeced"/>
    <rect id="Rectángulo_32934" data-name="Rectángulo 32934" width="40.639" height="4.968" transform="translate(-8493.576 -10247.179)" fill="#1a3151"/>
    <rect id="Rectángulo_32935" data-name="Rectángulo 32935" width="40.639" height="4.968" transform="translate(-8493.576 -10236.569)" fill="#1a3151"/>
    <path id="Trazado_110775" data-name="Trazado 110775" d="M341.713,390.728q-2.8,3.641-5.651,6.68-2.517,2.7-5.035,4.968a75.282,75.282,0,0,1-7.034,5.641,68.006,68.006,0,0,1-8.177,4.967,59.1,59.1,0,0,1-14.035,5.152,1.959,1.959,0,0,0,1.875,1.527h36.751a1.991,1.991,0,0,0,1.944-2.035v-26.9Z" transform="translate(-8795.289 -10644.586)" opacity="0.11" style="mix-blend-mode: multiply;isolation: isolate"/>
    <g id="Grupo_74405" data-name="Grupo 74405" transform="translate(-8388.639 -10050.826)">
      <path id="Trazado_110776" data-name="Trazado 110776" d="M499.175,756.275l-.659,3.379-7.1,2.27-2.564-3.934,3.882-2.824,7.1-2.27Z" transform="translate(-488.848 -752.896)" fill="#1a3151"/>
    </g>
    <g id="Grupo_74406" data-name="Grupo 74406" transform="translate(-8358.515 -10051.828)">
      <path id="Trazado_110777" data-name="Trazado 110777" d="M542.582,751.691l.3,3.506,6.9,2.925,3-3.8-3.6-3.216Z" transform="translate(-542.582 -751.11)" fill="#1a3151"/>
    </g>
    <path id="Trazado_110778" data-name="Trazado 110778" d="M486.489,574.834l-3.009,10.9,1.56,4.979-.149-.017,1.869,28.724,3.952,57.828,6.654-.24,11.953-67.589.87,3.128,6.455,62.468,6.1-.537,9.453-81.522V576.421Z" transform="translate(-8875.128 -10725.482)" fill="#145566"/>
    <path id="Trazado_110779" data-name="Trazado 110779" d="M511.749,439.715l-7.8-.648c-17.42-1.448-18.66,22.763-20.92,34.807-3.273,17.445-4.713,35.318-3.041,53.025,5.479-2.983,13.072-2.362,19.3-2.577,11.471-.4,23.343-.708,34.4,1.051,2.065.328,1.162-14.5.743-17.26q-1.278-8.421-2.557-16.842-2.31-15.218-4.62-30.437-.068-.447-.136-.892a8.959,8.959,0,0,0-1.081-3.1l-7.221-12.622A9.008,9.008,0,0,0,511.749,439.715Z" transform="translate(-8873.287 -10665.799)" fill="#fff"/>
    <g id="Grupo_74410" data-name="Grupo 74410" transform="translate(-8375.341 -10248.451)">
      <g id="Grupo_74409" data-name="Grupo 74409">
        <path id="Trazado_110780" data-name="Trazado 110780" d="M533.553,400.487c-5.19,1.647-11.11-1.556-16.061.766-2.677,1.255-5.132,4.26-4.909,7.261a18.6,18.6,0,0,0,3.129,9.419c1.713,2.3,2.29,3.194,1.456,5.941l3.3,2.519a1.71,1.71,0,0,0,2.122.246l2.429-.913c.853-.321.705-3.243.829-4.034a2.648,2.648,0,0,1,.307-1.014,2.8,2.8,0,0,1,.956-.811c4.257-2.644,7.684-7.765,7.631-12.872A25.556,25.556,0,0,0,533.553,400.487Z" transform="translate(-512.569 -400.374)" fill="#eac5b0"/>
      </g>
    </g>
    <g id="Grupo_74411" data-name="Grupo 74411" transform="translate(-8380.023 -10262.003)">
      <path id="Trazado_110781" data-name="Trazado 110781" d="M517.183,390.575c.2-.021.4-.038.606-.051a20.6,20.6,0,0,1,8.61,1.326c1.872.711,3.849,1.994,3.993,4.2a9.156,9.156,0,0,1-.455,2.946q-.486,1.813-.973,3.625a1.334,1.334,0,0,0-.062.664c.168.662,1.176.648,1.71.219a22.031,22.031,0,0,0,5.6-6.389c.871-1.821.755-4.243,2.022-5.847.838-1.061,1.539-2.742,2.744-3.327a12.811,12.811,0,0,0,4.509-3.085,4.489,4.489,0,0,0,.649-5.1c-.947-1.466-2.871-1.946-4.619-2.029s-3.561.1-5.192-.534a12.98,12.98,0,0,0-2.107-.843,15.335,15.335,0,0,0-8.434,1.386c-2.073,1.052-4.056,2.425-6.353,2.792-1.842.295-3.73-.088-5.589.068a10.5,10.5,0,0,0-7.708,4.677c-1.921,2.9-2.684,6.969-.951,10.069a35.472,35.472,0,0,1,2.1,4.86c.217.575,1.724,2.88,2.061.949.262-1.5.032-3.053.3-4.55C510.317,392.948,513.713,390.937,517.183,390.575Z" transform="translate(-504.216 -376.2)" fill="#1a3151"/>
    </g>
    <path id="Trazado_110782" data-name="Trazado 110782" d="M491.306,383.87l-3.836-1.664,2.02-6.637,4.3-.733,2.484,2.812-2.6,2.052.719.312,1.035-.418.4,1.042Z" transform="translate(-8876.881 -10637.604)" fill="#eac5b0"/>
    <g id="Grupo_74415" data-name="Grupo 74415" transform="translate(-8404.803 -10256.954)">
      <path id="Trazado_110783" data-name="Trazado 110783" d="M483.119,440.56a35.977,35.977,0,0,0,3.162-22.613,23.8,23.8,0,0,1-11.876-4.921,1.931,1.931,0,0,1-.535-.561,2.038,2.038,0,0,1,.07-1.577c2.463-7.6,5.272-15.17,7.278-22.88l-5.744-2.8q-2.68,4.824-5.359,9.65l-6.349,11.432-2.338,4.21c-.281.506-.59,1-.872,1.5-1.458,2.6.382,6.978,1.289,9.5a100.443,100.443,0,0,0,4.783,10.635l5.8,11.666c.8,1.606,1.851,3.407,3.627,3.683,3.211.5,5.423-3.828,6.649-6.126Q482.917,440.964,483.119,440.56Z" transform="translate(-460.014 -385.206)" fill="#fff"/>
    </g>
    <path id="Trazado_110784" data-name="Trazado 110784" d="M564.617,389.212l4.025-1.137-1.11-6.847-4.167-1.3-2.84,2.455,2.3,2.38-.755.213-.97-.552-.539.979Z" transform="translate(-8908.98 -10639.84)" fill="#eac5b0"/>
    <g id="Grupo_74419" data-name="Grupo 74419" transform="translate(-8359.345 -10253.316)">
      <path id="Trazado_110785" data-name="Trazado 110785" d="M545.233,445.528c-2.507-7.33-5.705-17.052-3.252-24.4,4.341.071,11.853.489,15.588-1.719a1.937,1.937,0,0,0,.607-.485,2.042,2.042,0,0,0,.142-1.572c-1.419-7.86-3.185-15.738-4.137-23.646l6.07-2.01,4.013,10.279,4.755,12.177q.876,2.242,1.751,4.484c.211.539.45,1.07.662,1.606,1.1,2.769-1.316,6.865-2.555,9.245a100.528,100.528,0,0,1-6.169,9.9l-7.314,10.786c-1.007,1.485-2.292,3.129-4.09,3.166-3.249.066-4.86-4.518-5.766-6.959Q545.378,445.955,545.233,445.528Z" transform="translate(-541.101 -391.694)" fill="#fff"/>
    </g>
    <path id="Trazado_110786" data-name="Trazado 110786" d="M509.887,442.344v6.333a3.684,3.684,0,0,0,3.644,3.724h16.278a3.685,3.685,0,0,0,3.644-3.724v-6.333Z" transform="translate(-8886.73 -10667.267)" fill="#1a3151"/>
    <path id="Trazado_110787" data-name="Trazado 110787" d="M539.439,259.055c0-22.278-17.672-40.338-39.471-40.338S460.5,236.777,460.5,259.055a40.791,40.791,0,0,0,6.089,21.53h0c10.983,18.809,13.522,34.562,13.522,34.562h39.724s2.538-15.753,13.522-34.562h0A40.792,40.792,0,0,0,539.439,259.055Z" transform="translate(-8865.028 -10569.005)" fill="#ffd559"/>
    <path id="Trazado_110788" data-name="Trazado 110788" d="M494.66,390.728v26.9a1.991,1.991,0,0,0,1.944,2.035h36.751a1.991,1.991,0,0,0,1.944-2.035v-26.9Z" transform="translate(-8880.039 -10644.586)" fill="#9ea6ad"/>
    <path id="Trazado_110789" data-name="Trazado 110789" d="M554.093,277.2c-10.025,20.031-29.5,50.976-58.651,63.535l.019.109h39.724s2.538-15.753,13.522-34.562h0a40.791,40.791,0,0,0,6.089-21.53A41.361,41.361,0,0,0,554.093,277.2Z" transform="translate(-8880.383 -10594.702)" fill="#fdbe0f"/>
    <path id="Trazado_110790" data-name="Trazado 110790" d="M469.993,265.919c0-19.45,15.428-35.217,34.46-35.217a34.15,34.15,0,0,1,27.316,13.749,34.324,34.324,0,0,0-29.881-17.665c-19.031,0-34.459,15.767-34.459,35.216a35.558,35.558,0,0,0,7.144,21.468A35.642,35.642,0,0,1,469.993,265.919Z" transform="translate(-8868.073 -10572.551)" fill="#ffdf4d"/>
    <path id="Trazado_110791" data-name="Trazado 110791" d="M511.519,344.322l-4.782-51.635,6.663,5.662,5.813-9.412,5.892,9.111,6.551-5.41-4.786,51.684h2.039l5.222-56.395L525.567,295l-6.392-9.885-6.256,10.128-8.665-7.365,5.227,56.443Z" transform="translate(-8884.255 -10598.181)" fill="#f6f7f7"/>
    <path id="Trazado_110792" data-name="Trazado 110792" d="M512.727,380.593l.477,5.149h2.038l-.589-6.361Q513.7,380,512.727,380.593Z" transform="translate(-8887.978 -10639.601)" fill="#edeced"/>
    <path id="Trazado_110793" data-name="Trazado 110793" d="M546.567,350.89,544.6,372.17h2.038l2.193-23.677Q547.715,349.7,546.567,350.89Z" transform="translate(-8901.981 -10626.028)" fill="#edeced"/>
    <rect id="Rectángulo_32936" data-name="Rectángulo 32936" width="40.639" height="4.968" transform="translate(-8385.38 -10247.179)" fill="#1a3151"/>
    <rect id="Rectángulo_32937" data-name="Rectángulo 32937" width="40.639" height="4.968" transform="translate(-8385.38 -10236.569)" fill="#1a3151"/>
    <path id="Trazado_110794" data-name="Trazado 110794" d="M534.713,390.728q-2.8,3.641-5.651,6.68-2.517,2.7-5.035,4.968a75.27,75.27,0,0,1-7.034,5.641,68.006,68.006,0,0,1-8.177,4.967,59.1,59.1,0,0,1-14.035,5.152,1.959,1.959,0,0,0,1.875,1.527h36.751a1.991,1.991,0,0,0,1.944-2.035v-26.9Z" transform="translate(-8880.093 -10644.586)" opacity="0.11" style="mix-blend-mode: multiply;isolation: isolate"/>
    <g id="Grupo_74428" data-name="Grupo 74428" transform="translate(-8145.917 -10051.617)">
      <path id="Trazado_110795" data-name="Trazado 110795" d="M921.813,752.365v3.116l8.015,3.995,4.008-3.995-4.008-3.995h-.517l-.129.879Z" transform="translate(-921.813 -751.485)" fill="#1a3151"/>
    </g>
    <g id="Grupo_74429" data-name="Grupo 74429" transform="translate(-8170.217 -10051.617)">
      <path id="Trazado_110796" data-name="Trazado 110796" d="M883.028,751.485h-.553l-4.007,3.995,4.007,3.995,8.015-3.995v-3.116h-7.369Z" transform="translate(-878.468 -751.485)" fill="#1a3151"/>
    </g>
    <g id="Grupo_74433" data-name="Grupo 74433" transform="translate(-8184.635 -10236.315)">
      <g id="Grupo_74430" data-name="Grupo 74430">
        <path id="Trazado_110797" data-name="Trazado 110797" d="M880.472,422.027a16.953,16.953,0,0,0-12.452,5.594,31.185,31.185,0,0,0-4.327,8.464c-3.247,8.36-4.719,16.106-6.339,24.9-1.033,5.606-1.987,11.186-2.738,16.75a173.882,173.882,0,0,0-1.588,18.417c-.019.676-.153,2.564-.229,4.82-.157,4.726-.057,11.048,1.907,11.284a1.917,1.917,0,0,0,1.045-.28,69.127,69.127,0,0,0,6.741-4.286,23.992,23.992,0,0,1,2.47-1.4,31.2,31.2,0,0,1,5.549-2c-3.232.17-3.634-.436-3.634-.436s2.916-11.871,4.963-22.2a97.091,97.091,0,0,0,1.955-12.9c.227-8.011,1.238-34.469,1.238-34.469l4.905-10.121.906.009-.2-.024C880.863,424.183,880.548,422.2,880.472,422.027Z" transform="translate(-852.749 -422.021)" fill="#d1e7f5"/>
        <path id="Trazado_110798" data-name="Trazado 110798" d="M943.1,507.212c-.5-5.246-1.023-10.491-1.66-15.723a196.355,196.355,0,0,0-5.923-30.945c-1.117-3.859-2.406-7.664-3.694-11.468l-4.707-13.9c-1.95-5.757-5.241-9.812-11-11.826a21.5,21.5,0,0,0-3.229-.84,3.462,3.462,0,0,0-.067.367,3.014,3.014,0,0,1-.568,1.567l3.782.036s10.672,37.806,11.064,44.322c.149,2.477.645,7.884,1.2,13.58.873,9.014,1.886,18.753,1.886,18.753s-4.685.112-11.463.625c.5-.012,1-.025,1.5-.03,4.714-.042,9.6,1.988,14.117,3.3q.487.142.967.272c1.839.495,3.335,1.853,4.862,2.919C942.417,509.8,943.406,510.427,943.1,507.212Z" transform="translate(-878.892 -422.238)" fill="#d1e7f5"/>
      </g>
      <g id="Grupo_74431" data-name="Grupo 74431" transform="translate(9.719 79.497)">
        <path id="Trazado_110799" data-name="Trazado 110799" d="M915.806,567.133c-4.513-1.316-9.4-3.346-14.117-3.3-.5,0-1,.018-1.5.03l-1.282.1c-3.159.253-6.708.591-10.414,1.04l-.546.066a64.417,64.417,0,0,1-9.814,1.536,31.194,31.194,0,0,0-5.549,2,24.107,24.107,0,0,0-2.47,1.4l-.025,5.134,9.036,94.894h7.408v.888h.043l8.146-66.186.034-.329,4.463,66.516h.043v-.888H906.7l9.443-73.2Z" transform="translate(-870.086 -563.828)" fill="#145566"/>
      </g>
      <g id="Grupo_74432" data-name="Grupo 74432" transform="translate(12.276 2.057)">
        <path id="Trazado_110800" data-name="Trazado 110800" d="M911.767,483.783c-.552-5.7-1.048-11.1-1.2-13.581-.478-7.936-3.453-16.169-5.468-23.808q-1.8-6.828-3.681-13.635c-.422-1.529-.572-4.258-1.385-5.507-1.321-2.031-4.263-1.148-6.242-1.08-2.652.09-5.589-1.493-7.9.636-1.52,1.4-1.2,4-1.276,5.855-.174,4.185-.312,8.373-.438,12.56-.252,8.384-.449,16.769-.761,25.151a97.112,97.112,0,0,1-1.955,12.9c-1.04,5.248-2.2,10.472-3.414,15.683q-.593,2.552-1.206,5.1c-.192.8-2.762,3.5-2.082,4.059.376.307,2.695-.448,3.191-.549,1.16-.236,2.315-.5,3.469-.761a91.085,91.085,0,0,1,13.707-2.555,71.343,71.343,0,0,1,8.061-.008,40.982,40.982,0,0,1,6.492.621c2.531.511,5.1,1.482,7.622.95-.031-1.163-1-2.044-1.765-2.918-2.229-2.536-2.377-5.12-2.694-8.251Q912.3,489.212,911.767,483.783Z" transform="translate(-874.647 -425.69)" fill="#fff"/>
      </g>
    </g>
    <g id="Grupo_74435" data-name="Grupo 74435" transform="translate(-8147.757 -10263.237)">
      <path id="Trazado_110801" data-name="Trazado 110801" d="M921.864,378.971a13.726,13.726,0,0,1,1.328,6.207,1.964,1.964,0,0,0,.436,1.583c.466.383,0,1.148.393.687a10.469,10.469,0,0,0,1.814-2.662,22.691,22.691,0,0,0,.211-4.264A6.186,6.186,0,0,0,925.06,377a6.866,6.866,0,0,0-1.653-1.418,8.752,8.752,0,0,0-2.791-1.45c-1.763-.429-2.887.161-1.38,1.5A11,11,0,0,1,921.864,378.971Z" transform="translate(-918.532 -373.997)" fill="#1a3151"/>
    </g>
    <g id="Grupo_74437" data-name="Grupo 74437" transform="translate(-8162.152 -10263.119)">
      <g id="Grupo_74436" data-name="Grupo 74436">
        <path id="Trazado_110802" data-name="Trazado 110802" d="M898.1,402.7a3.836,3.836,0,0,0,.529,1.934,4.11,4.11,0,0,0,1.552,1.3,5.694,5.694,0,0,0,2.4.795,2.716,2.716,0,0,0,2.276-.915c1.54-1.953,1.54-6.148,1.727-8.513,2.15-.259,4.693-.827,5.537-3.053a7.519,7.519,0,0,0,.357-2.235q.273-4.7.546-9.405a9.217,9.217,0,0,0-.193-3.228,6.491,6.491,0,0,0-3.7-3.684,13.777,13.777,0,0,0-12.667.122,6.942,6.942,0,0,0-2.662,2.448c-.979,1.676-.975,3.809-.938,5.8l.1,5.525c.04,2.118.229,4.564,1.789,5.763.828.637,1.932.8,2.633,1.608C898.73,398.5,898.016,400.744,898.1,402.7Z" transform="translate(-892.854 -374.208)" fill="#eac5b0"/>
      </g>
    </g>
    <g id="Grupo_74438" data-name="Grupo 74438" transform="translate(-8162.641 -10248.173)">
      <path id="Trazado_110803" data-name="Trazado 110803" d="M912.912,402.51c-.005-.584-.169-2.3-1.086-1.275a1.767,1.767,0,0,0-.348,1.033,4.026,4.026,0,0,1-.169,1.1,1.923,1.923,0,0,1-1.989,1.058,1.861,1.861,0,0,1-.894-.264,2.849,2.849,0,0,1-.655-.677l-1.419-1.834c-.814-1.051-2.551-.705-3.724-.612a7.409,7.409,0,0,0-3.859,1.287c-.115.085-.228.174-.341.263a4.025,4.025,0,0,1-.869.568,2.572,2.572,0,0,1-3-1.139c-.311-.456-.593-1.037-1.106-1.138a1.062,1.062,0,0,0-1.038.568,3.12,3.12,0,0,0-.357,1.272,9.591,9.591,0,0,0,.571,4.77c1.344,3.194,4.228,3.729,7.151,3.811l3.465.1c2.112.06,4.345.087,6.185-1.062a7.7,7.7,0,0,0,3.131-4.763A12.287,12.287,0,0,0,912.912,402.51Zm-7.941,4.013a3.993,3.993,0,0,1-3.594.233c-.518-.188-.249-1.071.27-.883a3.213,3.213,0,0,0,2.935-.173C905.063,405.408,905.449,406.232,904.971,406.523Z" transform="translate(-891.982 -400.869)" fill="#1a3151"/>
    </g>
    <g id="Grupo_74439" data-name="Grupo 74439" transform="translate(-8164.079 -10268.489)">
      <path id="Trazado_110804" data-name="Trazado 110804" d="M913.088,369.614a16.933,16.933,0,0,0,.568-2.293,4.478,4.478,0,0,1-2.248.077q.032-.676.064-1.353c.016-.375-4.976-.9-5.381-.954-3.792-.515-7.259-1-10.807.894a10.505,10.505,0,0,0-5.677,7.576A16.281,16.281,0,0,0,891.588,384c.034-.876-.358-2.965-.112-3.786a7.489,7.489,0,0,1,.921-2.337,9.743,9.743,0,0,1,3.577-3.439,18.635,18.635,0,0,1,7.547-2.146,20.078,20.078,0,0,1,7.613.39c1.112.366,1.284.662,2.026-.456a19.849,19.849,0,0,0,1.113-2.529Z" transform="translate(-889.416 -364.629)" fill="#1a3151"/>
    </g>
    <path id="Trazado_110805" data-name="Trazado 110805" d="M951.964,383.147l.517-.26a8.073,8.073,0,0,0-.313-3.392c-.626-2.582-1.512-5.093-3.727-6.721-1.077-.792-3.943-1.228-4.358.715-.164.77.873,1.126,1.4,1.695.172.185,1.373,2.053,1.344,2.059a2.165,2.165,0,0,1-1.479-.558l-.965,1.2c-.07.086-.143.2-.1.3a.327.327,0,0,0,.183.155c2.805,1.349,3.308,3.721,4.753,6.2Z" transform="translate(-9077.507 -10636.402)" fill="#eac5b0"/>
    <path id="Trazado_110806" data-name="Trazado 110806" d="M935.729,433.908l-8.779-20.783,13.321.636a3.288,3.288,0,0,0,2.9-3.819l-3.475-20.348,5.889-1.381,7.55,15.621a21.874,21.874,0,0,1-.875,20.672Z" transform="translate(-9069.987 -10643.48)" fill="#d1e7f5"/>
    <path id="Trazado_110807" data-name="Trazado 110807" d="M862.428,384.264l-.5-.3a8.075,8.075,0,0,1,.563-3.359c.815-2.528,1.884-4.967,4.214-6.43,1.133-.711,4.023-.935,4.293,1.032.107.78-.954,1.059-1.523,1.588-.185.172-1.52,1.948-1.492,1.954a2.163,2.163,0,0,0,1.516-.448l.875,1.266c.063.091.128.2.082.306a.327.327,0,0,1-.194.14c-2.9,1.14-3.573,3.469-5.2,5.831Z" transform="translate(-9041.406 -10637.09)" fill="#eac5b0"/>
    <path id="Trazado_110808" data-name="Trazado 110808" d="M854,440.454,868.078,409.5l-7.722,4.886-5.147,3.257c-1.775,1.123-3.178,1.777-4.465-.637a6.638,6.638,0,0,1-.713-2.184c-.364-2.782,7.6-24.072,7.284-24.169l-5.771-1.809-8.683,15.025A29.478,29.478,0,0,0,839.4,417.5a27.629,27.629,0,0,0,.644,7.284c.485,2.039.86,4.228,2.658,5.526a44.186,44.186,0,0,1,4.737,3.9C847.949,434.691,854.205,440.007,854,440.454Z" transform="translate(-9031.509 -10643.758)" fill="#d1e7f5"/>
    <path id="Trazado_110809" data-name="Trazado 110809" d="M890.887,442.344v6.333a3.684,3.684,0,0,0,3.644,3.724h16.278a3.685,3.685,0,0,0,3.644-3.724v-6.333Z" transform="translate(-9054.142 -10667.267)" fill="#1a3151"/>
    <path id="Trazado_110810" data-name="Trazado 110810" d="M920.439,259.055c0-22.278-17.672-40.338-39.471-40.338S841.5,236.777,841.5,259.055a40.792,40.792,0,0,0,6.089,21.53h0c10.983,18.809,13.522,34.562,13.522,34.562h39.724s2.538-15.753,13.522-34.562h0A40.792,40.792,0,0,0,920.439,259.055Z" transform="translate(-9032.439 -10569.005)" fill="#ffd559"/>
    <path id="Trazado_110811" data-name="Trazado 110811" d="M875.66,390.728v26.9a1.991,1.991,0,0,0,1.944,2.035h36.751a1.991,1.991,0,0,0,1.944-2.035v-26.9Z" transform="translate(-9047.45 -10644.586)" fill="#9ea6ad"/>
    <path id="Trazado_110812" data-name="Trazado 110812" d="M935.093,277.2c-10.025,20.031-29.5,50.976-58.651,63.535l.019.109h39.724s2.538-15.753,13.522-34.562h0a40.791,40.791,0,0,0,6.089-21.53A41.361,41.361,0,0,0,935.093,277.2Z" transform="translate(-9047.794 -10594.702)" fill="#fdbe0f"/>
    <path id="Trazado_110813" data-name="Trazado 110813" d="M850.993,265.919c0-19.45,15.428-35.217,34.46-35.217a34.15,34.15,0,0,1,27.316,13.749,34.324,34.324,0,0,0-29.881-17.665c-19.031,0-34.459,15.767-34.459,35.216a35.558,35.558,0,0,0,7.144,21.468A35.65,35.65,0,0,1,850.993,265.919Z" transform="translate(-9035.484 -10572.551)" fill="#ffdf4d"/>
    <path id="Trazado_110814" data-name="Trazado 110814" d="M892.519,344.322l-4.782-51.635,6.663,5.662,5.813-9.412,5.892,9.111,6.551-5.41-4.786,51.684h2.038l5.222-56.395L906.567,295l-6.392-9.885-6.257,10.128-8.665-7.365,5.227,56.443Z" transform="translate(-9051.666 -10598.181)" fill="#f6f7f7"/>
    <path id="Trazado_110815" data-name="Trazado 110815" d="M893.727,380.593l.477,5.149h2.038l-.589-6.361Q894.7,380,893.727,380.593Z" transform="translate(-9055.389 -10639.601)" fill="#edeced"/>
    <path id="Trazado_110816" data-name="Trazado 110816" d="M927.567,350.89l-1.97,21.28h2.038l2.193-23.677Q928.715,349.7,927.567,350.89Z" transform="translate(-9069.393 -10626.028)" fill="#edeced"/>
    <rect id="Rectángulo_32938" data-name="Rectángulo 32938" width="40.639" height="4.968" transform="translate(-8171.791 -10247.179)" fill="#1a3151"/>
    <rect id="Rectángulo_32939" data-name="Rectángulo 32939" width="40.639" height="4.968" transform="translate(-8171.791 -10236.569)" fill="#1a3151"/>
    <path id="Trazado_110817" data-name="Trazado 110817" d="M915.713,390.728q-2.8,3.641-5.651,6.68-2.517,2.7-5.035,4.968a75.35,75.35,0,0,1-7.034,5.641,68,68,0,0,1-8.177,4.967,59.1,59.1,0,0,1-14.035,5.152,1.959,1.959,0,0,0,1.875,1.527h36.751a1.991,1.991,0,0,0,1.944-2.035v-26.9Z" transform="translate(-9047.504 -10644.586)" opacity="0.11" style="mix-blend-mode: multiply;isolation: isolate"/>
    <path id="Trazado_110818" data-name="Trazado 110818" d="M161.926,750.145l-1.089,1.333-.474,1.431,3.273,4.935,3.093,1.185,3.466-.3s1.485-.543.594-1.727-3.268-1.777-3.268-1.777l.346-3.985Z" transform="translate(-8733.15 -10802.514)" fill="#1a3151"/>
    <path id="Trazado_110819" data-name="Trazado 110819" d="M137.847,748.242l-.446,2.468-2.426,4.2,1.089,1.333,4.06-.345,2.476-3.5v-6.91l-4.654.444Z" transform="translate(-8721.995 -10800.463)" fill="#1a3151"/>
    <path id="Trazado_110820" data-name="Trazado 110820" d="M128.485,577.756l-2.421,13.228,6.831,84.512,7.15-1.495,11.862-93.416Z" transform="translate(-8718.079 -10726.767)" fill="#145566"/>
    <path id="Trazado_110821" data-name="Trazado 110821" d="M180.951,574.294l1.382,54.475-13.88,47.024-8.09-3,6.814-41.936-6.256-57.029Z" transform="translate(-8733.149 -10725.041)" fill="#145566"/>
    <path id="Trazado_110822" data-name="Trazado 110822" d="M123.21,452.945c-1.279,3.051-1.5,6.432-1.9,10.115a187.3,187.3,0,0,0-1.078,19.225c-.052,7.464.283,14.926.871,22.366q.441,5.581,1.056,11.147c.21,1.922-.542,6.848,1.381,7.87a6.146,6.146,0,0,0,3.558.325l31.839-3.423a11.977,11.977,0,0,0,4.932-1.262c2.63-1.57,2.154-4.692,2.555-7.317a59.911,59.911,0,0,0,.549-10.526c-.178-7.226-1.242-14.388-1.765-21.59-.562-7.744-1.768-18.132-4.517-25.509-2.251-6.039-8.252-13.838-17.31-13.59a26.368,26.368,0,0,0-16.953,7.5A13.673,13.673,0,0,0,123.21,452.945Z" transform="translate(-8715.513 -10666.575)" fill="#fff"/>
    <path id="Trazado_110823" data-name="Trazado 110823" d="M128,422.961a28.732,28.732,0,0,0,6.237,4.348,48.612,48.612,0,0,1-5.006-12.341,1.278,1.278,0,0,0-.486-.863,1.207,1.207,0,0,0-.927.011C122.374,415.745,124.733,419.969,128,422.961Z" transform="translate(-8717.426 -10654.819)" fill="#1a3151"/>
    <path id="Trazado_110824" data-name="Trazado 110824" d="M144.768,419.306a8.256,8.256,0,0,0,.809-1.215c3.087-5.661,2.057-26.365-12.677-23.015-13.379,3.042-4.009,18.542,1.9,23.9a9.869,9.869,0,0,0,4.144,2.427c.434.106.482,4.274.889,4.885a3.124,3.124,0,0,0,3.887.879,5.173,5.173,0,0,0,2.3-3.307C146.167,423.014,144.473,419.674,144.768,419.306Z" transform="translate(-8718.08 -10646.337)" fill="#eac5b0"/>
    <g id="Grupo_74455" data-name="Grupo 74455" transform="translate(-8579.901 -10255.295)">
      <path id="Trazado_110825" data-name="Trazado 110825" d="M154.172,410.442c1.386.664,2.932-.571,3.8-1.836a14.873,14.873,0,0,0-.914-17.557c-3.422-4.016-11.018-4.259-9.071,1.979.691,2.212,3.429,4.3,4.372,6.652C153.708,403.047,153.9,406.869,154.172,410.442Z" transform="translate(-147.674 -388.165)" fill="#1a3151"/>
    </g>
    <g id="Grupo_74456" data-name="Grupo 74456" transform="translate(-8605.132 -10257.43)">
      <path id="Trazado_110826" data-name="Trazado 110826" d="M107.921,391.416c-3.837,6.427-2.338,14.785-5.253,21.677a22.273,22.273,0,0,0,15.169-8.338C121.414,400.176,131.82,392.6,126.6,387,121.277,381.3,111.282,385.785,107.921,391.416Z" transform="translate(-102.668 -384.358)" fill="#1a3151"/>
    </g>
    <path id="Trazado_110827" data-name="Trazado 110827" d="M130.887,442.344v6.333a3.685,3.685,0,0,0,3.644,3.724h16.278a3.685,3.685,0,0,0,3.644-3.724v-6.333Z" transform="translate(-8720.199 -10667.267)" fill="#1a3151"/>
    <path id="Trazado_110828" data-name="Trazado 110828" d="M160.439,259.055c0-22.278-17.672-40.338-39.471-40.338S81.5,236.777,81.5,259.055a40.791,40.791,0,0,0,6.089,21.53h0c10.983,18.809,13.522,34.562,13.522,34.562h39.724s2.538-15.753,13.522-34.562h0A40.791,40.791,0,0,0,160.439,259.055Z" transform="translate(-8698.497 -10569.005)" fill="#ffd559"/>
    <path id="Trazado_110829" data-name="Trazado 110829" d="M115.66,390.728v26.9a1.991,1.991,0,0,0,1.944,2.035h36.751a1.991,1.991,0,0,0,1.944-2.035v-26.9Z" transform="translate(-8713.508 -10644.586)" fill="#9ea6ad"/>
    <path id="Trazado_110830" data-name="Trazado 110830" d="M175.093,277.2c-10.025,20.031-29.5,50.976-58.651,63.535.011.065.019.109.019.109h39.724s2.538-15.753,13.522-34.562h0a40.791,40.791,0,0,0,6.089-21.53A41.356,41.356,0,0,0,175.093,277.2Z" transform="translate(-8713.852 -10594.702)" fill="#fdbe0f"/>
    <path id="Trazado_110831" data-name="Trazado 110831" d="M90.993,265.919c0-19.45,15.428-35.217,34.46-35.217a34.15,34.15,0,0,1,27.316,13.749,34.324,34.324,0,0,0-29.881-17.665c-19.031,0-34.459,15.767-34.459,35.216a35.558,35.558,0,0,0,7.144,21.468A35.643,35.643,0,0,1,90.993,265.919Z" transform="translate(-8701.542 -10572.551)" fill="#ffdf4d"/>
    <path id="Trazado_110832" data-name="Trazado 110832" d="M132.519,344.322l-4.782-51.635,6.663,5.662,5.813-9.412,5.892,9.111,6.551-5.41-4.786,51.684h2.039l5.222-56.395L146.567,295l-6.392-9.885-6.256,10.128-8.665-7.365,5.227,56.443Z" transform="translate(-8717.724 -10598.181)" fill="#f6f7f7"/>
    <path id="Trazado_110833" data-name="Trazado 110833" d="M133.727,380.593l.477,5.149h2.038l-.589-6.361Q134.7,380,133.727,380.593Z" transform="translate(-8721.446 -10639.601)" fill="#edeced"/>
    <path id="Trazado_110834" data-name="Trazado 110834" d="M167.568,350.89,165.6,372.17h2.038l2.192-23.677Q168.715,349.7,167.568,350.89Z" transform="translate(-8735.45 -10626.028)" fill="#edeced"/>
    <rect id="Rectángulo_32940" data-name="Rectángulo 32940" width="40.639" height="4.968" transform="translate(-8597.849 -10247.179)" fill="#1a3151"/>
    <rect id="Rectángulo_32941" data-name="Rectángulo 32941" width="40.639" height="4.968" transform="translate(-8597.849 -10236.569)" fill="#1a3151"/>
    <path id="Trazado_110835" data-name="Trazado 110835" d="M155.713,390.728q-2.8,3.641-5.651,6.68-2.517,2.7-5.035,4.968a75.28,75.28,0,0,1-7.034,5.641,68,68,0,0,1-8.177,4.967,59.1,59.1,0,0,1-14.035,5.152,1.959,1.959,0,0,0,1.875,1.527h36.751a1.991,1.991,0,0,0,1.944-2.035v-26.9Z" transform="translate(-8713.562 -10644.586)" opacity="0.11" style="mix-blend-mode: multiply;isolation: isolate"/>
    <path id="Trazado_110836" data-name="Trazado 110836" d="M109.13,404.2a28.886,28.886,0,0,1,.728-3.355,1.961,1.961,0,0,1,1.029-1.466l1.2-.85a3.116,3.116,0,0,1,.8-.452,3.163,3.163,0,0,1,2.269.433.982.982,0,0,1,.393.271.668.668,0,0,1-.041.755A4.214,4.214,0,0,0,114.5,401.3a9.445,9.445,0,0,0-.369,2.432,2.065,2.065,0,0,0,.938-.546c.258-.2.582-.4.883-.279.4.161.389.74.21,1.131a9.972,9.972,0,0,1-1.62,2.008c-.818.99-1.49,3.158-2.887,3.068a14.242,14.242,0,0,1-2.638-.739l.019-2.871A10.828,10.828,0,0,1,109.13,404.2Z" transform="translate(-8710.59 -10647.778)" fill="#eac5b0"/>
    <path id="Trazado_110837" data-name="Trazado 110837" d="M110.925,466.684c1.218.024,2.681-12.558,2.791-13.889.294-3.542.682-7.3.113-10.836-.178-1.1-1.385-6.2-2.651-6.144-.566.025-.951.559-1.267,1.027a21.425,21.425,0,0,1-6.541,6.26c-.625.383-1.462.725-2.043.28a1.931,1.931,0,0,1-.51-1.562c-.049-2.793,2.343-27.436,2.358-27.432-1.333-.3-4.817-1.809-6.018-1.367-2.306.85-4.079,7.878-5.045,10.362a160.261,160.261,0,0,0-7.787,26.686c-.847,4.245,3.233,6.674,6.476,8.56q4.381,2.547,8.961,4.733C103.293,465.045,107.013,466.587,110.925,466.684Z" transform="translate(-8699.69 -10654.346)" fill="#fff"/>
    <path id="Trazado_110838" data-name="Trazado 110838" d="M196.834,391.919a29.118,29.118,0,0,0-1.029-3.276,1.965,1.965,0,0,0-1.158-1.367l-1.276-.739a3.125,3.125,0,0,0-.834-.378,3.163,3.163,0,0,0-2.22.635.989.989,0,0,0-.367.306.668.668,0,0,0,.109.748,4.214,4.214,0,0,1,1.163,1.667,9.414,9.414,0,0,1,.588,2.389,2.06,2.06,0,0,1-.983-.46c-.275-.17-.617-.345-.9-.2-.384.2-.32.772-.107,1.145a9.967,9.967,0,0,0,1.8,1.854c.9.912,1.769,3.012,3.154,2.8a14.242,14.242,0,0,0,2.56-.973q-.14-1.429-.28-2.857A10.749,10.749,0,0,0,196.834,391.919Z" transform="translate(-8746.016 -10642.56)" fill="#eac5b0"/>
    <path id="Trazado_110839" data-name="Trazado 110839" d="M182.2,452.018a2.888,2.888,0,0,1-2.388-.456,4.166,4.166,0,0,1-.989-1.341,35.367,35.367,0,0,1-4.078-14.376c-.15-2.323-.429-5.484.345-7.719.958-2.761,2.644-.837,5.043-.327a88.479,88.479,0,0,0,9.222,1.455,1.23,1.23,0,0,0,.87-.127,1.2,1.2,0,0,0,.364-.793c1.666-9.435-3.061-17.229-4.955-26.221,1.611-.554,4.1-2.356,5.856-1.875,2.372.647,4.772,7.478,5.958,9.863a160.559,160.559,0,0,1,7.277,17.037c.987,2.738,1.646,5.711,2.825,8.359.769,1.728,1.886,3.332.136,5.075a7.012,7.012,0,0,1-2.163,1.3l-21.148,9.424A9.634,9.634,0,0,1,182.2,452.018Z" transform="translate(-8739.391 -10648.729)" fill="#fff"/>
  </g>
</svg>
