<svg xmlns="http://www.w3.org/2000/svg" width="492.514" height="343.733" viewBox="0 0 492.514 343.733">
  <g id="Grupo_78697" data-name="Grupo 78697" transform="translate(-1298.305 2820.901)">
    <g id="Grupo_74727" data-name="Grupo 74727" transform="translate(1330.11 -2820.901)">
      <path id="Trazado_111100" data-name="Trazado 111100" d="M2887.774-1706.584c-7.1,0-12.867,4.519-12.867,10.1a8.793,8.793,0,0,0,2.752,6.237H2841.5a123.347,123.347,0,0,1-7.024-41.168,123.226,123.226,0,0,1,7.031-41.174h36.169a8.782,8.782,0,0,1-2.771-6.255c0-5.584,5.762-10.109,12.867-10.109s12.873,4.525,12.873,10.109a8.783,8.783,0,0,1-2.77,6.255h18.943v30.887a8.726,8.726,0,0,0-6.07-2.586c-5.578,0-10.1,5.763-10.1,12.867s4.525,12.873,10.1,12.873a8.726,8.726,0,0,0,6.07-2.586v30.887H2897.9a8.79,8.79,0,0,0,2.752-6.237C2900.647-1702.065,2894.885-1706.584,2887.774-1706.584Z" transform="translate(-2487.99 2032.137)" fill="#419ca6"/>
      <g id="Grupo_74724" data-name="Grupo 74724" transform="translate(96.081 0)">
        <g id="Grupo_74716" data-name="Grupo 74716" transform="translate(64.489 315.719)">
          <path id="Trazado_111101" data-name="Trazado 111101" d="M2127.377-1465.737a14.315,14.315,0,0,1-14.293-13.923l-23.41-12.25H2203.1l-23.411,12.25a14.315,14.315,0,0,1-14.293,13.923Z" transform="translate(-2087.17 1492.526)" fill="#102048"/>
          <path id="Trazado_111102" data-name="Trazado 111102" d="M2192.93-1493.179l-21.517,11.26a13.683,13.683,0,0,1-13.683,13.682h-38.019a13.682,13.682,0,0,1-13.682-13.682l-21.517-11.26H2192.93m5.009-1.231H2079.5l4.438,2.322,20.875,10.924a14.933,14.933,0,0,0,14.895,14.158h38.019a14.933,14.933,0,0,0,14.895-14.158l20.876-10.924,4.438-2.322Z" transform="translate(-2079.504 1494.41)" fill="#fff"/>
        </g>
        <circle id="Elipse_4620" data-name="Elipse 4620" cx="123.509" cy="123.509" r="123.509" transform="translate(0 0.199)" fill="#fff"/>
        <rect id="Rectángulo_33238" data-name="Rectángulo 33238" width="108.417" height="59.049" transform="translate(69.498 209.703)" fill="#77cfd9"/>
        <rect id="Rectángulo_33239" data-name="Rectángulo 33239" width="108.417" height="32.096" transform="translate(69.498 268.752)" fill="#708cd5"/>
        <path id="Trazado_111103" data-name="Trazado 111103" d="M2476.629-2689.009c-7.111,0-12.873,4.525-12.873,10.109a8.781,8.781,0,0,0,2.77,6.255h-29.175v-27.993a8.767,8.767,0,0,1-6.169,2.684c-5.584,0-10.1-5.762-10.1-12.873s4.519-12.867,10.1-12.867a8.766,8.766,0,0,1,6.169,2.684v-26.947a123.87,123.87,0,0,1,75.311,75.311h-25.937a8.781,8.781,0,0,0,2.77-6.255C2489.5-2684.484,2483.734-2689.009,2476.629-2689.009Z" transform="translate(-2272.475 2754.981)" fill="#fbd682"/>
        <path id="Trazado_111104" data-name="Trazado 111104" d="M2437.352-2106.51a8.766,8.766,0,0,1-6.169,2.684c-5.584,0-10.1-5.762-10.1-12.867s4.519-12.873,10.1-12.873a8.767,8.767,0,0,1,6.169,2.684v-30.886h29.157a8.793,8.793,0,0,1-2.752-6.237c0-5.584,5.762-10.1,12.873-10.1s12.867,4.519,12.867,10.1a8.793,8.793,0,0,1-2.751,6.237h25.925a123.862,123.862,0,0,1-75.318,75.317Z" transform="translate(-2272.475 2322.446)" fill="#77cfd9"/>
        <path id="Trazado_111105" data-name="Trazado 111105" d="M2526.433-2426.215c-7.111,0-12.873,4.519-12.873,10.1a8.793,8.793,0,0,0,2.752,6.237h-29.157v-31.6a8.988,8.988,0,0,0,6.76,3.3c5.578,0,10.1-5.762,10.1-12.867s-4.525-12.873-10.1-12.873a8.988,8.988,0,0,0-6.76,3.3v-31.6h29.175a8.781,8.781,0,0,1-2.771-6.255c0-5.584,5.762-10.109,12.873-10.109s12.867,4.525,12.867,10.109a8.781,8.781,0,0,1-2.77,6.255h25.937a123.237,123.237,0,0,1,7.031,41.175,123.347,123.347,0,0,1-7.024,41.168h-25.925a8.792,8.792,0,0,0,2.752-6.237C2539.3-2421.7,2533.537-2426.215,2526.433-2426.215Z" transform="translate(-2322.279 2574.554)" fill="#fbc343"/>
        <path id="Trazado_111106" data-name="Trazado 111106" d="M2103.3-2082.45v-23.961a8.726,8.726,0,0,1-6.07,2.585c-5.578,0-10.1-5.762-10.1-12.867s4.525-12.873,10.1-12.873a8.726,8.726,0,0,1,6.07,2.586v-30.788h31.047A8.793,8.793,0,0,1,2131.6-2164c0-5.584,5.762-10.1,12.873-10.1s12.867,4.519,12.867,10.1a8.792,8.792,0,0,1-2.752,6.237h31.053v30.886a8.765,8.765,0,0,0-6.168-2.684c-5.584,0-10.1,5.763-10.1,12.873s4.519,12.867,10.1,12.867a8.764,8.764,0,0,0,6.168-2.684v24.059a123.346,123.346,0,0,1-41.168,7.025A123.347,123.347,0,0,1,2103.3-2082.45Z" transform="translate(-2020.763 2322.446)" fill="#77cfd9"/>
        <path id="Trazado_111107" data-name="Trazado 111107" d="M2144.471-2677.511c-7.111,0-12.873-4.525-12.873-10.1a8.877,8.877,0,0,1,3.06-6.532H2103.3v-27.895a8.726,8.726,0,0,1-6.07,2.586c-5.578,0-10.1-5.762-10.1-12.873s4.525-12.867,10.1-12.867a8.726,8.726,0,0,1,6.07,2.586v-26.848a123.347,123.347,0,0,1,41.168-7.024,123.346,123.346,0,0,1,41.168,7.024v26.947a8.764,8.764,0,0,0-6.168-2.684c-5.584,0-10.1,5.762-10.1,12.867s4.519,12.873,10.1,12.873a8.764,8.764,0,0,0,6.168-2.684v27.993h-31.361a8.875,8.875,0,0,1,3.06,6.532C2157.338-2682.036,2151.575-2677.511,2144.471-2677.511Z" transform="translate(-2020.763 2776.482)" fill="#fbc343"/>
        <path id="Trazado_111108" data-name="Trazado 111108" d="M1893.245-2689.009c-7.1,0-12.867,4.525-12.867,10.109a8.781,8.781,0,0,0,2.77,6.255H1846.98a123.871,123.871,0,0,1,75.312-75.311v26.848a8.726,8.726,0,0,0-6.07-2.586c-5.578,0-10.1,5.762-10.1,12.867s4.525,12.873,10.1,12.873a8.727,8.727,0,0,0,6.07-2.585v27.894h-18.943a8.781,8.781,0,0,0,2.77-6.255C1906.119-2684.484,1900.356-2689.009,1893.245-2689.009Z" transform="translate(-1839.751 2754.981)" fill="#fbd682"/>
        <path id="Trazado_111109" data-name="Trazado 111109" d="M2476.629-2689.009c-7.111,0-12.873,4.525-12.873,10.109a8.781,8.781,0,0,0,2.77,6.255h-29.175v-27.993a8.767,8.767,0,0,1-6.169,2.684c-5.584,0-10.1-5.762-10.1-12.873s4.519-12.867,10.1-12.867a8.766,8.766,0,0,1,6.169,2.684v-26.947a123.87,123.87,0,0,1,75.311,75.311h-25.937a8.781,8.781,0,0,0,2.77-6.255C2489.5-2684.484,2483.734-2689.009,2476.629-2689.009Z" transform="translate(-2272.475 2754.981)" fill="#77cfd9"/>
        <path id="Trazado_111110" data-name="Trazado 111110" d="M2526.433-2426.215c-7.111,0-12.873,4.519-12.873,10.1a8.793,8.793,0,0,0,2.752,6.237h-29.157v-31.6a8.988,8.988,0,0,0,6.76,3.3c5.578,0,10.1-5.762,10.1-12.867s-4.525-12.873-10.1-12.873a8.988,8.988,0,0,0-6.76,3.3v-31.6h29.175a8.781,8.781,0,0,1-2.771-6.255c0-5.584,5.762-10.109,12.873-10.109s12.867,4.525,12.867,10.109a8.781,8.781,0,0,1-2.77,6.255h25.937a123.237,123.237,0,0,1,7.031,41.175,123.347,123.347,0,0,1-7.024,41.168h-25.925a8.792,8.792,0,0,0,2.752-6.237C2539.3-2421.7,2533.537-2426.215,2526.433-2426.215Z" transform="translate(-2322.279 2574.554)" fill="#77cfd9"/>
        <path id="Trazado_111111" data-name="Trazado 111111" d="M2144.471-2677.511c-7.111,0-12.873-4.525-12.873-10.1a8.877,8.877,0,0,1,3.06-6.532H2103.3v-27.895a8.726,8.726,0,0,1-6.07,2.586c-5.578,0-10.1-5.762-10.1-12.873s4.525-12.867,10.1-12.867a8.726,8.726,0,0,1,6.07,2.586v-26.848a123.347,123.347,0,0,1,41.168-7.024,123.346,123.346,0,0,1,41.168,7.024v26.947a8.764,8.764,0,0,0-6.168-2.684c-5.584,0-10.1,5.762-10.1,12.867s4.519,12.873,10.1,12.873a8.764,8.764,0,0,0,6.168-2.684v27.993h-31.361a8.875,8.875,0,0,1,3.06,6.532C2157.338-2682.036,2151.575-2677.511,2144.471-2677.511Z" transform="translate(-2020.763 2776.482)" fill="#77cfd9"/>
        <path id="Trazado_111112" data-name="Trazado 111112" d="M1893.245-2689.009c-7.1,0-12.867,4.525-12.867,10.109a8.781,8.781,0,0,0,2.77,6.255H1846.98a123.871,123.871,0,0,1,75.312-75.311v26.848a8.726,8.726,0,0,0-6.07-2.586c-5.578,0-10.1,5.762-10.1,12.867s4.525,12.873,10.1,12.873a8.727,8.727,0,0,0,6.07-2.585v27.894h-18.943a8.781,8.781,0,0,0,2.77-6.255C1906.119-2684.484,1900.356-2689.009,1893.245-2689.009Z" transform="translate(-1839.751 2754.981)" fill="#77cfd9"/>
        <g id="Grupo_74720" data-name="Grupo 74720" transform="translate(65.751 7.024)">
          <g id="Grupo_74717" data-name="Grupo 74717" transform="translate(82.238)">
            <path id="Trazado_111113" data-name="Trazado 111113" d="M2510.78-2672.03h-27.435l1.065-1.053A8.12,8.12,0,0,0,2487-2678.9c0-5.234-5.5-9.493-12.251-9.493s-12.258,4.259-12.258,9.493a8.119,8.119,0,0,0,2.588,5.817l1.065,1.053h-31.288v-27.256a9.04,9.04,0,0,1-5.553,1.947c-5.91,0-10.718-6.051-10.718-13.488s4.808-13.483,10.718-13.483a9.04,9.04,0,0,1,5.553,1.948v-25.594h1.231v28.417l-1.048-1.032a8.116,8.116,0,0,0-5.737-2.507c-5.231,0-9.487,5.5-9.487,12.251s4.255,12.257,9.487,12.257a8.116,8.116,0,0,0,5.737-2.507l1.048-1.032v28.849h27.19a9.177,9.177,0,0,1-2.017-5.639c0-5.914,6.051-10.725,13.489-10.725s13.483,4.811,13.483,10.725a9.178,9.178,0,0,1-2.016,5.639h24.567Z" transform="translate(-2418.581 2747.957)" fill="#fdf6e6"/>
          </g>
          <g id="Grupo_74718" data-name="Grupo 74718" transform="translate(82.238 140.699)">
            <path id="Trazado_111114" data-name="Trazado 111114" d="M2436.083-2084.334h-1.231v-22.707a9.041,9.041,0,0,1-5.553,1.947c-5.91,0-10.718-6.048-10.718-13.482s4.808-13.489,10.718-13.489a9.041,9.041,0,0,1,5.553,1.947v-30.15h28.408a9.183,9.183,0,0,1-2-5.621c0-5.91,6.051-10.718,13.489-10.718s13.483,4.808,13.483,10.718a9.182,9.182,0,0,1-2,5.621h24.561v1.231H2483.37l1.056-1.052a8.128,8.128,0,0,0,2.572-5.8c0-5.231-5.5-9.487-12.251-9.487s-12.258,4.256-12.258,9.487a8.129,8.129,0,0,0,2.572,5.8l1.056,1.052h-30.032v31.741l-1.048-1.032a8.118,8.118,0,0,0-5.737-2.507c-5.231,0-9.487,5.5-9.487,12.258s4.255,12.251,9.487,12.251a8.118,8.118,0,0,0,5.737-2.507l1.048-1.032Z" transform="translate(-2418.581 2176.607)" fill="#fdf6e6"/>
          </g>
          <g id="Grupo_74719" data-name="Grupo 74719">
            <path id="Trazado_111115" data-name="Trazado 111115" d="M2102.033-2672.646H2100.8v-26.562a9.017,9.017,0,0,1-5.454,1.869c-5.91,0-10.719-6.051-10.719-13.488s4.808-13.483,10.719-13.483a9.018,9.018,0,0,1,5.454,1.869v-25.516h1.231v28.3l-1.043-1a8.073,8.073,0,0,0-5.643-2.414c-5.231,0-9.487,5.5-9.487,12.251s4.256,12.257,9.487,12.257a8.073,8.073,0,0,0,5.643-2.413l1.043-1.005Z" transform="translate(-2084.629 2747.957)" fill="#fdf6e6"/>
          </g>
        </g>
        <g id="Grupo_74722" data-name="Grupo 74722" transform="translate(68.267 299.616)">
          <g id="Grupo_74721" data-name="Grupo 74721">
            <rect id="Rectángulo_33240" data-name="Rectángulo 33240" width="109.648" height="17.334" transform="translate(0.616 0.616)" fill="#102048"/>
            <path id="Trazado_111116" data-name="Trazado 111116" d="M2204.491-1558.57v16.1H2096.074v-16.1h108.417m1.231-1.231h-110.88v18.566h110.88V-1559.8Z" transform="translate(-2094.843 1559.801)" fill="#fff"/>
          </g>
        </g>
        <g id="Grupo_74723" data-name="Grupo 74723" transform="translate(76.763 153.818)">
          <path id="Trazado_111117" data-name="Trazado 111117" d="M2154.286-2124.719h-24.939v-1.847h23.092v-25.291h1.847Z" transform="translate(-2129.347 2151.857)" fill="#fdf6e6"/>
        </g>
      </g>
      <g id="Grupo_74726" data-name="Grupo 74726" transform="translate(0 247.02)">
        <path id="Trazado_111118" data-name="Trazado 111118" d="M1499.032-1680.4a123.86,123.86,0,0,1-71.571-78.887l36.114,1.756a8.793,8.793,0,0,1-2.446-6.363c.271-5.577,6.246-9.811,13.342-9.466s12.638,5.139,12.367,10.716a8.792,8.792,0,0,1-3.052,6.1l18.9.919-1.5,30.752a8.726,8.726,0,0,0-5.937-2.877c-5.571-.271-10.371,5.265-10.716,12.367s3.895,13.071,9.466,13.342a8.727,8.727,0,0,0,6.189-2.288Z" transform="translate(-1427.461 1773.382)" fill="#419ca6"/>
        <g id="Grupo_74725" data-name="Grupo 74725" transform="translate(4.517 41.636)">
          <path id="Trazado_111119" data-name="Trazado 111119" d="M1445.8-1604.308v53.2h110.024v-53.2Zm67.493,15.8a4.038,4.038,0,0,1-4.026,4.026h-16.91a4.038,4.038,0,0,1-4.026-4.026h0a4.038,4.038,0,0,1,4.026-4.026h16.91a4.038,4.038,0,0,1,4.026,4.026Z" transform="translate(-1445.805 1604.308)" fill="#e5ecff" stroke="#708cd5" stroke-miterlimit="10" stroke-width="3.75"/>
        </g>
        <path id="Trazado_111120" data-name="Trazado 111120" d="M1555.829-1551.106s-77.835-5.478-110.024-53.2v53.2Z" transform="translate(-1441.287 1645.943)" fill="#1f3c88" opacity="0.2"/>
      </g>
    </g>
    <g id="Grupo_74735" data-name="Grupo 74735" transform="translate(1625.357 -2684.334)">
      <g id="Grupo_74729" data-name="Grupo 74729" transform="translate(0 37.79)">
        <g id="Grupo_74728" data-name="Grupo 74728">
          <path id="Trazado_111122" data-name="Trazado 111122" d="M2663.6-2041.712c.885-2.424-.391-3.876-.428-5.192s.364-2.485-.346-2.657-1.552.912-2.014,6.629Z" transform="translate(-2652.336 2054.226)" fill="#f9b384"/>
          <path id="Trazado_111123" data-name="Trazado 111123" d="M2638.436-2053.63l-.923,3.725h-5.793l-3.543-7.918c-.511-.954-1.894-4.79-1.77-5.6.231-1.507,2.069,2.228,2.155,2.289-.326-1.132-1.438-4.7-.924-5.5.616-.962,2.483,3.206,2.963,4.462-.24-1.164-1.591-5.557-.931-6.2.79-.766,2.624,4.088,2.906,5.608-.074-1.139-.621-5.031.141-4.938,1.052.128,2.889,6.954,2.889,6.954A23.208,23.208,0,0,1,2638.436-2053.63Z" transform="translate(-2626.398 2068.452)" fill="#f9b384"/>
        </g>
        <path id="Trazado_111124" data-name="Trazado 111124" d="M2638.466-2035.606a9.135,9.135,0,0,1,2.215-1.559,5.122,5.122,0,0,1,1.309-.422,3.369,3.369,0,0,1,1.372.045l-.019.119a4.979,4.979,0,0,0-2.531.534,17.018,17.018,0,0,0-2.27,1.377Z" transform="translate(-2635.494 2045.225)" fill="#e28b6d"/>
        <path id="Trazado_111125" data-name="Trazado 111125" d="M2656.617-2031.61a.973.973,0,0,0-.9.5,2.114,2.114,0,0,0-.153,1.091,5.3,5.3,0,0,0,.213,1.143,5.1,5.1,0,0,0,.429,1.086l-.1.072a3.467,3.467,0,0,1-.589-1.076,4.586,4.586,0,0,1-.261-1.2,2.185,2.185,0,0,1,.232-1.242,1.484,1.484,0,0,1,.214-.258,1.665,1.665,0,0,1,.288-.171,2.141,2.141,0,0,1,.318-.066l.315.006Z" transform="translate(-2648.146 2040.777)" fill="#e28b6d"/>
      </g>
      <g id="Grupo_74730" data-name="Grupo 74730" transform="translate(10.237 191.298)">
        <path id="Trazado_111126" data-name="Trazado 111126" d="M2720.623-1437.932l.558-7.155h-9.631l-1.335,3.016a12.827,12.827,0,0,1-2.25,3.435C2710.819-1437.133,2715.266-1435.493,2720.623-1437.932Z" transform="translate(-2698.115 1445.087)" fill="#f9b384"/>
        <path id="Trazado_111127" data-name="Trazado 111127" d="M2677.817-1418.887a12.833,12.833,0,0,1-4.9,3.364l-4.306,1.649a1.371,1.371,0,0,0,.735,2.528h17.434a3.425,3.425,0,0,0,3.415-3.158l.287-3.679C2685.119-1415.745,2680.672-1417.385,2677.817-1418.887Z" transform="translate(-2667.967 1425.339)" fill="#102048"/>
      </g>
      <g id="Grupo_74731" data-name="Grupo 74731" transform="translate(55.777 191.298)">
        <path id="Trazado_111128" data-name="Trazado 111128" d="M2853.455-1437.932l-.557-7.155h9.632l1.335,3.016a12.805,12.805,0,0,0,2.25,3.435C2863.259-1437.133,2858.813-1435.493,2853.455-1437.932Z" transform="translate(-2852.898 1445.087)" fill="#f9b384"/>
        <path id="Trazado_111129" data-name="Trazado 111129" d="M2867.821-1418.887a12.832,12.832,0,0,0,4.9,3.364l4.306,1.649a1.371,1.371,0,0,1-.735,2.528h-17.434a3.425,3.425,0,0,1-3.414-3.158l-.287-3.679C2860.52-1415.745,2864.966-1417.385,2867.821-1418.887Z" transform="translate(-2854.604 1425.339)" fill="#102048"/>
      </g>
      <path id="Trazado_111130" data-name="Trazado 111130" d="M2757.406-1768.667h-16.573l-9-69.7-4.677,31.674-.972,38.03h-15.563a509.9,509.9,0,0,1,5.418-95.788l.345-5.491.394-6.261,31.305,2.3.375,4.266.727,8.139Z" transform="translate(-2689.579 1961.339)" fill="#1f3c88"/>
      <path id="Trazado_111131" data-name="Trazado 111131" d="M2766.63-1842.341c-2.948,4.454-23.5,4.3-33.259-1.153l.458-7.287,32.075.3Z" transform="translate(-2707.028 1942.175)" fill="#102048" opacity="0.6"/>
      <path id="Trazado_111132" data-name="Trazado 111132" d="M2725.655-1872.9s-3.1,8.02-.44,9.559,33.334,1.847,35.762,0-3.447-6.464-2.888-9.542S2725.655-1872.9,2725.655-1872.9Z" transform="translate(-2700.069 1959.871)" fill="#708cd5"/>
      <path id="Trazado_111133" data-name="Trazado 111133" d="M2663.444-2006.88c-1.077,2.386-5.079,9.619-5.079,9.619l-5.849-11c-1.31,1.061-2.852,2.051-7.434,2.116,0,0,6.587,24.357,12.513,26.862,9.718,4.108,12-14.279,12-14.279Z" transform="translate(-2640.482 2060.877)" fill="#708cd5"/>
      <path id="Trazado_111134" data-name="Trazado 111134" d="M2719.645-2033.029l1.583-3.716a6.507,6.507,0,0,1,3.189-3.4q.209-.1.426-.179a37.225,37.225,0,0,1,12.579-2.627,69.952,69.952,0,0,1,18.228,2.54l2.858,36.553-33.86-.693Z" transform="translate(-2696.682 2087.026)" fill="#708cd5"/>
      <path id="Trazado_111135" data-name="Trazado 111135" d="M2816.928-2002.64c.795,13.737-.313,28.5-8.312,29.453l9.239,2.6,9.923-5.31-3.925-21.624Z" transform="translate(-2763.744 2056.637)" fill="#1f3c88" opacity="0.3"/>
      <path id="Trazado_111136" data-name="Trazado 111136" d="M2813.784-2036.671c2.041.448,5.449.916,7.142,2.07s6.464,25.857,7.7,31.552,1.539,11.543-23.7,12.467l-2.463-6.926,14.775-5.695-5.665-25.087Z" transform="translate(-2759.101 2082.288)" fill="#708cd5"/>
      <path id="Trazado_111137" data-name="Trazado 111137" d="M2737.366-1994.992c.177,2.472.259,4.948.341,7.422l.074,3.714c.01,1.239.017,2.477-.01,3.716l-.181,0c-.095-1.236-.155-2.473-.212-3.71l-.128-3.712c-.052-2.476-.106-4.951-.063-7.43Z" transform="translate(-2709.892 2050.872)" fill="#1f3c88"/>
      <g id="Grupo_74732" data-name="Grupo 74732" transform="translate(14.466 65.925)">
        <path id="Trazado_111138" data-name="Trazado 111138" d="M2829.037-1891.388v1.424l-7.046,6.368-.553-2.626Z" transform="translate(-2787.874 1906.857)" fill="#102048"/>
        <path id="Trazado_111139" data-name="Trazado 111139" d="M2797.707-1890.331l8.072-6.868-15.2-1.9Z" transform="translate(-2764.617 1912.668)" fill="#fff"/>
        <path id="Trazado_111140" data-name="Trazado 111140" d="M2719.259-1930.942h-29.223l-4.893-23.26h29.223Z" transform="translate(-2685.142 1954.202)" fill="#102048"/>
        <path id="Trazado_111141" data-name="Trazado 111141" d="M2749.162-1910.341H2745.9l-.616-3.266h3.266Z" transform="translate(-2730.471 1923.604)" fill="#fff"/>
      </g>
      <path id="Trazado_111142" data-name="Trazado 111142" d="M2748.819-2164.687c-3.278-8.319,10.421-11.4,11.757-4.436a8.828,8.828,0,0,1,7.8.123c7.486,4.151,2.651,15.844,0,15.844l-13.525-1.765Z" transform="translate(-2718.292 2185.024)" fill="#6f3428"/>
      <path id="Trazado_111143" data-name="Trazado 111143" d="M2789.208-2075.307v8.515c0,2.34-2.241,4.237-5.017,4.237s-5.012-1.9-5.012-4.237v-8.515Z" transform="translate(-2741.556 2111.409)" fill="#f9b384"/>
      <path id="Trazado_111144" data-name="Trazado 111144" d="M2787.048-2064.706a10.088,10.088,0,0,1-7.868,3.712v-4.488Z" transform="translate(-2741.556 2104.004)" fill="#3c1c16"/>
      <path id="Trazado_111145" data-name="Trazado 111145" d="M2774.473-2131.207v14.579a9.755,9.755,0,0,1-8.718,4.463c-2.906-.2-4.371-2.02-5.134-4.932a22.86,22.86,0,0,1-.628-3.761c-.221-2.333-.283-5.036-.363-7.954v-2.4Z" transform="translate(-2726.821 2153.543)" fill="#f9b384"/>
      <path id="Trazado_111146" data-name="Trazado 111146" d="M2738.466-2147.765c-1.808-1.575-5.468-.377-6.544,1.839a5.2,5.2,0,0,0,3.029,7.156c3.725,1.255,5.237-2.663,5.237-2.663a4.044,4.044,0,0,0,3.883,1.331,3.443,3.443,0,0,0,2.6-2.164s.6,4.844,6.957,4.727c1.365-.466,2-5.759,2-5.759l-4.194-4.36Z" transform="translate(-2705.536 2166.565)" fill="#6f3428"/>
      <path id="Trazado_111147" data-name="Trazado 111147" d="M2756.033-1874.783a27.434,27.434,0,0,1-9.574.532,11.922,11.922,0,0,1-5.509-2.209,11.3,11.3,0,0,1-3.174-3.956,1.143,1.143,0,0,1,0-1.224c.329-.358.927.257,1.245.5a13.561,13.561,0,0,1,2.693,2.873s-2.4-3.933-1.8-4.566c.462-.487,1.162-.369,3.573,3.633,0,0,.454.985.89.472.235-.276-1.376-3.375-.205-3.643.9-.205,1.745,2.722,2.36,3.875.77.9,2.1,0,2.1,0l6.5,1.224Z" transform="translate(-2710.215 1966.489)" fill="#f9b384"/>
      <path id="Trazado_111148" data-name="Trazado 111148" d="M2779.665-1873.175a8.957,8.957,0,0,0-.531-1.942,2.09,2.09,0,0,1-.145-.438.544.544,0,0,1,.751-.625,4.467,4.467,0,0,1,1.85,2.024,3.855,3.855,0,0,1,.5,2.356c-.035.251-2.134.256-2.271-.05a.684.684,0,0,1-.04-.24A10.012,10.012,0,0,0,2779.665-1873.175Z" transform="translate(-2741.403 1961.344)" fill="#f9b384"/>
      <path id="Trazado_111149" data-name="Trazado 111149" d="M2791.483-1769.837q.593,3.8,1.132,7.6l1.038,7.613.957,7.624.443,3.816.4,3.822-.239.031-.59-3.8-.55-3.8-1.029-7.615-.948-7.625c-.308-2.543-.588-5.089-.855-7.637Z" transform="translate(-2750.649 1881.163)" fill="#708cd5"/>
      <path id="Trazado_111150" data-name="Trazado 111150" d="M2775.672-2017.73a8.138,8.138,0,0,0,5.941,2.153,7.714,7.714,0,0,0,3.091-.851,10.964,10.964,0,0,0,2.627-1.925l.134.121a9.244,9.244,0,0,1-2.573,2.16,7.684,7.684,0,0,1-3.251.95,7.759,7.759,0,0,1-3.34-.563,7.519,7.519,0,0,1-2.757-1.92Z" transform="translate(-2738.815 2068.48)" fill="#1f3c88"/>
      <path id="Trazado_111151" data-name="Trazado 111151" d="M2817.031-2106.476c.664-1.644,1.946-2.1,3.192-1.517,1.978.925,1.324,6.051-3.192,6.164Z" transform="translate(-2770.086 2136.229)" fill="#f9b384"/>
      <path id="Trazado_111152" data-name="Trazado 111152" d="M2820.98-2102.554a1.639,1.639,0,0,1,.4-1.391.988.988,0,0,1,.76-.315,1.007,1.007,0,0,1,.674.363l-.107.145a1.268,1.268,0,0,0-.567-.105.68.68,0,0,0-.431.23,1.747,1.747,0,0,0-.33.482,3.355,3.355,0,0,0-.222.59Z" transform="translate(-2773.042 2133.234)" fill="#6f3428"/>
      <path id="Trazado_111153" data-name="Trazado 111153" d="M2769.466-2100.815c0,.575-.319,1.042-.712,1.042s-.712-.467-.712-1.042.319-1.042.712-1.042S2769.466-2101.39,2769.466-2100.815Z" transform="translate(-2733.161 2131.421)" fill="#3c1c16"/>
      <path id="Trazado_111154" data-name="Trazado 111154" d="M2793.96-2100.815c0,.575-.319,1.042-.712,1.042s-.712-.467-.712-1.042.319-1.042.712-1.042S2793.96-2101.39,2793.96-2100.815Z" transform="translate(-2751.623 2131.421)" fill="#3c1c16"/>
      <path id="Trazado_111155" data-name="Trazado 111155" d="M2777.881-2095.986a3.78,3.78,0,0,1,.152.659c.016.113.022.226.027.34a.785.785,0,0,1-.065.412c-.176.306-.46.353-.612.449a.8.8,0,0,0-.344.368.771.771,0,0,0,.188.922,1.509,1.509,0,0,0,1.118.232l.041.175a1.521,1.521,0,0,1-1.4-.088,1.164,1.164,0,0,1-.354-1.443,1.242,1.242,0,0,1,.558-.552,1.417,1.417,0,0,0,.47-.254,1.415,1.415,0,0,0,.066-.542,6.138,6.138,0,0,0-.017-.641Z" transform="translate(-2739.543 2126.996)" fill="#e28b6d"/>
      <path id="Trazado_111156" data-name="Trazado 111156" d="M2775.2-2074.438a4.731,4.731,0,0,0,1.116.2,5.633,5.633,0,0,0,1.128-.024,4.146,4.146,0,0,0,1.085-.257,4.758,4.758,0,0,0,1-.523l.124.131a2.927,2.927,0,0,1-.967.763,3.669,3.669,0,0,1-1.193.341,4.484,4.484,0,0,1-1.231-.044,2.992,2.992,0,0,1-1.151-.43Z" transform="translate(-2738.49 2111.208)" fill="#3c1c16"/>
      <path id="Trazado_111157" data-name="Trazado 111157" d="M2764.045-2107.018a2.383,2.383,0,0,1,.648-.744,1.543,1.543,0,0,1,.978-.307,2.119,2.119,0,0,1,.961.316,3.5,3.5,0,0,1,.746.633l-.08.09a7.63,7.63,0,0,0-.8-.487,2.124,2.124,0,0,0-.844-.247,1.981,1.981,0,0,0-1.516.817Z" transform="translate(-2730.148 2136.104)" fill="#3c1c16"/>
      <path id="Trazado_111158" data-name="Trazado 111158" d="M2788.586-2106.857a2.072,2.072,0,0,1,.784-.755,2.032,2.032,0,0,1,1.085-.241,2.882,2.882,0,0,1,1.9.987l-.08.09a3.676,3.676,0,0,0-1.836-.773,2.157,2.157,0,0,0-1.753.763Z" transform="translate(-2748.646 2135.943)" fill="#3c1c16"/>
      <circle id="Elipse_4621" data-name="Elipse 4621" cx="1.918" cy="1.918" r="1.918" transform="translate(41.828 32.334)" fill="#ee6f57" opacity="0.4"/>
      <path id="Trazado_111159" data-name="Trazado 111159" d="M2763.5-2087.511a1.909,1.909,0,0,1-1.767,1.9,22.915,22.915,0,0,1-.628-3.761,1.722,1.722,0,0,1,.474-.062A1.923,1.923,0,0,1,2763.5-2087.511Z" transform="translate(-2727.932 2122.056)" fill="#ee6f57" opacity="0.4"/>
      <g id="Grupo_74734" data-name="Grupo 74734" transform="translate(65.407 0)">
        <rect id="Rectángulo_33241" data-name="Rectángulo 33241" width="47.062" height="25.98" rx="12.99" transform="translate(4.198)" fill="#c6eae9"/>
        <path id="Trazado_111160" data-name="Trazado 111160" d="M2903.356-2155.48,2892-2145.86h22.708Z" transform="translate(-2892.002 2171.839)" fill="#c6eae9"/>
        <g id="Grupo_74733" data-name="Grupo 74733" transform="translate(16.842 10.568)">
          <circle id="Elipse_4622" data-name="Elipse 4622" cx="2.422" cy="2.422" r="2.422" fill="#fff"/>
          <circle id="Elipse_4623" data-name="Elipse 4623" cx="2.422" cy="2.422" r="2.422" transform="translate(8.465)" fill="#fff"/>
          <circle id="Elipse_4624" data-name="Elipse 4624" cx="2.422" cy="2.422" r="2.422" transform="translate(16.929)" fill="#fff"/>
        </g>
      </g>
    </g>
    <g id="Grupo_74743" data-name="Grupo 74743" transform="translate(1346.656 -2724.134)">
      <path id="Trazado_111161" data-name="Trazado 111161" d="M1743.715-1977.6c-1.229,1.543-5.151,14.642-5.151,14.642A17.438,17.438,0,0,0,1749-1961.07C1748.761-1961.076,1743.715-1977.6,1743.715-1977.6Z" transform="translate(-1678.499 2077.563)" fill="#ee6f57"/>
      <g id="Grupo_74736" data-name="Grupo 74736" transform="translate(58.302 233.046)">
        <path id="Trazado_111162" data-name="Trazado 111162" d="M1776.859-1431l.481-6.176h-8.314l-1.152,2.6a11.07,11.07,0,0,1-1.943,2.965A11.831,11.831,0,0,0,1776.859-1431Z" transform="translate(-1757.428 1437.178)" fill="#f9b384"/>
        <path id="Trazado_111163" data-name="Trazado 111163" d="M1739.906-1414.561a11.082,11.082,0,0,1-4.234,2.9l-3.718,1.423a1.184,1.184,0,0,0,.635,2.183h15.05a2.957,2.957,0,0,0,2.947-2.727l.247-3.176A11.831,11.831,0,0,1,1739.906-1414.561Z" transform="translate(-1731.403 1420.131)" fill="#102048"/>
      </g>
      <g id="Grupo_74737" data-name="Grupo 74737" transform="translate(101.918 233.046)">
        <path id="Trazado_111164" data-name="Trazado 111164" d="M1909-1431l-.481-6.176h8.314l1.152,2.6a11.077,11.077,0,0,0,1.943,2.965A11.83,11.83,0,0,1,1909-1431Z" transform="translate(-1908.518 1437.178)" fill="#f9b384"/>
        <path id="Trazado_111165" data-name="Trazado 111165" d="M1921.4-1414.561a11.079,11.079,0,0,0,4.234,2.9l3.718,1.423a1.184,1.184,0,0,1-.634,2.183h-15.05a2.957,2.957,0,0,1-2.948-2.727l-.247-3.176A11.831,11.831,0,0,0,1921.4-1414.561Z" transform="translate(-1909.991 1420.131)" fill="#102048"/>
      </g>
      <path id="Trazado_111166" data-name="Trazado 111166" d="M1809.02-1737.076h-16.844l-12.245-73.545-3.829,73.545h-15.4l.911-75.5a29.4,29.4,0,0,1,1.127-18.137,46.343,46.343,0,0,1,1.976-4.427q.766-1.514,1.669-3.115h26.94l.48,3.115.271,1.718Z" transform="translate(-1695.187 1972.534)" fill="#708cd5"/>
      <path id="Trazado_111167" data-name="Trazado 111167" d="M1868.436-2032.789l-7.971,9.987,8.808,3.831,5.807-11.8-2.592-2.362Z" transform="translate(-1770.381 2119.417)" fill="#f9b384"/>
      <path id="Trazado_111168" data-name="Trazado 111168" d="M1813.462-2022.876h-9.145l.616-12.44h9.145Z" transform="translate(-1728.06 2121.066)" fill="#f9b384"/>
      <path id="Trazado_111169" data-name="Trazado 111169" d="M1858.765-2075.093c1.983,2.554,3.058,3.865,2.957,4.436s-.806,1.781-3.26,1.378C1858.564-2069.716,1858.765-2075.093,1858.765-2075.093Z" transform="translate(-1768.872 2151.048)" fill="#e28b6d"/>
      <path id="Trazado_111170" data-name="Trazado 111170" d="M1816.316-2085.034c-.34,2.146-1.283,3.7-3.389,3.906a23.654,23.654,0,0,1-10.485-1.7l-.988-11.74,4.752-3.406,9.588,1.436c.1,2.118.483,4.735.63,7.21A20.41,20.41,0,0,1,1816.316-2085.034Z" transform="translate(-1725.902 2168.296)" fill="#f9b384"/>
      <path id="Trazado_111171" data-name="Trazado 111171" d="M1777.047-2111.711c2.33,2.2,5.129,2.378,6.862.9,3.668-3.136,1.268-10.709-6.862-7.886,0,0-8.962-4.078-14.159,1.3s-1.252,11.15-7.669,19.621a27.241,27.241,0,0,0,26.7.433c-2.306-4.132-6.846-.866-6.976-7.809C1774.9-2105.259,1774.224-2111.04,1777.047-2111.711Z" transform="translate(-1691.052 2185.033)" fill="#102048"/>
      <path id="Trazado_111172" data-name="Trazado 111172" d="M1801.443-1825.607a3.265,3.265,0,0,1-1.127,1.718c-4.088,3.725-18.371,7.369-31.336,2.709a46.312,46.312,0,0,1,1.976-4.427Z" transform="translate(-1701.425 1962.999)" fill="#1f3c88" opacity="0.3"/>
      <path id="Trazado_111173" data-name="Trazado 111173" d="M1793.174-1959.837c-1.884.831-21.7,5.03-31.108-.412-.714-.622-2.567-1.207.049-4.55s-1.508-21.166-2.635-34.316a25.831,25.831,0,0,1,12.553-6.587,35.5,35.5,0,0,1,11.045,0,47.346,47.346,0,0,1,8.717,2.616l-.419,14.954s-.129.708-.289,1.884c0-.006,0-.006-.006,0a70.867,70.867,0,0,0-.683,9c-.031,4.285.493,8.73,2.419,11.02C1796.178-1962.219,1795.052-1960.674,1793.174-1959.837Z" transform="translate(-1694.264 2099.076)" fill="#ee6f57"/>
      <path id="Trazado_111174" data-name="Trazado 111174" d="M1866.225-1993.264l-2.272,12.763a.1.1,0,0,1-.044-.025l-2.855-1.8-.082-.056c-.044-.031-.088-.063-.132-.088l-11.044-6.965-4.656-16.033c4.549.678,9.525,1.017,12.638,3.834C1860.025-1999.6,1863.7-1995.849,1866.225-1993.264Z" transform="translate(-1758.831 2098.569)" fill="#ee6f57"/>
      <path id="Trazado_111175" data-name="Trazado 111175" d="M1938.2-2024.872s-3.609,24.3-4.237,26.728c-.086.332-.185.665-.308,1-.757,2.136-2.272,4.223-5.258,4.014a8.371,8.371,0,0,1-2.333-.6,31.964,31.964,0,0,1-4.537-2.284l2.272-12.762c.973.991,1.779,1.81,2.272,2.29l3.937-19.563Z" transform="translate(-1816.408 2114.081)" fill="#f9b384"/>
      <path id="Trazado_111176" data-name="Trazado 111176" d="M1880.227-2317.526c-7.111,0-12.873,4.519-12.873,10.1a8.79,8.79,0,0,0,2.752,6.236h-31.047v-30.887a8.725,8.725,0,0,1-6.07,2.586c-5.578,0-10.1-5.762-10.1-12.873s4.525-12.867,10.1-12.867a8.725,8.725,0,0,1,6.07,2.585v-30.887h31.355a8.875,8.875,0,0,0-3.06,6.532c0,5.578,5.762,10.1,12.873,10.1s12.867-4.525,12.867-10.1a8.875,8.875,0,0,0-3.06-6.532h31.361v31.6a8.988,8.988,0,0,1,6.76-3.3c5.578,0,10.1,5.762,10.1,12.873s-4.525,12.867-10.1,12.867a8.988,8.988,0,0,1-6.76-3.3v31.6h-31.053a8.791,8.791,0,0,0,2.752-6.236C1893.094-2313.007,1887.331-2317.526,1880.227-2317.526Z" transform="translate(-1742.056 2383.529)" fill="#f2884b"/>
      <path id="Trazado_111177" data-name="Trazado 111177" d="M1955.606-2042.933c-.373-2.423.1-5.025.641-7.971l8.391.079c-1.091,2.536.92,5.073-.852,7.218l-3.878,4.159Z" transform="translate(-1841.992 2132.815)" fill="#f9b384"/>
      <path id="Trazado_111178" data-name="Trazado 111178" d="M1899.289-2044.165c2.071-1.4,4.38-6.622,4.38-6.622-1.606-.081-7.426-.217-9.679,0,0,0,.015,3.135-1.344,4.6C1891.835-2045.314,1899.289-2044.165,1899.289-2044.165Z" transform="translate(-1794.59 2132.815)" fill="#f9b384"/>
      <path id="Trazado_111179" data-name="Trazado 111179" d="M1827.041-2067.808a2.766,2.766,0,0,0-2.165-2.333,1.794,1.794,0,0,0-2.182,1.048c-.5,1.613.269,5.679,3.965,3.865C1827.074-2065.41,1827.308-2066.249,1827.041-2067.808Z" transform="translate(-1741.807 2147.367)" fill="#f9b384"/>
      <path id="Trazado_111180" data-name="Trazado 111180" d="M1763.207-1943.659c-.254-1.507-.5-3.015-.723-4.526l-.653-4.535-.592-4.544q-.279-2.274-.509-4.555l.179-.025q.391,2.259.729,4.525l.646,4.537.586,4.545c.189,1.516.357,3.034.515,4.554Z" transform="translate(-1695.207 2065.686)" fill="#6f3428"/>
      <path id="Trazado_111181" data-name="Trazado 111181" d="M1873.8-1934.195a70.917,70.917,0,0,0-.683,9c-2.7-4.876-3.891-11.888-3.891-11.888S1871.52-1935.641,1873.8-1934.195Z" transform="translate(-1776.987 2047.023)" fill="#6f3428" opacity="0.3"/>
      <path id="Trazado_111182" data-name="Trazado 111182" d="M1875.213-1994.042a4.983,4.983,0,0,0-1.525.311,5.224,5.224,0,0,0-1.326.784,7.83,7.83,0,0,0-1.106,1.107,11.686,11.686,0,0,0-.933,1.286l-.165-.074a6.064,6.064,0,0,1,.778-1.459,6.588,6.588,0,0,1,1.14-1.218,4.83,4.83,0,0,1,1.484-.8,3.829,3.829,0,0,1,1.665-.122Z" transform="translate(-1777.687 2090.12)" fill="#6f3428"/>
      <path id="Trazado_111183" data-name="Trazado 111183" d="M1819.5-1729.294a17.775,17.775,0,0,0,2.4.333,17.889,17.889,0,0,0,2.417,0,22.963,22.963,0,0,0,2.409-.262c.8-.124,1.6-.288,2.382-.482l.06.17a13.84,13.84,0,0,1-2.37.709,17.681,17.681,0,0,1-2.455.323,14.531,14.531,0,0,1-2.479-.071,11.334,11.334,0,0,1-2.415-.548Z" transform="translate(-1739.469 1890.712)" fill="#1f3c88"/>
      <path id="Trazado_111184" data-name="Trazado 111184" d="M1853.812-2058.779a1.922,1.922,0,0,1-.409.04,2.2,2.2,0,0,1-2.2-2.2,2.2,2.2,0,0,1,2.2-2.2,1.963,1.963,0,0,1,.517.068A20.413,20.413,0,0,1,1853.812-2058.779Z" transform="translate(-1763.398 2142.042)" fill="#ee6f57" opacity="0.4"/>
      <path id="Trazado_111185" data-name="Trazado 111185" d="M1827.6-2065.167c-.2-.319-.437-.648-.7-.718a.5.5,0,0,0-.394.076,3.489,3.489,0,0,0-.449.323l-.135-.1a1.329,1.329,0,0,1,.371-.531.814.814,0,0,1,.725-.175,1.021,1.021,0,0,1,.543.461,1.389,1.389,0,0,1,.194.612Z" transform="translate(-1744.347 2144.431)" fill="#6f3428"/>
      <circle id="Elipse_4625" data-name="Elipse 4625" cx="3.857" cy="3.857" r="3.857" transform="translate(65.368 71.171) rotate(-80.783)" fill="#102048"/>
      <path id="Trazado_111186" data-name="Trazado 111186" d="M1947.546-1909.521c-.757,2.136-2.272,4.223-5.258,4.014a8.375,8.375,0,0,1-2.333-.6C1941.18-1909.429,1943.753-1910.34,1947.546-1909.521Z" transform="translate(-1830.296 2026.462)" fill="#ee6f57" opacity="0.4"/>
      <g id="Grupo_74738" data-name="Grupo 74738" transform="translate(119.528 78.789)">
        <path id="Trazado_111187" data-name="Trazado 111187" d="M1983.582-2061.748c-.062.314-.245.65-.326,1.071a28.974,28.974,0,0,1-.813,3.638l-2.413-1.231a17.964,17.964,0,0,1,2.316-4.8c.345-.431.572-.705.947-.354A1.759,1.759,0,0,1,1983.582-2061.748Z" transform="translate(-1980.03 2063.582)" fill="#f9b384"/>
        <path id="Trazado_111188" data-name="Trazado 111188" d="M1992.616-2061.257c-1-.277-.492-.745-.289-1.675A1.759,1.759,0,0,1,1992.616-2061.257Z" transform="translate(-1989.064 2063.092)" fill="#e28b6d"/>
      </g>
      <g id="Grupo_74739" data-name="Grupo 74739" transform="translate(100.419 77.447)">
        <path id="Trazado_111189" data-name="Trazado 111189" d="M1902.959-2067.5c-.048.316.01.7-.057,1.118a28.942,28.942,0,0,0-.471,3.7l2.688-.339a17.972,17.972,0,0,0-.549-5.3c-.178-.523-.3-.858-.771-.655C1903.44-2068.827,1903.1-2068.374,1902.959-2067.5Z" transform="translate(-1902.432 2069.032)" fill="#f9b384"/>
        <path id="Trazado_111190" data-name="Trazado 111190" d="M1904.575-2067.312c1.038.08.716-.533.841-1.477C1905.056-2068.644,1904.716-2068.191,1904.575-2067.312Z" transform="translate(-1904.047 2068.849)" fill="#e28b6d"/>
      </g>
      <path id="Trazado_111191" data-name="Trazado 111191" d="M1913.034-2052.7a1.073,1.073,0,0,0,.271.712,2.507,2.507,0,0,1,.6.662,1.373,1.373,0,0,1-.015.936,2.393,2.393,0,0,1-.423.777l-.1-.064a4.11,4.11,0,0,0,.266-.785,1.231,1.231,0,0,0-.006-.745c-.073-.215-.327-.36-.521-.616a1.083,1.083,0,0,1-.19-.891Z" transform="translate(-1809.894 2134.18)" fill="#e28b6d"/>
      <path id="Trazado_111192" data-name="Trazado 111192" d="M1977.467-2051.243a1.769,1.769,0,0,1-.6,1.034c-.323.285-.726.357-.9.638a1.847,1.847,0,0,0-.32,1,3.036,3.036,0,0,0,.125,1.1l-.111.046a2.433,2.433,0,0,1-.283-1.153,1.969,1.969,0,0,1,.347-1.173c.286-.369.72-.443.983-.655a1.868,1.868,0,0,0,.643-.861Z" transform="translate(-1856.995 2133.094)" fill="#e28b6d"/>
      <g id="Grupo_74740" data-name="Grupo 74740" transform="translate(67.747 134.215)" opacity="0.3">
        <path id="Trazado_111193" data-name="Trazado 111193" d="M1769.967-1838.507a5.478,5.478,0,0,0,2.056,1.409,17.011,17.011,0,0,0,2.42.846,21.7,21.7,0,0,0,2.514.562,15.238,15.238,0,0,0,2.561.24l.027.239a9.48,9.48,0,0,1-2.66.054,16.354,16.354,0,0,1-2.607-.508,13.642,13.642,0,0,1-2.483-.966,4.8,4.8,0,0,1-2.035-1.753Z" transform="translate(-1769.76 1838.507)" fill="#6f3428"/>
      </g>
      <g id="Grupo_74742" data-name="Grupo 74742" transform="translate(0 61.352)">
        <rect id="Rectángulo_33242" data-name="Rectángulo 33242" width="47.062" height="25.98" rx="12.99" transform="translate(47.062 25.98) rotate(180)" fill="#77cfd9"/>
        <path id="Trazado_111194" data-name="Trazado 111194" d="M1621.948-2067.96l11.354,9.621h-22.707Z" transform="translate(-1582.043 2084.32)" fill="#77cfd9"/>
        <g id="Grupo_74741" data-name="Grupo 74741" transform="translate(12.153 10.076)">
          <circle id="Elipse_4626" data-name="Elipse 4626" cx="2.422" cy="2.422" r="2.422" transform="matrix(0.973, -0.23, 0.23, 0.973, 16.929, 1.113)" fill="#fff"/>
          <circle id="Elipse_4627" data-name="Elipse 4627" cx="2.422" cy="2.422" r="2.422" transform="matrix(0.973, -0.23, 0.23, 0.973, 8.465, 1.113)" fill="#fff"/>
          <circle id="Elipse_4628" data-name="Elipse 4628" cx="2.422" cy="2.422" r="2.422" transform="matrix(0.973, -0.23, 0.23, 0.973, 0, 1.113)" fill="#fff"/>
        </g>
      </g>
    </g>
    <line id="Línea_145" data-name="Línea 145" x2="492.514" transform="translate(1298.305 -2479.042)" fill="none" stroke="#102048" stroke-miterlimit="10" stroke-width="3.75"/>
  </g>
</svg>
