<svg xmlns="http://www.w3.org/2000/svg" xmlns:xlink="http://www.w3.org/1999/xlink" width="387.427" height="350.082" viewBox="0 0 387.427 350.082">
  <defs>
    <clipPath id="clip-path">
      <path id="Trazado_110989" data-name="Trazado 110989" d="M193.833,280.758s-.571,6.4-1.829,4.944c-5.93-6.857-14.287-3.343-14.591-1.452-.135.838,9.145,40.99,16.42,51.346,15.459,22,28.831,19.216,33.219,11.761C233.806,335.882,223.311,279.726,193.833,280.758Z" fill="none"/>
    </clipPath>
    <clipPath id="clip-path-2">
      <path id="Trazado_111028" data-name="Trazado 111028" d="M258.945,370.489l-5.057-2.406-9.741,20.549.449,5.457,4.608-3.051Z" fill="none"/>
    </clipPath>
  </defs>
  <g id="Grupo_78706" data-name="Grupo 78706" transform="translate(-60.501 -76.554)">
    <g id="Grupo_74550" data-name="Grupo 74550">
      <g id="Grupo_74540" data-name="Grupo 74540">
        <path id="Trazado_110958" data-name="Trazado 110958" d="M205.121,314.351s17.108,5.289,18.82-23.367c0,0-3.677-103.621-6.225-150-.853-15.527-13.295-13.942-14.616-12.3-.587.729.677,11.054-.356,21.6C198.246,196.173,189.927,310.132,205.121,314.351Z" fill="#ffab92" fill-rule="evenodd"/>
      </g>
      <g id="Grupo_74541" data-name="Grupo 74541">
        <path id="Trazado_110959" data-name="Trazado 110959" d="M202.751,150.436c-.22,3.583,11.263-10.4,8.853-19.941-2.344-9.28-19.79-26.97-21.522-28.688-2.172-2.112-2.008-1.2,6.872,12.638.253.4.5.806.74,1.212.085.144.171.29.258.436-1.589-1.464-9.328-9.969-11.054-11.286-4.016-3.068-9.96-7.313-.789,3.488,1.024,1.232,8.053,9.845,8.928,11.286-6.875-5.431-20.69-17.475-14.072-9.81,1.081.979,10.974,12.029,11.963,13-3.624-2.113-15.579-13.244-15.516-12.206.091,1.522,4.982,7.364,8.028,10.1.988.889,4.981,6.089,6.9,8.318,3.079,3.584,4.907,7.672,7.7,9.739S203.042,145.672,202.751,150.436Z" fill="#ff957c" fill-rule="evenodd"/>
      </g>
      <g id="Grupo_74548" data-name="Grupo 74548">
        <g id="Grupo_74542" data-name="Grupo 74542">
          <path id="Trazado_110960" data-name="Trazado 110960" d="M199.995,115.591l1.9.585,2.013-5.761-1.9-.585Z" fill="#004e40" fill-rule="evenodd"/>
        </g>
        <g id="Grupo_74543" data-name="Grupo 74543">
          <path id="Trazado_110961" data-name="Trazado 110961" d="M191.259,136.342l4.577,1.41,7.551-21.607-4.577-1.41Z" fill="#52b3a8" fill-rule="evenodd"/>
        </g>
        <g id="Grupo_74544" data-name="Grupo 74544">
          <path id="Trazado_110962" data-name="Trazado 110962" d="M191.259,136.342l3.587,1.1L202.4,115.84l-3.587-1.1Z" fill="#004e40" fill-rule="evenodd"/>
        </g>
        <g id="Grupo_74545" data-name="Grupo 74545">
          <path id="Trazado_110963" data-name="Trazado 110963" d="M198.283,116.241l4.577,1.41.527-1.507-4.577-1.41Z" fill="#52b3a8" fill-rule="evenodd"/>
        </g>
        <g id="Grupo_74546" data-name="Grupo 74546">
          <path id="Trazado_110964" data-name="Trazado 110964" d="M214.767,107.771c-7.51,3.795-16.563,1.007-20.219-6.228s-.531-16.176,6.979-19.972,16.563-1.007,20.219,6.227.532,16.177-6.979,19.973m-14.726-29.14c-9.2,4.647-13.022,15.6-8.546,24.455s15.562,12.272,24.758,7.625,13.023-15.6,8.546-24.455-15.561-12.273-24.758-7.625" fill="#004e40"/>
        </g>
        <g id="Grupo_74547" data-name="Grupo 74547">
          <path id="Trazado_110965" data-name="Trazado 110965" d="M213.994,106.24c-6.794,3.434-14.92,1.037-18.149-5.352S195.506,86.535,202.3,83.1s14.92-1.037,18.149,5.353.339,14.353-6.455,17.786M200.988,80.5c-8.319,4.205-11.858,13.955-7.9,21.779s13.9,10.759,22.222,6.554,11.858-13.955,7.9-21.778S209.308,76.3,200.988,80.5" fill="#52b3a8"/>
        </g>
      </g>
      <g id="Grupo_74549" data-name="Grupo 74549">
        <path id="Trazado_110966" data-name="Trazado 110966" d="M214.441,126.549l-6-11.788s-1.853-3.948-8.67,1.592-9.99,1.535-9.772,3.691c0,0,.5,2.812,4.069,2.59s5.224-1.353,6.8-.527c0,0-.109,6.583,1.6,9.138,4.413,6.58,11.628,7.538,13.843,9.442C219.23,143.192,214.441,126.549,214.441,126.549Z" fill="#ffab92" fill-rule="evenodd"/>
      </g>
    </g>
    <g id="Grupo_74564" data-name="Grupo 74564">
      <g id="Grupo_74551" data-name="Grupo 74551">
        <path id="Trazado_110967" data-name="Trazado 110967" d="M272.227,300.352s-17.044-5.491-1.993-29.937c0,0,62.5-82.729,91.217-119.238,9.612-12.224,18.89-3.783,19.028-1.678.062.933-6.9,8.661-12.112,17.891C345.707,207.541,287.09,305.622,272.227,300.352Z" fill="#ffab92" fill-rule="evenodd"/>
      </g>
      <g id="Grupo_74552" data-name="Grupo 74552">
        <path id="Trazado_110968" data-name="Trazado 110968" d="M368.277,167.507c-1.877,3.06-3.249-14.984,4.2-21.41,7.247-6.252,31.687-10.72,34.092-11.133,2.991-.481,2.334.169-12.883,6.4-.437.183-.868.375-1.3.567l-.462.21c2.141-.287,13.361-2.808,15.53-2.894,5.05-.207,12.355-.27-1.356,3.308-1.545.421-12.246,3.437-13.789,4.115,8.747-.5,26.973-2.429,17.153.048-1.447.18-15.891,3.547-17.26,3.778,4.18.35,20.358-1.9,19.711-1.086-.948,1.194-8.306,3.169-12.373,3.662-1.32.161-7.574,2.126-10.426,2.849-4.578,1.166-8.422,3.464-11.891,3.556S370.774,163.439,368.277,167.507Z" fill="#ff957c" fill-rule="evenodd"/>
      </g>
      <g id="Grupo_74562" data-name="Grupo 74562">
        <g id="Grupo_74553" data-name="Grupo 74553">
          <path id="Trazado_110969" data-name="Trazado 110969" d="M416.852,143.011a18.475,18.475,0,1,1-18.475-18.475,18.474,18.474,0,0,1,18.475,18.475" fill="#004e40"/>
        </g>
        <g id="Grupo_74556" data-name="Grupo 74556">
          <g id="Grupo_74555" data-name="Grupo 74555" opacity="0.55">
            <g id="Grupo_74554" data-name="Grupo 74554">
              <path id="Trazado_110970" data-name="Trazado 110970" d="M415.168,143.011a16.79,16.79,0,1,1-16.791-16.79,16.792,16.792,0,0,1,16.791,16.79" fill="#52b3a8"/>
            </g>
          </g>
        </g>
        <g id="Grupo_74557" data-name="Grupo 74557">
          <path id="Trazado_110971" data-name="Trazado 110971" d="M413.455,143.011a15.077,15.077,0,1,1-15.078-15.077,15.078,15.078,0,0,1,15.078,15.077" fill="#ffe0ea"/>
        </g>
        <path id="Trazado_110972" data-name="Trazado 110972" d="M398.418,157.429h-.03a.391.391,0,0,1-.392-.392v-1.962a.391.391,0,0,1,.392-.392h.03a.391.391,0,0,1,.391.392v1.962A.391.391,0,0,1,398.418,157.429Zm-9.916-4.486-.021-.021a.392.392,0,0,1,0-.554l.882-.882a.392.392,0,0,1,.554,0l.021.021a.393.393,0,0,1,0,.555l-.882.881A.39.39,0,0,1,388.5,152.943Zm18.5-1.307.021-.021a.392.392,0,0,1,.554,0l.717.717a.392.392,0,0,1,0,.554l-.021.021a.392.392,0,0,1-.554,0l-.717-.717A.392.392,0,0,1,407.005,151.636Zm-20.691-8.192h-1.963a.393.393,0,0,1-.392-.392v-.03a.392.392,0,0,1,.392-.392h1.963a.392.392,0,0,1,.392.392v.03A.393.393,0,0,1,386.314,143.444Zm26.089-.051h-1.962a.392.392,0,0,1-.392-.392v-.03a.391.391,0,0,1,.392-.392H412.4a.391.391,0,0,1,.392.392V143A.392.392,0,0,1,412.4,143.393Zm-23.958-10.245.021-.021a.392.392,0,0,1,.554,0l.882.882a.392.392,0,0,1,0,.554l-.021.021a.392.392,0,0,1-.554,0l-.882-.882A.392.392,0,0,1,388.445,133.148Zm18.545,1.236-.021-.022a.392.392,0,0,1,0-.554l.717-.717a.392.392,0,0,1,.554,0l.021.021a.392.392,0,0,1,0,.554l-.717.718A.392.392,0,0,1,406.99,134.384Zm-8.623-3.044h-.03a.392.392,0,0,1-.392-.392v-1.963a.392.392,0,0,1,.392-.392h.03a.393.393,0,0,1,.392.392v1.963A.393.393,0,0,1,398.367,131.34Z" fill="#e32755"/>
        <g id="Grupo_74558" data-name="Grupo 74558">
          <path id="Trazado_110973" data-name="Trazado 110973" d="M398.388,143.244h-.033a.432.432,0,0,1-.433-.432v-9.468a.433.433,0,0,1,.433-.432h.033a.433.433,0,0,1,.433.432v9.468a.432.432,0,0,1-.433.432" fill="#ff6e9a"/>
        </g>
        <g id="Grupo_74559" data-name="Grupo 74559">
          <path id="Trazado_110974" data-name="Trazado 110974" d="M397.922,143.6v-.033a.433.433,0,0,1,.433-.433H404.9a.433.433,0,0,1,.433.433v.033a.432.432,0,0,1-.433.432h-6.547a.432.432,0,0,1-.433-.432" fill="#ff6e9a"/>
        </g>
        <g id="Grupo_74560" data-name="Grupo 74560">
          <path id="Trazado_110975" data-name="Trazado 110975" d="M406.2,137.1l-7.776,5.862" fill="none" stroke="#004e40" stroke-linecap="round" stroke-miterlimit="10" stroke-width="2"/>
        </g>
        <g id="Grupo_74561" data-name="Grupo 74561">
          <path id="Trazado_110976" data-name="Trazado 110976" d="M400.006,143.011a1.629,1.629,0,1,1-1.629-1.628,1.629,1.629,0,0,1,1.629,1.628" fill="#004e40"/>
        </g>
      </g>
      <g id="Grupo_74563" data-name="Grupo 74563">
        <path id="Trazado_110977" data-name="Trazado 110977" d="M372.421,141.238,384.1,135.03s3.783-2.169,6.184,6.281,7.3,6.992,5.881,8.632c0,0-2.024,2.015-4.818-.215s-3.5-4.108-5.264-4.336c0,0-3.69,5.453-6.559,6.562-7.39,2.854-13.848-.5-16.755-.218C358.944,152.114,372.421,141.238,372.421,141.238Z" fill="#ffab92" fill-rule="evenodd"/>
      </g>
    </g>
    <g id="Grupo_74583" data-name="Grupo 74583">
      <g id="Grupo_74568" data-name="Grupo 74568">
        <g id="Grupo_74565" data-name="Grupo 74565">
          <path id="Trazado_110978" data-name="Trazado 110978" d="M124.24,144.977a2.815,2.815,0,0,0-1.027-3.845l-19.1-11.05a2.814,2.814,0,0,0-3.845,1.027L76.957,171.4a2.815,2.815,0,0,0,1.027,3.845l19.1,11.05a2.815,2.815,0,0,0,3.845-1.027Z" fill="#52b3a8" fill-rule="evenodd"/>
        </g>
        <g id="Grupo_74566" data-name="Grupo 74566">
          <path id="Trazado_110979" data-name="Trazado 110979" d="M122.968,144.82a2.7,2.7,0,0,0-.983-3.681L103.7,130.56a2.694,2.694,0,0,0-3.681.983l-22.6,39.064a2.7,2.7,0,0,0,.984,3.681l18.286,10.579a2.7,2.7,0,0,0,3.682-.983Z" fill="#004e40" fill-rule="evenodd"/>
        </g>
        <g id="Grupo_74567" data-name="Grupo 74567">
          <path id="Trazado_110980" data-name="Trazado 110980" d="M120.65,146.331a2.448,2.448,0,0,0-.893-3.343l-15.947-9.225a2.448,2.448,0,0,0-3.343.892l-18.4,31.8a2.447,2.447,0,0,0,.892,3.343l15.947,9.225a2.447,2.447,0,0,0,3.343-.892Z" fill="#fff" fill-rule="evenodd"/>
        </g>
      </g>
      <g id="Grupo_74569" data-name="Grupo 74569">
        <path id="Trazado_110981" data-name="Trazado 110981" d="M114.358,179.7l4.571-12.412s1.637-4.041-7.06-5.277-7.916-6.285-9.349-4.659c0,0-1.722,2.278.866,4.744s4.543,2.913,5.007,4.63c0,0-4.9,4.393-5.614,7.386-1.827,7.708,2.373,13.652,2.483,16.571C105.4,194.526,114.358,179.7,114.358,179.7Z" fill="#ffab92" fill-rule="evenodd"/>
      </g>
      <g id="Grupo_74570" data-name="Grupo 74570">
        <path id="Trazado_110982" data-name="Trazado 110982" d="M173.991,313.186s13.383-11.9-10.246-28.2l-53.332-26.967s-1.947-85.647-5.59-83.813S81.16,257.394,88.556,269.027C98.608,284.831,159.876,326.486,173.991,313.186Z" fill="#ffab92" fill-rule="evenodd"/>
      </g>
      <g id="Grupo_74571" data-name="Grupo 74571">
        <path id="Trazado_110983" data-name="Trazado 110983" d="M146.621,326.64c-5.308-13.348-.169-28.669,2.828-38.535,1.283-4.236,5.525-8.523,13.688-17.028,1.237-1.287,19.734-4.8,26.057-3.327,8.065,1.87,23.326,17.55,26.225,28.7,4.363,16.78,20.207,40.729,45.848,70.388,10.652,12.321-69.087,27.333-69.156,23.535C191.594,363.366,152.184,340.632,146.621,326.64Z" fill="#fa5d7a" fill-rule="evenodd"/>
      </g>
      <g id="Grupo_74575" data-name="Grupo 74575">
        <g id="Grupo_74572" data-name="Grupo 74572">
          <path id="Trazado_110984" data-name="Trazado 110984" d="M155.7,207.074s24.916-1.009,35.42,10.335,6.108,14.2,8.213,31.315c.918,7.433,7.921,5.055,9.964,21.676,0,0-.784,3.541-7.055,6.026,0,0,1.744-5.408-2.543-8.914s-8.529-1.315-10.637-6.774c0,0,.014,5.115,6.867,6.455s5.441,8.21,4.07,10.6c0,0,1.116-7.051-3.237-8.211s-7.358-1.73-9.678-5.238c0,0,1.923,5.156,7.028,5.751s5.6,7.178,4.348,8.039c0,0-3.171,2.583-6.855,2.2a5.717,5.717,0,0,0-.881-5.83s1.483,5.107-2.495,6.276c0,0-7.467-2.432-12.251.009,0,0,3.975-5.13.779-10.277,0,0,2.171,7.207-3.715,10.961s-13.572,2.721-19.181-.251-16.315-8.57-26.535-8.805l2.747-6.992-4.371,5.647s-12.43-7.173-14.7-14.817a6.676,6.676,0,0,0,8.227-5.2s-1.6-5.515,4.256-10.037c0,0-7.41,1.129-7.269,7.636s-4.949,6.208-8.5,3.753c0,0,5.467,1.968,5.35-3.89s12.661-14.049,14.276-20.748C129.36,219.4,134.823,204.354,155.7,207.074Z" fill="#004e40" fill-rule="evenodd"/>
        </g>
        <g id="Grupo_74573" data-name="Grupo 74573">
          <path id="Trazado_110985" data-name="Trazado 110985" d="M148.614,265.6s19.558-11.534,19.371-8.076c-.223,4.077,7.279,12.751,10.594,18.287,9.432,15.752-15.633,25.109-21.344,10.246Z" fill="#ff957c" fill-rule="evenodd"/>
        </g>
        <g id="Grupo_74574" data-name="Grupo 74574">
          <path id="Trazado_110986" data-name="Trazado 110986" d="M170.579,271.656c10.669-3.091,10.853-11.629,10.853-11.629s6.468,1.416,9.2-6.354c1.661-4.718-2.08-6.468-4.135-6.719-5.661-.693-10.256,10.7-11.83,9.405-7.321-6-3-10.756-1.079-14.7,1.763-3.618-1.628-9.658-7.513-8.431-12.142,2.523-17.363-12.6-21.081-10.843-5.08,2.4-6.048,6.109-7.244,9.078-6.462,16.081-1.584,33.894,4.521,43.512C142.272,274.973,163.866,273.6,170.579,271.656Z" fill="#ffab92" fill-rule="evenodd"/>
        </g>
      </g>
      <g id="Grupo_74580" data-name="Grupo 74580">
        <path id="Trazado_110987" data-name="Trazado 110987" d="M193.833,280.758s-.571,6.4-1.829,4.944c-5.93-6.857-14.287-3.343-14.591-1.452-.135.838,9.145,40.99,16.42,51.346,15.459,22,28.831,19.216,33.219,11.761C233.806,335.882,223.311,279.726,193.833,280.758Z" fill="#ff957c" fill-rule="evenodd"/>
        <g id="Grupo_74579" data-name="Grupo 74579">
          <g id="Grupo_74578" data-name="Grupo 74578" clip-path="url(#clip-path)">
            <g id="Grupo_74577" data-name="Grupo 74577">
              <g id="Grupo_74576" data-name="Grupo 74576">
                <path id="Trazado_110988" data-name="Trazado 110988" d="M192.022,283.991l.1.222.063.139.033.084.089.226.09.225.091.224.093.224.093.222.094.222.1.222.1.22.1.221.1.218.1.219.1.218.1.216.1.217.1.215.106.215.106.215.108.213.107.213.109.213.112.211.11.212.113.21.113.211.115.209.114.208.117.209.1.185.012.022.116.208.116.208.117.208.118.206.119.206.119.206.12.2.243.411.248.407.248.4.252.4.256.4.257.4.261.4.263.4.266.395.267.394.271.392.273.391.273.39.277.388.278.388.28.386.283.386.283.384.285.382.287.383.288.381.289.381.29.38.292.38.052.066.239.313.293.379.294.377.589.755.59.754.592.753,1.185,1.505.592.753.419.536.17.219.584.757.292.379.29.38.29.38.288.382.287.381.285.383.286.384.282.383.281.386.28.385.234.327.043.061.273.39.272.392.268.392.266.394.265.4.262.4.161.247.1.151.255.4.252.4.249.4.246.4.245.407.241.408.237.411.116.206.118.207.016.029.1.177.115.208.113.208.113.209.111.209.111.209.11.211.108.21.109.212.106.211.106.213.1.212.1.214.1.214.1.214.1.214.035.079.064.138.1.217.1.216.1.218.094.218.093.219.092.22.091.219.09.222.089.22.087.222.072.184.014.039.081.224.08.226.079.227.077.225.076.228.076.227.074.228.072.229.071.23.071.23.068.231.067.231.066.232.065.233.063.233.064.234.06.235.059.235.058.236.057.237.056.237.053.238.053.238.036.169.015.071.048.241.047.24.045.243.045.243.043.243.042.243.039.245.038.246.037.246.035.247.034.248.032.248.032.25.029.251.027.251.026.252.024.252.023.254.022.254.012.165.005.09.013.257.011.258.011.258.008.258.008.26.006.26.005.262,0,.261-.08.1-.089-.089-.021-.261-.023-.258-.024-.259-.028-.257-.029-.255-.032-.254-.033-.254-.035-.252-.014-.089-.02-.162-.035-.251-.035-.249-.038-.249-.039-.247-.041-.246-.043-.246-.044-.244-.047-.243-.047-.242-.049-.241-.052-.241-.052-.239-.055-.239-.056-.237-.058-.235-.059-.236-.06-.234-.063-.234-.064-.233-.019-.068-.045-.164-.066-.23-.067-.231-.069-.228-.07-.229-.072-.227-.072-.227-.075-.226-.076-.224-.077-.224-.079-.223-.079-.222-.082-.222-.083-.22-.084-.219-.085-.22-.086-.218-.089-.217-.088-.217-.092-.216-.091-.215-.092-.214-.1-.213-.1-.213-.017-.037-.076-.177-.094-.213-.095-.213-.1-.211-.1-.211-.1-.21-.1-.21-.1-.21-.1-.209-.1-.207-.1-.208-.067-.132-.037-.075-.105-.206-.1-.207-.106-.206-.108-.2-.109-.206-.109-.2-.11-.2-.112-.2-.113-.2-.112-.2-.116-.2-.114-.2-.116-.2-.117-.2-.118-.2-.1-.17-.018-.029-.119-.2-.119-.2-.242-.4-.245-.394-.248-.394-.252-.392-.254-.389-.257-.389-.26-.387-.1-.146-.162-.241-.264-.386-.264-.385-.269-.384-.271-.383-.273-.382-.275-.381-.043-.06-.23-.321-.277-.382-.277-.381-.28-.38-.281-.379-.283-.38-.285-.378-.285-.379-.288-.377-.287-.378-.291-.376-.581-.754-.169-.218-.414-.536-.586-.756-1.176-1.511-.589-.758-.588-.759-.586-.762-.293-.381-.293-.383-.239-.315-.051-.067-.29-.386-.289-.385-.288-.386-.287-.388-.286-.389-.285-.389-.282-.392-.282-.391-.28-.394-.278-.394-.277-.4-.275-.4-.272-.4-.27-.4-.269-.4-.266-.4-.263-.406-.261-.408-.26-.409-.256-.411-.253-.413-.25-.416-.247-.416-.245-.42-.121-.21-.121-.212-.119-.211-.118-.212-.118-.213-.117-.214-.116-.213-.012-.024-.1-.193-.112-.215-.111-.218-.111-.217-.109-.219-.107-.218-.108-.219-.107-.221-.1-.22-.1-.222-.1-.222-.1-.221-.1-.225-.1-.223-.1-.224-.1-.225-.1-.226-.1-.227-.1-.227-.093-.228-.093-.229-.091-.228-.09-.231-.089-.23-.089-.232-.086-.232-.085-.233-.085-.234-.031-.087-.043-.151-.068-.239-.036-.131.341-.242.119-.042.415-.03Z" fill="#fa5d7a" fill-rule="evenodd"/>
              </g>
            </g>
          </g>
        </g>
      </g>
      <g id="Grupo_74581" data-name="Grupo 74581">
        <path id="Trazado_110990" data-name="Trazado 110990" d="M191.493,256.9c0-8.428-4.837-10.915-7.4-10.308-2.607.617-5.553,7.831-6.482,11.061-1.072,3.734,7.261,1.19,1.454,8.733-6.05,7.859-9.045,11.3-11.875,9.484-1.239-.793-4.744,3.106-6.834,6.437-1.156,1.841-1.565,3.182,1.643,5.017,7.893,4.515,12.676-2.637,16.091-5.929C185.966,273.8,191.493,266.326,191.493,256.9Z" fill="#52b3a8" fill-rule="evenodd"/>
      </g>
      <g id="Grupo_74582" data-name="Grupo 74582">
        <path id="Trazado_110991" data-name="Trazado 110991" d="M191.466,299.436c8.865-2.772-9.9-39.058-11.417-38.309-1.923.948.382,1.845,2.4,10.911.069.307-3.939-6.361-5.041-8.58-1.469-2.956-5.331-6.107-1.473,2.194.421.947,3.258,7.563,3.478,8.665-3.849-4.2-7.719-10.975-8.858-10.145-1.383,1.01,5.447,11.782,5.931,12.534-2.3-1.649-7.958-9.85-8.707-9.451-1.474.791,5.16,12.433,5.978,14.147C175.071,284.156,187.553,300.661,191.466,299.436Z" fill="#ff957c" fill-rule="evenodd"/>
      </g>
    </g>
    <g id="Grupo_74607" data-name="Grupo 74607">
      <g id="Grupo_74584" data-name="Grupo 74584">
        <path id="Trazado_110992" data-name="Trazado 110992" d="M277.146,203.376s22.588-2.662,33.9,18.339c9.714,18.041,18.794,58.2,18.794,58.2s51.626,62.849,48.827,67.913c-1.641,2.968-3.005,8.529-9.171,3.392-16.907-14.083-54.341-44.356-61.9-51.719C294.173,286.435,261.245,214.477,277.146,203.376Z" fill="#ff957c" fill-rule="evenodd"/>
      </g>
      <g id="Grupo_74585" data-name="Grupo 74585">
        <path id="Trazado_110993" data-name="Trazado 110993" d="M312.139,226.882c-6.636-12.709-26.551-26.031-36.105-30.082-4.105-1.741-30.008,13.295-33.135,19.121-3.989,7.433,1.409,29.844,3.495,41.194.98,5.338,12.039,90.153,28.048,104.776,12.02,10.982,34.121-.342,33.762-4.136C307.042,345.389,319.1,240.2,312.139,226.882Z" fill="#fa5d7a" fill-rule="evenodd"/>
      </g>
      <g id="Grupo_74586" data-name="Grupo 74586">
        <path id="Trazado_110994" data-name="Trazado 110994" d="M234.767,236.46s3.651-17.53,29.556-5.16l49.948,32.813s75.237-40.97,75.461-36.9-60.348,61.953-74.119,61.334C296.9,287.7,230.265,255.325,234.767,236.46Z" fill="#ffab92" fill-rule="evenodd"/>
      </g>
      <g id="Grupo_74597" data-name="Grupo 74597">
        <rect id="Rectángulo_32946" data-name="Rectángulo 32946" width="65.814" height="47.798" transform="matrix(0.272, -0.962, 0.962, 0.272, 384.006, 251.105)" fill="#52b3a8"/>
        <g id="Grupo_74596" data-name="Grupo 74596">
          <g id="Grupo_74587" data-name="Grupo 74587">
            <path id="Trazado_110995" data-name="Trazado 110995" d="M440.527,208.44a.137.137,0,0,0-.1-.164l-38.042-9.57a.134.134,0,0,0-.163.1l-.064.263a.137.137,0,0,0,.1.164L440.3,208.8a.134.134,0,0,0,.163-.1Z" fill="#eef2ff" fill-rule="evenodd"/>
          </g>
          <g id="Grupo_74588" data-name="Grupo 74588">
            <path id="Trazado_110996" data-name="Trazado 110996" d="M435.806,225.452a.137.137,0,0,0-.1-.165l-38.041-9.569a.132.132,0,0,0-.163.1l-.064.263a.135.135,0,0,0,.1.164l38.041,9.57a.134.134,0,0,0,.163-.1Z" fill="#eef2ff" fill-rule="evenodd"/>
          </g>
          <g id="Grupo_74589" data-name="Grupo 74589">
            <path id="Trazado_110997" data-name="Trazado 110997" d="M431.459,242.078a.137.137,0,0,0-.1-.165l-38.041-9.569a.133.133,0,0,0-.163.1l-.064.263a.137.137,0,0,0,.1.164l38.041,9.57a.135.135,0,0,0,.163-.1Z" fill="#eef2ff" fill-rule="evenodd"/>
          </g>
          <g id="Grupo_74590" data-name="Grupo 74590">
            <path id="Trazado_110998" data-name="Trazado 110998" d="M438.921,213.755a.137.137,0,0,0-.1-.164l-38.042-9.57a.135.135,0,0,0-.163.1l-.064.263a.138.138,0,0,0,.1.165l38.041,9.569a.134.134,0,0,0,.163-.1Z" fill="#eef2ff" fill-rule="evenodd"/>
          </g>
          <g id="Grupo_74591" data-name="Grupo 74591">
            <path id="Trazado_110999" data-name="Trazado 110999" d="M434.2,230.766a.136.136,0,0,0-.1-.164l-38.041-9.57a.133.133,0,0,0-.163.1l-.064.263a.135.135,0,0,0,.1.164l38.041,9.57a.134.134,0,0,0,.163-.1Z" fill="#eef2ff" fill-rule="evenodd"/>
          </g>
          <g id="Grupo_74592" data-name="Grupo 74592">
            <path id="Trazado_111000" data-name="Trazado 111000" d="M429.853,247.393a.137.137,0,0,0-.1-.165l-38.041-9.57a.134.134,0,0,0-.163.1l-.064.263a.137.137,0,0,0,.1.164l38.042,9.57a.134.134,0,0,0,.163-.1Z" fill="#eef2ff" fill-rule="evenodd"/>
          </g>
          <g id="Grupo_74593" data-name="Grupo 74593">
            <path id="Trazado_111001" data-name="Trazado 111001" d="M437.315,219.07a.138.138,0,0,0-.1-.165l-38.041-9.569a.134.134,0,0,0-.163.1l-.064.263a.137.137,0,0,0,.1.164l38.041,9.57a.135.135,0,0,0,.163-.1Z" fill="#eef2ff" fill-rule="evenodd"/>
          </g>
          <g id="Grupo_74594" data-name="Grupo 74594">
            <path id="Trazado_111002" data-name="Trazado 111002" d="M432.594,236.081a.136.136,0,0,0-.1-.164l-38.041-9.57a.135.135,0,0,0-.164.1l-.063.263a.136.136,0,0,0,.1.165l38.041,9.569a.133.133,0,0,0,.163-.1Z" fill="#eef2ff" fill-rule="evenodd"/>
          </g>
          <g id="Grupo_74595" data-name="Grupo 74595">
            <path id="Trazado_111003" data-name="Trazado 111003" d="M428.247,252.707a.137.137,0,0,0-.1-.164l-38.041-9.57a.135.135,0,0,0-.163.1l-.064.263a.138.138,0,0,0,.1.165l38.042,9.569a.135.135,0,0,0,.163-.1Z" fill="#eef2ff" fill-rule="evenodd"/>
          </g>
        </g>
      </g>
      <g id="Grupo_74598" data-name="Grupo 74598">
        <path id="Trazado_111004" data-name="Trazado 111004" d="M380.468,238.661c-2.346,1.071-19.726,2.629-12.811-2.452,1.511-1.111,9.691-9.212,10.936-11.413,4.708-8.334,23.733-19.374,25.857-20.575,2.653-1.464,2.254-.63-9.961,10.379-.35.321-.69.647-1.033.974l-.364.353c1.918-.993,11.627-7.157,13.639-7.971,4.683-1.9,11.536-4.429-.159,3.572-1.312.918-10.364,7.373-11.587,8.532,8.063-3.426,24.565-11.4,16.16-5.752-1.3.659-13.758,8.709-14.968,9.389,4.052-1.083,18.519-8.667,18.185-7.683-.489,1.444-6.747,5.79-10.408,7.628-1.188.6-6.41,4.56-8.849,6.2C391.19,232.491,387.681,235.37,380.468,238.661Z" fill="#ffab92" fill-rule="evenodd"/>
      </g>
      <g id="Grupo_74602" data-name="Grupo 74602">
        <g id="Grupo_74599" data-name="Grupo 74599">
          <path id="Trazado_111005" data-name="Trazado 111005" d="M273.384,130.028s-24.916-1.009-35.42,10.335-6.108,14.2-8.213,31.315c-.917,7.433-7.921,5.055-9.964,21.676,0,0,.784,3.541,7.055,6.026,0,0-1.744-5.408,2.543-8.914s8.53-1.315,10.637-6.774c0,0-.013,5.115-6.867,6.455s-5.441,8.21-4.07,10.6c0,0-1.116-7.051,3.237-8.211s7.359-1.73,9.678-5.238c0,0-1.922,5.156-7.028,5.75s-5.6,7.179-4.348,8.04c0,0,3.171,2.583,6.855,2.2a5.72,5.72,0,0,1,.881-5.83s-1.482,5.107,2.5,6.276c0,0,7.466-2.433,12.25.009,0,0-3.974-5.131-.779-10.277,0,0-2.171,7.206,3.715,10.96s13.572,2.722,19.181-.25,16.316-8.57,26.535-8.806l-2.746-6.992,4.37,5.648s12.43-7.173,14.7-14.817a6.676,6.676,0,0,1-8.227-5.2s1.6-5.516-4.256-10.037c0,0,7.411,1.129,7.27,7.636s4.948,6.207,8.495,3.752c0,0-5.467,1.969-5.35-3.889s-12.661-14.049-14.275-20.749C299.721,142.356,294.258,127.308,273.384,130.028Z" fill="#004e40" fill-rule="evenodd"/>
        </g>
        <g id="Grupo_74600" data-name="Grupo 74600">
          <path id="Trazado_111006" data-name="Trazado 111006" d="M280.307,185.862s-22.686-.936-20.89,2.024c2.122,3.489-.4,14.677-.707,21.122-.88,18.339,25.634,14.756,23.654-1.042Z" fill="#ff957c" fill-rule="evenodd"/>
        </g>
        <g id="Grupo_74601" data-name="Grupo 74601">
          <path id="Trazado_111007" data-name="Trazado 111007" d="M258.5,194.61c-10.668-3.091-10.852-11.629-10.852-11.629s-6.469,1.416-9.2-6.354c-1.661-4.718,2.081-6.468,4.135-6.719,5.661-.694,10.256,10.7,11.83,9.4,7.321-6,3-10.757,1.079-14.7-1.763-3.619,1.629-9.658,7.514-8.431,12.142,2.522,17.362-12.6,21.08-10.844,5.08,2.4,6.049,6.11,7.245,9.079,6.461,16.081,1.584,33.894-4.522,43.512C286.809,197.927,265.216,196.555,258.5,194.61Z" fill="#ffab92" fill-rule="evenodd"/>
        </g>
      </g>
      <g id="Grupo_74605" data-name="Grupo 74605">
        <path id="Trazado_111008" data-name="Trazado 111008" d="M375.314,313.089l26,12.711c-3.349,7.976-6.388,10.416-10.548,12-3.5,1.335-7.867.854-8.976,2.886-2.232,4.09.374,3.649,2.8,10.375s-4.115,17.735-4.115,17.735l-26.29-12.851s4.613-11.952,11.41-14.17,8.332.247,10.188-4.027c.922-2.123-2.364-5.383-3.461-8.966C371.018,324.529,371.076,320.631,375.314,313.089Z" fill="#ffe0ea" fill-rule="evenodd"/>
        <path id="Trazado_111009" data-name="Trazado 111009" d="M374.185,321.414l21.241,10.333a16.578,16.578,0,0,1-11.847,5.385c-1.153.021-3.061.963-4.44,3.7-.067.132-1.908,3.316-3.667,6.893-1.518,3.085-2.216,5.769-3.541,5.056-1.473-.792.427-2.889,1.972-6.077,1.6-3.307,3.6-7.441,3.834-7.869,1.069-1.924-.141-4.252-.141-4.252A14.555,14.555,0,0,1,374.185,321.414Z" fill="#004e40" fill-rule="evenodd"/>
        <path id="Trazado_111010" data-name="Trazado 111010" d="M374.276,347.008a91.848,91.848,0,0,1-11,2.588c-4.683.673-4.722,2.191-5.551,3.378L380.47,364.52a4.534,4.534,0,0,0,.028-4.7A105.891,105.891,0,0,1,374.276,347.008Z" fill="#004e40" fill-rule="evenodd"/>
        <g id="Grupo_74603" data-name="Grupo 74603">
          <path id="Trazado_111011" data-name="Trazado 111011" d="M405.231,323.764l-30.8-15.056h0a4.17,4.17,0,0,0,1.915,5.577l23.309,11.394a4.169,4.169,0,0,0,5.576-1.914Z" fill="#52b3a8" fill-rule="evenodd"/>
        </g>
        <g id="Grupo_74604" data-name="Grupo 74604">
          <path id="Trazado_111012" data-name="Trazado 111012" d="M350.943,356.757l30.8,15.057h0a4.17,4.17,0,0,0-1.914-5.577L356.52,354.842a4.17,4.17,0,0,0-5.577,1.914Z" fill="#52b3a8" fill-rule="evenodd"/>
        </g>
      </g>
      <g id="Grupo_74606" data-name="Grupo 74606">
        <path id="Trazado_111013" data-name="Trazado 111013" d="M382.129,343.63c2.137-1.76,3.978,4.4,4.349,10.319.494,7.891-6.909,10.845-8.12,11.594-1.521.9-1.43.225,4.616-7.716.172-.233.337-.471.5-.71.057-.086.116-.172.175-.259-1.115.6-6.5,4.619-7.719,5.043-2.837.992-7.047,2.218-.689-3.138.709-.619,5.571-5,6.164-5.842-4.852,1.843-14.565,6.467-9.973,2.707.759-.392,7.636-5.679,8.327-6.1-2.581.361-10.963,4.939-10.951,4.117.018-1.206,3.4-4.128,5.545-5.215C375.048,348.074,380.8,344.728,382.129,343.63Z" fill="#ffab92" fill-rule="evenodd"/>
      </g>
    </g>
    <g id="Grupo_74651" data-name="Grupo 74651">
      <g id="Grupo_74608" data-name="Grupo 74608">
        <path id="Trazado_111014" data-name="Trazado 111014" d="M280.251,274.457c49.242.12,75.811,46.911,72.759,102.625-.536,9.783.336,19.8-.825,29.175-.782,6.32-179.036,25.266-176.342,6.493,1.64-11.425,6.495-23.755,19.892-35.964C234.325,341.62,207.334,274.281,280.251,274.457Z" fill="#98cec7" fill-rule="evenodd"/>
      </g>
      <path id="Trazado_111015" data-name="Trazado 111015" d="M190.847,325.013l.075.006.074.009.075.012.074.014.074.016.074.02.073.023.074.026.072.03.071.033.071.037.07.04.068.045.066.048.065.053.062.056.058.061.057.064.052.069.048.072.045.075.039.077.035.08.031.081.025.083.02.084.017.085.01.086.008.085,0,.086v.085l-.005.086-.009.085-.013.086-.016.085-.019.085-.023.085-.025.085-.028.085-.032.085-.034.086-.038.086-.039.086-.045.086-.045.088-.049.089-.051.088-.056.09-.057.09-.061.091-.065.093-.066.092-.071.094-.126.165-.128.162-.132.159-.132.154-.134.152-.136.151-.137.147-.139.144-.139.144-.142.14-.144.14-.144.137-.146.135-.147.136-.149.133-.15.133-.109.1-.11.1-.11.094-.113.092-.113.093-.114.092-.116.09-.117.09-.118.089-.119.087-.12.086-.122.084-.123.084h0l.01.082.019.145.022.144.022.145.024.144.027.145.029.144.029.144.032.145.033.144.035.145.037.144.038.145.041.144.04.145.043.144.046.143.046.145.048.143.049.143.052.143.052.144.055.141.055.142.057.142.06.142.06.141.062.141.063.139.065.139.065.14.068.138.068.138.07.138.072.137.072.137.074.135.076.135.077.134.077.134.08.132.081.133.081.131.084.13.085.131.085.128.087.128.089.126.089.127.091.126.091.124.093.123.093.121.1.122.1.12.1.119.1.118.1.117.1.115.1.114.1.114.1.112.1.111.048.05.057.061.106.109.1.108.107.107.108.106.109.106.109.1.112.1.111.1.112.1.114.1.114.1.114.095.116.093.117.091.116.09.12.089.117.086.121.086.12.084.121.081.121.08.123.078.123.078.124.074.124.074.126.071.125.069.127.069.127.066.126.063.13.064.128.059.129.058.129.057.131.055.13.053.132.051.131.048.133.047.131.044.133.043.135.041.133.039.134.036.136.034.134.033.136.03.136.028.133.025.134.024.135.022.136.022.137.019.138.017.138.017.138.015.141.014.139.011.142.012.141.009.141.007.144.005.142,0,.144,0h.4l.066-.071.133-.138.137-.141.142-.143.147-.146.15-.147.154-.148.159-.151.161-.15.166-.152.073-.068.094-.085.172-.152.174-.152.176-.15.18-.151.181-.148.184-.149.186-.145.188-.144.19-.14.19-.138.192-.135.194-.132.193-.126.1-.064.1-.06.1-.061.1-.06.1-.057.1-.057.1-.056.1-.053.1-.053.1-.051.1-.05.1-.049.1-.046.1-.046.1-.043.1-.042.1-.041.1-.038.1-.036.1-.036.1-.033.1-.03.1-.029.1-.027.1-.024.1-.021.1-.021.1-.016.1-.015.1-.012.1-.01.1-.006.1,0h.1l.1,0,.1.005.1.01.1.013.1.017.1.021.1.024.1.029.1.031.1.037.1.041.1.045.1.05.093.053.09.057.088.061.054.04.034.026.085.068.082.072.08.076.079.08.074.083.074.087.071.091.031.046.032.047.028.051.027.05.024.052.023.055.017.054.017.057.014.056.01.057.007.057,0,.056,0,.055v.064l-.008.1-.018.1-.024.1-.03.091-.036.088-.039.082-.042.077-.046.074-.046.071-.05.067-.052.065-.052.062-.054.061-.056.058-.057.057-.058.056-.06.054-.059.053-.062.052-.063.051-.062.051-.064.048-.066.049-.128.093-.131.091-.131.087-.131.084-.131.08-.128.076-.124.073-.12.069-.117.065-.211.114-.179.1-.136.069-.084.046-.13.07-.137.072-.138.07-.14.069-.141.067-.142.066-.143.065-.143.063-.146.062-.146.06-.147.058-.148.057-.149.056-.15.054-.151.052-.151.051-.152.051-.153.047-.153.047-.155.045-.154.043-.156.042-.156.041-.157.039-.157.037-.158.035-.158.034-.158.033-.16.032-.158.029-.16.028-.161.027-.16.025-.161.023-.159.021-.161.021-.161.019-.162.016-.161.017-.161.012-.1.008-.043.052-.09.106-.082.1-.076.1-.069.089-.062.08-.054.073-.047.066-.066.093-.065.1-.063.1-.063.1-.062.1-.063.1-.06.1-.06.1-.058.1-.058.1-.058.1-.057.1-.054.1-.055.1-.054.1-.052.1-.052.105-.051.1-.05.107-.05.108-.048.106-.048.109-.046.108-.046.109-.045.11-.044.11-.043.11-.042.112-.042.111-.04.113-.021.057-.02.056-.039.113-.04.112-.038.115-.038.115-.036.114-.036.115-.034.116-.034.116-.033.117-.033.116-.031.118-.03.118-.03.118-.028.119-.028.119-.028.119-.025.119-.026.121-.025.12-.023.12-.023.121-.021.121-.02.121-.041.244-.036.246-.031.246-.029.246-.026.248-.021.247-.019.25-.015.248-.012.251-.007.25,0,.251,0,.249,0,.251.005.251.009.251.013.251.016.251.02.249.023.25.027.25.029.249.033.249.037.247.04.247.043.246.047.244.05.245.054.243.056.241.061.241.063.239.067.238.07.237.037.117.036.117.038.117.038.116.041.116.04.116.041.115.042.114.043.114.044.114.045.113.044.113.047.111.047.112.047.111.049.11.049.111.05.109.051.109.052.107.051.108.055.106.053.107.056.106.054.1.057.1.057.1.059.1.058.1.06.1.06.1.061.1.062.1.062.1.064.1.064.1.065.1.066.1.067.1.067.094.067.093.07.094.07.093.07.091.021.027.049.064.071.09.073.09.072.089.073.087.074.088.075.086.076.086.076.084.077.083.079.084.078.081.08.081.08.081.081.079.081.078.082.078.084.077.084.075.085.075.084.073.087.073.087.071.087.071.089.07.089.07.09.067.09.067.092.066.092.065.093.063.093.063.1.061.1.061.1.06.1.058.1.058.1.056.1.056.1.054.1.053.1.052.1.051.1.049.1.05.1.047.1.047.106.044.107.044.106.043.109.042.109.041.109.039.111.038.111.037.113.037.113.034.112.033.116.031.115.032.115.029.118.028.118.028.118.025.073.014.046.014.119.032.119.032.121.03.121.028.123.028.124.025.126.024.125.023.127.021.129.021.129.019.13.018.131.015.134.015.133.013.134.011.135.01.137.008.138.007.139.005.14,0h.141l.142,0,.143,0,.144,0,.146,0,.15-.006.661.52-.533.654-.154.027-.155.025-.156.024-.155.022-.155.02-.153.019-.153.017-.154.015-.152.014-.152.011-.15.01-.151.009-.15.006-.149.005-.15,0-.148,0h-.295l-.147,0-.146-.005-.146-.007-.145-.007-.145-.009-.143-.012-.143-.012-.143-.015-.144-.016-.054-.007-.085-.017-.139-.028-.139-.03-.138-.032-.135-.033-.137-.034-.134-.037-.135-.038-.133-.039-.133-.04-.13-.042-.132-.043-.129-.046-.13-.046-.128-.048-.126-.049-.127-.051-.126-.052-.125-.053-.123-.056-.123-.056-.123-.058-.12-.058-.12-.06-.12-.062-.119-.063-.118-.063-.116-.066-.115-.066-.115-.069-.114-.068-.112-.071-.113-.071-.112-.073-.11-.074-.109-.075-.108-.077-.107-.077-.107-.079-.1-.08-.1-.08-.1-.082-.1-.082-.1-.085-.1-.085-.1-.086-.1-.088-.1-.087-.1-.09-.1-.09-.1-.091-.1-.093-.092-.094-.093-.093-.091-.1-.091-.1-.089-.1-.089-.1-.088-.1-.087-.1-.086-.1-.085-.1-.083-.1-.083-.1-.058-.072-.024-.031-.08-.106-.08-.106-.078-.106-.078-.108-.077-.109-.075-.109-.074-.11-.074-.111-.073-.111-.071-.113-.071-.113-.07-.112-.07-.116-.068-.114-.066-.115-.067-.117-.065-.116-.064-.118-.064-.118-.062-.119-.061-.119-.06-.121-.06-.12-.058-.12-.059-.122-.055-.123-.056-.122-.055-.124-.054-.123-.053-.124-.052-.125-.051-.126-.051-.125-.048-.126-.048-.126-.048-.128-.046-.127-.045-.128-.045-.128-.044-.129-.042-.13-.042-.129-.04-.13-.041-.132-.076-.26-.073-.263-.069-.265-.066-.265-.062-.267-.058-.268-.054-.27-.051-.27-.047-.27-.043-.272-.039-.272-.036-.273-.032-.274-.027-.273-.025-.275-.02-.274-.018-.275-.012-.275-.009-.276-.006-.275,0-.275,0-.276.005-.275.01-.274.013-.275.017-.274.022-.273.024-.274.029-.273.033-.271.037-.271.039-.27.045-.267.024-.137.024-.133.025-.134.027-.133.028-.134.027-.133.031-.133.03-.131.031-.132.033-.132.033-.132.034-.13.035-.131.037-.13.037-.13.038-.129.039-.129.041-.128.04-.128.043-.128.043-.128.045-.127.044-.126.023-.061.024-.065.049-.124.048-.126.051-.122.052-.125.052-.123.053-.121.055-.122L198,348.1l.055-.121.057-.12.059-.119.059-.119.061-.118.061-.118.063-.118.064-.115.064-.117.065-.114.067-.115.067-.113.069-.113.069-.113.071-.111.071-.11.072-.111.075-.109.06-.087h-.022l-.16-.012-.157-.012-.158-.014-.157-.017-.156-.017-.156-.021-.156-.021-.154-.023-.155-.025-.155-.027-.162-.03-.161-.033-.162-.036-.161-.039-.159-.041-.16-.043-.159-.045-.158-.047-.157-.051-.156-.053-.156-.055-.156-.057-.154-.059-.154-.061-.152-.065-.152-.066-.15-.067-.151-.071-.15-.072-.148-.073-.148-.077-.147-.078-.146-.08-.144-.082-.145-.085-.143-.085-.142-.089-.142-.09-.139-.091-.14-.092-.138-.1-.138-.1-.136-.1-.135-.1-.134-.1-.134-.1-.133-.105-.13-.107-.131-.108-.129-.11-.128-.111-.127-.113-.125-.114-.125-.117-.123-.116-.123-.119-.121-.121-.12-.122-.065-.065-.053-.057-.116-.126-.115-.127-.114-.129-.112-.129-.111-.131-.11-.131-.108-.133-.107-.133-.107-.136-.1-.137-.1-.137-.1-.138-.1-.139-.1-.141-.1-.142-.1-.142-.1-.143-.094-.144-.092-.145-.092-.147-.088-.147-.089-.147-.086-.148-.085-.15-.084-.15-.082-.151-.081-.151-.079-.153-.078-.152-.076-.155-.074-.153-.073-.156,0,0-.068-.151-.07-.157-.067-.156-.067-.158-.065-.157-.062-.159-.062-.159-.06-.159-.058-.159-.056-.161-.054-.16-.053-.161-.051-.162-.049-.161-.049-.162-.045-.162-.045-.163-.041-.163-.041-.162-.039-.164-.037-.163-.035-.164-.033-.163-.032-.164-.029-.164-.027-.164-.01-.061-.138.059-.142.058-.143.054-.145.054-.147.049-.148.047-.148.044-.086.023-.086.023-.087.02-.086.02-.086.018-.086.017-.088.016-.086.014-.087.014-.088.011-.086.012-.087.01-.088.008-.088.008-.173.012-.175.009-.174,0-.174,0-.174,0-.173-.006-.174-.009-.172-.013-.172-.014-.172-.017-.169-.021-.17-.022-.169-.024-.167-.027-.167-.028-.165-.03-.165-.032-.162-.033-.162-.034-.16-.036-.157-.036-.157-.037-.156-.038-.3-.077-.182-.05-.18-.049-.178-.052-.179-.055-.176-.056-.175-.057-.175-.059-.172-.061-.172-.062-.172-.065-.169-.067-.17-.067-.167-.071-.168-.071-.167-.073-.165-.076-.164-.078-.019-.009-.145-.069-.163-.08-.161-.082-.162-.085-.161-.087-.16-.087-.158-.09-.159-.091-.158-.093-.157-.1-.157-.1-.156-.1-.156-.1-.156-.1-.155-.1-.116-.079-.116-.081-.115-.083-.114-.082-.114-.085-.111-.086-.113-.086-.11-.088-.111-.089-.11-.09-.108-.091-.107-.091-.108-.094-.1-.094-.1-.095-.106-.1-.1-.1-.1-.1-.1-.1-.1-.1-.1-.1-.1-.1-.1-.1-.1-.1-.1-.105-.1-.1-.1-.107-.094-.106-.094-.109-.092-.108-.091-.11-.092-.11-.09-.112-.088-.111-.089-.113-.087-.114-.087-.114-.085-.116-.084-.115-.084-.116-.084-.118-.081-.118-.081-.119-.081-.119-.079-.121-.078-.12-.077-.122-.076-.121-.076-.123-.075-.123-.074-.124-.072-.125-.072-.125-.071-.126-.046-.081-.024-.044-.067-.128-.067-.128-.066-.129-.065-.128-.063-.131-.062-.129-.062-.13-.061-.132-.06-.131-.059-.132-.057-.133-.057-.131-.056-.133-.056-.135-.053-.133-.053-.134-.052-.134-.051-.136-.049-.136-.05-.135-.048-.136-.047-.137-.045-.135-.045-.137-.044-.138-.043-.137-.042-.138-.04-.137-.04-.138-.039-.14-.037-.138-.036-.139-.036-.138-.034-.14-.034-.139-.032-.139-.032-.14-.03-.14-.029-.14-.028-.14-.027-.14-.026-.14-.025-.141-.024-.141-.022-.14-.022-.141-.02-.141-.019-.14-.019-.141-.017-.141-.016-.14-.014-.141-.014-.141-.013-.14-.011-.142-.012-.141-.008-.141-.008-.139-.008-.141-.005-.14-.005-.141,0-.141,0-.139v-.419l0-.14,0-.139,0-.14.006-.139.008-.139.008-.138.01-.14.01-.123.011-.125.015-.128.017-.128.019-.131.009-.058.011-.073.023-.132.022-.113-.141-.034-.161-.042-.16-.047-.157-.049-.157-.054-.154-.057-.154-.059-.151-.062-.149-.066-.15-.069-.145-.071-.146-.074-.145-.076-.142-.08-.14-.081-.14-.084-.138-.086-.135-.089-.136-.09-.133-.092-.132-.1-.13-.1-.129-.1-.128-.1-.127-.1-.126-.1-.11-.093-.014-.011-.12-.108-.121-.109-.117-.109-.117-.11-.117-.113-.114-.112-.114-.113-.111-.115-.112-.115-.109-.116-.109-.117-.107-.116-.107-.117-.105-.118-.1-.119-.2-.235-.2-.237-.2-.237-.192-.236-.141-.175-.138-.176-.136-.176-.134-.178-.132-.177-.129-.179-.127-.178-.124-.18-.123-.18-.12-.18-.118-.181-.115-.182-.114-.182-.112-.183-.109-.182-.106-.184-.1-.183-.1-.185-.1-.186-.1-.185-.1-.186-.092-.186-.091-.186-.089-.187-.086-.187-.084-.188-.082-.188-.079-.188-.077-.189-.075-.189-.072-.19-.071-.19-.067-.189-.066-.191-.063-.19-.061-.19-.06-.191-.056-.192-.054-.191-.052-.191-.049-.193-.047-.191-.046-.193-.043-.193-.039-.192-.038-.193-.037-.192-.033-.193-.032-.193-.028-.194-.026-.192-.024-.193-.023-.194-.019-.192-.018-.194-.015-.193-.011-.194-.012-.192-.007-.194-.006-.193,0-.194,0-.192,0-.193,0-.192.006-.193.008-.193.011-.192.012-.193.015-.192.018-.192.02-.192.022-.192.024-.191.005-.034.024-.156.031-.191.033-.191.035-.19.038-.19.041-.189.041-.188.046-.189.047-.189.049-.187.051-.188.055-.186.055-.188.059-.186.06-.185.064-.185.064-.185.069-.185.069-.184.073-.184.073-.182.078-.183.078-.181.081-.181.083-.181.086-.18.087-.18.09-.179.093-.178.1-.178.1-.177.1-.176.1-.176.1-.175.1-.175.108-.174.1-.152.013-.02.117-.17.119-.168.122-.168.124-.167.125-.166.128-.165.13-.164.133-.164.134-.162.136-.162.138-.161.14-.16.144-.16.144-.158.147-.157.148-.156.151-.156.018-.018.488.191.092.084.236.467-.017.019-.131.157-.128.16-.127.158-.124.161-.123.16-.119.16-.118.163-.115.161-.113.163-.11.162-.109.164-.106.163-.1.165-.1.165-.1.164-.1.165-.1.166-.01.019-.087.145-.1.163-.093.163-.092.165-.088.165-.087.165-.084.166-.083.166-.08.166-.078.166-.075.167-.075.167-.071.167-.069.169-.068.167-.064.169-.064.17-.06.168-.06.17-.056.168-.054.172-.053.169-.05.17-.048.171-.047.171-.043.171-.042.171-.04.171-.037.172-.036.172-.034.171-.03.172-.029.173-.028.172-.024.172-.023.173-.018.143,0,.03-.02.173-.019.172-.016.173-.016.173-.011.173-.01.174-.009.172-.006.174,0,.174v.347l0,.173,0,.175.006.174.009.173.01.174.013.175.015.173.017.174.019.175.021.174.023.173.025.175.028.174.029.173.032.174.033.173.035.175.038.174.041.174.042.173.044.172.046.174.048.174.051.173.052.173.054.172.057.174.06.172.061.172.062.173.065.171.068.172.069.171.071.172.074.171.076.171.078.17.08.171.083.17.083.17.086.17.089.17.091.168.093.17.095.168.1.168.1.168.1.167.1.168.1.166.107.167.111.166.112.165.115.166.116.164.118.164.122.165.123.163.124.162.128.164.129.161.132.162.185.224.189.223.191.222.194.222.1.107.1.109.1.108.1.107.1.106.1.105.1.1.1.1.1.1.1.1.1.1.105.1.106.1.106.1.108.093.011.01.094.084.108.092.106.09.109.089.108.087.11.084.11.084.111.081.111.078.112.076.112.075.113.072.114.07.115.068.116.065.115.063.117.06.118.058.117.056.118.052.119.049.121.049.12.044.122.042.123.038.123.036.122.033.037.009.042-.114.053-.139.056-.138.058-.14.061-.138.062-.137.065-.136.068-.136.069-.134.072-.133.075-.134.076-.13.08-.129.081-.128.085-.127.086-.124.09-.123.091-.12.095-.118.1-.117.1-.113.1-.111.107-.108.109-.105.109-.1.059-.051.057-.049.059-.048.059-.047.06-.046.06-.046.063-.044.062-.043.063-.043.063-.041.065-.04.066-.039.066-.038.067-.037.068-.036.069-.034.068-.034.071-.032.071-.03.071-.029.072-.028.074-.027.073-.025.075-.024.075-.022.076-.021.076-.019.077-.018.079-.015.078-.015.079-.013.08-.012.08-.008.081-.009.081-.005.081-.005.082,0h.166l.084,0,.089,0,.086.007.086.009.084.01.082.012.08.014.08.017.077.019.077.021.075.024.075.028.073.031.072.034.071.037.069.04.067.046.066.049.063.053.06.059.057.062.052.064.048.07.044.072.038.075.033.076.028.077.022.079.017.077.012.078.007.077,0,.075v.074l0,.073-.008.071-.01.069-.012.069-.016.067-.017.066-.019.064-.022.064-.023.062-.025.062-.027.061-.027.059-.03.06-.03.059-.032.059-.033.058-.034.057-.037.06-.073.111-.048.071-.029.042-.081.114-.085.111-.089.113-.091.111-.1.111-.1.109-.1.109-.1.109-.107.106-.107.107-.111.1-.111.1-.114.1-.114.1-.117.1-.116.1-.118.1-.118.093-.119.09-.118.088-.119.085-.118.084-.119.08-.117.077-.118.073-.115.07-.115.067-.115.064-.115.059-.112.056-.113.052-.112.048-.112.043-.109.037-.061.018L170,313.8l-.059.014-.059.013-.061.011-.057.009-.1.011-.09.011-.089.008-.09.009-.088.007-.089.005-.089,0-.089,0-.087,0h-.067l-.019.1-.019.111-.018.112-.01.061-.006.048-.014.106-.013.1-.01.1-.009.1-.008.1-.006.123-.006.125-.005.126,0,.125,0,.126,0,.125v.379l0,.127,0,.127.005.126,0,.128.008.127.008.128.009.127.008.128.012.128.011.128.014.128.014.128.015.128.016.128.017.128.018.128.019.128.02.128.022.128.021.127.023.128.024.128.026.128.026.128.027.128.028.128.029.127.03.128.031.127.033.127.033.128.034.126.034.127.035.125.037.127.038.126.04.126.039.126.04.125.042.124.042.126.044.124.045.124.044.124.047.123.047.124.048.123.048.122.051.123.05.122.051.121.053.121.054.121.054.119.055.121.055.119.057.119.059.119.058.118.059.117.061.117.061.117.062.115.064.116.021.04.041.075.063.115.063.115.065.115.066.114.067.112.067.113.067.112.07.111.07.11.069.111.073.109.072.109.072.107.075.108.073.106.076.107.076.105.078.1.077.1.079.1.078.1.081.1.08.1.082.1.083.1.082.1.084.1.085.1.085.1.086.1.086.094.087.094.089.092.089.093.09.09.09.09.091.09.091.087.093.087.094.087.093.086.094.083.1.084.1.082.1.082.1.081.1.078.1.079.1.077.1.077.1.075.1.075.1.072.1.072.142.1.142.1.141.094.143.093.142.089.143.089.142.086.144.087.143.083.145.081.146.08.145.079.146.077.147.075.147.073.148.071.15.07.149.068.15.067.152.065.152.065.153.061.155.06.155.059.155.057.158.055.159.055.159.052.161.051.162.049.163.048.165.046.286.077.144.037.145.037.146.035.147.034.147.033.148.032.148.03.149.029.149.028.148.026.15.022.15.022.148.019.148.016.148.016.147.011.146.01.146.007.145,0,.144,0,.143,0,.141,0,.141-.009.068-.005.069-.006.069-.006.068-.008.067-.009.069-.01.066-.01.067-.012.066-.011.066-.014.064-.014.065-.014.064-.016.064-.017.12-.034.121-.035.117-.04.12-.04.116-.045.117-.045.116-.048.116-.051.114-.052.114-.054.079-.04,0-.042-.005-.163,0-.163v-.326l0-.162.005-.163.008-.162.008-.162.012-.161.014-.161.016-.162.015-.122.017-.12.019-.119.021-.119.025-.117.026-.114.029-.114.031-.111.015-.055.018-.056.034-.109.037-.107.039-.106.04-.1.042-.1.045-.1.047-.1.046-.1.051-.1.051-.094.052-.092.054-.09.056-.089.057-.087.058-.086.06-.084.061-.081.062-.081.063-.079.063-.076.066-.075.066-.073.067-.072.069-.07.068-.068.07-.066.071-.065.071-.063.072-.061.072-.06.074-.058.073-.056.074-.054.075-.053.074-.051.076-.05.075-.048.076-.045.077-.045.076-.043.077-.04.077-.04.077-.038.077-.035.078-.034.076-.033.077-.031.077-.029.078-.028.077-.026.077-.024.078-.022.077-.021.076-.019.077-.017.076-.016.077-.013.076-.013.077-.01.076-.008.076-.006.076,0,.074,0h.151Zm17.053,16.14-.058,0-.059,0-.061.007-.064.009-.063.01-.066.013-.067.014-.068.016-.07.018-.071.02-.072.022-.074.024-.073.027-.076.026-.076.031-.076.03-.079.033-.079.035-.079.037-.08.038-.081.039-.081.042-.083.043-.082.045-.083.045-.083.048-.084.05-.085.049-.083.052-.085.053-.085.055-.085.056-.085.055-.172.118-.171.122-.171.124-.171.129-.17.132-.17.135-.169.138-.167.139-.166.141-.165.143-.161.144-.16.145-.158.145-.086.082-.026.025.1-.018.143-.029.142-.029.144-.032.14-.033.142-.034.141-.035.14-.037.14-.038.138-.039.138-.041.137-.043.137-.043.135-.045.136-.046.133-.047.133-.05.132-.049.132-.052.129-.052.129-.055.128-.054.127-.057.125-.057.124-.06.123-.059.122-.062.128-.066.1-.05.138-.068.169-.086.2-.1.1-.056.107-.059.112-.062.113-.065.112-.067.112-.068.11-.071.106-.071.106-.074.047-.034.048-.036.045-.035.045-.035.041-.035.041-.034.037-.033.035-.032.032-.031.029-.029.027-.028.019-.023-.031-.033-.038-.037-.036-.033-.038-.031-.016-.012-.022-.018-.04-.025-.039-.024-.041-.021-.039-.021-.042-.018-.042-.016-.041-.015-.045-.013-.044-.011-.047-.01-.047-.009-.049-.008-.05-.005-.052,0-.054,0H207.9Zm-17.247-14.589-.033,0h-.034l-.037,0-.038.005-.039.005-.041.008-.04.007-.043.01-.045.01-.044.012-.046.012-.045.016-.048.015-.047.016-.05.018-.048.02-.049.021-.051.021-.049.023-.051.025-.051.026-.052.026-.05.029-.052.03-.051.03-.052.033-.051.033-.052.034-.05.037-.051.037-.051.038-.05.039-.05.042-.049.042-.05.043-.049.044-.048.046-.048.046-.047.049-.047.049-.046.049-.045.052-.045.052-.043.055-.043.054-.042.057-.042.057-.04.059-.039.059-.038.061-.038.062-.037.063-.036.064-.034.066-.033.067-.033.067-.03.068-.029.071-.029.071-.027.073-.027.073-.024.076-.023.076-.011.039-.011.038-.021.079-.017.08-.018.081-.015.084-.016.083-.011.085-.011.088-.009.088-.012.137-.01.138-.009.14-.005.139v.01l.1-.083.1-.085.1-.087.1-.087.1-.087.1-.09.141-.127.138-.128.136-.128.134-.129.132-.128.13-.13.127-.13.125-.131.125-.133.121-.133.119-.135.117-.137.115-.138.113-.141.111-.143.109-.147.055-.075.051-.072.048-.071.044-.07.042-.066.038-.064.034-.061.032-.06.029-.057.025-.053.024-.052.021-.048.017-.047.016-.043.012-.039.01-.038.009-.034.007-.031,0-.028,0-.024,0-.021v-.028h0l-.022-.007h-.007l-.026-.006-.019,0-.023,0-.024,0-.025,0h-.09Zm-18.207-17.11h-.1l-.049,0-.05,0-.049.006-.048.006-.048.007-.047.009-.047.009-.047.01-.047.011-.046.013-.045.012-.046.014-.045.016-.045.016-.044.017-.045.017-.044.018-.043.02-.043.021-.044.021-.042.022-.043.024-.043.024-.042.024-.042.026-.043.027-.041.028-.041.028-.042.029-.041.03-.04.032-.041.032-.04.033-.041.034-.039.034-.038.034-.08.075-.077.076-.078.08-.075.084-.073.085-.074.088-.07.091-.07.094-.069.1-.067.1-.066.1-.064.1-.064.1-.06.108-.06.108-.058.111-.056.111-.055.114-.053.114-.05.116-.05.116-.026.067.06-.005.07-.005.066-.007.024,0,.023,0-.023,0,.028-.005.02,0,.018-.005.056-.018.059-.02.067-.027.074-.031.077-.036.084-.04.086-.046.091-.049.093-.054.1-.058.1-.061.1-.063.1-.069.1-.069.1-.074.1-.075.1-.078.1-.08.1-.081.1-.084.1-.085.1-.086.1-.086.1-.089.093-.087.093-.089.088-.088.087-.089.082-.088.079-.087.074-.086.07-.084.066-.082.061-.081.02-.029.034-.05.05-.078.02-.035.02-.035.019-.034.018-.033.016-.032.014-.03.013-.028.011-.028.011-.025.007-.023v0H172.9l-.03-.007-.034-.007-.037-.006-.041-.005-.046-.005-.049,0-.054,0-.057,0-.052,0Zm-2.882,2.842.022,0h0Z" fill="#fff" fill-rule="evenodd"/>
      <g id="Grupo_74609" data-name="Grupo 74609">
        <path id="Trazado_111016" data-name="Trazado 111016" d="M272.151,296.964S269.4,279.27,242.9,290.3l-51.559,30.219s-87.253,3.548-87.685,7.6,71.311,16.646,85.1,16.732C207.479,344.966,275.683,316.034,272.151,296.964Z" fill="#ffab92" fill-rule="evenodd"/>
      </g>
      <g id="Grupo_74610" data-name="Grupo 74610">
        <path id="Trazado_111017" data-name="Trazado 111017" d="M211.383,228.042s20.805-13.747,35.661-9.469,12.571,8.995,23.222,22.557c4.629,5.888,9.394.231,19.737,13.4,0,0,1.16,3.436-2.923,8.806,0,0-1.3-5.531-6.786-6.315s-7.981,3.284-12.607-.3c0,0,2.656,4.371,9.215,1.974s8.9,4.213,8.963,6.964c0,0-2.691-6.612-7.017-5.355s-7.193,2.325-10.992.521c0,0,4.311,3.42,8.989,1.288s8.5,3.251,7.878,4.634c0,0-1.378,3.85-4.728,5.43a5.716,5.716,0,0,0-3.768-4.534s3.909,3.605,1.109,6.662c0,0-7.649,1.779-10.481,6.342,0,0,.749-6.446-4.648-9.2,0,0,5.585,5.046,2.488,11.3s-10.209,9.347-16.547,9.7-18.4,1.1-27.265,6.183l-1.265-7.4-.821,7.093s-14.348.288-20.241-5.083a6.677,6.677,0,0,0,4.355-8.7s-4.225-3.892-1.548-10.792c0,0-5.759,4.8-2.273,10.295s-1.026,7.872-5.332,7.605c0,0,5.7-1.142,2.569-6.1s3.573-18.572,1.49-25.141C195.214,252.212,192.109,236.507,211.383,228.042Z" fill="#004e40" fill-rule="evenodd"/>
      </g>
      <g id="Grupo_74611" data-name="Grupo 74611">
        <path id="Trazado_111018" data-name="Trazado 111018" d="M227.065,325.191c-.378-14.333,9.713-30.83,16.093-39.014,2.737-3.517,8.623-2.1,19.493-7.217,1.646-.774,20.692,2.377,26.256,5.949,7.1,4.555,11.376,25.035,15.069,35.969,1.739,5.141-4.083,22.49-10.966,43.051-5.165,15.44-39.589,11.345-41.12,7.855C246.893,360.415,227.46,340.214,227.065,325.191Z" fill="#fa5d7a" fill-rule="evenodd"/>
      </g>
      <g id="Grupo_74616" data-name="Grupo 74616">
        <g id="Grupo_74612" data-name="Grupo 74612">
          <path id="Trazado_111019" data-name="Trazado 111019" d="M424.5,411.107H88v9.449a6.079,6.079,0,0,0,6.079,6.08H418.426a6.079,6.079,0,0,0,6.078-6.08Z" fill="#51b4a8" fill-rule="evenodd"/>
        </g>
        <g id="Grupo_74613" data-name="Grupo 74613">
          <path id="Trazado_111020" data-name="Trazado 111020" d="M367.424,364.152a6.338,6.338,0,0,0-3.778-1.25H139.486a6.328,6.328,0,0,0-4.2,1.593c-6.742,5.968-30.893,27.354-45.971,40.705a6.336,6.336,0,0,0,4.2,11.08H418.43a6.336,6.336,0,0,0,3.779-11.422C403.848,391.215,374.692,369.551,367.424,364.152Z" fill="#004e40" fill-rule="evenodd"/>
        </g>
        <g id="Grupo_74614" data-name="Grupo 74614">
          <path id="Trazado_111021" data-name="Trazado 111021" d="M265.138,376.28H202.261l-15.388,34.827h78.084Z" fill="#d0e2d6" fill-rule="evenodd"/>
        </g>
        <g id="Grupo_74615" data-name="Grupo 74615">
          <path id="Trazado_111022" data-name="Trazado 111022" d="M256.251,372.177H193.374L164.886,407H242.97Z" fill="#fff" fill-rule="evenodd"/>
        </g>
      </g>
      <g id="Grupo_74617" data-name="Grupo 74617">
        <path id="Trazado_111023" data-name="Trazado 111023" d="M236.009,274.745s22.467-14.772,21.815-11.37c-.771,4.012,6.134,11.1,8.963,15.9,8.049,13.639-20.035,27.286-24.213,13.841Z" fill="#ff957c" fill-rule="evenodd"/>
      </g>
      <g id="Grupo_74618" data-name="Grupo 74618">
        <path id="Trazado_111024" data-name="Trazado 111024" d="M257.518,275.631c7.533-8.162,3.276-15.565,3.276-15.565s6.269-2.133,4.591-10.2c-1.019-4.9-5.126-4.461-7.014-3.613-5.2,2.333-3.248,14.458-5.262,14.167-9.369-1.35-8.131-7.655-8.526-12.026-.362-4.009-6.388-7.425-10.791-3.332-9.088,8.438-21.375-1.8-23.65,1.619-3.107,4.682-2.018,8.357-1.507,11.516,2.785,17.106,16.17,29.831,26.369,34.906C235,293.107,252.778,280.768,257.518,275.631Z" fill="#ffab92" fill-rule="evenodd"/>
      </g>
      <g id="Grupo_74625" data-name="Grupo 74625">
        <g id="Grupo_74619" data-name="Grupo 74619">
          <path id="Trazado_111025" data-name="Trazado 111025" d="M260,368.216a1.387,1.387,0,0,0-.66-1.841l-2.495-1.185a1.376,1.376,0,0,0-1.836.656l-2.174,4.62a1.388,1.388,0,0,0,.659,1.843l2.5,1.185a1.377,1.377,0,0,0,1.837-.658Z" fill="#fa5d7a" fill-rule="evenodd"/>
        </g>
        <g id="Grupo_74624" data-name="Grupo 74624">
          <path id="Trazado_111026" data-name="Trazado 111026" d="M258.945,370.489l-5.057-2.406-9.741,20.549.449,5.457,4.608-3.051Z" fill="#ffc492" fill-rule="evenodd"/>
          <g id="Grupo_74623" data-name="Grupo 74623">
            <g id="Grupo_74622" data-name="Grupo 74622" clip-path="url(#clip-path-2)">
              <g id="Grupo_74621" data-name="Grupo 74621">
                <g id="Grupo_74620" data-name="Grupo 74620">
                  <path id="Trazado_111027" data-name="Trazado 111027" d="M251.352,370.851l1.137-2.538,7.063,3.209-1.137,2.538Z" fill="#ffedcc" fill-rule="evenodd"/>
                </g>
              </g>
            </g>
          </g>
        </g>
      </g>
      <g id="Grupo_74648" data-name="Grupo 74648">
        <g id="Grupo_74626" data-name="Grupo 74626">
          <rect id="Rectángulo_32947" data-name="Rectángulo 32947" width="36.009" height="36.132" transform="translate(60.607 318.279) rotate(-21.605)" fill="#004e40"/>
        </g>
        <g id="Grupo_74627" data-name="Grupo 74627">
          <path id="Trazado_111029" data-name="Trazado 111029" d="M98.651,316.956c-.97-3.294-4.553-12.193-4.553-12.193L60.5,317.972s7.055,22.293,4.414,34.66L100.9,338.659S102.583,330.308,98.651,316.956Z" fill="#52b3a8" fill-rule="evenodd"/>
        </g>
        <g id="Grupo_74628" data-name="Grupo 74628">
          <path id="Trazado_111030" data-name="Trazado 111030" d="M64.51,323.132l1.5,7.016,6.713-2.381-1.639-6.859Z" fill="#004e40" fill-rule="evenodd"/>
        </g>
        <g id="Grupo_74629" data-name="Grupo 74629">
          <path id="Trazado_111031" data-name="Trazado 111031" d="M66.436,331.741l.962,7.23,6.811-2.461-1.342-7.139Z" fill="#004e40" fill-rule="evenodd"/>
        </g>
        <g id="Grupo_74630" data-name="Grupo 74630">
          <path id="Trazado_111032" data-name="Trazado 111032" d="M67.7,340.914l.9,7.253,7.162-2.6L74.608,338.5Z" fill="#004e40" fill-rule="evenodd"/>
        </g>
        <g id="Grupo_74631" data-name="Grupo 74631">
          <path id="Trazado_111033" data-name="Trazado 111033" d="M73.084,320.192l1.464,6.641,6.109-2.066-1.6-6.694Z" fill="#004e40" fill-rule="evenodd"/>
        </g>
        <g id="Grupo_74632" data-name="Grupo 74632">
          <path id="Trazado_111034" data-name="Trazado 111034" d="M74.7,328.875l1.429,6.8,6.084-2.379-1.343-6.711Z" fill="#004e40" fill-rule="evenodd"/>
        </g>
        <g id="Grupo_74633" data-name="Grupo 74633">
          <path id="Trazado_111035" data-name="Trazado 111035" d="M76.684,337.791l1.238,6.646,6.32-2.26-1.57-6.787Z" fill="#004e40" fill-rule="evenodd"/>
        </g>
        <g id="Grupo_74634" data-name="Grupo 74634">
          <path id="Trazado_111036" data-name="Trazado 111036" d="M81.038,317.629l1.457,6.4,6.074-2.127-1.546-6.67Z" fill="#004e40" fill-rule="evenodd"/>
        </g>
        <g id="Grupo_74635" data-name="Grupo 74635">
          <path id="Trazado_111037" data-name="Trazado 111037" d="M88.666,314.51l1.743,6.447,6.337-2.267s-.676-2.873-1.025-3.969c-.285-.9-1.07-2.61-1.07-2.61Z" fill="#004e40" fill-rule="evenodd"/>
        </g>
        <g id="Grupo_74636" data-name="Grupo 74636">
          <path id="Trazado_111038" data-name="Trazado 111038" d="M82.705,325.837,84.013,333l6.25-2.772-1.57-6.787Z" fill="#004e40" fill-rule="evenodd"/>
        </g>
        <g id="Grupo_74637" data-name="Grupo 74637">
          <path id="Trazado_111039" data-name="Trazado 111039" d="M90.741,322.858l1.17,6.605,6.251-2.556s-.305-2.318-.487-3.414c-.177-1.062-.607-3.163-.607-3.163Z" fill="#004e40" fill-rule="evenodd"/>
        </g>
        <g id="Grupo_74638" data-name="Grupo 74638">
          <path id="Trazado_111040" data-name="Trazado 111040" d="M84.574,334.916l1.354,6.373,5.921-2.113-1.23-6.786Z" fill="#004e40" fill-rule="evenodd"/>
        </g>
        <g id="Grupo_74639" data-name="Grupo 74639">
          <path id="Trazado_111041" data-name="Trazado 111041" d="M92.261,331.531l.949,6.789,5.87-2.083s.02-2.044-.01-3.129a22.591,22.591,0,0,0-.415-4.046Z" fill="#004e40" fill-rule="evenodd"/>
        </g>
        <g id="Grupo_74640" data-name="Grupo 74640">
          <circle id="Elipse_4616" data-name="Elipse 4616" cx="1.266" cy="1.266" r="1.266" transform="translate(66.015 316.26)" fill="#004e40"/>
        </g>
        <g id="Grupo_74641" data-name="Grupo 74641">
          <circle id="Elipse_4617" data-name="Elipse 4617" cx="1.266" cy="1.266" r="1.266" transform="translate(73.872 313.264)" fill="#004e40"/>
        </g>
        <g id="Grupo_74642" data-name="Grupo 74642">
          <circle id="Elipse_4618" data-name="Elipse 4618" cx="1.266" cy="1.266" r="1.266" transform="translate(81.919 310.01)" fill="#004e40"/>
        </g>
        <g id="Grupo_74643" data-name="Grupo 74643">
          <circle id="Elipse_4619" data-name="Elipse 4619" cx="1.266" cy="1.266" r="1.266" transform="translate(89.806 306.873)" fill="#004e40"/>
        </g>
        <g id="Grupo_74644" data-name="Grupo 74644">
          <path id="Trazado_111042" data-name="Trazado 111042" d="M67.517,315.3l-1.427.534a1.085,1.085,0,0,0-1.467-.359,1.2,1.2,0,0,0-.473,1.661c.284.53,1.415,1.083,2.219-.257a1.084,1.084,0,0,1,1.315.182c.336.314.122.635-.106,1.146-.718,1.614-4.246,1.936-5.041-.514-.973-3,1.284-4.011,2.3-4.073A2.676,2.676,0,0,1,67.517,315.3Z" fill="#fff" fill-rule="evenodd"/>
        </g>
        <g id="Grupo_74645" data-name="Grupo 74645">
          <path id="Trazado_111043" data-name="Trazado 111043" d="M75.611,312.23l-1.427.534a1.083,1.083,0,0,0-1.466-.359,1.2,1.2,0,0,0-.474,1.661c.284.53,1.415,1.083,2.219-.257a1.084,1.084,0,0,1,1.315.182c.337.314.122.635-.105,1.146-.719,1.614-4.246,1.936-5.041-.514-.974-3,1.283-4.011,2.3-4.073A2.677,2.677,0,0,1,75.611,312.23Z" fill="#fff" fill-rule="evenodd"/>
        </g>
        <g id="Grupo_74646" data-name="Grupo 74646">
          <path id="Trazado_111044" data-name="Trazado 111044" d="M83.533,309.038l-1.427.534a1.086,1.086,0,0,0-1.467-.359,1.2,1.2,0,0,0-.473,1.661c.284.53,1.414,1.083,2.219-.257a1.086,1.086,0,0,1,1.315.182c.336.314.122.635-.106,1.146-.718,1.614-4.246,1.936-5.041-.514-.973-3,1.284-4.01,2.3-4.073A2.678,2.678,0,0,1,83.533,309.038Z" fill="#fff" fill-rule="evenodd"/>
        </g>
        <g id="Grupo_74647" data-name="Grupo 74647">
          <path id="Trazado_111045" data-name="Trazado 111045" d="M91.386,305.863l-1.428.535a1.083,1.083,0,0,0-1.466-.359,1.2,1.2,0,0,0-.474,1.661c.284.53,1.415,1.083,2.219-.257a1.084,1.084,0,0,1,1.315.182c.337.313.122.635-.105,1.145-.719,1.615-4.246,1.937-5.041-.513-.974-3,1.283-4.011,2.3-4.073A2.678,2.678,0,0,1,91.386,305.863Z" fill="#fff" fill-rule="evenodd"/>
        </g>
      </g>
      <g id="Grupo_74649" data-name="Grupo 74649">
        <path id="Trazado_111046" data-name="Trazado 111046" d="M110.022,320.663l-7.613-9.249s-2.41-3.127-7.416,3.055-8.6,3.257-7.995,5.116c0,0,.987,2.383,4.123,1.508s4.394-2.189,5.956-1.761a15.881,15.881,0,0,0,2.036,2.427,10.793,10.793,0,0,0,2.512,1.111s1.082,4.167,1.948,5.162c.185.212,4.085-1.546,8.422,1.506S110.022,320.663,110.022,320.663Z" fill="#ffab92" fill-rule="evenodd"/>
      </g>
      <g id="Grupo_74650" data-name="Grupo 74650">
        <path id="Trazado_111047" data-name="Trazado 111047" d="M287.773,284.79s13.776,3.156,31.5,29.709c22.988,34.435,20.787,42.651,19.887,48.4-.847,5.429-28.816,21.617-55.088,26.395a119.555,119.555,0,0,1-20.8,2.169c-1.018,0-14.778-1.92-14.778-1.92s-1.643-.669-3.08-1.257a1.844,1.844,0,0,1-.823-2.742l.817-1.191-1.224-.983a1.276,1.276,0,0,1-.124-1.879c.471-.492.943-.982.943-.982s-.47-.638-.912-1.234a1.125,1.125,0,0,1,.358-1.653l1.883-1.05,9.45.381,1.446-2.839,5.991,7.8s45.932-27.435,52.167-24.037c0,0-16.612-21.325-22.818-26.453S274.991,308.17,287.773,284.79Z" fill="#ffab92" fill-rule="evenodd"/>
      </g>
    </g>
  </g>
</svg>
