<svg xmlns="http://www.w3.org/2000/svg" width="143.338" height="152.002" viewBox="0 0 143.338 152.002">
  <g id="Grupo_78683" data-name="Grupo 78683" transform="translate(-194.086 -629.685)">
    <g id="Grupo_74493" data-name="Grupo 74493" transform="translate(194.086 693.575)">
      <g id="Grupo_74481" data-name="Grupo 74481" transform="translate(3.686 10.972)">
        <path id="Trazado_110872" data-name="Trazado 110872" d="M208.354,812.387a2.53,2.53,0,0,1-1.983-.949c-8.476-10.564-6.972-27.07,3.355-36.794a24.778,24.778,0,0,1,16.942-6.967c.547,0,1.094.017,1.646.057a22.441,22.441,0,0,1,16.065,8.468,2.539,2.539,0,0,1-3.959,3.179,17.4,17.4,0,0,0-12.464-6.585c-.422-.028-.843-.042-1.271-.042A19.752,19.752,0,0,0,213.2,778.34c-8.442,7.953-9.729,21.377-2.871,29.919a2.536,2.536,0,0,1-1.976,4.127Z" transform="translate(-200.88 -767.677)" fill="#fff"/>
      </g>
      <g id="Grupo_74482" data-name="Grupo 74482" transform="translate(85.186 11.171)">
        <path id="Trazado_110873" data-name="Trazado 110873" d="M394.569,796.313a2.547,2.547,0,0,1-2.518-2.23,23.789,23.789,0,0,0-14.35-19.394,20.677,20.677,0,0,0-22.3,4.3,2.537,2.537,0,1,1-3.5-3.669,25.693,25.693,0,0,1,27.714-5.332,28.873,28.873,0,0,1,17.483,23.487,2.543,2.543,0,0,1-2.216,2.823Z" transform="translate(-351.109 -768.044)" fill="#fff"/>
      </g>
      <g id="Grupo_74483" data-name="Grupo 74483" transform="translate(39.987)">
        <path id="Trazado_110874" data-name="Trazado 110874" d="M270.331,764.118a2.515,2.515,0,0,1-1.356-.39,2.542,2.542,0,0,1-.792-3.5A33.723,33.723,0,0,1,279.645,749.1c.878-.509,1.778-.98,2.678-1.407a2.535,2.535,0,0,1,3.372,1.224,2.5,2.5,0,0,1,.1,1.934,2.542,2.542,0,0,1-1.31,1.439c-.775.359-1.543.763-2.284,1.2a28.241,28.241,0,0,0-9.724,9.451A2.516,2.516,0,0,1,270.331,764.118Z" transform="translate(-267.793 -747.453)" fill="#fff"/>
      </g>
      <g id="Grupo_74484" data-name="Grupo 74484" transform="translate(79.349 1.065)">
        <path id="Trazado_110875" data-name="Trazado 110875" d="M354.39,767.15a2.527,2.527,0,0,1-2.279-1.407A27.587,27.587,0,0,0,341.6,754.136a2.538,2.538,0,1,1,2.592-4.363,32.793,32.793,0,0,1,12.475,13.711,2.534,2.534,0,0,1-2.273,3.666Z" transform="translate(-340.35 -749.416)" fill="#fff"/>
      </g>
      <g id="Grupo_74485" data-name="Grupo 74485" transform="translate(55.219 34.316)">
        <path id="Trazado_110876" data-name="Trazado 110876" d="M311.29,853.857a19.587,19.587,0,0,1-14.806-6.956,2.539,2.539,0,0,1,1.925-4.193,2.54,2.54,0,0,1,1.926.883,14.331,14.331,0,0,0,10.954,5.192h52.568c8.3,0,15.056-7.411,15.056-16.517a17.2,17.2,0,0,0-5.605-12.35,15.161,15.161,0,0,0-10.242-4.136c-.387,0-1.185.049-1.191.049a2.562,2.562,0,0,1-2.717-2.321,2.532,2.532,0,0,1,2.324-2.735c.535-.046,1.071-.065,1.606-.065a20.171,20.171,0,0,1,13.66,5.48,22.326,22.326,0,0,1,7.24,16.079c0,11.906-9.029,21.59-20.132,21.59Z" transform="translate(-295.872 -810.708)" fill="#fff"/>
      </g>
      <g id="Grupo_74486" data-name="Grupo 74486" transform="translate(0 48.945)">
        <path id="Trazado_110877" data-name="Trazado 110877" d="M212.406,876.84c-10.1,0-18.32-8.807-18.32-19.631,0-10.148,7.1-18.545,16.509-19.536h.028a2.59,2.59,0,0,1,2.763,2.256,2.55,2.55,0,0,1-2.262,2.791c-6.819.718-11.968,6.947-11.968,14.489,0,8.026,5.947,14.558,13.25,14.558h47.162A13.287,13.287,0,0,0,271.6,863.3a2.538,2.538,0,0,1,4.677,1.971,18.34,18.34,0,0,1-16.708,11.564Z" transform="translate(-194.086 -837.673)" fill="#fff"/>
      </g>
      <g id="Grupo_74487" data-name="Grupo 74487" transform="translate(98.475 41.645)">
        <path id="Trazado_110878" data-name="Trazado 110878" d="M377.942,839.033a2.541,2.541,0,0,1-2.33-2.723c.633-8.408,8.4-11.764,8.733-11.9a2.54,2.54,0,0,1,1.948,4.691c-.216.088-5.218,2.25-5.623,7.6a2.55,2.55,0,0,1-2.529,2.344Z" transform="translate(-375.604 -824.217)" fill="#fff"/>
      </g>
      <g id="Grupo_74488" data-name="Grupo 74488" transform="translate(22.946 30.807)">
        <path id="Trazado_110879" data-name="Trazado 110879" d="M238.917,820.2a2.539,2.539,0,0,1-2.535-2.538c0-9.456,8.044-12.911,12.3-13.418h.046a2.6,2.6,0,0,1,2.774,2.219,2.54,2.54,0,0,1-2.21,2.82c-.8.1-7.839,1.214-7.839,8.38A2.539,2.539,0,0,1,238.917,820.2Z" transform="translate(-236.382 -804.239)" fill="#fff"/>
      </g>
      <g id="Grupo_74489" data-name="Grupo 74489" transform="translate(48.546 31.305)">
        <path id="Trazado_110880" data-name="Trazado 110880" d="M294.947,825.922a10.577,10.577,0,0,1-7.474-2.709c-5.571-5.192-3.549-15.885-3.526-15.993a2.53,2.53,0,0,1,2.484-2.062c1.852.308,2.758,1.635,2.5,3.008-.416,2.245-.871,8.662,2.005,11.34a5.747,5.747,0,0,0,4.045,1.341,15.306,15.306,0,0,0,3.839-.566l.649-.086a2.539,2.539,0,0,1,.644,4.993A20.563,20.563,0,0,1,294.947,825.922Z" transform="translate(-283.571 -805.158)" fill="#fff"/>
      </g>
      <g id="Grupo_74490" data-name="Grupo 74490" transform="translate(47.039 46.333)">
        <path id="Trazado_110881" data-name="Trazado 110881" d="M283.325,846.2a2.538,2.538,0,0,1-2.159-3.871c.239-.385,5.913-9.468,15.135-9.468a14.735,14.735,0,0,1,4.085.59,2.522,2.522,0,0,1,1.738,3.139,2.527,2.527,0,0,1-3.133,1.738,9.422,9.422,0,0,0-2.587-.37c-6.443,0-10.875,6.97-10.92,7.038A2.537,2.537,0,0,1,283.325,846.2Z" transform="translate(-280.793 -832.858)" fill="#fff"/>
      </g>
      <g id="Grupo_74491" data-name="Grupo 74491" transform="translate(20.854 62.839)">
        <path id="Trazado_110882" data-name="Trazado 110882" d="M242.04,874.224c-3.908,0-6.58-.98-8.18-2.994a6.762,6.762,0,0,1-.946-6.289,2.559,2.559,0,0,1,2.387-1.658,2.5,2.5,0,0,1,.877.157,2.55,2.55,0,0,1,1.51,3.227,1.746,1.746,0,0,0,.165,1.424c.2.248,1.111,1.057,4.216,1.057a25.055,25.055,0,0,0,3.059-.211h.046a2.6,2.6,0,0,1,2.78,2.207,2.519,2.519,0,0,1-.513,1.872,2.547,2.547,0,0,1-1.692.96A30.552,30.552,0,0,1,242.04,874.224Z" transform="translate(-232.525 -863.283)" fill="#fff"/>
      </g>
      <g id="Grupo_74492" data-name="Grupo 74492" transform="translate(73.701 26.384)">
        <path id="Trazado_110883" data-name="Trazado 110883" d="M337.505,818.265a10.715,10.715,0,0,1-6.6-2.535,2.536,2.536,0,0,1-.951-1.7,2.547,2.547,0,0,1,2.524-2.842,2.523,2.523,0,0,1,1.561.538,5.834,5.834,0,0,0,3.48,1.472,3.165,3.165,0,0,0,1.111-.2c4.3-1.467,7.907-10.741,8.978-15a2.544,2.544,0,0,1,2.461-1.914l.621.077a2.556,2.556,0,0,1,1.846,3.084c-.41,1.61-4.221,15.808-12.259,18.557A8.517,8.517,0,0,1,337.505,818.265Z" transform="translate(-329.939 -796.086)" fill="#fff"/>
      </g>
    </g>
    <g id="Grupo_74504" data-name="Grupo 74504" transform="translate(219.188 629.685)">
      <g id="Grupo_74496" data-name="Grupo 74496" transform="translate(20.171 20.915)">
        <g id="Grupo_74494" data-name="Grupo 74494">
          <path id="Trazado_110884" data-name="Trazado 110884" d="M300.9,742.839a10.729,10.729,0,0,1-10.761-10.387l-.046-1.145a50.482,50.482,0,0,0-8.579-26.213,23.517,23.517,0,0,1-3.823-15.831,23.794,23.794,0,0,1,20.878-20.88,24.282,24.282,0,0,1,2.649-.145,23.722,23.722,0,0,1,19.539,37.27,50.138,50.138,0,0,0-9.086,26.945A10.742,10.742,0,0,1,300.9,742.839Zm.4-69.535a19.212,19.212,0,0,0-2.165.123,18.676,18.676,0,0,0-16.4,16.395,18.428,18.428,0,0,0,3,12.453,55.534,55.534,0,0,1,9.428,28.847l.046,1.145a5.7,5.7,0,0,0,11.393,0,55.221,55.221,0,0,1,9.992-29.668,18.639,18.639,0,0,0-2.883-24.543A18.317,18.317,0,0,0,301.3,673.3Z" transform="translate(-277.537 -668.237)" fill="#fff"/>
        </g>
        <g id="Grupo_74495" data-name="Grupo 74495" transform="translate(12.17 51.002)">
          <path id="Trazado_110885" data-name="Trazado 110885" d="M311.223,769.326a21.589,21.589,0,0,1-9.969-2.339,2.537,2.537,0,0,1-.946-3.463,2.544,2.544,0,0,1,2.2-1.276,2.506,2.506,0,0,1,1.248.33,16.407,16.407,0,0,0,7.428,1.677,18.827,18.827,0,0,0,7.9-1.777,2.5,2.5,0,0,1,1.054-.231,2.536,2.536,0,0,1,1.065,4.842A23.744,23.744,0,0,1,311.223,769.326Z" transform="translate(-299.971 -762.248)" fill="#fff"/>
        </g>
      </g>
      <g id="Grupo_74497" data-name="Grupo 74497" transform="translate(41.372)">
        <path id="Trazado_110886" data-name="Trazado 110886" d="M319.151,642.095a2.539,2.539,0,0,1-2.535-2.538v-7.334a2.535,2.535,0,1,1,5.07,0v7.334A2.539,2.539,0,0,1,319.151,642.095Z" transform="translate(-316.616 -629.685)" fill="#fff"/>
      </g>
      <g id="Grupo_74498" data-name="Grupo 74498" transform="translate(14.366 9.826)">
        <path id="Trazado_110887" data-name="Trazado 110887" d="M274.092,658.493a2.533,2.533,0,0,1-1.948-.906l-4.711-5.62a2.537,2.537,0,1,1,3.885-3.264l4.717,5.62a2.54,2.54,0,0,1-1.943,4.17Z" transform="translate(-266.837 -647.798)" fill="#fff"/>
      </g>
      <g id="Grupo_74499" data-name="Grupo 74499" transform="translate(0 34.712)">
        <path id="Trazado_110888" data-name="Trazado 110888" d="M249.673,699.981l-7.223-1.273a2.539,2.539,0,0,1,.439-5.039l7.668,1.313a2.537,2.537,0,0,1-.439,5.036Z" transform="translate(-240.355 -693.669)" fill="#fff"/>
      </g>
      <g id="Grupo_74500" data-name="Grupo 74500" transform="translate(4.986 59.344)">
        <path id="Trazado_110889" data-name="Trazado 110889" d="M252.088,747.814a2.538,2.538,0,0,1-2.2-1.267,2.505,2.505,0,0,1-.257-1.925,2.543,2.543,0,0,1,1.179-1.541l6.357-3.668a2.535,2.535,0,0,1,3.464.931,2.537,2.537,0,0,1-.923,3.467l-6.352,3.668A2.583,2.583,0,0,1,252.088,747.814Z" transform="translate(-249.545 -739.073)" fill="#fff"/>
      </g>
      <g id="Grupo_74501" data-name="Grupo 74501" transform="translate(71.396 59.344)">
        <path id="Trazado_110890" data-name="Trazado 110890" d="M380.849,747.814a2.546,2.546,0,0,1-1.265-.336l-6.358-3.668a2.541,2.541,0,0,1,1.271-4.737,2.561,2.561,0,0,1,1.271.339l6.352,3.668a2.539,2.539,0,0,1-1.271,4.734Z" transform="translate(-371.959 -739.073)" fill="#fff"/>
      </g>
      <g id="Grupo_74502" data-name="Grupo 74502" transform="translate(75.514 34.752)">
        <path id="Trazado_110891" data-name="Trazado 110891" d="M382.082,700.052a2.537,2.537,0,0,1-.438-5.036l7.229-1.273h.108a2.605,2.605,0,0,1,2.826,2.056,2.537,2.537,0,0,1-2.051,2.943l-7.229,1.273Z" transform="translate(-379.549 -693.743)" fill="#fff"/>
      </g>
      <g id="Grupo_74503" data-name="Grupo 74503" transform="translate(63.654 9.826)">
        <path id="Trazado_110892" data-name="Trazado 110892" d="M360.226,658.493a2.537,2.537,0,0,1-1.943-4.17L363,648.7a2.537,2.537,0,1,1,3.885,3.264l-4.717,5.62A2.53,2.53,0,0,1,360.226,658.493Z" transform="translate(-357.688 -647.798)" fill="#fff"/>
      </g>
    </g>
  </g>
</svg>
