<svg xmlns="http://www.w3.org/2000/svg" width="175.744" height="113.044" viewBox="0 0 175.744 113.044">
  <g id="Grupo_78685" data-name="Grupo 78685" transform="translate(-4139.651 -650.344)">
    <g id="Grupo_74524" data-name="Grupo 74524" transform="translate(4139.651 704.652)">
      <path id="Trazado_110907" data-name="Trazado 110907" d="M4146.146,818.7a6.5,6.5,0,0,1-6.5-6.495V780.017a2.219,2.219,0,0,1,2.182-2.211l9.9,0a4.614,4.614,0,0,1-.989-3.068,9.453,9.453,0,0,1,9.193-9.63h0a9.391,9.391,0,0,1,6.713,2.686,9.381,9.381,0,0,1,2.038,10.366l9.636-.353a2.216,2.216,0,0,1,2.216,2.214v13.75a2.214,2.214,0,0,1-3.936,1.391,4.906,4.906,0,1,0-3.827,8.02,5,5,0,0,0,3.827-1.836,2.2,2.2,0,0,1,1.724-.823,2.274,2.274,0,0,1,.736.124,2.224,2.224,0,0,1,1.476,2.09v13.75a2.216,2.216,0,0,1-2.216,2.214Zm-2.067-6.495a2.073,2.073,0,0,0,2.067,2.069h30.227l-.253-7.663a4.606,4.606,0,0,1-3.071.991h-.015a9.429,9.429,0,0,1-6.694-2.616,9.335,9.335,0,0,1,10.132-15.33l-.353-7.678-10.833.254-.706,0a2.214,2.214,0,0,1-1.391-3.936,4.929,4.929,0,1,0-6.187,0,2.214,2.214,0,0,1-1.386,3.936l-11.539,0Z" transform="translate(-4139.651 -765.104)" fill="#fff"/>
    </g>
    <g id="Grupo_74534" data-name="Grupo 74534" transform="translate(4139.651 650.344)">
      <g id="Grupo_74530" data-name="Grupo 74530" transform="translate(108.837)">
        <g id="Grupo_74525" data-name="Grupo 74525" transform="translate(39.448 71.168)">
          <path id="Trazado_110908" data-name="Trazado 110908" d="M4455.207,836.189a2.214,2.214,0,0,1-2.211-2.211V802.943a2.211,2.211,0,1,1,4.422,0v31.035A2.214,2.214,0,0,1,4455.207,836.189Z" transform="translate(-4452.996 -800.732)" fill="#fff"/>
        </g>
        <g id="Grupo_74526" data-name="Grupo 74526" transform="translate(52.278 42.598)">
          <path id="Trazado_110909" data-name="Trazado 110909" d="M4482.325,763.265a2.216,2.216,0,0,1-2.216-2.211V742.571a2.214,2.214,0,0,1,4.427,0v18.483A2.214,2.214,0,0,1,4482.325,763.265Z" transform="translate(-4480.108 -740.36)" fill="#fff"/>
        </g>
        <g id="Grupo_74527" data-name="Grupo 74527" transform="translate(26.622 42.598)">
          <path id="Trazado_110910" data-name="Trazado 110910" d="M4428.105,763.265a2.215,2.215,0,0,1-2.211-2.211V742.571a2.211,2.211,0,0,1,4.422,0v18.483A2.214,2.214,0,0,1,4428.105,763.265Z" transform="translate(-4425.894 -740.36)" fill="#fff"/>
        </g>
        <g id="Grupo_74528" data-name="Grupo 74528" transform="translate(30.831)">
          <path id="Trazado_110911" data-name="Trazado 110911" d="M4445.616,672a10.829,10.829,0,1,1,10.828-10.83A10.839,10.839,0,0,1,4445.616,672Zm0-17.233a6.4,6.4,0,1,0,6.406,6.4A6.41,6.41,0,0,0,4445.616,654.769Z" transform="translate(-4434.788 -650.344)" fill="#fff"/>
        </g>
        <g id="Grupo_74529" data-name="Grupo 74529" transform="translate(0 24.18)">
          <path id="Trazado_110912" data-name="Trazado 110912" d="M4404.042,790.264a8.852,8.852,0,0,1-7.792-8.867v-58.6a.481.481,0,0,0-.323-.479l-.566.109-13.292,13.293a7.366,7.366,0,0,1-5.173,2.144,7.315,7.315,0,0,1-5.014-12.641l19.861-19.507a14.844,14.844,0,0,1,10.455-4.273h21.934a12.425,12.425,0,0,1,12.413,12.415v26.916a7.3,7.3,0,0,1-7.324,7.315c-.234,0-.468-.013-.7-.035a6.967,6.967,0,0,1-2.55-.753l.373,34.1a8.848,8.848,0,0,1-7.787,8.867c-.279.025-.552.037-.825.037a8.63,8.63,0,0,1-5.819-2.241,8.079,8.079,0,0,1-.81-.84c.144.3-.129.574-.413.838a8.643,8.643,0,0,1-5.824,2.246C4404.594,790.3,4404.315,790.288,4404.042,790.264Zm7.255-10.8a2.215,2.215,0,0,1,2.211,2.214,4.2,4.2,0,0,0,1.377,3.108,4.154,4.154,0,0,0,2.833,1.093,4.453,4.453,0,0,0,4.2-4.48V740.552a2.214,2.214,0,1,1,4.427,0,3.032,3.032,0,0,0,2.6,3.091h.074a3.014,3.014,0,0,0,2.157-.735,2.859,2.859,0,0,0,.944-2.137V713.855a8,8,0,0,0-7.985-7.99H4402.2a10.439,10.439,0,0,0-7.354,3.006L4375,728.355a3.035,3.035,0,0,0-.343,4.015,2.876,2.876,0,0,0,2.1,1.059h.02a2.907,2.907,0,0,0,2.167-.845L4392.23,719.3a4.9,4.9,0,0,1,3.494-1.451,4.953,4.953,0,0,1,4.954,4.949c-.005,13.323,0,58.6,0,58.6a4.393,4.393,0,0,0,3.787,4.46h.109a4.336,4.336,0,0,0,3.135-1.073,4.2,4.2,0,0,0,1.377-3.108A2.215,2.215,0,0,1,4411.3,779.461Z" transform="translate(-4369.638 -701.44)" fill="#fff"/>
        </g>
      </g>
      <g id="Grupo_74531" data-name="Grupo 74531" transform="translate(0 30.541)">
        <path id="Trazado_110913" data-name="Trazado 110913" d="M4164.581,755.772a2.214,2.214,0,0,1-1.391-3.936,4.929,4.929,0,1,0-6.187,0,2.214,2.214,0,0,1-1.386,3.936h-13.755a2.215,2.215,0,0,1-2.211-2.211V721.375a6.5,6.5,0,0,1,6.5-6.495h32.186a2.215,2.215,0,0,1,2.216,2.211v9.874a4.608,4.608,0,0,1,3.071-.989h.015a9.445,9.445,0,0,1,6.693,2.616,9.335,9.335,0,0,1-10.132,15.33l.353,9.633a2.218,2.218,0,0,1-2.216,2.217Zm-4.492-17.126A9.369,9.369,0,0,1,4168.7,751.7l7.677-.353-.253-11.536a2.214,2.214,0,0,1,1.476-2.089,2.253,2.253,0,0,1,.736-.124,2.2,2.2,0,0,1,1.724.822,4.906,4.906,0,1,0,3.827-8.02,4.98,4.98,0,0,0-3.827,1.834,2.206,2.206,0,0,1-1.724.825,2.118,2.118,0,0,1-.736-.129,2.207,2.207,0,0,1-1.476-2.085V719.052l-29.974.254a2.072,2.072,0,0,0-2.067,2.069V751.6l7.658-.254a4.613,4.613,0,0,1-.989-3.068,9.453,9.453,0,0,1,9.193-9.63Z" transform="translate(-4139.651 -714.88)" fill="#fff"/>
      </g>
      <g id="Grupo_74532" data-name="Grupo 74532" transform="translate(72.361 18.572)">
        <path id="Trazado_110914" data-name="Trazado 110914" d="M4313,743.182a9.369,9.369,0,0,1-8.6-13.054l-9.635.355a2.215,2.215,0,0,1-2.211-2.213V714.523a2.213,2.213,0,0,1,1.476-2.087,2.248,2.248,0,0,1,.736-.124,2.2,2.2,0,0,1,1.724.823,4.905,4.905,0,1,0,3.831-8.023,4.984,4.984,0,0,0-3.831,1.836,2.207,2.207,0,0,1-1.724.825,2.126,2.126,0,0,1-.736-.129,2.207,2.207,0,0,1-1.476-2.085V691.806a2.217,2.217,0,0,1,2.211-2.216h32.185a6.5,6.5,0,0,1,6.495,6.495V728.27a2.215,2.215,0,0,1-2.211,2.213h-9.874a4.617,4.617,0,0,1,.989,3.069,9.44,9.44,0,0,1-9.193,9.627Zm-4.482-17.123a2.212,2.212,0,0,1,1.392,3.933,4.929,4.929,0,1,0,6.186,0,2.212,2.212,0,0,1,1.392-3.933h11.792l-.253-29.974a2.074,2.074,0,0,0-2.072-2.07h-30.227l.253,7.665a4.614,4.614,0,0,1,3.066-.991h.02a9.455,9.455,0,0,1,6.7,2.618,9.325,9.325,0,0,1-6.44,16.088,9.341,9.341,0,0,1-3.344-.614v7.531Z" transform="translate(-4292.559 -689.59)" fill="#fff"/>
      </g>
      <g id="Grupo_74533" data-name="Grupo 74533" transform="translate(23.771 67.007)">
        <path id="Trazado_110915" data-name="Trazado 110915" d="M4204.792,832.832a2.215,2.215,0,0,1-2.212-2.214v-9.871a4.625,4.625,0,0,1-3.07.989h-.016a9.429,9.429,0,0,1-6.693-2.616,9.337,9.337,0,0,1,10.132-15.333l-.353-9.635a2.216,2.216,0,0,1,2.212-2.214h13.745a2.214,2.214,0,0,1,1.391,3.935,4.93,4.93,0,1,0,6.187,0,2.214,2.214,0,0,1,1.392-3.935h13.75a2.216,2.216,0,0,1,2.216,2.214v32.185a6.5,6.5,0,0,1-6.495,6.495Zm0-18.177a2.246,2.246,0,0,1,.735.124,2.219,2.219,0,0,1,1.476,2.09V828.66l29.974-.254a2.074,2.074,0,0,0,2.072-2.069V796.11l-7.667.254a4.61,4.61,0,0,1,.993,3.071,9.448,9.448,0,0,1-9.2,9.628h-.01a9.37,9.37,0,0,1-6.708-2.684,9.363,9.363,0,0,1-2.033-10.368l-7.678.353L4207,807.9a2.214,2.214,0,0,1-3.936,1.391,4.9,4.9,0,1,0-3.822,8.02,4.982,4.982,0,0,0,3.822-1.836A2.2,2.2,0,0,1,4204.792,814.655Z" transform="translate(-4189.882 -791.938)" fill="#fff"/>
      </g>
    </g>
  </g>
</svg>
