<svg xmlns="http://www.w3.org/2000/svg" width="609.688" height="587.525" viewBox="0 0 609.688 587.525">
  <g id="Grupo_78717" data-name="Grupo 78717" transform="translate(10035 6957.798)">
    <path id="Trazado_110840" data-name="Trazado 110840" d="M2450.909-542.775a90.7,90.7,0,0,0,6.827-7.37,90.024,90.024,0,0,0-12.07-126.739,90.024,90.024,0,0,0-126.739,12.07A90.024,90.024,0,0,0,2331-538.075a89.683,89.683,0,0,0,62.427,20.458h131.192a.07.07,0,0,0,.011-.014,101.4,101.4,0,0,1,30.856-25.144Z" transform="translate(-12118.38 -6260.293)" fill="#419ca6"/>
    <path id="Trazado_110841" data-name="Trazado 110841" d="M2436.507-663.668a73.694,73.694,0,0,1,9.879,103.749,73.694,73.694,0,0,1-103.749,9.881,73.693,73.693,0,0,1-9.881-103.749A73.694,73.694,0,0,1,2436.507-663.668Z" transform="translate(-12119.68 -6261.547)" fill="#77cfd9"/>
    <path id="Trazado_110842" data-name="Trazado 110842" d="M2668.437-496.009a73.7,73.7,0,0,1,9.881,103.75,73.695,73.695,0,0,1-103.75,9.88,73.694,73.694,0,0,1-9.881-103.749A73.695,73.695,0,0,1,2668.437-496.009Z" transform="translate(-12136.84 -6273.952)" fill="#77cfd9"/>
    <path id="Trazado_110843" data-name="Trazado 110843" d="M2292.995-222.959a73.692,73.692,0,0,1,9.881,103.749,73.693,73.693,0,0,1-103.75,9.881,73.694,73.694,0,0,1-9.881-103.749A73.693,73.693,0,0,1,2292.995-222.959Z" transform="translate(-12109.062 -6294.155)" fill="#77cfd9"/>
    <path id="Trazado_110844" data-name="Trazado 110844" d="M2579.761-222.959a73.694,73.694,0,0,1,9.881,103.749,73.695,73.695,0,0,1-103.75,9.881,73.694,73.694,0,0,1-9.881-103.749A73.694,73.694,0,0,1,2579.761-222.959Z" transform="translate(-12130.279 -6294.155)" fill="#77cfd9"/>
    <path id="Trazado_110845" data-name="Trazado 110845" d="M2640.355-455.536h-27.08a3.424,3.424,0,0,1-2.978-1.7,3.423,3.423,0,0,1-.046-3.429l8.057-14.549a16.6,16.6,0,0,0,2.077-8.031V-490.8a2.5,2.5,0,0,1-1.151-2.508,2.532,2.532,0,0,1,2.558-2.277h10.232a2.487,2.487,0,0,1,2.554,2.341,2.58,2.58,0,0,1-1.314,2.527v7.641a16.618,16.618,0,0,0,2.108,8.09l8,14.309a3.429,3.429,0,0,1-.036,3.436A3.424,3.424,0,0,1,2640.355-455.536Zm-18.564-38.244a.74.74,0,0,0-.762.694.7.7,0,0,0,.482.813l.68.174v8.852a18.433,18.433,0,0,1-2.3,8.907l-8.057,14.548a1.633,1.633,0,0,0,.022,1.635,1.631,1.631,0,0,0,1.42.812h27.08a1.63,1.63,0,0,0,1.419-.815,1.631,1.631,0,0,0,.018-1.638l-8-14.31a18.43,18.43,0,0,1-2.337-8.971v-9.045l.751-.13c.615-.106.576-.765.57-.84a.689.689,0,0,0-.752-.687Z" transform="translate(-12141.428 -6275.232)" fill="#12263f"/>
    <path id="Trazado_110846" data-name="Trazado 110846" d="M2639.085-460.229s-5.7-10.559-5.822-10.772h-12.24c-.092.157-5.768,10.779-5.768,10.779-.786,1.206-.995,2.685.627,2.685h22.58C2640.087-457.537,2639.879-459.022,2639.085-460.229Zm-16.645-2.462a.943.943,0,0,1-.945-.943.945.945,0,0,1,.945-.944.944.944,0,0,1,.943.944A.943.943,0,0,1,2622.44-462.691Zm6.054-4.969a.944.944,0,0,1,.943-.944.943.943,0,0,1,.943.944.942.942,0,0,1-.943.943A.943.943,0,0,1,2628.495-467.66Zm2.178,8.378a.943.943,0,0,1-.943-.944.944.944,0,0,1,.943-.944.944.944,0,0,1,.944.944A.943.943,0,0,1,2630.672-459.282Z" transform="translate(-12141.786 -6277.051)" fill="#12263f"/>
    <path id="Trazado_110847" data-name="Trazado 110847" d="M2204.473-496.009a73.694,73.694,0,0,1,9.878,103.75,73.692,73.692,0,0,1-103.749,9.88,73.693,73.693,0,0,1-9.88-103.749A73.695,73.695,0,0,1,2204.473-496.009Z" transform="translate(-12102.512 -6273.952)" fill="#77cfd9"/>
    <path id="Trazado_110848" data-name="Trazado 110848" d="M2270.251-580.254,2237.6-482.709v0a89.649,89.649,0,0,0-24.031-30.874,90.023,90.023,0,0,0-126.739,12.069,90.025,90.025,0,0,0,12.07,126.74,90.023,90.023,0,0,0,126.739-12.07,89.741,89.741,0,0,0,16.14-29.3v0l.06.02L2284.711-544.2A101.5,101.5,0,0,1,2270.251-580.254Zm-57.2,183.011a73.693,73.693,0,0,1-103.749,9.88,73.693,73.693,0,0,1-9.88-103.749,73.695,73.695,0,0,1,103.751-9.881A73.694,73.694,0,0,1,2213.047-397.243Z" transform="translate(-12101.207 -6268.968)" fill="#419ca6"/>
    <path id="Trazado_110849" data-name="Trazado 110849" d="M2301.524-241.978a90.752,90.752,0,0,0-7.606-5.638c.019.01.036.021.053.032L2186.836-326.74a102.229,102.229,0,0,1-39.759,1.9l85.315,63.034a89.686,89.686,0,0,0-57.606,31.894,90.024,90.024,0,0,0,12.07,126.739,90.023,90.023,0,0,0,126.739-12.07A90.021,90.021,0,0,0,2301.524-241.978ZM2301-125.639a73.693,73.693,0,0,1-103.75,9.881,73.694,73.694,0,0,1-9.88-103.749,73.695,73.695,0,0,1,103.751-9.881A73.694,73.694,0,0,1,2301-125.639Z" transform="translate(-12107.19 -6287.725)" fill="#419ca6"/>
    <path id="Trazado_110850" data-name="Trazado 110850" d="M2582.059-236.852a90.037,90.037,0,0,0-112.013-2.1l-110.017,78.989a101.194,101.194,0,0,1-10.383,38.425l86.533-62.127a89.981,89.981,0,0,0,31.212,85.623,90.024,90.024,0,0,0,126.739-12.07A90.024,90.024,0,0,0,2582.059-236.852Zm-.518,116.339a73.695,73.695,0,0,1-103.75,9.881,73.694,73.694,0,0,1-9.881-103.749,73.694,73.694,0,0,1,103.75-9.881A73.694,73.694,0,0,1,2581.541-120.513Z" transform="translate(-12122.178 -6292.851)" fill="#419ca6"/>
    <path id="Trazado_110851" data-name="Trazado 110851" d="M2677.532-509.9a90.024,90.024,0,0,0-126.74,12.069,89.932,89.932,0,0,0-16.137,85.339l41.5,130.51a101.653,101.653,0,0,1,26.7,15.918c2.348,1.939,4.566,3.977,6.694,6.076l-32.232-101.349A90.044,90.044,0,0,0,2689.6-383.163,90.024,90.024,0,0,0,2677.532-509.9Zm-.518,116.339a73.7,73.7,0,0,1-103.75,9.88,73.694,73.694,0,0,1-9.881-103.749,73.695,73.695,0,0,1,103.75-9.881A73.7,73.7,0,0,1,2677.014-393.563Z" transform="translate(-12135.536 -6272.647)" fill="#419ca6"/>
    <path id="Trazado_110852" data-name="Trazado 110852" d="M2163.209-495.269a20.049,20.049,0,0,0-20.026,20.026,20.048,20.048,0,0,0,20.026,20.026,20.049,20.049,0,0,0,20.027-20.026A20.05,20.05,0,0,0,2163.209-495.269Zm0,37.084a17.078,17.078,0,0,1-17.058-17.058,17.079,17.079,0,0,1,17.058-17.058,17.077,17.077,0,0,1,17.057,17.058A17.077,17.077,0,0,1,2163.209-458.185Z" transform="translate(-12106.902 -6275.256)" fill="#12263f"/>
    <path id="Trazado_110853" data-name="Trazado 110853" d="M2164.731-487.08a.983.983,0,0,0,.982-.983v-1.966a.983.983,0,0,0-.982-.983.983.983,0,0,0-.984.983v1.966A.983.983,0,0,0,2164.731-487.08Z" transform="translate(-12108.424 -6275.571)" fill="#12263f"/>
    <path id="Trazado_110854" data-name="Trazado 110854" d="M2164.731-460.759a.983.983,0,0,0-.984.982v1.966a.983.983,0,0,0,.984.983.983.983,0,0,0,.982-.983v-1.966A.982.982,0,0,0,2164.731-460.759Z" transform="translate(-12108.424 -6277.809)" fill="#12263f"/>
    <path id="Trazado_110855" data-name="Trazado 110855" d="M2150.508-474.825h-1.966a.983.983,0,0,0-.982.983.983.983,0,0,0,.982.983h1.966a.983.983,0,0,0,.983-.983A.983.983,0,0,0,2150.508-474.825Z" transform="translate(-12107.226 -6276.769)" fill="#12263f"/>
    <path id="Trazado_110856" data-name="Trazado 110856" d="M2180.761-474.825H2178.8a.984.984,0,0,0-.983.983.984.984,0,0,0,.983.983h1.966a.984.984,0,0,0,.983-.983A.984.984,0,0,0,2180.761-474.825Z" transform="translate(-12109.464 -6276.769)" fill="#12263f"/>
    <path id="Trazado_110857" data-name="Trazado 110857" d="M2164.936-476.574v-6.29a.983.983,0,0,0-.982-.983.984.984,0,0,0-.984.983v6.3a2.235,2.235,0,0,0-1.058,2.931l-8.292,6.445a.985.985,0,0,0-.173,1.38.983.983,0,0,0,1.38.173l8.648-6.721A2.248,2.248,0,0,0,2164.936-476.574Z" transform="translate(-12107.646 -6276.101)" fill="#12263f"/>
    <path id="Trazado_110858" data-name="Trazado 110858" d="M2270.629-201.9a6.632,6.632,0,0,0,1.41-6.906l-2.961,2.962a3.24,3.24,0,0,1-4.58,0l-.458-.459a3.238,3.238,0,0,1,0-4.58l2.96-2.96a6.631,6.631,0,0,0-6.906,1.408,6.707,6.707,0,0,0-1.2,7.446,8.133,8.133,0,0,0,1.734,2.554,8.17,8.17,0,0,0,2.555,1.735A6.706,6.706,0,0,0,2270.629-201.9Z" transform="translate(-12115.418 -6296.048)" fill="#12263f"/>
    <path id="Trazado_110859" data-name="Trazado 110859" d="M2261.657-199.957a8.169,8.169,0,0,1-2.555-1.735,8.134,8.134,0,0,1-1.734-2.554,3.111,3.111,0,0,0-.608.469l-18.213,18.212a3.1,3.1,0,0,0,0,4.384l.045.044a3.1,3.1,0,0,0,4.382,0l18.213-18.212A3.03,3.03,0,0,0,2261.657-199.957Zm-21.716,17.426a.971.971,0,0,1,0-1.374.973.973,0,0,1,1.374,0,.97.97,0,0,1,0,1.374A.971.971,0,0,1,2239.941-182.531Z" transform="translate(-12113.891 -6296.788)" fill="#12263f"/>
    <path id="Trazado_110860" data-name="Trazado 110860" d="M2238.351-211.208a2.629,2.629,0,0,0-3.682.033l-.037.037a2.631,2.631,0,0,0-.034,3.682l24.732,25.675a3.288,3.288,0,0,0,4.693.045l.047-.048a3.288,3.288,0,0,0-.042-4.693Z" transform="translate(-12113.611 -6296.219)" fill="#12263f"/>
    <path id="Trazado_110861" data-name="Trazado 110861" d="M2248.689-213.172l-7.486-1.5-10.881,10.881,4.492,4.493,3.931-3.931,3.394-3.394Z" transform="translate(-12113.35 -6296.017)" fill="#12263f"/>
    <path id="Trazado_110862" data-name="Trazado 110862" d="M2538.633-218.713a.53.53,0,0,1-.572.477h0a.531.531,0,0,1-.571-.477v-3.4a.531.531,0,0,1,.571-.476h0a.53.53,0,0,1,.572.476Z" transform="translate(-12136.076 -6295.431)" fill="#12263f"/>
    <path id="Trazado_110863" data-name="Trazado 110863" d="M2525.6-212.934a.532.532,0,0,1-.03.745h0a.53.53,0,0,1-.735.106l-2.531-2.278a.529.529,0,0,1,.031-.743h0a.53.53,0,0,1,.735-.107Z" transform="translate(-12134.943 -6295.969)" fill="#12263f"/>
    <path id="Trazado_110864" data-name="Trazado 110864" d="M2521.182-199.41a.531.531,0,0,1,.534.52h0a.529.529,0,0,1-.414.618l-3.386.357a.533.533,0,0,1-.533-.52h0a.531.531,0,0,1,.414-.619Z" transform="translate(-12134.588 -6297.146)" fill="#12263f"/>
    <path id="Trazado_110865" data-name="Trazado 110865" d="M2555.779-199.365a.53.53,0,0,1-.415-.618h0a.529.529,0,0,1,.534-.518l3.386.354a.535.535,0,0,1,.415.619h0a.533.533,0,0,1-.534.52Z" transform="translate(-12137.398 -6297.065)" fill="#12263f"/>
    <path id="Trazado_110866" data-name="Trazado 110866" d="M2551.454-212.9a.531.531,0,0,1-.737-.1h0a.531.531,0,0,1-.027-.744l2.529-2.279a.533.533,0,0,1,.737.1h0a.534.534,0,0,1,.03.745Z" transform="translate(-12137.042 -6295.909)" fill="#12263f"/>
    <path id="Trazado_110867" data-name="Trazado 110867" d="M2549.224-203.805a12.142,12.142,0,0,0-12.143-12.142,12.142,12.142,0,0,0-12.142,12.142,12.142,12.142,0,0,0,7.142,11.067v2.5h0v3.286a2.162,2.162,0,0,0,1.741,2.17,5.026,5.026,0,0,0,.3.87,2.777,2.777,0,0,0,2.137,1.859h1.642a2.773,2.773,0,0,0,2.137-1.859,4.942,4.942,0,0,0,.3-.87,2.165,2.165,0,0,0,1.742-2.17v-4.443h0v-1.348A12.142,12.142,0,0,0,2549.224-203.805Zm-16.667-6.07a7.57,7.57,0,0,0-3.051,6.07,7.553,7.553,0,0,0,2.709,5.8.558.558,0,0,1,.094.745l-.006.011a.57.57,0,0,1-.833.111,8.7,8.7,0,0,1-3.1-6.667,8.7,8.7,0,0,1,3.5-6.977.568.568,0,0,1,.807.13l.007.01A.56.56,0,0,1,2532.557-209.875Zm8.38,22.928a1.092,1.092,0,0,1-.434.894.856.856,0,0,1-.5.168h-5.84a.84.84,0,0,1-.5-.168,1.1,1.1,0,0,1-.433-.894v-3.286h7.713Z" transform="translate(-12135.147 -6295.923)" fill="#12263f"/>
    <path id="Trazado_110868" data-name="Trazado 110868" d="M2400.032-658.348a4.9,4.9,0,0,0-4.9-4.9,4.9,4.9,0,0,0-4.9,4.9,4.9,4.9,0,0,0,3.27,4.615,4.853,4.853,0,0,0,1.63.284,4.85,4.85,0,0,0,1.63-.284A4.9,4.9,0,0,0,2400.032-658.348Zm-4.9,2.463a2.467,2.467,0,0,1-2.462-2.463,2.466,2.466,0,0,1,2.462-2.462,2.466,2.466,0,0,1,2.463,2.462A2.467,2.467,0,0,1,2395.132-655.885Z" transform="translate(-12125.182 -6262.828)" fill="#12263f"/>
    <path id="Trazado_110869" data-name="Trazado 110869" d="M2380.521-639.986l-2,2.474-2,2.475,3.21.463,3.209.463-1.215-2.938Z" transform="translate(-12124.167 -6264.549)" fill="#12263f"/>
    <path id="Trazado_110870" data-name="Trazado 110870" d="M2414.007-635.037l-2-2.475-2-2.474-1.215,2.938-1.214,2.938,3.21-.463Z" transform="translate(-12126.465 -6264.549)" fill="#12263f"/>
    <path id="Trazado_110871" data-name="Trazado 110871" d="M2410.511-633.044a5.665,5.665,0,0,0-.406-1.643l-1.366.2-1.359.2a3.886,3.886,0,0,1-1.67,2.063c-1.808,1.139-8,2.232-8.717-.053-.435-1.4-.714-9.045-.94-15.3h3.893a1.179,1.179,0,0,0,1.151-1.207v-.024a1.179,1.179,0,0,0-1.151-1.207h-3.982c-.024-.657-.049-1.283-.072-1.865a5.806,5.806,0,0,1-1.673.253,5.8,5.8,0,0,1-1.671-.253c-.025.582-.048,1.208-.073,1.865h-3.982a1.179,1.179,0,0,0-1.15,1.207v.024a1.179,1.179,0,0,0,1.15,1.207h3.894c-.227,6.256-.5,13.906-.94,15.3-.714,2.284-6.911,1.192-8.718.053a3.889,3.889,0,0,1-1.67-2.063l-1.358-.2-1.366-.2a5.7,5.7,0,0,0-.406,1.643c-.278,3.081,2.308,4.621,4.784,5.631a17.985,17.985,0,0,0,2.138.686c3.521.989,6.472,1.566,8.505,3.974a1.137,1.137,0,0,0,1.727,0c2.033-2.408,4.985-2.985,8.5-3.974a18.036,18.036,0,0,0,2.139-.686C2408.2-628.423,2410.791-629.963,2410.511-633.044Z" transform="translate(-12124.27 -6263.668)" fill="#12263f"/>
    <path id="Trazado_111516" data-name="Trazado 111516" d="M30.42,17V5.625h3.211a5.169,5.169,0,0,1,2.625.656,4.438,4.438,0,0,1,1.762,1.867,6.078,6.078,0,0,1,.629,2.781v.727a6.1,6.1,0,0,1-.621,2.82,4.369,4.369,0,0,1-1.773,1.859A5.5,5.5,0,0,1,33.568,17Zm1.5-10.148v8.922H33.5a3.434,3.434,0,0,0,2.7-1.079,4.458,4.458,0,0,0,.965-3.073v-.665a4.529,4.529,0,0,0-.91-3.014A3.239,3.239,0,0,0,33.67,6.852Zm12.273,10.3a3.693,3.693,0,0,1-2.8-1.129,4.19,4.19,0,0,1-1.078-3.02v-.266A5.073,5.073,0,0,1,40.8,10.5a3.748,3.748,0,0,1,1.344-1.547,3.378,3.378,0,0,1,1.871-.559,3.166,3.166,0,0,1,2.563,1.086,4.7,4.7,0,0,1,.914,3.109v.6H41.764a3,3,0,0,0,.73,2.02,2.3,2.3,0,0,0,1.777.77,2.517,2.517,0,0,0,1.3-.312,3.259,3.259,0,0,0,.93-.828l.883.688A3.55,3.55,0,0,1,44.193,17.156Zm-.18-7.578a1.928,1.928,0,0,0-1.469.637A3.1,3.1,0,0,0,41.81,12h4.234v-.109a2.753,2.753,0,0,0-.594-1.707A1.815,1.815,0,0,0,44.014,9.578ZM49.646,17V9.664H48.31V8.547h1.336V7.828a2.937,2.937,0,0,1,.809-2.2,3.136,3.136,0,0,1,2.285-.789,6.881,6.881,0,0,1,2.211.477l-.242,1.219a5.008,5.008,0,0,0-1.859-.391,1.819,1.819,0,0,0-1.34.418,1.723,1.723,0,0,0-.41,1.254v.734h1.727V9.664H51.1V17Zm6.023,0H54.217V8.547H55.67Zm3.719-8.453.047,1.063a3.08,3.08,0,0,1,2.531-1.219q2.68,0,2.7,3.023V17H63.224V11.406a1.946,1.946,0,0,0-.418-1.352,1.675,1.675,0,0,0-1.277-.437,2.086,2.086,0,0,0-1.234.375,2.546,2.546,0,0,0-.828.984V17H58.021V8.547ZM68.42,17H66.974V8.547H68.42ZM66.857,6.3a.863.863,0,0,1,.215-.594.807.807,0,0,1,.637-.242.819.819,0,0,1,.641.242.854.854,0,0,1,.219.594.826.826,0,0,1-.219.586.834.834,0,0,1-.641.234.821.821,0,0,1-.637-.234A.834.834,0,0,1,66.857,6.3Zm7.961,3.539a4.331,4.331,0,0,0-.711-.055A1.9,1.9,0,0,0,72.178,11v6H70.732V8.547h1.406l.023.977a2.251,2.251,0,0,1,2.016-1.133,1.477,1.477,0,0,1,.641.109Zm8.8,7.313a3.693,3.693,0,0,1-2.8-1.129,4.19,4.19,0,0,1-1.078-3.02v-.266a5.073,5.073,0,0,1,.48-2.246,3.748,3.748,0,0,1,1.344-1.547,3.378,3.378,0,0,1,1.871-.559A3.166,3.166,0,0,1,86,9.477a4.7,4.7,0,0,1,.914,3.109v.6H81.185a3,3,0,0,0,.73,2.02,2.3,2.3,0,0,0,1.777.77,2.517,2.517,0,0,0,1.3-.312,3.259,3.259,0,0,0,.93-.828l.883.688A3.55,3.55,0,0,1,83.615,17.156Zm-.18-7.578a1.928,1.928,0,0,0-1.469.637A3.1,3.1,0,0,0,81.232,12h4.234v-.109a2.753,2.753,0,0,0-.594-1.707A1.815,1.815,0,0,0,83.435,9.578ZM90.154,17H88.709V5h1.445ZM34.76,32.067a5.062,5.062,0,0,1-.883,3.109,2.829,2.829,0,0,1-2.391,1.18,3.1,3.1,0,0,1-2.422-.977v4.07H27.619v-11.7h1.32l.07.938a2.977,2.977,0,0,1,2.453-1.094,2.882,2.882,0,0,1,2.41,1.148,5.117,5.117,0,0,1,.887,3.2ZM33.314,31.9a3.735,3.735,0,0,0-.609-2.258,1.963,1.963,0,0,0-1.672-.828,2.125,2.125,0,0,0-1.969,1.164V34.02a2.129,2.129,0,0,0,1.984,1.156,1.954,1.954,0,0,0,1.652-.824A4.077,4.077,0,0,0,33.314,31.9Zm7.367-2.859a4.331,4.331,0,0,0-.711-.055,1.9,1.9,0,0,0-1.93,1.211v6H36.6V27.747H38l.023.977a2.251,2.251,0,0,1,2.016-1.133,1.477,1.477,0,0,1,.641.109Zm.789,2.852a4.993,4.993,0,0,1,.488-2.234,3.643,3.643,0,0,1,1.359-1.531,3.7,3.7,0,0,1,1.988-.539,3.565,3.565,0,0,1,2.793,1.2,4.6,4.6,0,0,1,1.066,3.18v.1a5.036,5.036,0,0,1-.473,2.215,3.589,3.589,0,0,1-1.352,1.527,3.743,3.743,0,0,1-2.02.547,3.556,3.556,0,0,1-2.785-1.2A4.575,4.575,0,0,1,41.471,32Zm1.453.172a3.616,3.616,0,0,0,.652,2.258,2.211,2.211,0,0,0,3.5-.012,3.955,3.955,0,0,0,.648-2.418,3.61,3.61,0,0,0-.66-2.254,2.1,2.1,0,0,0-1.754-.863,2.075,2.075,0,0,0-1.727.852A3.925,3.925,0,0,0,42.924,32.067Zm15.211,0a5.026,5.026,0,0,1-.891,3.113,2.846,2.846,0,0,1-2.391,1.176,2.947,2.947,0,0,1-2.477-1.133l-.07.977H50.978v-12h1.445v4.477a2.93,2.93,0,0,1,2.414-1.086,2.863,2.863,0,0,1,2.418,1.164,5.177,5.177,0,0,1,.879,3.188ZM56.689,31.9a3.906,3.906,0,0,0-.57-2.281,1.888,1.888,0,0,0-1.641-.8,2.122,2.122,0,0,0-2.055,1.328V33.8a2.181,2.181,0,0,0,2.07,1.328,1.878,1.878,0,0,0,1.617-.8A4.153,4.153,0,0,0,56.689,31.9Zm4.836,4.3H60.08v-12h1.445Zm5.82.156a3.693,3.693,0,0,1-2.8-1.129,4.19,4.19,0,0,1-1.078-3.02v-.266a5.073,5.073,0,0,1,.48-2.246,3.748,3.748,0,0,1,1.344-1.547,3.378,3.378,0,0,1,1.871-.559,3.166,3.166,0,0,1,2.563,1.086,4.7,4.7,0,0,1,.914,3.109v.6H64.916a3,3,0,0,0,.73,2.02,2.3,2.3,0,0,0,1.777.77,2.517,2.517,0,0,0,1.3-.312,3.259,3.259,0,0,0,.93-.828l.883.688A3.55,3.55,0,0,1,67.346,36.356Zm-.18-7.578a1.928,1.928,0,0,0-1.469.637,3.1,3.1,0,0,0-.734,1.785H69.2v-.109a2.753,2.753,0,0,0-.594-1.707A1.815,1.815,0,0,0,67.166,28.778Zm6.508-1.031.039.938a3.122,3.122,0,0,1,2.508-1.094,2.417,2.417,0,0,1,2.414,1.359,3.2,3.2,0,0,1,1.1-.984,3.242,3.242,0,0,1,1.6-.375q2.781,0,2.828,2.945V36.2H82.713V30.622a1.941,1.941,0,0,0-.414-1.355,1.823,1.823,0,0,0-1.391-.449,1.916,1.916,0,0,0-1.336.48,1.949,1.949,0,0,0-.617,1.293V36.2H77.5V30.661a1.613,1.613,0,0,0-1.8-1.844,1.934,1.934,0,0,0-1.945,1.211V36.2H72.307V27.747ZM91.557,36.2a3.036,3.036,0,0,1-.2-.891,3.225,3.225,0,0,1-2.406,1.047,2.984,2.984,0,0,1-2.051-.707,2.288,2.288,0,0,1-.8-1.793,2.39,2.39,0,0,1,1-2.051,4.733,4.733,0,0,1,2.824-.73H91.33v-.664a1.623,1.623,0,0,0-.453-1.207,1.821,1.821,0,0,0-1.336-.449,2.108,2.108,0,0,0-1.3.391,1.151,1.151,0,0,0-.523.945H86.267a2,2,0,0,1,.449-1.223,3.066,3.066,0,0,1,1.219-.934,4.1,4.1,0,0,1,1.691-.344,3.342,3.342,0,0,1,2.289.73,2.635,2.635,0,0,1,.859,2.012v3.891a4.757,4.757,0,0,0,.3,1.852V36.2Zm-2.4-1.1a2.54,2.54,0,0,0,1.289-.352,2.127,2.127,0,0,0,.883-.914V32.1H90.2q-2.656,0-2.656,1.555a1.316,1.316,0,0,0,.453,1.063A1.742,1.742,0,0,0,89.158,35.1Z" transform="translate(-9787.822 -6881.063)" fill="#12263f"/>
    <path id="Trazado_111517" data-name="Trazado 111517" d="M30.787,14.023H26.021L24.951,17H23.4L27.748,5.625H29.06L33.412,17H31.873ZM26.474,12.8h3.867L28.4,7.477Zm9.609-4.25.047,1.063a3.08,3.08,0,0,1,2.531-1.219q2.68,0,2.7,3.023V17H39.92V11.406a1.946,1.946,0,0,0-.418-1.352,1.675,1.675,0,0,0-1.277-.437,2.086,2.086,0,0,0-1.234.375,2.546,2.546,0,0,0-.828.984V17H34.717V8.547ZM48.764,17a3.036,3.036,0,0,1-.2-.891,3.225,3.225,0,0,1-2.406,1.047,2.984,2.984,0,0,1-2.051-.707,2.287,2.287,0,0,1-.8-1.793,2.39,2.39,0,0,1,1-2.051,4.733,4.733,0,0,1,2.824-.73h1.406v-.664A1.623,1.623,0,0,0,48.084,10a1.821,1.821,0,0,0-1.336-.449,2.107,2.107,0,0,0-1.3.391,1.151,1.151,0,0,0-.523.945H43.474a2,2,0,0,1,.449-1.223,3.066,3.066,0,0,1,1.219-.934,4.1,4.1,0,0,1,1.691-.344,3.342,3.342,0,0,1,2.289.73,2.635,2.635,0,0,1,.859,2.012v3.891a4.757,4.757,0,0,0,.3,1.852V17Zm-2.4-1.1a2.54,2.54,0,0,0,1.289-.352,2.127,2.127,0,0,0,.883-.914V12.9H47.4q-2.656,0-2.656,1.555a1.316,1.316,0,0,0,.453,1.063A1.742,1.742,0,0,0,46.365,15.9ZM53.818,17H52.373V5h1.445ZM57.7,17H56.256V8.547H57.7ZM56.139,6.3a.863.863,0,0,1,.215-.594.807.807,0,0,1,.637-.242.819.819,0,0,1,.641.242.854.854,0,0,1,.219.594.826.826,0,0,1-.219.586.834.834,0,0,1-.641.234.821.821,0,0,1-.637-.234A.834.834,0,0,1,56.139,6.3Zm5.234,9.516h4.945V17H59.607V15.938l4.664-6.2H59.678v-1.2h6.406V9.57ZM73.162,17a3.036,3.036,0,0,1-.2-.891,3.225,3.225,0,0,1-2.406,1.047,2.984,2.984,0,0,1-2.051-.707,2.288,2.288,0,0,1-.8-1.793,2.39,2.39,0,0,1,1-2.051,4.733,4.733,0,0,1,2.824-.73h1.406v-.664A1.623,1.623,0,0,0,72.482,10a1.821,1.821,0,0,0-1.336-.449,2.108,2.108,0,0,0-1.3.391,1.151,1.151,0,0,0-.523.945H67.873a2,2,0,0,1,.449-1.223,3.066,3.066,0,0,1,1.219-.934,4.1,4.1,0,0,1,1.691-.344,3.342,3.342,0,0,1,2.289.73,2.635,2.635,0,0,1,.859,2.012v3.891a4.757,4.757,0,0,0,.3,1.852V17Zm-2.4-1.1a2.54,2.54,0,0,0,1.289-.352,2.127,2.127,0,0,0,.883-.914V12.9H71.8q-2.656,0-2.656,1.555a1.316,1.316,0,0,0,.453,1.063A1.742,1.742,0,0,0,70.764,15.9Zm9.969-6.055a4.331,4.331,0,0,0-.711-.055A1.9,1.9,0,0,0,78.092,11v6H76.646V8.547h1.406l.023.977a2.251,2.251,0,0,1,2.016-1.133,1.477,1.477,0,0,1,.641.109Zm8.8,7.313a3.693,3.693,0,0,1-2.8-1.129,4.19,4.19,0,0,1-1.078-3.02v-.266a5.073,5.073,0,0,1,.48-2.246,3.748,3.748,0,0,1,1.344-1.547,3.378,3.378,0,0,1,1.871-.559,3.166,3.166,0,0,1,2.563,1.086,4.7,4.7,0,0,1,.914,3.109v.6H87.1a3,3,0,0,0,.73,2.02,2.3,2.3,0,0,0,1.777.77,2.517,2.517,0,0,0,1.3-.312,3.259,3.259,0,0,0,.93-.828l.883.688A3.55,3.55,0,0,1,89.529,17.156Zm-.18-7.578a1.928,1.928,0,0,0-1.469.637A3.1,3.1,0,0,0,87.146,12h4.234v-.109a2.753,2.753,0,0,0-.594-1.707A1.815,1.815,0,0,0,89.349,9.578ZM96.068,17H94.623V5h1.445ZM34.76,32.067a5.062,5.062,0,0,1-.883,3.109,2.829,2.829,0,0,1-2.391,1.18,3.1,3.1,0,0,1-2.422-.977v4.07H27.619v-11.7h1.32l.07.938a2.977,2.977,0,0,1,2.453-1.094,2.882,2.882,0,0,1,2.41,1.148,5.117,5.117,0,0,1,.887,3.2ZM33.314,31.9a3.735,3.735,0,0,0-.609-2.258,1.963,1.963,0,0,0-1.672-.828,2.125,2.125,0,0,0-1.969,1.164V34.02a2.129,2.129,0,0,0,1.984,1.156,1.954,1.954,0,0,0,1.652-.824A4.077,4.077,0,0,0,33.314,31.9Zm7.367-2.859a4.331,4.331,0,0,0-.711-.055,1.9,1.9,0,0,0-1.93,1.211v6H36.6V27.747H38l.023.977a2.251,2.251,0,0,1,2.016-1.133,1.477,1.477,0,0,1,.641.109Zm.789,2.852a4.993,4.993,0,0,1,.488-2.234,3.643,3.643,0,0,1,1.359-1.531,3.7,3.7,0,0,1,1.988-.539,3.565,3.565,0,0,1,2.793,1.2,4.6,4.6,0,0,1,1.066,3.18v.1a5.036,5.036,0,0,1-.473,2.215,3.589,3.589,0,0,1-1.352,1.527,3.743,3.743,0,0,1-2.02.547,3.556,3.556,0,0,1-2.785-1.2A4.575,4.575,0,0,1,41.471,32Zm1.453.172a3.616,3.616,0,0,0,.652,2.258,2.211,2.211,0,0,0,3.5-.012,3.955,3.955,0,0,0,.648-2.418,3.61,3.61,0,0,0-.66-2.254,2.1,2.1,0,0,0-1.754-.863,2.075,2.075,0,0,0-1.727.852A3.925,3.925,0,0,0,42.924,32.067Zm15.211,0a5.026,5.026,0,0,1-.891,3.113,2.846,2.846,0,0,1-2.391,1.176,2.947,2.947,0,0,1-2.477-1.133l-.07.977H50.978v-12h1.445v4.477a2.93,2.93,0,0,1,2.414-1.086,2.863,2.863,0,0,1,2.418,1.164,5.177,5.177,0,0,1,.879,3.188ZM56.689,31.9a3.906,3.906,0,0,0-.57-2.281,1.888,1.888,0,0,0-1.641-.8,2.122,2.122,0,0,0-2.055,1.328V33.8a2.181,2.181,0,0,0,2.07,1.328,1.878,1.878,0,0,0,1.617-.8A4.153,4.153,0,0,0,56.689,31.9Zm4.836,4.3H60.08v-12h1.445Zm5.82.156a3.693,3.693,0,0,1-2.8-1.129,4.19,4.19,0,0,1-1.078-3.02v-.266a5.073,5.073,0,0,1,.48-2.246,3.748,3.748,0,0,1,1.344-1.547,3.378,3.378,0,0,1,1.871-.559,3.166,3.166,0,0,1,2.563,1.086,4.7,4.7,0,0,1,.914,3.109v.6H64.916a3,3,0,0,0,.73,2.02,2.3,2.3,0,0,0,1.777.77,2.517,2.517,0,0,0,1.3-.312,3.259,3.259,0,0,0,.93-.828l.883.688A3.55,3.55,0,0,1,67.346,36.356Zm-.18-7.578a1.928,1.928,0,0,0-1.469.637,3.1,3.1,0,0,0-.734,1.785H69.2v-.109a2.753,2.753,0,0,0-.594-1.707A1.815,1.815,0,0,0,67.166,28.778Zm6.508-1.031.039.938a3.122,3.122,0,0,1,2.508-1.094,2.417,2.417,0,0,1,2.414,1.359,3.2,3.2,0,0,1,1.1-.984,3.242,3.242,0,0,1,1.6-.375q2.781,0,2.828,2.945V36.2H82.713V30.622a1.941,1.941,0,0,0-.414-1.355,1.823,1.823,0,0,0-1.391-.449,1.916,1.916,0,0,0-1.336.48,1.949,1.949,0,0,0-.617,1.293V36.2H77.5V30.661a1.613,1.613,0,0,0-1.8-1.844,1.934,1.934,0,0,0-1.945,1.211V36.2H72.307V27.747ZM91.557,36.2a3.036,3.036,0,0,1-.2-.891,3.225,3.225,0,0,1-2.406,1.047,2.984,2.984,0,0,1-2.051-.707,2.288,2.288,0,0,1-.8-1.793,2.39,2.39,0,0,1,1-2.051,4.733,4.733,0,0,1,2.824-.73H91.33v-.664a1.623,1.623,0,0,0-.453-1.207,1.821,1.821,0,0,0-1.336-.449,2.108,2.108,0,0,0-1.3.391,1.151,1.151,0,0,0-.523.945H86.267a2,2,0,0,1,.449-1.223,3.066,3.066,0,0,1,1.219-.934,4.1,4.1,0,0,1,1.691-.344,3.342,3.342,0,0,1,2.289.73,2.635,2.635,0,0,1,.859,2.012v3.891a4.757,4.757,0,0,0,.3,1.852V36.2Zm-2.4-1.1a2.54,2.54,0,0,0,1.289-.352,2.127,2.127,0,0,0,.883-.914V32.1H90.2q-2.656,0-2.656,1.555a1.316,1.316,0,0,0,.453,1.063A1.742,1.742,0,0,0,89.158,35.1Z" transform="translate(-9575.574 -6726.639)" fill="#12263f"/>
    <path id="Trazado_111518" data-name="Trazado 111518" d="M29.564,11.742h-4.93v4.031h5.727V17H23.135V5.625h7.148V6.852H24.635v3.664h4.93Zm5.023,3.3,2.094-6.492h1.477L35.127,17h-1.1L30.963,8.547h1.477ZM44.65,17a3.036,3.036,0,0,1-.2-.891,3.225,3.225,0,0,1-2.406,1.047,2.984,2.984,0,0,1-2.051-.707,2.287,2.287,0,0,1-.8-1.793,2.39,2.39,0,0,1,1-2.051,4.733,4.733,0,0,1,2.824-.73h1.406v-.664A1.623,1.623,0,0,0,43.971,10a1.821,1.821,0,0,0-1.336-.449,2.107,2.107,0,0,0-1.3.391,1.151,1.151,0,0,0-.523.945H39.361a2,2,0,0,1,.449-1.223,3.066,3.066,0,0,1,1.219-.934,4.1,4.1,0,0,1,1.691-.344,3.342,3.342,0,0,1,2.289.73,2.635,2.635,0,0,1,.859,2.012v3.891a4.757,4.757,0,0,0,.3,1.852V17Zm-2.4-1.1a2.54,2.54,0,0,0,1.289-.352,2.127,2.127,0,0,0,.883-.914V12.9H43.291q-2.656,0-2.656,1.555a1.316,1.316,0,0,0,.453,1.063A1.742,1.742,0,0,0,42.252,15.9ZM49.7,17H48.26V5H49.7Zm7.531-.836a3.07,3.07,0,0,1-2.477.992,2.628,2.628,0,0,1-2.059-.785,3.4,3.4,0,0,1-.715-2.324v-5.5h1.445v5.461q0,1.922,1.563,1.922A2.163,2.163,0,0,0,57.2,14.7V8.547h1.445V17H57.267Zm8.82.836a3.036,3.036,0,0,1-.2-.891,3.225,3.225,0,0,1-2.406,1.047,2.984,2.984,0,0,1-2.051-.707,2.287,2.287,0,0,1-.8-1.793,2.39,2.39,0,0,1,1-2.051,4.733,4.733,0,0,1,2.824-.73H65.83v-.664A1.623,1.623,0,0,0,65.377,10a1.821,1.821,0,0,0-1.336-.449,2.107,2.107,0,0,0-1.3.391,1.151,1.151,0,0,0-.523.945H60.767a2,2,0,0,1,.449-1.223,3.066,3.066,0,0,1,1.219-.934,4.1,4.1,0,0,1,1.691-.344,3.342,3.342,0,0,1,2.289.73,2.635,2.635,0,0,1,.859,2.012v3.891a4.757,4.757,0,0,0,.3,1.852V17Zm-2.4-1.1a2.54,2.54,0,0,0,1.289-.352,2.127,2.127,0,0,0,.883-.914V12.9H64.7q-2.656,0-2.656,1.555a1.316,1.316,0,0,0,.453,1.063A1.742,1.742,0,0,0,63.658,15.9Zm9.969-6.055a4.331,4.331,0,0,0-.711-.055A1.9,1.9,0,0,0,70.986,11v6H69.541V8.547h1.406l.023.977a2.251,2.251,0,0,1,2.016-1.133,1.477,1.477,0,0,1,.641.109ZM80.486,17H79.041V5h1.445Zm7.531,0a3.036,3.036,0,0,1-.2-.891,3.225,3.225,0,0,1-2.406,1.047,2.984,2.984,0,0,1-2.051-.707,2.288,2.288,0,0,1-.8-1.793,2.39,2.39,0,0,1,1-2.051,4.733,4.733,0,0,1,2.824-.73h1.406v-.664A1.623,1.623,0,0,0,87.338,10,1.821,1.821,0,0,0,86,9.555a2.108,2.108,0,0,0-1.3.391,1.151,1.151,0,0,0-.523.945H82.728a2,2,0,0,1,.449-1.223A3.066,3.066,0,0,1,84.4,8.734a4.1,4.1,0,0,1,1.691-.344,3.342,3.342,0,0,1,2.289.73,2.635,2.635,0,0,1,.859,2.012v3.891a4.757,4.757,0,0,0,.3,1.852V17Zm-2.4-1.1a2.54,2.54,0,0,0,1.289-.352,2.127,2.127,0,0,0,.883-.914V12.9H86.658Q84,12.9,84,14.453a1.316,1.316,0,0,0,.453,1.063A1.742,1.742,0,0,0,85.619,15.9Zm10.8-1.141a1.064,1.064,0,0,0-.441-.91,4.249,4.249,0,0,0-1.539-.559,7.277,7.277,0,0,1-1.742-.562,2.479,2.479,0,0,1-.953-.781,1.869,1.869,0,0,1-.309-1.078,2.193,2.193,0,0,1,.879-1.758,3.432,3.432,0,0,1,2.246-.719,3.532,3.532,0,0,1,2.332.742,2.357,2.357,0,0,1,.895,1.9H96.338a1.3,1.3,0,0,0-.5-1.023,1.888,1.888,0,0,0-1.27-.43,1.976,1.976,0,0,0-1.234.344,1.082,1.082,0,0,0-.445.9.877.877,0,0,0,.414.789,5.1,5.1,0,0,0,1.5.508,7.8,7.8,0,0,1,1.754.578,2.558,2.558,0,0,1,1,.809,1.988,1.988,0,0,1,.324,1.152,2.163,2.163,0,0,1-.906,1.816,3.8,3.8,0,0,1-2.352.684,4.257,4.257,0,0,1-1.8-.359,2.922,2.922,0,0,1-1.223-1A2.42,2.42,0,0,1,91.15,14.4H92.6a1.5,1.5,0,0,0,.582,1.152,2.258,2.258,0,0,0,1.434.426,2.331,2.331,0,0,0,1.316-.332A1.02,1.02,0,0,0,96.424,14.758ZM25.084,36.2a3.036,3.036,0,0,1-.2-.891,3.225,3.225,0,0,1-2.406,1.047,2.984,2.984,0,0,1-2.051-.707,2.287,2.287,0,0,1-.8-1.793,2.39,2.39,0,0,1,1-2.051,4.733,4.733,0,0,1,2.824-.73h1.406v-.664A1.623,1.623,0,0,0,24.4,29.2a1.821,1.821,0,0,0-1.336-.449,2.108,2.108,0,0,0-1.3.391,1.151,1.151,0,0,0-.523.945H19.795a2,2,0,0,1,.449-1.223,3.066,3.066,0,0,1,1.219-.934,4.1,4.1,0,0,1,1.691-.344,3.342,3.342,0,0,1,2.289.73,2.635,2.635,0,0,1,.859,2.012v3.891a4.757,4.757,0,0,0,.3,1.852V36.2Zm-2.4-1.1a2.54,2.54,0,0,0,1.289-.352,2.127,2.127,0,0,0,.883-.914V32.1H23.724q-2.656,0-2.656,1.555a1.316,1.316,0,0,0,.453,1.063A1.742,1.742,0,0,0,22.685,35.1Zm7.453,1.1H28.693v-12h1.445Zm4.273-10.5v2.047H35.99v1.117H34.412v5.249a1.173,1.173,0,0,0,.211.763.888.888,0,0,0,.719.254,3.5,3.5,0,0,0,.688-.094V36.2a4.215,4.215,0,0,1-1.109.155,1.8,1.8,0,0,1-1.461-.586,2.517,2.517,0,0,1-.492-1.664V28.864H31.428V27.747h1.539V25.7Zm6.773,10.656a3.693,3.693,0,0,1-2.8-1.129,4.19,4.19,0,0,1-1.078-3.02v-.266a5.073,5.073,0,0,1,.48-2.246,3.748,3.748,0,0,1,1.344-1.547,3.378,3.378,0,0,1,1.871-.559,3.166,3.166,0,0,1,2.563,1.086,4.7,4.7,0,0,1,.914,3.109v.6H38.756a3,3,0,0,0,.73,2.02,2.3,2.3,0,0,0,1.777.77,2.517,2.517,0,0,0,1.3-.312,3.258,3.258,0,0,0,.93-.828l.883.688A3.55,3.55,0,0,1,41.185,36.356Zm-.18-7.578a1.928,1.928,0,0,0-1.469.637A3.1,3.1,0,0,0,38.8,31.2h4.234v-.109a2.753,2.753,0,0,0-.594-1.707A1.815,1.815,0,0,0,41.006,28.778Zm9.234.266a4.331,4.331,0,0,0-.711-.055A1.9,1.9,0,0,0,47.6,30.2v6H46.154V27.747H47.56l.023.977A2.251,2.251,0,0,1,49.6,27.591a1.477,1.477,0,0,1,.641.109Zm2.7-1.3.047,1.063a3.08,3.08,0,0,1,2.531-1.219q2.68,0,2.7,3.023V36.2H56.771V30.606a1.946,1.946,0,0,0-.418-1.352,1.675,1.675,0,0,0-1.277-.437,2.086,2.086,0,0,0-1.234.375,2.546,2.546,0,0,0-.828.984V36.2H51.568V27.747ZM65.615,36.2a3.036,3.036,0,0,1-.2-.891,3.225,3.225,0,0,1-2.406,1.047,2.984,2.984,0,0,1-2.051-.707,2.287,2.287,0,0,1-.8-1.793,2.39,2.39,0,0,1,1-2.051,4.733,4.733,0,0,1,2.824-.73h1.406v-.664a1.623,1.623,0,0,0-.453-1.207,1.821,1.821,0,0,0-1.336-.449,2.107,2.107,0,0,0-1.3.391,1.151,1.151,0,0,0-.523.945H60.326a2,2,0,0,1,.449-1.223,3.066,3.066,0,0,1,1.219-.934,4.1,4.1,0,0,1,1.691-.344,3.342,3.342,0,0,1,2.289.73,2.635,2.635,0,0,1,.859,2.012v3.891a4.757,4.757,0,0,0,.3,1.852V36.2Zm-2.4-1.1a2.54,2.54,0,0,0,1.289-.352,2.127,2.127,0,0,0,.883-.914V32.1H64.256q-2.656,0-2.656,1.555a1.316,1.316,0,0,0,.453,1.063A1.742,1.742,0,0,0,63.217,35.1Zm7.844-9.4v2.047h1.578v1.117H71.06v5.249a1.173,1.173,0,0,0,.211.763.888.888,0,0,0,.719.254,3.5,3.5,0,0,0,.688-.094V36.2a4.215,4.215,0,0,1-1.109.155,1.8,1.8,0,0,1-1.461-.586,2.517,2.517,0,0,1-.492-1.664V28.864H68.076V27.747h1.539V25.7ZM75.9,36.2H74.451V27.747H75.9ZM74.334,25.5a.863.863,0,0,1,.215-.594.807.807,0,0,1,.637-.242.819.819,0,0,1,.641.242.854.854,0,0,1,.219.594.826.826,0,0,1-.219.586.834.834,0,0,1-.641.234.821.821,0,0,1-.637-.234A.834.834,0,0,1,74.334,25.5ZM81,34.239l2.094-6.492h1.477L81.537,36.2h-1.1l-3.062-8.453h1.477ZM91.06,36.2a3.036,3.036,0,0,1-.2-.891,3.225,3.225,0,0,1-2.406,1.047,2.984,2.984,0,0,1-2.051-.707,2.288,2.288,0,0,1-.8-1.793,2.39,2.39,0,0,1,1-2.051,4.733,4.733,0,0,1,2.824-.73h1.406v-.664a1.623,1.623,0,0,0-.453-1.207,1.821,1.821,0,0,0-1.336-.449,2.108,2.108,0,0,0-1.3.391,1.151,1.151,0,0,0-.523.945H85.771a2,2,0,0,1,.449-1.223,3.066,3.066,0,0,1,1.219-.934,4.1,4.1,0,0,1,1.691-.344,3.342,3.342,0,0,1,2.289.73,2.635,2.635,0,0,1,.859,2.012v3.891a4.757,4.757,0,0,0,.3,1.852V36.2Zm-2.4-1.1a2.54,2.54,0,0,0,1.289-.352,2.127,2.127,0,0,0,.883-.914V32.1H89.7q-2.656,0-2.656,1.555a1.316,1.316,0,0,0,.453,1.063A1.742,1.742,0,0,0,88.662,35.1Zm10.8-1.141a1.064,1.064,0,0,0-.441-.91,4.249,4.249,0,0,0-1.539-.559,7.277,7.277,0,0,1-1.742-.563,2.478,2.478,0,0,1-.953-.781,1.869,1.869,0,0,1-.309-1.078,2.193,2.193,0,0,1,.879-1.758,3.432,3.432,0,0,1,2.246-.719,3.532,3.532,0,0,1,2.332.742,2.357,2.357,0,0,1,.895,1.9H99.381a1.3,1.3,0,0,0-.5-1.023,1.888,1.888,0,0,0-1.27-.43,1.976,1.976,0,0,0-1.234.344,1.082,1.082,0,0,0-.445.9.877.877,0,0,0,.414.789,5.1,5.1,0,0,0,1.5.508,7.8,7.8,0,0,1,1.754.578,2.558,2.558,0,0,1,1,.809,1.988,1.988,0,0,1,.324,1.152,2.163,2.163,0,0,1-.906,1.816,3.8,3.8,0,0,1-2.352.684,4.257,4.257,0,0,1-1.8-.359,2.922,2.922,0,0,1-1.223-1,2.42,2.42,0,0,1-.441-1.395h1.445a1.5,1.5,0,0,0,.582,1.152,2.258,2.258,0,0,0,1.434.426,2.331,2.331,0,0,0,1.316-.332A1.02,1.02,0,0,0,99.467,33.958Z" transform="translate(-9654.446 -6472.824)" fill="#12263f"/>
    <path id="Trazado_111519" data-name="Trazado 111519" d="M35.724,11.742h-4.93v4.031h5.727V17H29.295V5.625h7.148V6.852H30.795v3.664h4.93ZM39.732,17H38.287V5h1.445Zm5.82.156a3.693,3.693,0,0,1-2.8-1.129,4.19,4.19,0,0,1-1.078-3.02v-.266a5.073,5.073,0,0,1,.48-2.246A3.748,3.748,0,0,1,43.5,8.949a3.378,3.378,0,0,1,1.871-.559,3.166,3.166,0,0,1,2.563,1.086,4.7,4.7,0,0,1,.914,3.109v.6H43.123a3,3,0,0,0,.73,2.02,2.3,2.3,0,0,0,1.777.77,2.517,2.517,0,0,0,1.3-.312,3.259,3.259,0,0,0,.93-.828l.883.688A3.55,3.55,0,0,1,45.553,17.156Zm-.18-7.578a1.928,1.928,0,0,0-1.469.637A3.1,3.1,0,0,0,43.17,12H47.4v-.109a2.753,2.753,0,0,0-.594-1.707A1.815,1.815,0,0,0,45.373,9.578Zm4.8,3.125a4.968,4.968,0,0,1,.914-3.145,3.151,3.151,0,0,1,4.836-.074L56,8.547h1.32V16.8a3.439,3.439,0,0,1-.973,2.586,3.589,3.589,0,0,1-2.613.945,4.348,4.348,0,0,1-1.789-.391,3.08,3.08,0,0,1-1.336-1.07l.75-.867a2.826,2.826,0,0,0,2.273,1.148,2.214,2.214,0,0,0,1.645-.594,2.269,2.269,0,0,0,.59-1.672v-.727a2.971,2.971,0,0,1-2.367,1,2.887,2.887,0,0,1-2.4-1.2A5.224,5.224,0,0,1,50.178,12.7Zm1.453.164a3.79,3.79,0,0,0,.586,2.246,1.9,1.9,0,0,0,1.641.816,2.117,2.117,0,0,0,2.008-1.242V10.828a2.142,2.142,0,0,0-1.992-1.211,1.921,1.921,0,0,0-1.648.82A4.128,4.128,0,0,0,51.631,12.867ZM61.068,17H59.623V8.547h1.445ZM59.506,6.3a.863.863,0,0,1,.215-.594.807.807,0,0,1,.637-.242A.819.819,0,0,1,61,5.711a.854.854,0,0,1,.219.594A.826.826,0,0,1,61,6.891a.834.834,0,0,1-.641.234.821.821,0,0,1-.637-.234A.834.834,0,0,1,59.506,6.3Zm7.961,3.539a4.331,4.331,0,0,0-.711-.055A1.9,1.9,0,0,0,64.826,11v6H63.381V8.547h1.406l.023.977a2.251,2.251,0,0,1,2.016-1.133,1.477,1.477,0,0,1,.641.109ZM74.326,17H72.881V5h1.445Zm7.531,0a3.036,3.036,0,0,1-.2-.891,3.225,3.225,0,0,1-2.406,1.047,2.984,2.984,0,0,1-2.051-.707,2.288,2.288,0,0,1-.8-1.793,2.39,2.39,0,0,1,1-2.051,4.733,4.733,0,0,1,2.824-.73h1.406v-.664A1.623,1.623,0,0,0,81.178,10a1.821,1.821,0,0,0-1.336-.449,2.108,2.108,0,0,0-1.3.391,1.151,1.151,0,0,0-.523.945H76.568a2,2,0,0,1,.449-1.223,3.066,3.066,0,0,1,1.219-.934,4.1,4.1,0,0,1,1.691-.344,3.342,3.342,0,0,1,2.289.73,2.635,2.635,0,0,1,.859,2.012v3.891a4.757,4.757,0,0,0,.3,1.852V17Zm-2.4-1.1a2.54,2.54,0,0,0,1.289-.352,2.127,2.127,0,0,0,.883-.914V12.9H80.5q-2.656,0-2.656,1.555a1.316,1.316,0,0,0,.453,1.063A1.742,1.742,0,0,0,79.459,15.9Zm10.8-1.141a1.064,1.064,0,0,0-.441-.91,4.249,4.249,0,0,0-1.539-.559,7.277,7.277,0,0,1-1.742-.562,2.479,2.479,0,0,1-.953-.781,1.869,1.869,0,0,1-.309-1.078,2.193,2.193,0,0,1,.879-1.758A3.432,3.432,0,0,1,88.4,8.391a3.532,3.532,0,0,1,2.332.742,2.357,2.357,0,0,1,.895,1.9H90.178a1.3,1.3,0,0,0-.5-1.023,1.888,1.888,0,0,0-1.27-.43,1.976,1.976,0,0,0-1.234.344,1.082,1.082,0,0,0-.445.9.877.877,0,0,0,.414.789,5.1,5.1,0,0,0,1.5.508,7.8,7.8,0,0,1,1.754.578,2.558,2.558,0,0,1,1,.809,1.988,1.988,0,0,1,.324,1.152,2.163,2.163,0,0,1-.906,1.816,3.8,3.8,0,0,1-2.352.684,4.257,4.257,0,0,1-1.8-.359,2.922,2.922,0,0,1-1.223-1A2.42,2.42,0,0,1,84.99,14.4h1.445a1.5,1.5,0,0,0,.582,1.152,2.258,2.258,0,0,0,1.434.426,2.331,2.331,0,0,0,1.316-.332A1.02,1.02,0,0,0,90.264,14.758ZM25.084,36.2a3.036,3.036,0,0,1-.2-.891,3.225,3.225,0,0,1-2.406,1.047,2.984,2.984,0,0,1-2.051-.707,2.287,2.287,0,0,1-.8-1.793,2.39,2.39,0,0,1,1-2.051,4.733,4.733,0,0,1,2.824-.73h1.406v-.664A1.623,1.623,0,0,0,24.4,29.2a1.821,1.821,0,0,0-1.336-.449,2.108,2.108,0,0,0-1.3.391,1.151,1.151,0,0,0-.523.945H19.795a2,2,0,0,1,.449-1.223,3.066,3.066,0,0,1,1.219-.934,4.1,4.1,0,0,1,1.691-.344,3.342,3.342,0,0,1,2.289.73,2.635,2.635,0,0,1,.859,2.012v3.891a4.757,4.757,0,0,0,.3,1.852V36.2Zm-2.4-1.1a2.54,2.54,0,0,0,1.289-.352,2.127,2.127,0,0,0,.883-.914V32.1H23.724q-2.656,0-2.656,1.555a1.316,1.316,0,0,0,.453,1.063A1.742,1.742,0,0,0,22.685,35.1Zm7.453,1.1H28.693v-12h1.445Zm4.273-10.5v2.047H35.99v1.117H34.412v5.249a1.173,1.173,0,0,0,.211.763.888.888,0,0,0,.719.254,3.5,3.5,0,0,0,.688-.094V36.2a4.215,4.215,0,0,1-1.109.155,1.8,1.8,0,0,1-1.461-.586,2.517,2.517,0,0,1-.492-1.664V28.864H31.428V27.747h1.539V25.7Zm6.773,10.656a3.693,3.693,0,0,1-2.8-1.129,4.19,4.19,0,0,1-1.078-3.02v-.266a5.073,5.073,0,0,1,.48-2.246,3.748,3.748,0,0,1,1.344-1.547,3.378,3.378,0,0,1,1.871-.559,3.166,3.166,0,0,1,2.563,1.086,4.7,4.7,0,0,1,.914,3.109v.6H38.756a3,3,0,0,0,.73,2.02,2.3,2.3,0,0,0,1.777.77,2.517,2.517,0,0,0,1.3-.312,3.258,3.258,0,0,0,.93-.828l.883.688A3.55,3.55,0,0,1,41.185,36.356Zm-.18-7.578a1.928,1.928,0,0,0-1.469.637A3.1,3.1,0,0,0,38.8,31.2h4.234v-.109a2.753,2.753,0,0,0-.594-1.707A1.815,1.815,0,0,0,41.006,28.778Zm9.234.266a4.331,4.331,0,0,0-.711-.055A1.9,1.9,0,0,0,47.6,30.2v6H46.154V27.747H47.56l.023.977A2.251,2.251,0,0,1,49.6,27.591a1.477,1.477,0,0,1,.641.109Zm2.7-1.3.047,1.063a3.08,3.08,0,0,1,2.531-1.219q2.68,0,2.7,3.023V36.2H56.771V30.606a1.946,1.946,0,0,0-.418-1.352,1.675,1.675,0,0,0-1.277-.437,2.086,2.086,0,0,0-1.234.375,2.546,2.546,0,0,0-.828.984V36.2H51.568V27.747ZM65.615,36.2a3.036,3.036,0,0,1-.2-.891,3.225,3.225,0,0,1-2.406,1.047,2.984,2.984,0,0,1-2.051-.707,2.287,2.287,0,0,1-.8-1.793,2.39,2.39,0,0,1,1-2.051,4.733,4.733,0,0,1,2.824-.73h1.406v-.664a1.623,1.623,0,0,0-.453-1.207,1.821,1.821,0,0,0-1.336-.449,2.107,2.107,0,0,0-1.3.391,1.151,1.151,0,0,0-.523.945H60.326a2,2,0,0,1,.449-1.223,3.066,3.066,0,0,1,1.219-.934,4.1,4.1,0,0,1,1.691-.344,3.342,3.342,0,0,1,2.289.73,2.635,2.635,0,0,1,.859,2.012v3.891a4.757,4.757,0,0,0,.3,1.852V36.2Zm-2.4-1.1a2.54,2.54,0,0,0,1.289-.352,2.127,2.127,0,0,0,.883-.914V32.1H64.256q-2.656,0-2.656,1.555a1.316,1.316,0,0,0,.453,1.063A1.742,1.742,0,0,0,63.217,35.1Zm7.844-9.4v2.047h1.578v1.117H71.06v5.249a1.173,1.173,0,0,0,.211.763.888.888,0,0,0,.719.254,3.5,3.5,0,0,0,.688-.094V36.2a4.215,4.215,0,0,1-1.109.155,1.8,1.8,0,0,1-1.461-.586,2.517,2.517,0,0,1-.492-1.664V28.864H68.076V27.747h1.539V25.7ZM75.9,36.2H74.451V27.747H75.9ZM74.334,25.5a.863.863,0,0,1,.215-.594.807.807,0,0,1,.637-.242.819.819,0,0,1,.641.242.854.854,0,0,1,.219.594.826.826,0,0,1-.219.586.834.834,0,0,1-.641.234.821.821,0,0,1-.637-.234A.834.834,0,0,1,74.334,25.5ZM81,34.239l2.094-6.492h1.477L81.537,36.2h-1.1l-3.062-8.453h1.477ZM91.06,36.2a3.036,3.036,0,0,1-.2-.891,3.225,3.225,0,0,1-2.406,1.047,2.984,2.984,0,0,1-2.051-.707,2.288,2.288,0,0,1-.8-1.793,2.39,2.39,0,0,1,1-2.051,4.733,4.733,0,0,1,2.824-.73h1.406v-.664a1.623,1.623,0,0,0-.453-1.207,1.821,1.821,0,0,0-1.336-.449,2.108,2.108,0,0,0-1.3.391,1.151,1.151,0,0,0-.523.945H85.771a2,2,0,0,1,.449-1.223,3.066,3.066,0,0,1,1.219-.934,4.1,4.1,0,0,1,1.691-.344,3.342,3.342,0,0,1,2.289.73,2.635,2.635,0,0,1,.859,2.012v3.891a4.757,4.757,0,0,0,.3,1.852V36.2Zm-2.4-1.1a2.54,2.54,0,0,0,1.289-.352,2.127,2.127,0,0,0,.883-.914V32.1H89.7q-2.656,0-2.656,1.555a1.316,1.316,0,0,0,.453,1.063A1.742,1.742,0,0,0,88.662,35.1Zm10.8-1.141a1.064,1.064,0,0,0-.441-.91,4.249,4.249,0,0,0-1.539-.559,7.277,7.277,0,0,1-1.742-.563,2.478,2.478,0,0,1-.953-.781,1.869,1.869,0,0,1-.309-1.078,2.193,2.193,0,0,1,.879-1.758,3.432,3.432,0,0,1,2.246-.719,3.532,3.532,0,0,1,2.332.742,2.357,2.357,0,0,1,.895,1.9H99.381a1.3,1.3,0,0,0-.5-1.023,1.888,1.888,0,0,0-1.27-.43,1.976,1.976,0,0,0-1.234.344,1.082,1.082,0,0,0-.445.9.877.877,0,0,0,.414.789,5.1,5.1,0,0,0,1.5.508,7.8,7.8,0,0,1,1.754.578,2.558,2.558,0,0,1,1,.809,1.988,1.988,0,0,1,.324,1.152,2.163,2.163,0,0,1-.906,1.816,3.8,3.8,0,0,1-2.352.684,4.257,4.257,0,0,1-1.8-.359,2.922,2.922,0,0,1-1.223-1,2.42,2.42,0,0,1-.441-1.395h1.445a1.5,1.5,0,0,0,.582,1.152,2.258,2.258,0,0,0,1.434.426,2.331,2.331,0,0,0,1.316-.332A1.02,1.02,0,0,0,99.467,33.958Z" transform="translate(-9924.4 -6467.645)" fill="#12263f"/>
    <path id="Trazado_111520" data-name="Trazado 111520" d="M24.646,14.023H19.88L18.81,17H17.263L21.607,5.625h1.313L27.271,17H25.732ZM20.333,12.8H24.2l-1.937-5.32Zm15.383.07a5.062,5.062,0,0,1-.883,3.109,2.829,2.829,0,0,1-2.391,1.18,3.1,3.1,0,0,1-2.422-.977v4.07H28.575V8.547H29.9l.07.938a2.977,2.977,0,0,1,2.453-1.094,2.882,2.882,0,0,1,2.41,1.148,5.117,5.117,0,0,1,.887,3.2ZM34.271,12.7a3.735,3.735,0,0,0-.609-2.258,1.963,1.963,0,0,0-1.672-.828,2.125,2.125,0,0,0-1.969,1.164V14.82a2.129,2.129,0,0,0,1.984,1.156,1.954,1.954,0,0,0,1.652-.824A4.077,4.077,0,0,0,34.271,12.7ZM39.122,17H37.677V5h1.445Zm3.883,0H41.56V8.547h1.445ZM41.443,6.3a.863.863,0,0,1,.215-.594.807.807,0,0,1,.637-.242.819.819,0,0,1,.641.242.854.854,0,0,1,.219.594.826.826,0,0,1-.219.586.834.834,0,0,1-.641.234.821.821,0,0,1-.637-.234A.834.834,0,0,1,41.443,6.3Zm7.266,9.672a2.082,2.082,0,0,0,1.352-.469,1.649,1.649,0,0,0,.641-1.172h1.367a2.621,2.621,0,0,1-.5,1.383,3.293,3.293,0,0,1-1.23,1.047,3.55,3.55,0,0,1-1.629.391A3.482,3.482,0,0,1,45.962,16a4.59,4.59,0,0,1-1.02-3.152v-.242a5.089,5.089,0,0,1,.453-2.2,3.451,3.451,0,0,1,1.3-1.492,3.7,3.7,0,0,1,2-.531,3.39,3.39,0,0,1,2.363.852,3.043,3.043,0,0,1,1,2.211H50.7a1.992,1.992,0,0,0-.621-1.348A1.932,1.932,0,0,0,48.7,9.578a2.023,2.023,0,0,0-1.707.793,3.724,3.724,0,0,0-.605,2.293v.273a3.65,3.65,0,0,0,.6,2.25A2.033,2.033,0,0,0,48.708,15.977ZM58.911,17a3.036,3.036,0,0,1-.2-.891A3.225,3.225,0,0,1,56.3,17.156a2.984,2.984,0,0,1-2.051-.707,2.287,2.287,0,0,1-.8-1.793,2.39,2.39,0,0,1,1-2.051,4.733,4.733,0,0,1,2.824-.73h1.406v-.664A1.623,1.623,0,0,0,58.232,10,1.821,1.821,0,0,0,56.9,9.555a2.107,2.107,0,0,0-1.3.391,1.151,1.151,0,0,0-.523.945H53.622a2,2,0,0,1,.449-1.223,3.066,3.066,0,0,1,1.219-.934,4.1,4.1,0,0,1,1.691-.344,3.342,3.342,0,0,1,2.289.73,2.635,2.635,0,0,1,.859,2.012v3.891a4.757,4.757,0,0,0,.3,1.852V17Zm-2.4-1.1a2.54,2.54,0,0,0,1.289-.352,2.127,2.127,0,0,0,.883-.914V12.9H57.552q-2.656,0-2.656,1.555a1.316,1.316,0,0,0,.453,1.063A1.742,1.742,0,0,0,56.513,15.9Zm9.969-6.055a4.331,4.331,0,0,0-.711-.055A1.9,1.9,0,0,0,63.841,11v6H62.4V8.547H63.8l.023.977a2.251,2.251,0,0,1,2.016-1.133,1.477,1.477,0,0,1,.641.109ZM73.341,17H71.9V5h1.445Zm7.531,0a3.036,3.036,0,0,1-.2-.891,3.225,3.225,0,0,1-2.406,1.047,2.984,2.984,0,0,1-2.051-.707,2.288,2.288,0,0,1-.8-1.793,2.39,2.39,0,0,1,1-2.051,4.733,4.733,0,0,1,2.824-.73h1.406v-.664A1.623,1.623,0,0,0,80.193,10a1.821,1.821,0,0,0-1.336-.449,2.108,2.108,0,0,0-1.3.391,1.151,1.151,0,0,0-.523.945H75.583a2,2,0,0,1,.449-1.223,3.066,3.066,0,0,1,1.219-.934,4.1,4.1,0,0,1,1.691-.344,3.342,3.342,0,0,1,2.289.73,2.635,2.635,0,0,1,.859,2.012v3.891a4.757,4.757,0,0,0,.3,1.852V17Zm-2.4-1.1a2.54,2.54,0,0,0,1.289-.352,2.127,2.127,0,0,0,.883-.914V12.9H79.513q-2.656,0-2.656,1.555a1.316,1.316,0,0,0,.453,1.063A1.742,1.742,0,0,0,78.474,15.9Zm-57.5,16a4.952,4.952,0,0,1,.922-3.129,3.137,3.137,0,0,1,4.766-.168V24.2h1.445v12H26.778l-.07-.906a2.943,2.943,0,0,1-2.414,1.063,2.887,2.887,0,0,1-2.395-1.2,5.008,5.008,0,0,1-.926-3.141Zm1.445.164a3.749,3.749,0,0,0,.594,2.25,1.92,1.92,0,0,0,1.641.813A2.108,2.108,0,0,0,26.661,33.9V30.013a2.125,2.125,0,0,0-1.992-1.2,1.929,1.929,0,0,0-1.656.82A4.128,4.128,0,0,0,22.419,32.067Zm11.437,4.289a3.693,3.693,0,0,1-2.8-1.129,4.19,4.19,0,0,1-1.078-3.02v-.266a5.073,5.073,0,0,1,.48-2.246,3.748,3.748,0,0,1,1.344-1.547,3.378,3.378,0,0,1,1.871-.559,3.166,3.166,0,0,1,2.563,1.086,4.7,4.7,0,0,1,.914,3.109v.6H31.427a3,3,0,0,0,.73,2.02,2.3,2.3,0,0,0,1.777.77,2.517,2.517,0,0,0,1.3-.312,3.258,3.258,0,0,0,.93-.828l.883.688A3.55,3.55,0,0,1,33.857,36.356Zm-.18-7.578a1.928,1.928,0,0,0-1.469.637,3.1,3.1,0,0,0-.734,1.785h4.234v-.109a2.753,2.753,0,0,0-.594-1.707A1.815,1.815,0,0,0,33.677,28.778Zm8.539,6.4a2.082,2.082,0,0,0,1.352-.469,1.649,1.649,0,0,0,.641-1.172h1.367a2.621,2.621,0,0,1-.5,1.383,3.293,3.293,0,0,1-1.23,1.047,3.55,3.55,0,0,1-1.629.391A3.482,3.482,0,0,1,39.47,35.2a4.59,4.59,0,0,1-1.02-3.152v-.242a5.089,5.089,0,0,1,.453-2.2,3.451,3.451,0,0,1,1.3-1.492,3.7,3.7,0,0,1,2-.531,3.39,3.39,0,0,1,2.363.852,3.043,3.043,0,0,1,1,2.211H44.208a1.992,1.992,0,0,0-.621-1.348,1.932,1.932,0,0,0-1.379-.527,2.023,2.023,0,0,0-1.707.793,3.724,3.724,0,0,0-.605,2.293v.273a3.65,3.65,0,0,0,.6,2.25A2.033,2.033,0,0,0,42.216,35.177ZM48.771,36.2H47.325V27.747h1.445ZM47.208,25.5a.863.863,0,0,1,.215-.594.807.807,0,0,1,.637-.242.819.819,0,0,1,.641.242.854.854,0,0,1,.219.594.826.826,0,0,1-.219.586.834.834,0,0,1-.641.234.821.821,0,0,1-.637-.234A.834.834,0,0,1,47.208,25.5Zm8.8,8.453a1.064,1.064,0,0,0-.441-.91,4.249,4.249,0,0,0-1.539-.559,7.277,7.277,0,0,1-1.742-.563,2.479,2.479,0,0,1-.953-.781,1.869,1.869,0,0,1-.309-1.078,2.193,2.193,0,0,1,.879-1.758,3.432,3.432,0,0,1,2.246-.719,3.532,3.532,0,0,1,2.332.742,2.357,2.357,0,0,1,.895,1.9H55.919a1.3,1.3,0,0,0-.5-1.023,1.888,1.888,0,0,0-1.27-.43,1.976,1.976,0,0,0-1.234.344,1.082,1.082,0,0,0-.445.9.877.877,0,0,0,.414.789,5.1,5.1,0,0,0,1.5.508,7.8,7.8,0,0,1,1.754.578,2.558,2.558,0,0,1,1,.809,1.988,1.988,0,0,1,.324,1.152,2.163,2.163,0,0,1-.906,1.816,3.8,3.8,0,0,1-2.352.684A4.257,4.257,0,0,1,52.4,36a2.922,2.922,0,0,1-1.223-1,2.42,2.42,0,0,1-.441-1.395h1.445a1.5,1.5,0,0,0,.582,1.152,2.258,2.258,0,0,0,1.434.426,2.331,2.331,0,0,0,1.316-.332A1.02,1.02,0,0,0,56.005,33.958ZM60.9,36.2H59.458V27.747H60.9ZM59.341,25.5a.863.863,0,0,1,.215-.594.807.807,0,0,1,.637-.242.819.819,0,0,1,.641.242.854.854,0,0,1,.219.594.826.826,0,0,1-.219.586.834.834,0,0,1-.641.234.821.821,0,0,1-.637-.234A.834.834,0,0,1,59.341,25.5ZM62.833,31.9a4.993,4.993,0,0,1,.488-2.234,3.643,3.643,0,0,1,1.359-1.531,3.7,3.7,0,0,1,1.988-.539,3.565,3.565,0,0,1,2.793,1.2,4.6,4.6,0,0,1,1.066,3.18v.1a5.036,5.036,0,0,1-.473,2.215A3.589,3.589,0,0,1,68.7,35.809a3.743,3.743,0,0,1-2.02.547,3.556,3.556,0,0,1-2.785-1.2A4.575,4.575,0,0,1,62.833,32Zm1.453.172a3.616,3.616,0,0,0,.652,2.258,2.211,2.211,0,0,0,3.5-.012,3.955,3.955,0,0,0,.648-2.418,3.61,3.61,0,0,0-.66-2.254,2.1,2.1,0,0,0-1.754-.863,2.075,2.075,0,0,0-1.727.852A3.925,3.925,0,0,0,64.286,32.067ZM67.325,24.2h1.75l-2.094,2.3-1.164,0Zm6.383,3.547.047,1.063a3.08,3.08,0,0,1,2.531-1.219q2.68,0,2.7,3.023V36.2H77.544V30.606a1.946,1.946,0,0,0-.418-1.352,1.675,1.675,0,0,0-1.277-.437,2.086,2.086,0,0,0-1.234.375,2.546,2.546,0,0,0-.828.984V36.2H72.341V27.747Z" transform="translate(-9992.864 -6723.053)" fill="#12263f"/>
    <path id="Trazado_111521" data-name="Trazado 111521" d="M16.821,0A16.821,16.821,0,1,1,0,16.821,16.821,16.821,0,0,1,16.821,0Z" transform="translate(-9746.87 -6838.242)" fill="#fff"/>
    <path id="Trazado_111522" data-name="Trazado 111522" d="M1.9,0H-.742V-8.406l-2.594.758v-2l4.992-1.727H1.9Z" transform="translate(-9731.679 -6814.769)" fill="#419ca6"/>
    <path id="Trazado_111523" data-name="Trazado 111523" d="M16.821,0A16.821,16.821,0,1,1,0,16.821,16.821,16.821,0,0,1,16.821,0Z" transform="translate(-9530.113 -6679.778)" fill="#fff"/>
    <path id="Trazado_111524" data-name="Trazado 111524" d="M4,0H-3.937V-1.719L-.281-5.562A4.364,4.364,0,0,0,1.07-8.008,1.7,1.7,0,0,0,.75-9.125a1.144,1.144,0,0,0-.93-.383A1.158,1.158,0,0,0-1.156-9a2.1,2.1,0,0,0-.375,1.277H-4.172a3.736,3.736,0,0,1,.523-1.934A3.671,3.671,0,0,1-2.2-11.039a4.317,4.317,0,0,1,2.078-.5,4.246,4.246,0,0,1,2.84.852,3.04,3.04,0,0,1,1,2.445,3.551,3.551,0,0,1-.25,1.309A5.739,5.739,0,0,1,2.691-5.6a19.581,19.581,0,0,1-1.7,1.871l-1.469,1.7H4Z" transform="translate(-9514.922 -6656.304)" fill="#419ca6"/>
    <path id="Trazado_111525" data-name="Trazado 111525" d="M16.821,0A16.821,16.821,0,1,1,0,16.821,16.821,16.821,0,0,1,16.821,0Z" transform="translate(-9614.266 -6428.191)" fill="#fff"/>
    <path id="Trazado_111526" data-name="Trazado 111526" d="M-1.531-6.789H-.289A1.291,1.291,0,0,0,1.188-8.234a1.25,1.25,0,0,0-.352-.918,1.333,1.333,0,0,0-.992-.355,1.427,1.427,0,0,0-.91.3.93.93,0,0,0-.387.758H-4.086a2.7,2.7,0,0,1,.5-1.6,3.3,3.3,0,0,1,1.387-1.1A4.741,4.741,0,0,1-.25-11.539a4.658,4.658,0,0,1,2.984.867A2.883,2.883,0,0,1,3.82-8.289,2.4,2.4,0,0,1,3.371-6.9,3.2,3.2,0,0,1,2.063-5.844a3.058,3.058,0,0,1,1.422,1A2.623,2.623,0,0,1,4-3.2,2.935,2.935,0,0,1,2.828-.758,4.864,4.864,0,0,1-.25.156,5.045,5.045,0,0,1-2.324-.27a3.25,3.25,0,0,1-1.449-1.18,3.067,3.067,0,0,1-.492-1.715h2.648a1.185,1.185,0,0,0,.422.906,1.489,1.489,0,0,0,1.039.383A1.56,1.56,0,0,0,.953-2.262a1.293,1.293,0,0,0,.414-.988,1.511,1.511,0,0,0-.43-1.219A1.8,1.8,0,0,0-.25-4.828H-1.531Z" transform="translate(-9599.074 -6404.717)" fill="#419ca6"/>
    <path id="Trazado_111527" data-name="Trazado 111527" d="M16.821,0A16.821,16.821,0,1,1,0,16.821,16.821,16.821,0,0,1,16.821,0Z" transform="translate(-9880.984 -6428.191)" fill="#fff"/>
    <path id="Trazado_111528" data-name="Trazado 111528" d="M3.016-4.445H4.172v2.031H3.016V0H.383V-2.414h-4.4l-.156-1.609L.383-11.352v-.023H3.016Zm-4.68,0H.383v-3.5L.219-7.68Z" transform="translate(-9865.794 -6404.717)" fill="#419ca6"/>
    <path id="Trazado_111529" data-name="Trazado 111529" d="M16.821,0A16.821,16.821,0,1,1,0,16.821,16.821,16.821,0,0,1,16.821,0Z" transform="translate(-9960.515 -6680.845)" fill="#fff"/>
    <path id="Trazado_111530" data-name="Trazado 111530" d="M-3.781-5.556l.7-5.819H3.563v2.047H-.945L-1.2-7.068a3.105,3.105,0,0,1,.738-.29A3.368,3.368,0,0,1,.43-7.484a3.337,3.337,0,0,1,2.605,1,4.044,4.044,0,0,1,.91,2.816,4.037,4.037,0,0,1-.488,1.98A3.356,3.356,0,0,1,2.086-.32,4.329,4.329,0,0,1,0,.156,4.658,4.658,0,0,1-2.008-.285a3.6,3.6,0,0,1-1.469-1.21A2.94,2.94,0,0,1-4-3.232h2.641a1.494,1.494,0,0,0,.4.99,1.265,1.265,0,0,0,.945.366q1.328,0,1.328-1.965,0-1.817-1.625-1.817a1.622,1.622,0,0,0-1.375.593Z" transform="translate(-9945.324 -6657.371)" fill="#419ca6"/>
    <path id="Trazado_111531" data-name="Trazado 111531" d="M106,0A106,106,0,1,1,0,106,106,106,0,0,1,106,0Z" transform="translate(-9836 -6752)" fill="#f2884b"/>
    <path id="Trazado_111532" data-name="Trazado 111532" d="M30.034,19.211V25H25.921V7.938H32.73a7.93,7.93,0,0,1,3.463.721,5.431,5.431,0,0,1,2.332,2.051,5.6,5.6,0,0,1,.826,3.018,4.937,4.937,0,0,1-1.787,3.99,7.415,7.415,0,0,1-4.9,1.494Zm0-3.176h2.7a2.542,2.542,0,0,0,1.822-.6,2.221,2.221,0,0,0,.627-1.687,2.745,2.745,0,0,0-.645-1.91,2.282,2.282,0,0,0-1.758-.727H30.034Zm19-.141-1.3-.094a2.336,2.336,0,0,0-2.391,1.172V25H41.39V12.32h3.7l.129,1.629A3.058,3.058,0,0,1,48,12.086a3.851,3.851,0,0,1,1.1.141Zm.5,2.648a7.484,7.484,0,0,1,.738-3.381,5.28,5.28,0,0,1,2.121-2.279,6.388,6.388,0,0,1,3.246-.8,5.83,5.83,0,0,1,4.488,1.764,6.768,6.768,0,0,1,1.641,4.8v.141a6.566,6.566,0,0,1-1.646,4.705,5.846,5.846,0,0,1-4.459,1.74,5.912,5.912,0,0,1-4.348-1.623,6.348,6.348,0,0,1-1.77-4.4Zm3.949.246a4.718,4.718,0,0,0,.551,2.578,1.835,1.835,0,0,0,1.629.82q2.109,0,2.156-3.246v-.4q0-3.41-2.18-3.41-1.98,0-2.145,2.941Zm15.387,3.4a1.756,1.756,0,0,0,1.289-.451,1.654,1.654,0,0,0,.445-1.26h3.7A4.384,4.384,0,0,1,72.814,23.9a5.558,5.558,0,0,1-3.85,1.336A5.627,5.627,0,0,1,64.6,23.5a6.834,6.834,0,0,1-1.594-4.8v-.164a7.723,7.723,0,0,1,.709-3.393,5.162,5.162,0,0,1,2.045-2.262,6.1,6.1,0,0,1,3.164-.791,5.488,5.488,0,0,1,3.926,1.371,4.863,4.863,0,0,1,1.453,3.715H70.6a2.168,2.168,0,0,0-.48-1.512,1.658,1.658,0,0,0-1.289-.527q-1.535,0-1.793,1.957A13.809,13.809,0,0,0,66.96,18.8a5.424,5.424,0,0,0,.457,2.648A1.582,1.582,0,0,0,68.87,22.188Zm13.242,3.047a6.518,6.518,0,0,1-4.723-1.74,6.009,6.009,0,0,1-1.8-4.529v-.328a7.787,7.787,0,0,1,.721-3.434,5.274,5.274,0,0,1,2.1-2.3,6.35,6.35,0,0,1,3.281-.814,5.489,5.489,0,0,1,4.219,1.658,6.516,6.516,0,0,1,1.547,4.623V19.9H79.6a2.846,2.846,0,0,0,.926,1.676,2.755,2.755,0,0,0,1.852.609,3.549,3.549,0,0,0,2.93-1.312l1.8,2.133a5.045,5.045,0,0,1-2.092,1.623A7.069,7.069,0,0,1,82.112,25.234Zm-.445-10.1q-1.734,0-2.062,2.3h3.984v-.3a1.956,1.956,0,0,0-.48-1.471A1.912,1.912,0,0,0,81.667,15.133Zm14.016,6.3a.912.912,0,0,0-.527-.809,8.021,8.021,0,0,0-2-.633,9.138,9.138,0,0,1-2.437-.861,4.083,4.083,0,0,1-1.465-1.295,3.092,3.092,0,0,1-.5-1.746,3.5,3.5,0,0,1,1.441-2.877,5.938,5.938,0,0,1,3.773-1.131,6.579,6.579,0,0,1,4.031,1.137,3.555,3.555,0,0,1,1.523,2.988H95.554q0-1.523-1.605-1.523a1.591,1.591,0,0,0-1.043.346,1.07,1.07,0,0,0-.422.861A.982.982,0,0,0,93,16.75a4.872,4.872,0,0,0,1.646.539,14.228,14.228,0,0,1,1.986.5q2.859.984,2.859,3.527a3.321,3.321,0,0,1-1.541,2.824,6.758,6.758,0,0,1-3.99,1.09,6.9,6.9,0,0,1-2.906-.586,4.86,4.86,0,0,1-1.992-1.594,3.609,3.609,0,0,1-.715-2.121h3.691a1.526,1.526,0,0,0,.586,1.283,2.41,2.41,0,0,0,1.441.4,1.9,1.9,0,0,0,1.213-.328A1.05,1.05,0,0,0,95.683,21.438Zm5.156-2.895a7.484,7.484,0,0,1,.738-3.381,5.28,5.28,0,0,1,2.121-2.279,6.388,6.388,0,0,1,3.246-.8,5.83,5.83,0,0,1,4.488,1.764,6.768,6.768,0,0,1,1.641,4.8v.141a6.566,6.566,0,0,1-1.646,4.705,5.846,5.846,0,0,1-4.459,1.74,5.912,5.912,0,0,1-4.348-1.623,6.348,6.348,0,0,1-1.77-4.4Zm3.949.246a4.718,4.718,0,0,0,.551,2.578,1.835,1.835,0,0,0,1.629.82q2.109,0,2.156-3.246v-.4q0-3.41-2.18-3.41-1.98,0-2.145,2.941Zm15.5-.223a7.746,7.746,0,0,1,1.3-4.746,4.282,4.282,0,0,1,3.633-1.734,3.641,3.641,0,0,1,2.859,1.336V7h3.961V25H128.5l-.2-1.359a3.739,3.739,0,0,1-3.094,1.594,4.274,4.274,0,0,1-3.586-1.734A7.991,7.991,0,0,1,120.292,18.566Zm3.949.246q0,3.375,1.969,3.375a1.944,1.944,0,0,0,1.875-1.1V16.258a1.892,1.892,0,0,0-1.852-1.125q-1.828,0-1.98,2.953Zm16.184,6.422a6.518,6.518,0,0,1-4.723-1.74,6.009,6.009,0,0,1-1.8-4.529v-.328a7.787,7.787,0,0,1,.721-3.434,5.274,5.274,0,0,1,2.1-2.3A6.35,6.35,0,0,1,140,12.086a5.489,5.489,0,0,1,4.219,1.658,6.516,6.516,0,0,1,1.547,4.623V19.9h-7.852a2.846,2.846,0,0,0,.926,1.676,2.755,2.755,0,0,0,1.852.609,3.549,3.549,0,0,0,2.93-1.312l1.8,2.133a5.045,5.045,0,0,1-2.092,1.623A7.069,7.069,0,0,1,140.425,25.234Zm-.445-10.1q-1.734,0-2.062,2.3H141.9v-.3a1.956,1.956,0,0,0-.48-1.471A1.912,1.912,0,0,0,139.98,15.133ZM47.489,37.968V41.12h2.086v2.742H47.489v5.8a1.481,1.481,0,0,0,.258,1,1.383,1.383,0,0,0,1.02.281,5.793,5.793,0,0,0,.984-.07v2.824a7.288,7.288,0,0,1-2.227.34,4.137,4.137,0,0,1-3.012-.961,3.939,3.939,0,0,1-.973-2.918V43.863H41.923V41.12H43.54V37.968Zm2.789,9.375a7.484,7.484,0,0,1,.738-3.381,5.28,5.28,0,0,1,2.121-2.279,6.388,6.388,0,0,1,3.246-.8,5.83,5.83,0,0,1,4.488,1.764,6.768,6.768,0,0,1,1.641,4.8v.141a6.566,6.566,0,0,1-1.646,4.705,5.846,5.846,0,0,1-4.459,1.74,5.912,5.912,0,0,1-4.348-1.623,6.348,6.348,0,0,1-1.77-4.4Zm3.949.246a4.718,4.718,0,0,0,.551,2.578,1.835,1.835,0,0,0,1.629.82q2.109,0,2.156-3.246v-.4q0-3.41-2.18-3.41-1.98,0-2.145,2.941ZM67.985,41.12l.129,1.488a4.36,4.36,0,0,1,3.621-1.723,3.21,3.21,0,0,1,3.246,1.91,4.22,4.22,0,0,1,3.727-1.91q3.855,0,3.961,4.664V53.8H78.708v-8a2.417,2.417,0,0,0-.328-1.418,1.4,1.4,0,0,0-1.2-.445,1.871,1.871,0,0,0-1.746,1.043l.012.164V53.8H71.489V45.82a2.541,2.541,0,0,0-.316-1.441,1.393,1.393,0,0,0-1.207-.445,1.894,1.894,0,0,0-1.734,1.043V53.8H64.282V41.12ZM92.067,53.8a4.459,4.459,0,0,1-.375-1.137,3.672,3.672,0,0,1-3.047,1.371A4.5,4.5,0,0,1,85.6,52.95a3.45,3.45,0,0,1-1.254-2.725,3.546,3.546,0,0,1,1.523-3.117,7.761,7.761,0,0,1,4.43-1.055h1.219v-.671q0-1.755-1.512-1.755a1.236,1.236,0,0,0-1.406,1.39H84.649a3.54,3.54,0,0,1,1.564-2.985,6.575,6.575,0,0,1,3.99-1.147,5.764,5.764,0,0,1,3.832,1.184,4.115,4.115,0,0,1,1.441,3.246v5.613a5.748,5.748,0,0,0,.539,2.672v.2Zm-2.473-2.578a2.2,2.2,0,0,0,1.225-.316,1.983,1.983,0,0,0,.7-.715V48.163H90.368q-2.062,0-2.062,1.852a1.131,1.131,0,0,0,.363.873A1.315,1.315,0,0,0,89.595,51.222Zm13.547-3.855a7.746,7.746,0,0,1,1.3-4.746,4.282,4.282,0,0,1,3.633-1.734,3.641,3.641,0,0,1,2.859,1.336V35.8H114.9v18h-3.551l-.2-1.359a3.739,3.739,0,0,1-3.094,1.594,4.274,4.274,0,0,1-3.586-1.734A7.991,7.991,0,0,1,103.142,47.366Zm3.949.246q0,3.375,1.969,3.375a1.944,1.944,0,0,0,1.875-1.1V45.058a1.892,1.892,0,0,0-1.852-1.125q-1.828,0-1.98,2.953Zm16.184,6.422a6.518,6.518,0,0,1-4.723-1.74,6.009,6.009,0,0,1-1.8-4.529v-.328A7.787,7.787,0,0,1,117.468,44a5.274,5.274,0,0,1,2.1-2.3,6.35,6.35,0,0,1,3.281-.814,5.489,5.489,0,0,1,4.219,1.658,6.516,6.516,0,0,1,1.547,4.623V48.7h-7.852a2.846,2.846,0,0,0,.926,1.676,2.755,2.755,0,0,0,1.852.609,3.549,3.549,0,0,0,2.93-1.312l1.8,2.133a5.045,5.045,0,0,1-2.092,1.623A7.069,7.069,0,0,1,123.274,54.034Zm-.445-10.1q-1.734,0-2.062,2.3h3.984v-.3a1.956,1.956,0,0,0-.48-1.471A1.912,1.912,0,0,0,122.829,43.933ZM27.6,76.166a7.746,7.746,0,0,1,1.3-4.746,4.282,4.282,0,0,1,3.633-1.734A3.641,3.641,0,0,1,35.4,71.022V64.6h3.961v18H35.806l-.2-1.359a3.739,3.739,0,0,1-3.094,1.594A4.274,4.274,0,0,1,28.927,81.1,7.991,7.991,0,0,1,27.6,76.166Zm3.949.246q0,3.375,1.969,3.375a1.944,1.944,0,0,0,1.875-1.1V73.858a1.892,1.892,0,0,0-1.852-1.125q-1.828,0-1.98,2.953Zm16.184,6.422a6.518,6.518,0,0,1-4.723-1.74,6.009,6.009,0,0,1-1.8-4.529v-.328a7.787,7.787,0,0,1,.721-3.434,5.274,5.274,0,0,1,2.1-2.3,6.35,6.35,0,0,1,3.281-.814,5.489,5.489,0,0,1,4.219,1.658,6.516,6.516,0,0,1,1.547,4.623V77.5H45.228a2.846,2.846,0,0,0,.926,1.676A2.755,2.755,0,0,0,48,79.788a3.549,3.549,0,0,0,2.93-1.312l1.8,2.133a5.045,5.045,0,0,1-2.092,1.623A7.069,7.069,0,0,1,47.735,82.834Zm-.445-10.1q-1.734,0-2.062,2.3h3.984v-.3a1.956,1.956,0,0,0-.48-1.471A1.912,1.912,0,0,0,47.29,72.733Zm12.738,7.055a1.756,1.756,0,0,0,1.289-.451,1.654,1.654,0,0,0,.445-1.26h3.7A4.384,4.384,0,0,1,63.972,81.5a5.558,5.558,0,0,1-3.85,1.336A5.627,5.627,0,0,1,55.763,81.1a6.834,6.834,0,0,1-1.594-4.8v-.164a7.723,7.723,0,0,1,.709-3.393,5.162,5.162,0,0,1,2.045-2.262,6.1,6.1,0,0,1,3.164-.791,5.488,5.488,0,0,1,3.926,1.371,4.863,4.863,0,0,1,1.453,3.715h-3.7a2.168,2.168,0,0,0-.48-1.512,1.658,1.658,0,0,0-1.289-.527q-1.535,0-1.793,1.957a13.809,13.809,0,0,0-.082,1.711,5.424,5.424,0,0,0,.457,2.648A1.582,1.582,0,0,0,60.028,79.788ZM71.3,82.6H67.341V69.92H71.3Zm-4.2-15.949a1.763,1.763,0,0,1,.609-1.383,2.591,2.591,0,0,1,3.164,0,1.874,1.874,0,0,1,0,2.766,2.591,2.591,0,0,1-3.164,0A1.763,1.763,0,0,1,67.107,66.651ZM80.372,79.038a.912.912,0,0,0-.527-.809,8.021,8.021,0,0,0-2-.633,9.138,9.138,0,0,1-2.437-.861,4.083,4.083,0,0,1-1.465-1.295,3.092,3.092,0,0,1-.5-1.746,3.5,3.5,0,0,1,1.441-2.877,5.938,5.938,0,0,1,3.773-1.131,6.579,6.579,0,0,1,4.031,1.137A3.555,3.555,0,0,1,84.2,73.811H80.243q0-1.523-1.605-1.523a1.591,1.591,0,0,0-1.043.346,1.07,1.07,0,0,0-.422.861.982.982,0,0,0,.516.855,4.872,4.872,0,0,0,1.646.539,14.228,14.228,0,0,1,1.986.5q2.859.984,2.859,3.527a3.321,3.321,0,0,1-1.541,2.824,6.758,6.758,0,0,1-3.99,1.09,6.9,6.9,0,0,1-2.906-.586,4.86,4.86,0,0,1-1.992-1.594,3.609,3.609,0,0,1-.715-2.121h3.691a1.526,1.526,0,0,0,.586,1.283,2.41,2.41,0,0,0,1.441.4,1.9,1.9,0,0,0,1.213-.328A1.05,1.05,0,0,0,80.372,79.038Zm9.82,3.563H86.232V69.92h3.961ZM86,66.651a1.763,1.763,0,0,1,.609-1.383,2.591,2.591,0,0,1,3.164,0,1.874,1.874,0,0,1,0,2.766,2.591,2.591,0,0,1-3.164,0A1.763,1.763,0,0,1,86,66.651Zm6.129,9.492a7.484,7.484,0,0,1,.738-3.381,5.28,5.28,0,0,1,2.121-2.279,6.388,6.388,0,0,1,3.246-.8,5.83,5.83,0,0,1,4.488,1.764,6.768,6.768,0,0,1,1.641,4.8v.141a6.566,6.566,0,0,1-1.646,4.705,5.846,5.846,0,0,1-4.459,1.74,5.912,5.912,0,0,1-4.348-1.623,6.348,6.348,0,0,1-1.77-4.4Zm3.949.246a4.718,4.718,0,0,0,.551,2.578,1.835,1.835,0,0,0,1.629.82q2.109,0,2.156-3.246v-.4q0-3.41-2.18-3.41-1.98,0-2.145,2.941Zm13.652-6.469.129,1.488a4.3,4.3,0,0,1,3.621-1.723,3.618,3.618,0,0,1,2.959,1.184,5.635,5.635,0,0,1,1.014,3.563V82.6h-3.961v-8a2.14,2.14,0,0,0-.387-1.412,1.789,1.789,0,0,0-1.406-.451,1.883,1.883,0,0,0-1.723.914V82.6h-3.949V69.92Zm16.043,12.914a6.518,6.518,0,0,1-4.723-1.74,6.009,6.009,0,0,1-1.8-4.529v-.328a7.787,7.787,0,0,1,.721-3.434,5.274,5.274,0,0,1,2.1-2.3,6.35,6.35,0,0,1,3.281-.814,5.489,5.489,0,0,1,4.219,1.658,6.516,6.516,0,0,1,1.547,4.623V77.5h-7.852a2.846,2.846,0,0,0,.926,1.676,2.755,2.755,0,0,0,1.852.609,3.549,3.549,0,0,0,2.93-1.312l1.8,2.133a5.045,5.045,0,0,1-2.092,1.623A7.069,7.069,0,0,1,125.771,82.834Zm-.445-10.1q-1.734,0-2.062,2.3h3.984v-.3a1.956,1.956,0,0,0-.48-1.471A1.912,1.912,0,0,0,125.325,72.733Zm14.016,6.3a.912.912,0,0,0-.527-.809,8.021,8.021,0,0,0-2-.633,9.138,9.138,0,0,1-2.437-.861,4.083,4.083,0,0,1-1.465-1.295,3.092,3.092,0,0,1-.5-1.746,3.5,3.5,0,0,1,1.441-2.877,5.938,5.938,0,0,1,3.773-1.131,6.579,6.579,0,0,1,4.031,1.137,3.555,3.555,0,0,1,1.523,2.988h-3.961q0-1.523-1.605-1.523a1.591,1.591,0,0,0-1.043.346,1.07,1.07,0,0,0-.422.861.982.982,0,0,0,.516.855,4.872,4.872,0,0,0,1.646.539,14.228,14.228,0,0,1,1.986.5q2.859.984,2.859,3.527a3.321,3.321,0,0,1-1.541,2.824,6.758,6.758,0,0,1-3.99,1.09,6.9,6.9,0,0,1-2.906-.586,4.86,4.86,0,0,1-1.992-1.594A3.609,3.609,0,0,1,132,78.534H135.7a1.526,1.526,0,0,0,.586,1.283,2.41,2.41,0,0,0,1.441.4,1.9,1.9,0,0,0,1.213-.328A1.05,1.05,0,0,0,139.341,79.038Z" transform="translate(-9813.026 -6686.261)" fill="#fff"/>
  </g>
</svg>
