<svg xmlns="http://www.w3.org/2000/svg" width="138" height="131.477" viewBox="0 0 138 131.477">
  <g id="Grupo_78684" data-name="Grupo 78684" transform="translate(-2186.855 -637.439)">
    <g id="Grupo_74513" data-name="Grupo 74513" transform="translate(2186.856 637.439)">
      <g id="Grupo_74508" data-name="Grupo 74508">
        <path id="Trazado_110893" data-name="Trazado 110893" d="M2197.335,739.177a10.489,10.489,0,0,1-10.479-10.479v-80.78a10.489,10.489,0,0,1,10.479-10.479h117.042a10.489,10.489,0,0,1,10.479,10.479V728.7a10.489,10.489,0,0,1-10.479,10.479Zm0-97.093a5.843,5.843,0,0,0-5.836,5.834V728.7a5.843,5.843,0,0,0,5.836,5.834h117.042a5.843,5.843,0,0,0,5.837-5.834v-80.78a5.843,5.843,0,0,0-5.837-5.834Z" transform="translate(-2186.856 -637.439)" fill="#fff"/>
      </g>
      <g id="Grupo_74509" data-name="Grupo 74509" transform="translate(26.414 97.093)">
        <path id="Trazado_110894" data-name="Trazado 110894" d="M2242.357,867.073a2.326,2.326,0,0,1-2.326-2.324V835.224a2.324,2.324,0,1,1,4.647,0v29.525A2.325,2.325,0,0,1,2242.357,867.073Z" transform="translate(-2240.031 -832.9)" fill="#fff"/>
      </g>
      <g id="Grupo_74510" data-name="Grupo 74510" transform="translate(106.938 97.093)">
        <path id="Trazado_110895" data-name="Trazado 110895" d="M2404.463,867.073a2.326,2.326,0,0,1-2.326-2.324V835.224a2.324,2.324,0,1,1,4.647,0v29.525A2.325,2.325,0,0,1,2404.463,867.073Z" transform="translate(-2402.137 -832.9)" fill="#fff"/>
      </g>
      <g id="Grupo_74511" data-name="Grupo 74511" transform="translate(92.177 126.832)">
        <path id="Trazado_110896" data-name="Trazado 110896" d="M2374.742,897.414a2.322,2.322,0,0,1,0-4.645h29.528a2.322,2.322,0,0,1,0,4.645Z" transform="translate(-2372.421 -892.769)" fill="#fff"/>
      </g>
      <g id="Grupo_74512" data-name="Grupo 74512" transform="translate(11.653 126.832)">
        <path id="Trazado_110897" data-name="Trazado 110897" d="M2212.635,897.414a2.322,2.322,0,0,1,0-4.645h29.528a2.322,2.322,0,0,1,0,4.645Z" transform="translate(-2210.314 -892.769)" fill="#fff"/>
      </g>
    </g>
    <g id="Grupo_74514" data-name="Grupo 74514" transform="translate(2263.911 667.512)">
      <path id="Trazado_110898" data-name="Trazado 110898" d="M2344.3,723.045a2.324,2.324,0,0,1-1.711-3.9l18.824-20.42a2.325,2.325,0,0,1,3.422,3.148l-18.824,20.42A2.339,2.339,0,0,1,2344.3,723.045Z" transform="translate(-2341.978 -697.98)" fill="#fff"/>
    </g>
    <g id="Grupo_74515" data-name="Grupo 74515" transform="translate(2241.361 681.874)">
      <path id="Trazado_110899" data-name="Trazado 110899" d="M2312.112,739.171a2.316,2.316,0,0,1-1.153-.31l-13.217-7.633a2.324,2.324,0,0,1,1.163-4.335,2.336,2.336,0,0,1,1.163.31l13.212,7.631a2.326,2.326,0,0,1-1.168,4.337Z" transform="translate(-2296.581 -726.893)" fill="#fff"/>
    </g>
    <g id="Grupo_74516" data-name="Grupo 74516" transform="translate(2209.211 683.04)">
      <path id="Trazado_110900" data-name="Trazado 110900" d="M2234.182,755.109a2.32,2.32,0,0,1-1.6-4.006l22.4-21.226a2.323,2.323,0,1,1,3.2,3.372l-22.4,21.224A2.289,2.289,0,0,1,2234.182,755.109Z" transform="translate(-2231.86 -729.24)" fill="#fff"/>
    </g>
    <g id="Grupo_74517" data-name="Grupo 74517" transform="translate(2230.357 673.132)">
      <path id="Trazado_110901" data-name="Trazado 110901" d="M2282.463,725.359a8.033,8.033,0,1,1,8.033-8.033A8.041,8.041,0,0,1,2282.463,725.359Zm0-11.42a3.388,3.388,0,1,0,3.39,3.388A3.391,3.391,0,0,0,2282.463,713.939Z" transform="translate(-2274.43 -709.294)" fill="#fff"/>
    </g>
    <g id="Grupo_74518" data-name="Grupo 74518" transform="translate(2254.002 686.819)">
      <path id="Trazado_110902" data-name="Trazado 110902" d="M2330.062,752.915a8.034,8.034,0,1,1,8.032-8.033A8.041,8.041,0,0,1,2330.062,752.915Zm0-11.423a3.389,3.389,0,1,0,3.39,3.39A3.39,3.39,0,0,0,2330.062,741.492Z" transform="translate(-2322.029 -736.847)" fill="#fff"/>
    </g>
    <g id="Grupo_74519" data-name="Grupo 74519" transform="translate(2281.193 657.283)">
      <path id="Trazado_110903" data-name="Trazado 110903" d="M2384.8,693.453a8.033,8.033,0,1,1,8.032-8.033A8.041,8.041,0,0,1,2384.8,693.453Zm0-11.421a3.388,3.388,0,1,0,3.385,3.388A3.395,3.395,0,0,0,2384.8,682.033Z" transform="translate(-2376.768 -677.388)" fill="#fff"/>
    </g>
    <g id="Grupo_74523" data-name="Grupo 74523" transform="translate(2202.256 654.994)">
      <g id="Grupo_74520" data-name="Grupo 74520" transform="translate(6.048)">
        <path id="Trazado_110904" data-name="Trazado 110904" d="M2232.36,739.327a2.326,2.326,0,0,1-2.326-2.321V675.1a2.324,2.324,0,1,1,4.647,0v59.846l87.274-.266a2.322,2.322,0,0,1,0,4.645Z" transform="translate(-2230.034 -672.779)" fill="#fff"/>
      </g>
      <g id="Grupo_74521" data-name="Grupo 74521" transform="translate(0 0.023)">
        <path id="Trazado_110905" data-name="Trazado 110905" d="M2232.278,683.5a2.3,2.3,0,0,1-1.643-.681l-4.59-4.592-4.22,4.592a2.323,2.323,0,0,1-3.286-3.284l6.051-6.048a2.375,2.375,0,0,1,3.28,0l6.051,6.048a2.323,2.323,0,0,1-1.643,3.965Z" transform="translate(-2217.859 -672.826)" fill="#fff"/>
      </g>
      <g id="Grupo_74522" data-name="Grupo 74522" transform="translate(89.598 55.855)">
        <path id="Trazado_110906" data-name="Trazado 110906" d="M2400.557,801.964a2.322,2.322,0,0,1-1.643-3.964l4.6-4.593-4.6-4.217a2.322,2.322,0,1,1,3.281-3.286l6.051,6.048a2.3,2.3,0,0,1,.678,1.643,2.327,2.327,0,0,1-.678,1.643l-6.051,6.045A2.3,2.3,0,0,1,2400.557,801.964Z" transform="translate(-2398.231 -785.223)" fill="#fff"/>
      </g>
    </g>
  </g>
</svg>
