<svg xmlns="http://www.w3.org/2000/svg" width="610" height="346.32" viewBox="0 0 610 346.32">
  <g id="Grupo_78720" data-name="Grupo 78720" transform="translate(2947.43 4696.55)">
    <path id="Trazado_111462" data-name="Trazado 111462" d="M312.476-3543.406s-38.371,74.548,7.829,163.972c52.494-31.528,76.64-68.774,76.64-79.689v-.093C396.944-3470.689,368.5-3512.538,312.476-3543.406Zm24.89,68.569A17.06,17.06,0,0,1,320.3-3491.9a17.058,17.058,0,0,1,17.061-17.052,17.058,17.058,0,0,1,17.061,17.052A17.06,17.06,0,0,1,337.366-3474.836Z" transform="translate(-2754.793 -1061.492)" fill="#f2884b" opacity="0.88"/>
    <path id="Trazado_111463" data-name="Trazado 111463" d="M-927.567-3512.675s-6.742,24.029-23.418,45.4c-5.6,7.127-13.408,17.648-26.219,33.066-34.813,41.873-53.067,39.587-53.067,39.587,14.64-3.323,35.632-49.53,41.708-83.112a90.643,90.643,0,0,1,12.214-32.382,90.712,90.712,0,0,1-12.214-32.382c-6.076-33.572-29.273-79.9-43.913-83.219,0,0,20.459-3,55.272,38.867,12.811,15.418,21.137,26.615,26.739,33.741h0c-4.681.356-.107-.142,0,0C-947.174-3548.771-929.136-3524.619-927.567-3512.675Z" transform="translate(-1914.955 -1009.486)" fill="#f2884b" opacity="0.88"/>
    <path id="Trazado_111533" data-name="Trazado 111533" d="M0,0H418.328V7.572H0Z" transform="translate(-2846.385 -4527.176)" fill="#f2884b" opacity="0.88"/>
    <path id="Trazado_111464" data-name="Trazado 111464" d="M-178.724-3416.765a5.363,5.363,0,0,1-4.788-3.649c-28.3-69.04-26.8-135.414-20.554-178.938,6.761-47.135,20.067-77.655,20.63-78.931,1.429-3.235,4.693-4.418,7.293-2.641s3.549,5.841,2.123,9.077h0c-.13.3-13.134,30.227-19.542,75.334-5.879,41.385-7.248,104.477,19.616,170.021,1.349,3.289.3,7.317-2.342,9A4.513,4.513,0,0,1-178.724-3416.765Z" transform="translate(-2435.698 -974.133)" fill="#f2884b" opacity="0.88"/>
    <path id="Trazado_111552" data-name="Trazado 111552" d="M28.836,0A28.836,28.836,0,1,1,0,28.836,28.836,28.836,0,0,1,28.836,0Z" transform="translate(-2642.613 -4696.55)" fill="#f26d3d" opacity="0.88"/>
    <path id="Trazado_111553" data-name="Trazado 111553" d="M26.09,0A26.09,26.09,0,1,1,0,26.09,26.09,26.09,0,0,1,26.09,0Z" transform="translate(-2639.867 -4693.804)" fill="#fff" opacity="0.88"/>
    <path id="Trazado_111554" data-name="Trazado 111554" d="M28.836,0A28.836,28.836,0,1,1,0,28.836,28.836,28.836,0,0,1,28.836,0Z" transform="translate(-2642.613 -4407.902)" fill="#f26d3d" opacity="0.88"/>
    <path id="Trazado_111555" data-name="Trazado 111555" d="M26.09,0A26.09,26.09,0,1,1,0,26.09,26.09,26.09,0,0,1,26.09,0Z" transform="translate(-2639.867 -4405.156)" fill="#fff" opacity="0.88"/>
    <path id="Trazado_111548" data-name="Trazado 111548" d="M28.836,0A28.836,28.836,0,1,1,0,28.836,28.836,28.836,0,0,1,28.836,0Z" transform="translate(-2666.742 -4555.758)" fill="#f26d3d" opacity="0.88"/>
    <path id="Trazado_111549" data-name="Trazado 111549" d="M26.09,0A26.09,26.09,0,1,1,0,26.09,26.09,26.09,0,0,1,26.09,0Z" transform="translate(-2663.996 -4553.012)" fill="#fff" opacity="0.88"/>
    <path id="Trazado_111465" data-name="Trazado 111465" d="M-213.376-3359.2a7.48,7.48,0,0,1-1.409,4.4,7.536,7.536,0,0,1-6.143,3.164,7.557,7.557,0,0,1-6.154-3.164,7.506,7.506,0,0,1-1.409-4.4,7.567,7.567,0,0,1,7.563-7.563A7.571,7.571,0,0,1-213.376-3359.2Z" transform="translate(-2422.637 -1173.034)" fill="#f2884b" opacity="0.88"/>
    <path id="Trazado_111466" data-name="Trazado 111466" d="M-216.262-3318.429v3.3h-23.2v-3.3a10.811,10.811,0,0,1,4.455-8.771,9.542,9.542,0,0,0,7.147,3.238,9.413,9.413,0,0,0,3.762-.782,8.117,8.117,0,0,0,.782-.376,9.242,9.242,0,0,0,2.6-2.079A10.812,10.812,0,0,1-216.262-3318.429Z" transform="translate(-2415.706 -1198.016)" fill="#f2884b" opacity="0.88"/>
    <path id="Trazado_111467" data-name="Trazado 111467" d="M-175.018-3374.085c-5.489,0-9.934,3.234-9.934,7.227a6.475,6.475,0,0,0,3.113,5.248l-1.353,2.894,4.775-1.353-.055-.022a13.043,13.043,0,0,0,3.454.462c5.49,0,9.945-3.234,9.945-7.228S-169.528-3374.085-175.018-3374.085Zm-4.661,8.917a1.651,1.651,0,0,1,0-3.3A1.651,1.651,0,0,1-179.679-3365.169Zm5.123-.076a1.651,1.651,0,0,1,0-3.3A1.651,1.651,0,0,1-174.556-3365.245Zm4.74-.153a1.651,1.651,0,0,1,0-3.3A1.651,1.651,0,0,1-169.816-3365.4Z" transform="translate(-2450.129 -1168.41)" fill="#f2884b" opacity="0.88"/>
    <path id="Trazado_111468" data-name="Trazado 111468" d="M-504.671-3406.335a5.37,5.37,0,0,1-4.788-2.931c-28.3-55.451-26.8-108.761-20.554-143.718,6.761-37.858,20.068-62.371,20.63-63.4a5.372,5.372,0,0,1,7.294-2.121,5.372,5.372,0,0,1,2.121,7.294c-.226.414-13.157,24.408-19.54,60.5-5.879,33.24-7.248,83.913,19.616,136.555a5.37,5.37,0,0,1-2.342,7.225A5.345,5.345,0,0,1-504.671-3406.335Z" transform="translate(-2229.877 -1013.653)" fill="#34d1d3" opacity="0.88"/>
    <path id="Trazado_111534" data-name="Trazado 111534" d="M28.836,0A28.836,28.836,0,1,1,0,28.836,28.836,28.836,0,0,1,28.836,0Z" transform="translate(-2761.116 -4659.447)" fill="#34d1d3" opacity="0.88"/>
    <path id="Trazado_111535" data-name="Trazado 111535" d="M26.09,0A26.09,26.09,0,1,1,0,26.09,26.09,26.09,0,0,1,26.09,0Z" transform="translate(-2758.37 -4656.701)" fill="#fff" opacity="0.88"/>
    <path id="Trazado_111536" data-name="Trazado 111536" d="M28.836,0A28.836,28.836,0,1,1,0,28.836,28.836,28.836,0,0,1,28.836,0Z" transform="translate(-2761.116 -4445.005)" fill="#34d1d3" opacity="0.88"/>
    <path id="Trazado_111537" data-name="Trazado 111537" d="M26.09,0A26.09,26.09,0,1,1,0,26.09,26.09,26.09,0,0,1,26.09,0Z" transform="translate(-2758.37 -4442.259)" fill="#fff" opacity="0.88"/>
    <path id="Trazado_111538" data-name="Trazado 111538" d="M28.836,0A28.836,28.836,0,1,1,0,28.836,28.836,28.836,0,0,1,28.836,0Z" transform="translate(-2788.26 -4555.758)" fill="#34d1d3" opacity="0.88"/>
    <path id="Trazado_111539" data-name="Trazado 111539" d="M26.09,0A26.09,26.09,0,1,1,0,26.09,26.09,26.09,0,0,1,26.09,0Z" transform="translate(-2785.514 -4553.012)" fill="#fff" opacity="0.88"/>
    <path id="Trazado_111540" data-name="Trazado 111540" d="M0,0H14.281V2.1H0Z" transform="translate(-2766.676 -4514.714)" fill="#34d1d3" opacity="0.88"/>
    <path id="Trazado_111469" data-name="Trazado 111469" d="M-526.844-3283.38s0,2.915-5.368,2.915-5.592-2.915-5.592-2.915Z" transform="translate(-2227.318 -1225.687)" fill="#34d1d3" opacity="0.88"/>
    <path id="Trazado_111541" data-name="Trazado 111541" d="M0,0H11.143V2.405H0Z" transform="translate(-2765.306 -4512.021)" fill="#34d1d3" opacity="0.88"/>
    <path id="Trazado_111470" data-name="Trazado 111470" d="M-531.515-3372.514a12.8,12.8,0,0,1-3.926,9.247l-3.154,8.953h-2.477q1.541-8.16,3.074-16.328c.279-1.5-1.776-1.689-2.055-.207-.064.327-.119.645-.183.972a16.6,16.6,0,0,0-8.826.263c-.08-.414-.151-.82-.231-1.234-.279-1.482-2.334-1.29-2.047.207.167.884.335,1.776.5,2.66q1.278,6.834,2.573,13.668h-1.888l-3.154-8.953a12.8,12.8,0,0,1-3.927-9.247,12.862,12.862,0,0,1,12.864-12.856A12.86,12.86,0,0,1-531.515-3372.514Z" transform="translate(-2215.049 -1161.284)" fill="#34d1d3" opacity="0.88"/>
    <path id="Trazado_111471" data-name="Trazado 111471" d="M-525.908-3337.7q-1.242,6.607-2.485,13.222h-3.019q-1.218-6.464-2.437-12.935A14.47,14.47,0,0,1-525.908-3337.7Z" transform="translate(-2229.816 -1191.12)" fill="#34d1d3" opacity="0.88"/>
    <path id="Trazado_111472" data-name="Trazado 111472" d="M150.958-3406.334a5.369,5.369,0,0,1-4.788-2.931c-28.3-55.452-26.8-108.761-20.554-143.719,6.761-37.858,20.067-62.371,20.63-63.4a5.372,5.372,0,0,1,7.293-2.121,5.37,5.37,0,0,1,2.121,7.294c-.226.414-13.156,24.409-19.539,60.5-5.879,33.24-7.248,83.913,19.616,136.556a5.369,5.369,0,0,1-2.342,7.225A5.341,5.341,0,0,1,150.958-3406.334Z" transform="translate(-2643.878 -1013.653)" fill="#00b8c7" opacity="0.88"/>
    <path id="Trazado_111565" data-name="Trazado 111565" d="M28.836,0A28.836,28.836,0,1,1,0,28.836,28.836,28.836,0,0,1,28.836,0Z" transform="translate(-2522.002 -4659.447)" fill="#00b8c7" opacity="0.88"/>
    <path id="Trazado_111566" data-name="Trazado 111566" d="M26.09,0A26.09,26.09,0,1,1,0,26.09,26.09,26.09,0,0,1,26.09,0Z" transform="translate(-2519.256 -4656.701)" fill="#fff" opacity="0.88"/>
    <path id="Trazado_111567" data-name="Trazado 111567" d="M28.836,0A28.836,28.836,0,1,1,0,28.836,28.836,28.836,0,0,1,28.836,0Z" transform="translate(-2522.002 -4445.005)" fill="#00b8c7" opacity="0.88"/>
    <path id="Trazado_111568" data-name="Trazado 111568" d="M26.09,0A26.09,26.09,0,1,1,0,26.09,26.09,26.09,0,0,1,26.09,0Z" transform="translate(-2519.256 -4442.259)" fill="#fff" opacity="0.88"/>
    <path id="Trazado_111560" data-name="Trazado 111560" d="M28.836,0A28.836,28.836,0,1,1,0,28.836,28.836,28.836,0,0,1,28.836,0Z" transform="translate(-2545.225 -4555.758)" fill="#00b8c7" opacity="0.88"/>
    <path id="Trazado_111561" data-name="Trazado 111561" d="M26.09,0A26.09,26.09,0,1,1,0,26.09,26.09,26.09,0,0,1,26.09,0Z" transform="translate(-2542.479 -4553.012)" fill="#fff" opacity="0.88"/>
    <path id="Trazado_111473" data-name="Trazado 111473" d="M127.728-3365.219a13.094,13.094,0,0,0-.593-3.909,13.142,13.142,0,0,0-12.48-9.241h-.077a13.144,13.144,0,0,0-12.727,9.864,13.222,13.222,0,0,0-.415,3.286,13.1,13.1,0,0,0,5.894,10.956l-1.447,12.419,8.695-4.163,8.7,4.163-1.447-12.419A13.1,13.1,0,0,0,127.728-3365.219Zm-8.441,1.523.839,4.863.277,1.624-3.085-1.624-2.739-1.439-2.739,1.439-3.085,1.624.277-1.624.839-4.863-4.709-4.586,6.509-.947,2.909-5.9,2.916,5.9,6.509.947Z" transform="translate(-2630.972 -1165.705)" fill="#00b8c7" opacity="0.88"/>
    <path id="Trazado_111546" data-name="Trazado 111546" d="M16.216,0a7.052,7.052,0,0,1-.637-2.131,7.683,7.683,0,0,1-6,2.571A8.441,8.441,0,0,1,3.79-1.582a6.5,6.5,0,0,1-2.3-5.1,6.719,6.719,0,0,1,2.8-5.8q2.8-2.021,8.1-2.043h2.922v-1.362a3.918,3.918,0,0,0-.846-2.637,3.328,3.328,0,0,0-2.67-.989,3.783,3.783,0,0,0-2.516.769,2.613,2.613,0,0,0-.912,2.109H2.021A6.379,6.379,0,0,1,3.3-20.457a8.424,8.424,0,0,1,3.6-2.758,13.133,13.133,0,0,1,5.229-1,10.376,10.376,0,0,1,6.976,2.208A7.725,7.725,0,0,1,21.687-15.8V-5.493a11.366,11.366,0,0,0,.945,5.12V0ZM10.964-4.417a5.469,5.469,0,0,0,2.593-.626,4.113,4.113,0,0,0,1.758-1.681v-4.087H12.942q-4.768,0-5.076,3.3l-.022.374a2.542,2.542,0,0,0,.835,1.956A3.243,3.243,0,0,0,10.964-4.417Z" transform="translate(-2746.405 -4618.316)" fill="#34d1d3" opacity="0.88"/>
    <path id="Trazado_111547" data-name="Trazado 111547" d="M23.862-11.667q0,5.713-2.439,8.91a8.079,8.079,0,0,1-6.812,3.2A7.423,7.423,0,0,1,8.438-2.527L8.152,0H2.439V-33.75h6.35v12.107a7.232,7.232,0,0,1,5.779-2.571,8.146,8.146,0,0,1,6.823,3.2q2.472,3.2,2.472,9Zm-6.35-.461a9.458,9.458,0,0,0-1.143-5.262,3.864,3.864,0,0,0-3.406-1.659,4.189,4.189,0,0,0-4.175,2.483v9.382a4.245,4.245,0,0,0,4.219,2.5,3.92,3.92,0,0,0,4.043-3.032A15.642,15.642,0,0,0,17.512-12.129Z" transform="translate(-2746.564 -4402.688)" fill="#34d1d3" opacity="0.88"/>
    <path id="Trazado_111559" data-name="Trazado 111559" d="M12.327-4.68a4.165,4.165,0,0,0,2.856-.967,3.387,3.387,0,0,0,1.143-2.571H22.28A8.145,8.145,0,0,1,20.962-3.79,8.7,8.7,0,0,1,17.413-.67,11.106,11.106,0,0,1,12.437.439,10.321,10.321,0,0,1,4.395-2.8Q1.45-6.042,1.45-11.755v-.417A12.678,12.678,0,0,1,4.373-20.94a10.2,10.2,0,0,1,8.02-3.274,10,10,0,0,1,7.152,2.538,8.986,8.986,0,0,1,2.736,6.757H16.326a4.364,4.364,0,0,0-1.143-3.015,3.81,3.81,0,0,0-2.9-1.16,3.825,3.825,0,0,0-3.351,1.617Q7.8-15.859,7.8-12.228v.66q0,3.675,1.121,5.282A3.873,3.873,0,0,0,12.327-4.68Z" transform="translate(-2628.214 -4658.268)" fill="#f2884b" opacity="0.88"/>
    <path id="Trazado_111556" data-name="Trazado 111556" d="M1.45-12.063q0-5.559,2.494-8.855a8.092,8.092,0,0,1,6.823-3.3A7.282,7.282,0,0,1,16.5-21.621V-33.75h6.372V0H17.139l-.308-2.527A7.473,7.473,0,0,1,10.723.439,8.07,8.07,0,0,1,3.988-2.867Q1.45-6.174,1.45-12.063Zm6.35.473A9.385,9.385,0,0,0,8.965-6.463,3.794,3.794,0,0,0,12.349-4.68,4.249,4.249,0,0,0,16.5-7.167v-9.4a4.188,4.188,0,0,0-4.109-2.487Q7.8-19.05,7.8-11.59Z" transform="translate(-2629.808 -4366.799)" fill="#f2884b" opacity="0.88"/>
    <path id="Trazado_111569" data-name="Trazado 111569" d="M13.381.439A11.671,11.671,0,0,1,4.867-2.769a11.4,11.4,0,0,1-3.285-8.547v-.615a14.362,14.362,0,0,1,1.384-6.405,10.159,10.159,0,0,1,3.922-4.351,11.008,11.008,0,0,1,5.79-1.527,9.867,9.867,0,0,1,7.679,3.076q2.8,3.076,2.8,8.723v2.593H8.02A5.9,5.9,0,0,0,9.877-6.086,5.613,5.613,0,0,0,13.8-4.68a6.854,6.854,0,0,0,5.735-2.659l3.12,3.494A9.533,9.533,0,0,1,18.787-.692,12.688,12.688,0,0,1,13.381.439Zm-.725-19.534a3.968,3.968,0,0,0-3.065,1.28A6.628,6.628,0,0,0,8.086-14.15h8.833v-.508a4.728,4.728,0,0,0-1.143-3.277A4.094,4.094,0,0,0,12.656-19.094Z" transform="translate(-2506.968 -4618.316)" fill="#00b8c7" opacity="0.88"/>
    <path id="Trazado_111571" data-name="Trazado 111571" d="M4.268,0V-19.541H.651V-24.3H4.268v-2.066a8.39,8.39,0,0,1,2.347-6.345,9.09,9.09,0,0,1,6.57-2.257,15.175,15.175,0,0,1,3.3.449l-.067,5.031a8.276,8.276,0,0,0-1.977-.2q-3.661,0-3.661,3.437V-24.3H15.61v4.762H10.781V0Z" transform="translate(-2503.243 -4401.688)" fill="#00b8c7" opacity="0.88"/>
    <path id="Trazado_111572" data-name="Trazado 111572" d="M13.381,0H62.126a13.381,13.381,0,0,1,0,26.763H13.381A13.381,13.381,0,0,1,13.381,0Z" transform="translate(-2412.937 -4500.832)" fill="#fff" opacity="0.88"/>
    <path id="Trazado_111562" data-name="Trazado 111562" d="M13.381,0H62.126a13.381,13.381,0,0,1,0,26.763H13.381A13.381,13.381,0,0,1,13.381,0Z" transform="translate(-2545.225 -4482.316)" fill="#fff" opacity="0.88"/>
    <path id="Trazado_111573" data-name="Trazado 111573" d="M4.758.156A4.15,4.15,0,0,1,1.73-.984,4.054,4.054,0,0,1,.563-4.023v-.219A5.106,5.106,0,0,1,1.055-6.52,3.612,3.612,0,0,1,2.449-8.066a3.914,3.914,0,0,1,2.059-.543,3.508,3.508,0,0,1,2.73,1.094,4.444,4.444,0,0,1,1,3.1v.922H2.852a2.1,2.1,0,0,0,.66,1.328,2,2,0,0,0,1.395.5,2.437,2.437,0,0,0,2.039-.945L8.055-1.367A3.389,3.389,0,0,1,6.68-.246,4.511,4.511,0,0,1,4.758.156ZM4.5-6.789a1.411,1.411,0,0,0-1.09.455,2.357,2.357,0,0,0-.535,1.3H6.016v-.181a1.681,1.681,0,0,0-.406-1.165A1.456,1.456,0,0,0,4.5-6.789ZM10.133,0V-6.8H8.875V-8.453h1.258v-.719a2.918,2.918,0,0,1,.816-2.207,3.162,3.162,0,0,1,2.285-.785,5.278,5.278,0,0,1,1.148.156l-.023,1.75a2.878,2.878,0,0,0-.687-.07q-1.273,0-1.273,1.2v.68h1.68V-6.8H12.4V0Zm9.008.156A4.15,4.15,0,0,1,16.113-.984a4.054,4.054,0,0,1-1.168-3.039v-.219a5.106,5.106,0,0,1,.492-2.277,3.612,3.612,0,0,1,1.395-1.547,3.914,3.914,0,0,1,2.059-.543,3.508,3.508,0,0,1,2.73,1.094,4.444,4.444,0,0,1,1,3.1v.922H17.234a2.1,2.1,0,0,0,.66,1.328,2,2,0,0,0,1.395.5,2.437,2.437,0,0,0,2.039-.945l1.109,1.242A3.389,3.389,0,0,1,21.063-.246,4.511,4.511,0,0,1,19.141.156Zm-.258-6.945a1.411,1.411,0,0,0-1.09.455,2.357,2.357,0,0,0-.535,1.3H20.4v-.181a1.681,1.681,0,0,0-.406-1.165A1.456,1.456,0,0,0,18.883-6.789Zm8.531,5.125a1.481,1.481,0,0,0,1.016-.344,1.2,1.2,0,0,0,.406-.914h2.117a2.9,2.9,0,0,1-.469,1.574A3.093,3.093,0,0,1,29.223-.238a3.949,3.949,0,0,1-1.77.395A3.67,3.67,0,0,1,24.594-1,4.56,4.56,0,0,1,23.547-4.18v-.148a4.508,4.508,0,0,1,1.039-3.117,3.627,3.627,0,0,1,2.852-1.164,3.555,3.555,0,0,1,2.543.9,3.2,3.2,0,0,1,.973,2.4H28.836a1.551,1.551,0,0,0-.406-1.072A1.354,1.354,0,0,0,27.4-6.789a1.36,1.36,0,0,0-1.191.575,3.333,3.333,0,0,0-.4,1.866v.235a3.375,3.375,0,0,0,.4,1.878A1.377,1.377,0,0,0,27.414-1.664Zm7.531-8.867v2.078h1.445V-6.8H34.945v4.219a1.007,1.007,0,0,0,.18.672.9.9,0,0,0,.688.2,3.6,3.6,0,0,0,.664-.055V-.047a4.648,4.648,0,0,1-1.367.2,2.156,2.156,0,0,1-2.422-2.4V-6.8H31.453V-8.453h1.234v-2.078ZM37.063-4.3a5.013,5.013,0,0,1,.484-2.242A3.546,3.546,0,0,1,38.941-8.07a4.069,4.069,0,0,1,2.113-.539,3.849,3.849,0,0,1,2.793,1.047,4.2,4.2,0,0,1,1.207,2.844l.016.578A4.418,4.418,0,0,1,43.984-1.02,3.775,3.775,0,0,1,41.07.156a3.793,3.793,0,0,1-2.918-1.172A4.5,4.5,0,0,1,37.063-4.2Zm2.258.16A3.16,3.16,0,0,0,39.773-2.3a1.5,1.5,0,0,0,1.3.638,1.5,1.5,0,0,0,1.281-.63,3.457,3.457,0,0,0,.461-2.015,3.128,3.128,0,0,0-.461-1.831,1.5,1.5,0,0,0-1.3-.649,1.474,1.474,0,0,0-1.281.646A3.516,3.516,0,0,0,39.32-4.144Z" transform="translate(-2398.55 -4483.743)" fill="#f2884b" opacity="0.88"/>
    <path id="Trazado_111564" data-name="Trazado 111564" d="M4.383-1.664A1.481,1.481,0,0,0,5.4-2.008,1.2,1.2,0,0,0,5.8-2.922H7.922a2.9,2.9,0,0,1-.469,1.574A3.093,3.093,0,0,1,6.191-.238a3.949,3.949,0,0,1-1.77.395A3.67,3.67,0,0,1,1.563-1,4.56,4.56,0,0,1,.516-4.18v-.148A4.508,4.508,0,0,1,1.555-7.445,3.627,3.627,0,0,1,4.406-8.609a3.555,3.555,0,0,1,2.543.9,3.2,3.2,0,0,1,.973,2.4H5.8A1.551,1.551,0,0,0,5.4-6.377a1.354,1.354,0,0,0-1.031-.412,1.36,1.36,0,0,0-1.191.575,3.333,3.333,0,0,0-.4,1.866v.235a3.375,3.375,0,0,0,.4,1.878A1.377,1.377,0,0,0,4.383-1.664ZM14.109,0a2.507,2.507,0,0,1-.227-.758A2.732,2.732,0,0,1,11.75.156,3,3,0,0,1,9.691-.562a2.312,2.312,0,0,1-.816-1.812,2.389,2.389,0,0,1,1-2.062,4.915,4.915,0,0,1,2.879-.727h1.039v-.484a1.393,1.393,0,0,0-.3-.937,1.183,1.183,0,0,0-.949-.352,1.345,1.345,0,0,0-.895.273.929.929,0,0,0-.324.75H9.063a2.268,2.268,0,0,1,.453-1.359,3,3,0,0,1,1.281-.98,4.669,4.669,0,0,1,1.859-.355,3.689,3.689,0,0,1,2.48.785,2.747,2.747,0,0,1,.918,2.207v3.664a4.041,4.041,0,0,0,.336,1.82V0ZM12.242-1.57a1.945,1.945,0,0,0,.922-.223,1.462,1.462,0,0,0,.625-.6V-3.844h-.844q-1.7,0-1.8,1.172l-.008.133a.9.9,0,0,0,.3.7A1.153,1.153,0,0,0,12.242-1.57Zm10.609.711A2.831,2.831,0,0,1,20.539.156a2.67,2.67,0,0,1-2.074-.781,3.335,3.335,0,0,1-.73-2.289V-8.453h2.258v5.467q0,1.322,1.2,1.322a1.63,1.63,0,0,0,1.578-.8V-8.453h2.266V0H22.914ZM31.32-2.336a.727.727,0,0,0-.41-.652,4.659,4.659,0,0,0-1.316-.426q-3.016-.633-3.016-2.562a2.323,2.323,0,0,1,.934-1.879,3.766,3.766,0,0,1,2.441-.754,4.053,4.053,0,0,1,2.574.758,2.388,2.388,0,0,1,.965,1.969H31.234a1.092,1.092,0,0,0-.312-.8A1.322,1.322,0,0,0,29.945-7a1.351,1.351,0,0,0-.883.258.814.814,0,0,0-.312.656.7.7,0,0,0,.355.605,3.657,3.657,0,0,0,1.2.4,9.8,9.8,0,0,1,1.422.379A2.336,2.336,0,0,1,33.516-2.43a2.2,2.2,0,0,1-.992,1.871,4.28,4.28,0,0,1-2.562.715,4.47,4.47,0,0,1-1.887-.379,3.166,3.166,0,0,1-1.293-1.039,2.414,2.414,0,0,1-.469-1.426h2.141a1.179,1.179,0,0,0,.445.922,1.766,1.766,0,0,0,1.109.32,1.635,1.635,0,0,0,.98-.246A.766.766,0,0,0,31.32-2.336ZM39.867,0a2.507,2.507,0,0,1-.227-.758,2.732,2.732,0,0,1-2.133.914,3,3,0,0,1-2.059-.719,2.312,2.312,0,0,1-.816-1.812,2.389,2.389,0,0,1,1-2.062,4.915,4.915,0,0,1,2.879-.727h1.039v-.484a1.393,1.393,0,0,0-.3-.937,1.183,1.183,0,0,0-.949-.352,1.345,1.345,0,0,0-.895.273.929.929,0,0,0-.324.75H34.82a2.268,2.268,0,0,1,.453-1.359,3,3,0,0,1,1.281-.98,4.669,4.669,0,0,1,1.859-.355,3.689,3.689,0,0,1,2.48.785,2.747,2.747,0,0,1,.918,2.207v3.664a4.041,4.041,0,0,0,.336,1.82V0ZM38-1.57a1.945,1.945,0,0,0,.922-.223,1.462,1.462,0,0,0,.625-.6V-3.844H38.7q-1.7,0-1.8,1.172l-.008.133a.9.9,0,0,0,.3.7A1.153,1.153,0,0,0,38-1.57Z" transform="translate(-2529.535 -4464.03)" fill="#00b8c7" opacity="0.88"/>
    <path id="Trazado_111563" data-name="Trazado 111563" d="M13.381,0H62.126a13.381,13.381,0,0,1,0,26.763H13.381A13.381,13.381,0,0,1,13.381,0Z" transform="translate(-2540.997 -4593.223)" fill="#fff" opacity="0.88"/>
    <path id="Trazado_111570" data-name="Trazado 111570" d="M4.383-1.664A1.481,1.481,0,0,0,5.4-2.008,1.2,1.2,0,0,0,5.8-2.922H7.922a2.9,2.9,0,0,1-.469,1.574A3.093,3.093,0,0,1,6.191-.238a3.949,3.949,0,0,1-1.77.395A3.67,3.67,0,0,1,1.563-1,4.56,4.56,0,0,1,.516-4.18v-.148A4.508,4.508,0,0,1,1.555-7.445,3.627,3.627,0,0,1,4.406-8.609a3.555,3.555,0,0,1,2.543.9,3.2,3.2,0,0,1,.973,2.4H5.8A1.551,1.551,0,0,0,5.4-6.377a1.354,1.354,0,0,0-1.031-.412,1.36,1.36,0,0,0-1.191.575,3.333,3.333,0,0,0-.4,1.866v.235a3.375,3.375,0,0,0,.4,1.878A1.377,1.377,0,0,0,4.383-1.664ZM14.109,0a2.507,2.507,0,0,1-.227-.758A2.732,2.732,0,0,1,11.75.156,3,3,0,0,1,9.691-.562a2.312,2.312,0,0,1-.816-1.812,2.389,2.389,0,0,1,1-2.062,4.915,4.915,0,0,1,2.879-.727h1.039v-.484a1.393,1.393,0,0,0-.3-.937,1.183,1.183,0,0,0-.949-.352,1.345,1.345,0,0,0-.895.273.929.929,0,0,0-.324.75H9.063a2.268,2.268,0,0,1,.453-1.359,3,3,0,0,1,1.281-.98,4.669,4.669,0,0,1,1.859-.355,3.689,3.689,0,0,1,2.48.785,2.747,2.747,0,0,1,.918,2.207v3.664a4.041,4.041,0,0,0,.336,1.82V0ZM12.242-1.57a1.945,1.945,0,0,0,.922-.223,1.462,1.462,0,0,0,.625-.6V-3.844h-.844q-1.7,0-1.8,1.172l-.008.133a.9.9,0,0,0,.3.7A1.153,1.153,0,0,0,12.242-1.57Zm10.609.711A2.831,2.831,0,0,1,20.539.156a2.67,2.67,0,0,1-2.074-.781,3.335,3.335,0,0,1-.73-2.289V-8.453h2.258v5.467q0,1.322,1.2,1.322a1.63,1.63,0,0,0,1.578-.8V-8.453h2.266V0H22.914ZM31.32-2.336a.727.727,0,0,0-.41-.652,4.659,4.659,0,0,0-1.316-.426q-3.016-.633-3.016-2.562a2.323,2.323,0,0,1,.934-1.879,3.766,3.766,0,0,1,2.441-.754,4.053,4.053,0,0,1,2.574.758,2.388,2.388,0,0,1,.965,1.969H31.234a1.092,1.092,0,0,0-.312-.8A1.322,1.322,0,0,0,29.945-7a1.351,1.351,0,0,0-.883.258.814.814,0,0,0-.312.656.7.7,0,0,0,.355.605,3.657,3.657,0,0,0,1.2.4,9.8,9.8,0,0,1,1.422.379A2.336,2.336,0,0,1,33.516-2.43a2.2,2.2,0,0,1-.992,1.871,4.28,4.28,0,0,1-2.562.715,4.47,4.47,0,0,1-1.887-.379,3.166,3.166,0,0,1-1.293-1.039,2.414,2.414,0,0,1-.469-1.426h2.141a1.179,1.179,0,0,0,.445.922,1.766,1.766,0,0,0,1.109.32,1.635,1.635,0,0,0,.98-.246A.766.766,0,0,0,31.32-2.336ZM39.867,0a2.507,2.507,0,0,1-.227-.758,2.732,2.732,0,0,1-2.133.914,3,3,0,0,1-2.059-.719,2.312,2.312,0,0,1-.816-1.812,2.389,2.389,0,0,1,1-2.062,4.915,4.915,0,0,1,2.879-.727h1.039v-.484a1.393,1.393,0,0,0-.3-.937,1.183,1.183,0,0,0-.949-.352,1.345,1.345,0,0,0-.895.273.929.929,0,0,0-.324.75H34.82a2.268,2.268,0,0,1,.453-1.359,3,3,0,0,1,1.281-.98,4.669,4.669,0,0,1,1.859-.355,3.689,3.689,0,0,1,2.48.785,2.747,2.747,0,0,1,.918,2.207v3.664a4.041,4.041,0,0,0,.336,1.82V0ZM38-1.57a1.945,1.945,0,0,0,.922-.223,1.462,1.462,0,0,0,.625-.6V-3.844H38.7q-1.7,0-1.8,1.172l-.008.133a.9.9,0,0,0,.3.7A1.153,1.153,0,0,0,38-1.57Z" transform="translate(-2525.307 -4574.937)" fill="#00b8c7" opacity="0.88"/>
    <path id="Trazado_111550" data-name="Trazado 111550" d="M13.381,0H62.126a13.381,13.381,0,0,1,0,26.763H13.381A13.381,13.381,0,0,1,13.381,0Z" transform="translate(-2667.562 -4612.544)" fill="#fff" opacity="0.88"/>
    <path id="Trazado_111557" data-name="Trazado 111557" d="M4.383-1.664A1.481,1.481,0,0,0,5.4-2.008,1.2,1.2,0,0,0,5.8-2.922H7.922a2.9,2.9,0,0,1-.469,1.574A3.093,3.093,0,0,1,6.191-.238a3.949,3.949,0,0,1-1.77.395A3.67,3.67,0,0,1,1.563-1,4.56,4.56,0,0,1,.516-4.18v-.148A4.508,4.508,0,0,1,1.555-7.445,3.627,3.627,0,0,1,4.406-8.609a3.555,3.555,0,0,1,2.543.9,3.2,3.2,0,0,1,.973,2.4H5.8A1.551,1.551,0,0,0,5.4-6.377a1.354,1.354,0,0,0-1.031-.412,1.36,1.36,0,0,0-1.191.575,3.333,3.333,0,0,0-.4,1.866v.235a3.375,3.375,0,0,0,.4,1.878A1.377,1.377,0,0,0,4.383-1.664ZM14.109,0a2.507,2.507,0,0,1-.227-.758A2.732,2.732,0,0,1,11.75.156,3,3,0,0,1,9.691-.562a2.312,2.312,0,0,1-.816-1.812,2.389,2.389,0,0,1,1-2.062,4.915,4.915,0,0,1,2.879-.727h1.039v-.484a1.393,1.393,0,0,0-.3-.937,1.183,1.183,0,0,0-.949-.352,1.345,1.345,0,0,0-.895.273.929.929,0,0,0-.324.75H9.063a2.268,2.268,0,0,1,.453-1.359,3,3,0,0,1,1.281-.98,4.669,4.669,0,0,1,1.859-.355,3.689,3.689,0,0,1,2.48.785,2.747,2.747,0,0,1,.918,2.207v3.664a4.041,4.041,0,0,0,.336,1.82V0ZM12.242-1.57a1.945,1.945,0,0,0,.922-.223,1.462,1.462,0,0,0,.625-.6V-3.844h-.844q-1.7,0-1.8,1.172l-.008.133a.9.9,0,0,0,.3.7A1.153,1.153,0,0,0,12.242-1.57Zm10.609.711A2.831,2.831,0,0,1,20.539.156a2.67,2.67,0,0,1-2.074-.781,3.335,3.335,0,0,1-.73-2.289V-8.453h2.258v5.467q0,1.322,1.2,1.322a1.63,1.63,0,0,0,1.578-.8V-8.453h2.266V0H22.914ZM31.32-2.336a.727.727,0,0,0-.41-.652,4.659,4.659,0,0,0-1.316-.426q-3.016-.633-3.016-2.562a2.323,2.323,0,0,1,.934-1.879,3.766,3.766,0,0,1,2.441-.754,4.053,4.053,0,0,1,2.574.758,2.388,2.388,0,0,1,.965,1.969H31.234a1.092,1.092,0,0,0-.312-.8A1.322,1.322,0,0,0,29.945-7a1.351,1.351,0,0,0-.883.258.814.814,0,0,0-.312.656.7.7,0,0,0,.355.605,3.657,3.657,0,0,0,1.2.4,9.8,9.8,0,0,1,1.422.379A2.336,2.336,0,0,1,33.516-2.43a2.2,2.2,0,0,1-.992,1.871,4.28,4.28,0,0,1-2.562.715,4.47,4.47,0,0,1-1.887-.379,3.166,3.166,0,0,1-1.293-1.039,2.414,2.414,0,0,1-.469-1.426h2.141a1.179,1.179,0,0,0,.445.922,1.766,1.766,0,0,0,1.109.32,1.635,1.635,0,0,0,.98-.246A.766.766,0,0,0,31.32-2.336ZM39.867,0a2.507,2.507,0,0,1-.227-.758,2.732,2.732,0,0,1-2.133.914,3,3,0,0,1-2.059-.719,2.312,2.312,0,0,1-.816-1.812,2.389,2.389,0,0,1,1-2.062,4.915,4.915,0,0,1,2.879-.727h1.039v-.484a1.393,1.393,0,0,0-.3-.937,1.183,1.183,0,0,0-.949-.352,1.345,1.345,0,0,0-.895.273.929.929,0,0,0-.324.75H34.82a2.268,2.268,0,0,1,.453-1.359,3,3,0,0,1,1.281-.98,4.669,4.669,0,0,1,1.859-.355,3.689,3.689,0,0,1,2.48.785,2.747,2.747,0,0,1,.918,2.207v3.664a4.041,4.041,0,0,0,.336,1.82V0ZM38-1.57a1.945,1.945,0,0,0,.922-.223,1.462,1.462,0,0,0,.625-.6V-3.844H38.7q-1.7,0-1.8,1.172l-.008.133a.9.9,0,0,0,.3.7A1.153,1.153,0,0,0,38-1.57Z" transform="translate(-2651.871 -4594.258)" fill="#f2884b" opacity="0.88"/>
    <path id="Trazado_111551" data-name="Trazado 111551" d="M13.381,0H62.126a13.381,13.381,0,0,1,0,26.763H13.381A13.381,13.381,0,0,1,13.381,0Z" transform="translate(-2664.033 -4454.307)" fill="#fff" opacity="0.88"/>
    <path id="Trazado_111558" data-name="Trazado 111558" d="M4.383-1.664A1.481,1.481,0,0,0,5.4-2.008,1.2,1.2,0,0,0,5.8-2.922H7.922a2.9,2.9,0,0,1-.469,1.574A3.093,3.093,0,0,1,6.191-.238a3.949,3.949,0,0,1-1.77.395A3.67,3.67,0,0,1,1.563-1,4.56,4.56,0,0,1,.516-4.18v-.148A4.508,4.508,0,0,1,1.555-7.445,3.627,3.627,0,0,1,4.406-8.609a3.555,3.555,0,0,1,2.543.9,3.2,3.2,0,0,1,.973,2.4H5.8A1.551,1.551,0,0,0,5.4-6.377a1.354,1.354,0,0,0-1.031-.412,1.36,1.36,0,0,0-1.191.575,3.333,3.333,0,0,0-.4,1.866v.235a3.375,3.375,0,0,0,.4,1.878A1.377,1.377,0,0,0,4.383-1.664ZM14.109,0a2.507,2.507,0,0,1-.227-.758A2.732,2.732,0,0,1,11.75.156,3,3,0,0,1,9.691-.562a2.312,2.312,0,0,1-.816-1.812,2.389,2.389,0,0,1,1-2.062,4.915,4.915,0,0,1,2.879-.727h1.039v-.484a1.393,1.393,0,0,0-.3-.937,1.183,1.183,0,0,0-.949-.352,1.345,1.345,0,0,0-.895.273.929.929,0,0,0-.324.75H9.063a2.268,2.268,0,0,1,.453-1.359,3,3,0,0,1,1.281-.98,4.669,4.669,0,0,1,1.859-.355,3.689,3.689,0,0,1,2.48.785,2.747,2.747,0,0,1,.918,2.207v3.664a4.041,4.041,0,0,0,.336,1.82V0ZM12.242-1.57a1.945,1.945,0,0,0,.922-.223,1.462,1.462,0,0,0,.625-.6V-3.844h-.844q-1.7,0-1.8,1.172l-.008.133a.9.9,0,0,0,.3.7A1.153,1.153,0,0,0,12.242-1.57Zm10.609.711A2.831,2.831,0,0,1,20.539.156a2.67,2.67,0,0,1-2.074-.781,3.335,3.335,0,0,1-.73-2.289V-8.453h2.258v5.467q0,1.322,1.2,1.322a1.63,1.63,0,0,0,1.578-.8V-8.453h2.266V0H22.914ZM31.32-2.336a.727.727,0,0,0-.41-.652,4.659,4.659,0,0,0-1.316-.426q-3.016-.633-3.016-2.562a2.323,2.323,0,0,1,.934-1.879,3.766,3.766,0,0,1,2.441-.754,4.053,4.053,0,0,1,2.574.758,2.388,2.388,0,0,1,.965,1.969H31.234a1.092,1.092,0,0,0-.312-.8A1.322,1.322,0,0,0,29.945-7a1.351,1.351,0,0,0-.883.258.814.814,0,0,0-.312.656.7.7,0,0,0,.355.605,3.657,3.657,0,0,0,1.2.4,9.8,9.8,0,0,1,1.422.379A2.336,2.336,0,0,1,33.516-2.43a2.2,2.2,0,0,1-.992,1.871,4.28,4.28,0,0,1-2.562.715,4.47,4.47,0,0,1-1.887-.379,3.166,3.166,0,0,1-1.293-1.039,2.414,2.414,0,0,1-.469-1.426h2.141a1.179,1.179,0,0,0,.445.922,1.766,1.766,0,0,0,1.109.32,1.635,1.635,0,0,0,.98-.246A.766.766,0,0,0,31.32-2.336ZM39.867,0a2.507,2.507,0,0,1-.227-.758,2.732,2.732,0,0,1-2.133.914,3,3,0,0,1-2.059-.719,2.312,2.312,0,0,1-.816-1.812,2.389,2.389,0,0,1,1-2.062,4.915,4.915,0,0,1,2.879-.727h1.039v-.484a1.393,1.393,0,0,0-.3-.937,1.183,1.183,0,0,0-.949-.352,1.345,1.345,0,0,0-.895.273.929.929,0,0,0-.324.75H34.82a2.268,2.268,0,0,1,.453-1.359,3,3,0,0,1,1.281-.98,4.669,4.669,0,0,1,1.859-.355,3.689,3.689,0,0,1,2.48.785,2.747,2.747,0,0,1,.918,2.207v3.664a4.041,4.041,0,0,0,.336,1.82V0ZM38-1.57a1.945,1.945,0,0,0,.922-.223,1.462,1.462,0,0,0,.625-.6V-3.844H38.7q-1.7,0-1.8,1.172l-.008.133a.9.9,0,0,0,.3.7A1.153,1.153,0,0,0,38-1.57Z" transform="translate(-2648.343 -4436.021)" fill="#f2884b" opacity="0.88"/>
    <path id="Trazado_111542" data-name="Trazado 111542" d="M13.381,0H62.126a13.381,13.381,0,0,1,0,26.763H13.381A13.381,13.381,0,0,1,13.381,0Z" transform="translate(-2788.26 -4482.316)" fill="#fff" opacity="0.88"/>
    <path id="Trazado_111543" data-name="Trazado 111543" d="M4.383-1.664A1.481,1.481,0,0,0,5.4-2.008,1.2,1.2,0,0,0,5.8-2.922H7.922a2.9,2.9,0,0,1-.469,1.574A3.093,3.093,0,0,1,6.191-.238a3.949,3.949,0,0,1-1.77.395A3.67,3.67,0,0,1,1.563-1,4.56,4.56,0,0,1,.516-4.18v-.148A4.508,4.508,0,0,1,1.555-7.445,3.627,3.627,0,0,1,4.406-8.609a3.555,3.555,0,0,1,2.543.9,3.2,3.2,0,0,1,.973,2.4H5.8A1.551,1.551,0,0,0,5.4-6.377a1.354,1.354,0,0,0-1.031-.412,1.36,1.36,0,0,0-1.191.575,3.333,3.333,0,0,0-.4,1.866v.235a3.375,3.375,0,0,0,.4,1.878A1.377,1.377,0,0,0,4.383-1.664ZM14.109,0a2.507,2.507,0,0,1-.227-.758A2.732,2.732,0,0,1,11.75.156,3,3,0,0,1,9.691-.562a2.312,2.312,0,0,1-.816-1.812,2.389,2.389,0,0,1,1-2.062,4.915,4.915,0,0,1,2.879-.727h1.039v-.484a1.393,1.393,0,0,0-.3-.937,1.183,1.183,0,0,0-.949-.352,1.345,1.345,0,0,0-.895.273.929.929,0,0,0-.324.75H9.063a2.268,2.268,0,0,1,.453-1.359,3,3,0,0,1,1.281-.98,4.669,4.669,0,0,1,1.859-.355,3.689,3.689,0,0,1,2.48.785,2.747,2.747,0,0,1,.918,2.207v3.664a4.041,4.041,0,0,0,.336,1.82V0ZM12.242-1.57a1.945,1.945,0,0,0,.922-.223,1.462,1.462,0,0,0,.625-.6V-3.844h-.844q-1.7,0-1.8,1.172l-.008.133a.9.9,0,0,0,.3.7A1.153,1.153,0,0,0,12.242-1.57Zm10.609.711A2.831,2.831,0,0,1,20.539.156a2.67,2.67,0,0,1-2.074-.781,3.335,3.335,0,0,1-.73-2.289V-8.453h2.258v5.467q0,1.322,1.2,1.322a1.63,1.63,0,0,0,1.578-.8V-8.453h2.266V0H22.914ZM31.32-2.336a.727.727,0,0,0-.41-.652,4.659,4.659,0,0,0-1.316-.426q-3.016-.633-3.016-2.562a2.323,2.323,0,0,1,.934-1.879,3.766,3.766,0,0,1,2.441-.754,4.053,4.053,0,0,1,2.574.758,2.388,2.388,0,0,1,.965,1.969H31.234a1.092,1.092,0,0,0-.312-.8A1.322,1.322,0,0,0,29.945-7a1.351,1.351,0,0,0-.883.258.814.814,0,0,0-.312.656.7.7,0,0,0,.355.605,3.657,3.657,0,0,0,1.2.4,9.8,9.8,0,0,1,1.422.379A2.336,2.336,0,0,1,33.516-2.43a2.2,2.2,0,0,1-.992,1.871,4.28,4.28,0,0,1-2.562.715,4.47,4.47,0,0,1-1.887-.379,3.166,3.166,0,0,1-1.293-1.039,2.414,2.414,0,0,1-.469-1.426h2.141a1.179,1.179,0,0,0,.445.922,1.766,1.766,0,0,0,1.109.32,1.635,1.635,0,0,0,.98-.246A.766.766,0,0,0,31.32-2.336ZM39.867,0a2.507,2.507,0,0,1-.227-.758,2.732,2.732,0,0,1-2.133.914,3,3,0,0,1-2.059-.719,2.312,2.312,0,0,1-.816-1.812,2.389,2.389,0,0,1,1-2.062,4.915,4.915,0,0,1,2.879-.727h1.039v-.484a1.393,1.393,0,0,0-.3-.937,1.183,1.183,0,0,0-.949-.352,1.345,1.345,0,0,0-.895.273.929.929,0,0,0-.324.75H34.82a2.268,2.268,0,0,1,.453-1.359,3,3,0,0,1,1.281-.98,4.669,4.669,0,0,1,1.859-.355,3.689,3.689,0,0,1,2.48.785,2.747,2.747,0,0,1,.918,2.207v3.664a4.041,4.041,0,0,0,.336,1.82V0ZM38-1.57a1.945,1.945,0,0,0,.922-.223,1.462,1.462,0,0,0,.625-.6V-3.844H38.7q-1.7,0-1.8,1.172l-.008.133a.9.9,0,0,0,.3.7A1.153,1.153,0,0,0,38-1.57Z" transform="translate(-2772.569 -4464.03)" fill="#00b8c7" opacity="0.88"/>
    <path id="Trazado_111544" data-name="Trazado 111544" d="M13.381,0H62.126a13.381,13.381,0,0,1,0,26.763H13.381A13.381,13.381,0,0,1,13.381,0Z" transform="translate(-2788.26 -4593.223)" fill="#fff" opacity="0.88"/>
    <path id="Trazado_111545" data-name="Trazado 111545" d="M4.383-1.664A1.481,1.481,0,0,0,5.4-2.008,1.2,1.2,0,0,0,5.8-2.922H7.922a2.9,2.9,0,0,1-.469,1.574A3.093,3.093,0,0,1,6.191-.238a3.949,3.949,0,0,1-1.77.395A3.67,3.67,0,0,1,1.563-1,4.56,4.56,0,0,1,.516-4.18v-.148A4.508,4.508,0,0,1,1.555-7.445,3.627,3.627,0,0,1,4.406-8.609a3.555,3.555,0,0,1,2.543.9,3.2,3.2,0,0,1,.973,2.4H5.8A1.551,1.551,0,0,0,5.4-6.377a1.354,1.354,0,0,0-1.031-.412,1.36,1.36,0,0,0-1.191.575,3.333,3.333,0,0,0-.4,1.866v.235a3.375,3.375,0,0,0,.4,1.878A1.377,1.377,0,0,0,4.383-1.664ZM14.109,0a2.507,2.507,0,0,1-.227-.758A2.732,2.732,0,0,1,11.75.156,3,3,0,0,1,9.691-.562a2.312,2.312,0,0,1-.816-1.812,2.389,2.389,0,0,1,1-2.062,4.915,4.915,0,0,1,2.879-.727h1.039v-.484a1.393,1.393,0,0,0-.3-.937,1.183,1.183,0,0,0-.949-.352,1.345,1.345,0,0,0-.895.273.929.929,0,0,0-.324.75H9.063a2.268,2.268,0,0,1,.453-1.359,3,3,0,0,1,1.281-.98,4.669,4.669,0,0,1,1.859-.355,3.689,3.689,0,0,1,2.48.785,2.747,2.747,0,0,1,.918,2.207v3.664a4.041,4.041,0,0,0,.336,1.82V0ZM12.242-1.57a1.945,1.945,0,0,0,.922-.223,1.462,1.462,0,0,0,.625-.6V-3.844h-.844q-1.7,0-1.8,1.172l-.008.133a.9.9,0,0,0,.3.7A1.153,1.153,0,0,0,12.242-1.57Zm10.609.711A2.831,2.831,0,0,1,20.539.156a2.67,2.67,0,0,1-2.074-.781,3.335,3.335,0,0,1-.73-2.289V-8.453h2.258v5.467q0,1.322,1.2,1.322a1.63,1.63,0,0,0,1.578-.8V-8.453h2.266V0H22.914ZM31.32-2.336a.727.727,0,0,0-.41-.652,4.659,4.659,0,0,0-1.316-.426q-3.016-.633-3.016-2.562a2.323,2.323,0,0,1,.934-1.879,3.766,3.766,0,0,1,2.441-.754,4.053,4.053,0,0,1,2.574.758,2.388,2.388,0,0,1,.965,1.969H31.234a1.092,1.092,0,0,0-.312-.8A1.322,1.322,0,0,0,29.945-7a1.351,1.351,0,0,0-.883.258.814.814,0,0,0-.312.656.7.7,0,0,0,.355.605,3.657,3.657,0,0,0,1.2.4,9.8,9.8,0,0,1,1.422.379A2.336,2.336,0,0,1,33.516-2.43a2.2,2.2,0,0,1-.992,1.871,4.28,4.28,0,0,1-2.562.715,4.47,4.47,0,0,1-1.887-.379,3.166,3.166,0,0,1-1.293-1.039,2.414,2.414,0,0,1-.469-1.426h2.141a1.179,1.179,0,0,0,.445.922,1.766,1.766,0,0,0,1.109.32,1.635,1.635,0,0,0,.98-.246A.766.766,0,0,0,31.32-2.336ZM39.867,0a2.507,2.507,0,0,1-.227-.758,2.732,2.732,0,0,1-2.133.914,3,3,0,0,1-2.059-.719,2.312,2.312,0,0,1-.816-1.812,2.389,2.389,0,0,1,1-2.062,4.915,4.915,0,0,1,2.879-.727h1.039v-.484a1.393,1.393,0,0,0-.3-.937,1.183,1.183,0,0,0-.949-.352,1.345,1.345,0,0,0-.895.273.929.929,0,0,0-.324.75H34.82a2.268,2.268,0,0,1,.453-1.359,3,3,0,0,1,1.281-.98,4.669,4.669,0,0,1,1.859-.355,3.689,3.689,0,0,1,2.48.785,2.747,2.747,0,0,1,.918,2.207v3.664a4.041,4.041,0,0,0,.336,1.82V0ZM38-1.57a1.945,1.945,0,0,0,.922-.223,1.462,1.462,0,0,0,.625-.6V-3.844H38.7q-1.7,0-1.8,1.172l-.008.133a.9.9,0,0,0,.3.7A1.153,1.153,0,0,0,38-1.57Z" transform="translate(-2772.569 -4574.937)" fill="#00b8c7" opacity="0.88"/>
  </g>
</svg>
