<svg xmlns="http://www.w3.org/2000/svg" width="464.69" height="216.989" viewBox="0 0 464.69 216.989">
  <g id="Grupo_78699" data-name="Grupo 78699" transform="translate(-3968.195 3367.345)">
    <rect id="Rectángulo_33243" data-name="Rectángulo 33243" width="464.69" height="1.29" rx="0.645" transform="translate(3968.195 -3151.645)" fill="#263252"/>
    <g id="Grupo_74749" data-name="Grupo 74749" transform="translate(3997.11 -3294.01)">
      <g id="Grupo_74746" data-name="Grupo 74746" transform="translate(9.002 28.348)">
        <path id="Trazado_111195" data-name="Trazado 111195" d="M4555.733-2432.334l1.547,1.256s4.232-1.517,5.187,3.511c0,0,.255,2.143-1.1,2.147a27.145,27.145,0,0,0-2.72-.178c-1.922.057-3.516-.957-3.8-2.517l-.919-1.322Z" transform="translate(-4509.559 2462.003)" fill="#ff8e4b"/>
        <path id="Trazado_111196" data-name="Trazado 111196" d="M4284.1-2611.164a3.164,3.164,0,0,0,1.135-2.241s-14.292-11.7-15.742-12.655a176.351,176.351,0,0,1-16.433-15.669c-2.44-2.822-5.463-1.727-8.922-.734l-2.848.817c-3.439.987-4.333,5.8-1.512,8.134,7.947,6.583,21.168,13.987,23.642,15.543,6.142,3.863,18.162,8.453,18.162,8.453A7.619,7.619,0,0,0,4284.1-2611.164Z" transform="translate(-4238.1 2643.529)" fill="#003b72"/>
      </g>
      <path id="Trazado_111197" data-name="Trazado 111197" d="M4653.706-1901.408a10.774,10.774,0,0,0,8.783,1.226s4.285-.976,5.225,1.161c0,0-6.572,3.339-8.234,4.251a19.907,19.907,0,0,0-3.486,2.614,1.724,1.724,0,0,1-2.5-.193c-.289-.356-.62-.779-.982-1.27-1.013-1.373-3.375-5.809-3.375-5.809Z" transform="translate(-4582.395 2034.011)" fill="#0c3563"/>
      <path id="Trazado_111198" data-name="Trazado 111198" d="M4368.955-2289.96s-2.112,4.87-6.987,3.975a136.078,136.078,0,0,1-16.772-16.75,37.906,37.906,0,0,1-5.212-8.145c-4.525-10.477-16.738-26.1-24.5-34.022l19.428-7.029s6.223,12.518,14.5,27.894C4355.379-2312.958,4362.412-2300.4,4368.955-2289.96Z" transform="translate(-4295.608 2421.243)" fill="#0d458d"/>
      <g id="Grupo_74747" data-name="Grupo 74747" transform="translate(21.19 7.055)">
        <path id="Trazado_111199" data-name="Trazado 111199" d="M4378.145-2763.333a23.323,23.323,0,0,0,.113-3.574,1.337,1.337,0,0,1,.771-1.276l5.737-2.663a1.31,1.31,0,0,0,.68-1.636l-1.98-5.445a1.275,1.275,0,0,0-1.5-.8l-5.659,1.389a1.311,1.311,0,0,1-1.431-.593,23.313,23.313,0,0,0-4.806-5.6,1.323,1.323,0,0,1-.326-1.591l1.564-3.184a1.324,1.324,0,0,0-.48-1.7l-4.852-3.075a1.314,1.314,0,0,0-1.749.314l-3.405,4.474a23.323,23.323,0,0,0-3.229-.581,23.315,23.315,0,0,0-4.36-.065,1.3,1.3,0,0,1-1.279-.743l-2.147-4.627a1.341,1.341,0,0,0-1.675-.7l-5.348,1.946a1.358,1.358,0,0,0-.854,1.6l1.161,4.73a1.315,1.315,0,0,1-.56,1.419,23.328,23.328,0,0,0-4.158,3.424,1.334,1.334,0,0,1-1.55.269l-5.165-2.538a1.331,1.331,0,0,0-1.711.482l-3.063,4.832a1.335,1.335,0,0,0,.319,1.777l5.029,3.828a1.311,1.311,0,0,1,.47,1.384,23.285,23.285,0,0,0-.66,3.532q-.1.964-.129,1.917a1.367,1.367,0,0,1-.789,1.206l-5.511,2.558a1.3,1.3,0,0,0-.675,1.626l1.957,5.379a1.361,1.361,0,0,0,1.6.856l4.484-1.1a1.325,1.325,0,0,1,1.5.676,23.327,23.327,0,0,0,4.248,5.807,1.341,1.341,0,0,1,.261,1.543l-2.288,4.658a1.364,1.364,0,0,0,.494,1.753l4.821,3.056a1.316,1.316,0,0,0,1.752-.314l3.34-4.389a1.357,1.357,0,0,1,1.463-.476,23.3,23.3,0,0,0,4.027.8q1.117.121,2.22.135a1.324,1.324,0,0,1,1.185.768l2.179,4.7a1.355,1.355,0,0,0,1.693.7l5.355-1.948a1.334,1.334,0,0,0,.84-1.572l-.927-3.774a1.331,1.331,0,0,1,.674-1.5,23.321,23.321,0,0,0,7.145-5.778,1.317,1.317,0,0,1,1.594-.339l4.179,2.053a1.327,1.327,0,0,0,1.706-.481l3.061-4.829a1.343,1.343,0,0,0-.321-1.788l-4.825-3.672a1.326,1.326,0,0,1-.5-1.307Q4378.038-2762.355,4378.145-2763.333Zm-18.152,9.142c-12.051,4.309-22.065-8.219-15.139-19.053a12.253,12.253,0,0,1,5.194-4.178c12.067-4.443,22.156,8.024,15.365,18.872A12.39,12.39,0,0,1,4359.992-2754.191Z" transform="translate(-4324.855 2795.098)" fill="#77cfd9"/>
      </g>
      <path id="Trazado_111200" data-name="Trazado 111200" d="M4349.412-2324.037l-4.216,21.3a37.906,37.906,0,0,1-5.212-8.145c-4.525-10.477-16.738-26.1-24.5-34.022l19.428-7.029S4341.132-2339.413,4349.412-2324.037Z" transform="translate(-4295.608 2421.243)" fill="#0c3563"/>
      <path id="Trazado_111201" data-name="Trazado 111201" d="M4401.207-1894.322s-.212,3.886,4.5,4.4c0,0,2.842.058,2.85,2.531h-13.842a10.643,10.643,0,0,1-.494-3.135c-.074-1.641,1.59-5.93,1.59-5.93Z" transform="translate(-4363.284 2029.751)" fill="#0c3563"/>
      <path id="Trazado_111202" data-name="Trazado 111202" d="M4292.943-2357.206s8.655,9.51,14.149,26.644c2.989,9.322-5.479,32.76-7.13,40.9,0,0-5.681.482-9.565-1.02,0,0-.3-16.819,1.977-29.783,1.271-7.255-11.4-15.517-16.931-28.625-3.766-8.918.815-8.767,6.445-8.981Z" transform="translate(-4260.015 2426.518)" fill="#0d458d"/>
      <path id="Trazado_111203" data-name="Trazado 111203" d="M4247.518-2725.766c-4.815,2.719-14.673.211-14.673.211a13.732,13.732,0,0,0,2.184-11.948l3.781,1.92,4.061,2.063a33.663,33.663,0,0,1,.445,3.64c.046.6.088,1.275.117,2.01A12.626,12.626,0,0,1,4247.518-2725.766Z" transform="translate(-4224.58 2752.649)" fill="#ffb079"/>
      <path id="Trazado_111204" data-name="Trazado 111204" d="M4242.978-2626.139c0,.846-.975,1.251-1.182,1.293-1.942.355-7.365,2.464-12.25,2.948a39.173,39.173,0,0,1-12.128-.821c-.556-.112-1.86-.463-1.952-1-.116-.582-16.185-32.756-3.693-46.577.293-.324,2.759.26,5.014.795a9.256,9.256,0,0,0,5.7-.466l2.115,1.113c2.6,1.447,7.51,6.588,8.085,10.622.292,2.052,1.465,3.571,1.8,5.375q.189,1,.386,1.955.383,1.87.791,3.561c.734,3.051,1.511,5.677,2.272,7.947.81,2.409,1.6,4.413,2.314,6.089.921,2.174,1.7,3.8,2.186,5.042A6.206,6.206,0,0,1,4242.978-2626.139Z" transform="translate(-4202.383 2694.96)" fill="#004d99"/>
      <path id="Trazado_111205" data-name="Trazado 111205" d="M4272.3-2561.449a63.132,63.132,0,0,1-30.538-31.206s18.428,6.8,22.974,8.568q.384,1.869.791,3.56c.734,3.051,1.51,5.678,2.271,7.947.811,2.409,1.605,4.413,2.315,6.089C4271.038-2564.317,4271.816-2562.693,4272.3-2561.449Z" transform="translate(-4232.248 2628.15)" fill="#003b72"/>
      <g id="Grupo_74748" data-name="Grupo 74748" transform="translate(6.474 29.362)">
        <path id="Trazado_111206" data-name="Trazado 111206" d="M4547.349-2415.369l1.96.719a4.192,4.192,0,0,1,6.369,1.738s.884,1.972-.516,2.4-.89.025-2.856.68-3.9.183-4.647-1.222l-1.332-.977Z" transform="translate(-4500.498 2446.515)" fill="#ffb079"/>
        <path id="Trazado_111207" data-name="Trazado 111207" d="M4268.567-2602.391c.724-1.891,1.055-2.747,1.055-2.747s-14.811-12.072-16.32-13.107c-1.028-.706-11.266-8.358-16.257-14.322a10.445,10.445,0,0,0-10.155-3.519l-3.109.652a4.624,4.624,0,0,0-2.061,8.036c8.2,7.031,22.035,15.186,24.614,16.882,6.4,4.211,20.565,10.112,20.565,10.112A3.647,3.647,0,0,0,4268.567-2602.391Z" transform="translate(-4220.102 2636.309)" fill="#004d99"/>
      </g>
      <path id="Trazado_111208" data-name="Trazado 111208" d="M4259.569-2718.132c-4.735.266-7.814-3.644-7.814-3.644a37.693,37.693,0,0,0,3.309-2.059l4.061,2.063A33.629,33.629,0,0,1,4259.569-2718.132Z" transform="translate(-4240.834 2740.901)" fill="#ff8e4b"/>
      <path id="Trazado_111209" data-name="Trazado 111209" d="M4234.381-2791.759s-7.175,5.149-10.312.632-6.177-6.9-1.728-10.374,6.545-2.379,7.959-1.126S4236.167-2793.215,4234.381-2791.759Z" transform="translate(-4213.628 2809.666)" fill="#ffb079"/>
      <path id="Trazado_111210" data-name="Trazado 111210" d="M4191.447-2842.36a11.583,11.583,0,0,0-.836-2.959s-.45,1.865-3.859,1.608-8.811.335-10.612,4.22c-.115.247-.216.5-.307.762a8.988,8.988,0,0,1-.4-2.152,6.629,6.629,0,0,0,0,3.764h0c-.01.061-.018.122-.026.183a7.579,7.579,0,0,0-1.384,2.613,2.368,2.368,0,0,1,1.274-1.133c-.015,3.022,1.211,5.977,3.362,6.857,3.146,1.286,3.121.3,6.284,2.4,0,0,.849-1.053.27-1.76s-2.765-1.736-1.543-2.766,1.672.129,2.122-.578-1.8-2.766,1.094-4.7S4191.7-2840.624,4191.447-2842.36Z" transform="translate(-4174.018 2845.319)" fill="#0c3563"/>
    </g>
    <g id="Grupo_74751" data-name="Grupo 74751" transform="translate(4312.384 -3291.109)">
      <path id="Trazado_111211" data-name="Trazado 111211" d="M6678.952-1889.291s.387,6.234,1.593,6.323c.16.012,6.117.012,6.117.012h7.612a2.51,2.51,0,0,0-2.281-2.264c-2.223-.387-5.943-1.949-7.289-4.887C6683.287-1893.2,6678.952-1889.291,6678.952-1889.291Z" transform="translate(-6642.327 2022.419)" fill="#003261"/>
      <path id="Trazado_111212" data-name="Trazado 111212" d="M6435.5-2347.709a52.141,52.141,0,0,0,3.635,5.8c4,5.631,8.354,10.273,9.112,14.662a21.634,21.634,0,0,0,.7,2.809c.316,1.005.708,2.062,1.16,3.155a100.4,100.4,0,0,0,6.77,12.906c4.381,7.239,8.5,13.279,8.5,13.279l7.555-.359c-.3-.844-3.6-10.84-8.005-23.055-1.79-4.958-3.693-10.233-5.529-15.32q-.367-1.018-.731-2.026c-.562-1.557-1.114-3.089-1.654-4.581-4.139-11.47-7.435-20.6-7.435-20.6s-16.542-6.988-18.26-2.46C6429.907-2359.767,6431.061-2356.109,6435.5-2347.709Z" transform="translate(-6428.996 2429.599)" fill="#039dae"/>
      <path id="Trazado_111213" data-name="Trazado 111213" d="M6549.436-1932.55s-2.767,2.565-2.227,4.387,3.037,3.037,3.375,5.264,1.687,3.442,2.9,3.442h5.792s.894-1.567-1.265-2.04-2.974-3.089-2.839-5.519a43.508,43.508,0,0,0-.2-5.669l-4.589-1.08Z" transform="translate(-6529.031 2058.921)" fill="#0c3563"/>
      <path id="Trazado_111214" data-name="Trazado 111214" d="M6456.963-2342.772s17.406,28.235,17.406,30.481c0,4.969-13.151,33.577-13.151,33.577s-6.981-3.688-6.7-6.277c0,0,4.188-20.083,5.407-23.311s-22-15.39-23.217-30.084Z" transform="translate(-6434.113 2410.47)" fill="#21b7c0"/>
      <path id="Trazado_111215" data-name="Trazado 111215" d="M6633.424-2446.125s3.59,2.042,4.595,2.041,4.95-.762,6.049-.2a12.851,12.851,0,0,1,3.463,3.561c.672,1.328-2.7.741-4.3-.39a1,1,0,0,0-.8-.165,7.9,7.9,0,0,1-3.372.185,59.956,59.956,0,0,0-6.985-.871Z" transform="translate(-6602.04 2499.304)" fill="#fa9960"/>
      <path id="Trazado_111216" data-name="Trazado 111216" d="M6447.233-2666.616s3.721,26.449,9.884,28.818c3.04,1.169,16.478,3.819,20.452,4.085,0,0,.974-.79.737-4.005,0,0-14.079-5.169-16.079-7.979-2.977-4.183,1.848-17.09-1.887-21.019S6450.314-2672.334,6447.233-2666.616Z" transform="translate(-6443.161 2691.993)" fill="#ff7e1c"/>
      <path id="Trazado_111217" data-name="Trazado 111217" d="M6469.905-2726.109c-4.974,1.286-13.221-3.323-13.221-3.323a12.207,12.207,0,0,0,4.389-6.88c.061-.238.114-.482.163-.733l2.555-.542,3.8,3.4a32.765,32.765,0,0,1-.562,3.843q-.123.636-.286,1.363A11.713,11.713,0,0,1,6469.905-2726.109Z" transform="translate(-6451.285 2749.82)" fill="#fa9960"/>
      <path id="Trazado_111218" data-name="Trazado 111218" d="M6418.378-2667.649c.712,9.583-.225,24.158.583,26.682.7,2.178,8.646.883,11.819.156,1.174-.269,2.6-.654,4.065-1.108,4.1-1.269,8.562-3.081,9.041-4.426a1.187,1.187,0,0,0,.044-.155,1.227,1.227,0,0,0-.009-.564,9.586,9.586,0,0,1-.847-3.125c-.081-1.9-.069-4.127-.14-6.527,0-.27-.008-.565-.037-.834v-.1c0-.052,0-.1,0-.153-.069-2.677-.209-5.49-.372-8.281-.1-1.753-.222-3.489-.36-5.151a68.831,68.831,0,0,0-1.477-10.524,16.892,16.892,0,0,0-5.429-8.38l-1.512-1.3a8.741,8.741,0,0,1-5.487-.731c-1.953-.927-2.627-1.592-2.967-1.341C6420.78-2690.027,6417.537-2679.365,6418.378-2667.649Z" transform="translate(-6418.245 2711.979)" fill="#ff973d"/>
      <path id="Trazado_111219" data-name="Trazado 111219" d="M6465.077-2552.255c4.1-1.269,8.563-3.081,9.041-4.425a1.181,1.181,0,0,0,.045-.155c0-.188,0-.376-.009-.564a9.571,9.571,0,0,1-.848-3.125c-.081-1.9-.068-4.127-.14-6.527,0-.27-.008-.565-.037-.834v-.1c0-.052,0-.1,0-.153l-16.565-21.1S6445.425-2566.054,6465.077-2552.255Z" transform="translate(-6448.477 2622.315)" fill="#ff7e1c"/>
      <path id="Trazado_111220" data-name="Trazado 111220" d="M6494.442-2734.182a32.718,32.718,0,0,1-.562,3.843,10.074,10.074,0,0,1-5.954-5.972c.06-.238.114-.482.163-.733l2.554-.542Z" transform="translate(-6478.137 2749.82)" fill="#eb8d5a"/>
      <path id="Trazado_111221" data-name="Trazado 111221" d="M6493.537-2786.137s-8.091-1.351-7.172-6.376.493-8.584,5.7-7.935,5.855,2.75,5.956,4.5S6495.666-2785.916,6493.537-2786.137Z" transform="translate(-6476.732 2803.917)" fill="#fa9960"/>
      <g id="Grupo_74750" data-name="Grupo 74750" transform="translate(28.757 42.099)">
        <rect id="Rectángulo_33244" data-name="Rectángulo 33244" width="0.75" height="19.645" transform="matrix(-0.951, -0.309, 0.309, -0.951, 20.609, 18.915)" fill="#2776ce"/>
        <rect id="Rectángulo_33245" data-name="Rectángulo 33245" width="20.615" height="1.233" transform="matrix(-1, -0.021, 0.021, -1, 20.61, 18.915)" fill="#2776ce"/>
      </g>
      <path id="Trazado_111222" data-name="Trazado 111222" d="M6625.885-2409.413s6.622,1.746,9.105,1.563,4.549-1.365,4.861-1.981.969-1.71-.722-1.508-4,.561-4.071.237,1.378-.294,1.378-.294.438-.637-.114-.66-2.161-.46-2.759-.161-1.149,1.4-1.586,1.357-5.542-2.3-5.542-2.3Z" transform="translate(-6596.715 2470.971)" fill="#fa9960"/>
      <path id="Trazado_111223" data-name="Trazado 111223" d="M6458.924-2655.141s.783,26.7,6.646,29.732c2.893,1.5,15.957,5.612,19.877,6.314,0,0,1.055-.678,1.174-3.9,0,0-13.422-6.689-15.1-9.7-2.5-4.486,3.721-16.782.441-21.1S6462.617-2660.485,6458.924-2655.141Z" transform="translate(-6453.209 2681.604)" fill="#ff973d"/>
      <path id="Trazado_111224" data-name="Trazado 111224" d="M6477.49-2811.162a3.828,3.828,0,0,1,.971-2.712s-.371-1.729.313-2.014.826,1.168,1.14.94a6.986,6.986,0,0,0,2.309-2.906c.6-1.6,6.075.337,6.714.624s2.69-.767,3.089-1.622a12,12,0,0,1-1.653-1.6c-.514-.684-4.1-5.3-9.119-3.99s-5.7,3.7-5.415,5.756S6475.436-2811.85,6477.49-2811.162Z" transform="translate(-6467.701 2824.67)" fill="#0d458d"/>
    </g>
    <g id="Grupo_74752" data-name="Grupo 74752" transform="translate(4137.303 -3324.603)">
      <path id="Trazado_111225" data-name="Trazado 111225" d="M5348.821-2958.16l-15.675-9.445a4.055,4.055,0,0,1-1.917-3.774q.24-2.905.239-5.871a68.1,68.1,0,0,0-.818-10.763,4,4,0,0,1,1.9-4.094l16.374-9.884a3.928,3.928,0,0,0,1.5-5.131l-7.708-15.7a3.884,3.884,0,0,0-4.792-1.937l-16.554,6.01a3.9,3.9,0,0,1-4.493-1.318,70.71,70.71,0,0,0-16.254-15.256,4.027,4.027,0,0,1-1.5-4.672l3.674-10.064a4.068,4.068,0,0,0-2-4.992l-15.595-7.628a3.562,3.562,0,0,0-.979-.339,3.9,3.9,0,0,0-4.153,1.837l-7.069,11.7-1.717,2.855a70.029,70.029,0,0,0-9.864-.7,70.966,70.966,0,0,0-13.139,1.218,3.9,3.9,0,0,1-4.093-1.817l-7.947-13.2a4.043,4.043,0,0,0-5.252-1.537l-12,5.89-3.435,1.7a4.1,4.1,0,0,0-2.056,5.072l5.012,13.838a3.9,3.9,0,0,1-1.2,4.433,70.181,70.181,0,0,0-10.563,10.663,12.445,12.445,0,0,0-.8.979,2.145,2.145,0,0,1-.279.319,3.991,3.991,0,0,1-4.313,1L5185-3024.694a2.946,2.946,0,0,0-.56-.16,4.059,4.059,0,0,0-4.413,2.157l-7.628,15.535a4.038,4.038,0,0,0,1.538,5.231l16.354,9.844a3.9,3.9,0,0,1,1.857,4.014,71.349,71.349,0,0,0-.819,10.823q0,2.936.24,5.811a4.113,4.113,0,0,1-1.977,3.854l-15.735,9.5a3.927,3.927,0,0,0-1.5,5.092l7.648,15.515a4.1,4.1,0,0,0,5.092,2.057l13.1-4.753a4.031,4.031,0,0,1,4.733,1.538,70.513,70.513,0,0,0,14.637,16.074,4.006,4.006,0,0,1,1.277,4.533l-5.351,14.737a4.143,4.143,0,0,0,2.056,5.112l15.476,7.608a3.961,3.961,0,0,0,5.152-1.518l.419-.679,8.207-13.6a4.049,4.049,0,0,1,4.213-1.9h.021a70.124,70.124,0,0,0,12.38,1.1c2.256,0,4.473-.12,6.689-.32a3.972,3.972,0,0,1,3.814,1.9l8.067,13.4a4.109,4.109,0,0,0,5.332,1.577l15.456-7.608a4.434,4.434,0,0,0,1.138-.839,4.092,4.092,0,0,0,.879-4.154l-4.034-11.042a4.087,4.087,0,0,1,.7-3.954,4.382,4.382,0,0,1,.839-.759,70.274,70.274,0,0,0,19.609-19.688,3.954,3.954,0,0,1,3.994-1.718,4.1,4.1,0,0,1,.659.18l13.239,4.812a4.023,4.023,0,0,0,4.973-2l.179-.359,7.448-15.136A4.094,4.094,0,0,0,5348.821-2958.16Zm-123.743-29.852a47.081,47.081,0,0,1,3.155-8.167c2.6-5.212,9.006-11.661,14.238-14.237.559-.28,1.118-.539,1.677-.8,34.226-15.375,67.232,18.231,50.639,52.476-2.176,4.473-6.988,9.725-11.681,12.979a24.98,24.98,0,0,1-3.195,1.877,43.437,43.437,0,0,1-14.158,4.193C5239.356-2936.755,5217.631-2961.016,5225.079-2988.013Z" transform="translate(-5171.962 3063.096)" fill="#77cfd9"/>
    </g>
    <g id="Grupo_74753" data-name="Grupo 74753" transform="translate(4276.253 -3190.241)">
      <path id="Trazado_111226" data-name="Trazado 111226" d="M6200.528-2083.244l-3.5-2.108a.9.9,0,0,1-.428-.842q.053-.649.053-1.31a15.229,15.229,0,0,0-.183-2.4.893.893,0,0,1,.423-.914l3.654-2.206a.877.877,0,0,0,.334-1.145l-1.72-3.5a.867.867,0,0,0-1.069-.432l-3.695,1.341a.87.87,0,0,1-1-.294,15.8,15.8,0,0,0-3.628-3.4.9.9,0,0,1-.334-1.043l.82-2.246a.908.908,0,0,0-.446-1.114l-3.48-1.7a.789.789,0,0,0-.218-.076.871.871,0,0,0-.927.41l-1.578,2.612-.384.637a15.592,15.592,0,0,0-2.2-.156,15.848,15.848,0,0,0-2.933.272.871.871,0,0,1-.914-.406l-1.773-2.946a.9.9,0,0,0-1.172-.343l-2.678,1.315-.767.379a.914.914,0,0,0-.459,1.132l1.118,3.088a.869.869,0,0,1-.267.989,15.713,15.713,0,0,0-2.358,2.38,2.8,2.8,0,0,0-.178.218.436.436,0,0,1-.062.071.891.891,0,0,1-.962.223l-3.65-1.324a.651.651,0,0,0-.125-.036.906.906,0,0,0-.985.481l-1.7,3.467a.9.9,0,0,0,.344,1.168l3.649,2.2a.872.872,0,0,1,.415.9,15.819,15.819,0,0,0-.183,2.415q0,.656.054,1.3a.919.919,0,0,1-.441.86l-3.512,2.121a.877.877,0,0,0-.334,1.137l1.707,3.463a.915.915,0,0,0,1.136.459l2.923-1.061a.9.9,0,0,1,1.057.343,15.746,15.746,0,0,0,3.267,3.587.894.894,0,0,1,.285,1.012l-1.194,3.289a.924.924,0,0,0,.459,1.141l3.454,1.7a.884.884,0,0,0,1.149-.339l.094-.152,1.832-3.035a.9.9,0,0,1,.94-.423h0a15.658,15.658,0,0,0,2.763.245c.5,0,1-.027,1.493-.071a.885.885,0,0,1,.851.423l1.8,2.99a.917.917,0,0,0,1.19.352l3.45-1.7a.99.99,0,0,0,.254-.187.914.914,0,0,0,.2-.927l-.9-2.464a.912.912,0,0,1,.155-.883.982.982,0,0,1,.188-.169,15.678,15.678,0,0,0,4.377-4.395.882.882,0,0,1,.891-.383.89.89,0,0,1,.147.04l2.955,1.074a.9.9,0,0,0,1.11-.446l.04-.08,1.662-3.378A.913.913,0,0,0,6200.528-2083.244Zm-27.617-6.663a10.484,10.484,0,0,1,.7-1.823,8.244,8.244,0,0,1,3.177-3.177c.125-.063.25-.121.375-.179a8.542,8.542,0,0,1,11.3,11.712,8.547,8.547,0,0,1-2.607,2.9,5.532,5.532,0,0,1-.713.419,9.688,9.688,0,0,1-3.16.936A8.461,8.461,0,0,1,6172.912-2089.907Z" transform="translate(-6161.057 2106.664)" fill="#ff973d"/>
    </g>
    <g id="Grupo_74754" data-name="Grupo 74754" transform="translate(4371.318 -3267.161)">
      <path id="Trazado_111227" data-name="Trazado 111227" d="M6896.912-2619.106l-5.243-3.159a1.357,1.357,0,0,1-.642-1.262q.081-.971.081-1.963a22.78,22.78,0,0,0-.274-3.6,1.339,1.339,0,0,1,.634-1.369l5.477-3.306a1.314,1.314,0,0,0,.5-1.717l-2.578-5.25a1.3,1.3,0,0,0-1.6-.648l-5.537,2.01a1.305,1.305,0,0,1-1.5-.441,23.645,23.645,0,0,0-5.437-5.1,1.346,1.346,0,0,1-.5-1.562l1.229-3.366a1.361,1.361,0,0,0-.668-1.67l-5.216-2.552a1.207,1.207,0,0,0-.328-.114,1.305,1.305,0,0,0-1.389.615l-2.364,3.914-.574.955a23.415,23.415,0,0,0-3.3-.234,23.747,23.747,0,0,0-4.395.407,1.3,1.3,0,0,1-1.369-.608l-2.658-4.415a1.352,1.352,0,0,0-1.757-.514l-4.014,1.97-1.149.568a1.371,1.371,0,0,0-.688,1.7l1.677,4.628a1.3,1.3,0,0,1-.4,1.482,23.486,23.486,0,0,0-3.533,3.567c-.1.107-.18.214-.267.327a.754.754,0,0,1-.094.107,1.335,1.335,0,0,1-1.442.334l-5.47-1.984a.951.951,0,0,0-.187-.053,1.357,1.357,0,0,0-1.476.721l-2.551,5.2a1.35,1.35,0,0,0,.515,1.75l5.47,3.293a1.306,1.306,0,0,1,.621,1.342,23.887,23.887,0,0,0-.274,3.62q0,.981.081,1.943a1.378,1.378,0,0,1-.661,1.289l-5.264,3.179a1.313,1.313,0,0,0-.5,1.7l2.559,5.189a1.372,1.372,0,0,0,1.7.688l4.381-1.59a1.348,1.348,0,0,1,1.583.514,23.609,23.609,0,0,0,4.9,5.376,1.339,1.339,0,0,1,.428,1.516l-1.79,4.929a1.386,1.386,0,0,0,.688,1.709l5.176,2.545a1.324,1.324,0,0,0,1.723-.508l.141-.227,2.745-4.548a1.353,1.353,0,0,1,1.409-.634h.007a23.476,23.476,0,0,0,4.141.367c.755,0,1.5-.04,2.237-.107a1.328,1.328,0,0,1,1.276.634l2.7,4.482a1.374,1.374,0,0,0,1.783.528l5.169-2.544a1.492,1.492,0,0,0,.381-.281,1.368,1.368,0,0,0,.294-1.389l-1.35-3.694a1.368,1.368,0,0,1,.234-1.322,1.489,1.489,0,0,1,.281-.254,23.5,23.5,0,0,0,6.559-6.585,1.323,1.323,0,0,1,1.336-.574,1.332,1.332,0,0,1,.22.06l4.428,1.61a1.345,1.345,0,0,0,1.663-.668l.06-.12,2.491-5.062A1.368,1.368,0,0,0,6896.912-2619.106Zm-41.389-9.985a15.835,15.835,0,0,1,1.055-2.732,12.363,12.363,0,0,1,4.763-4.762c.187-.093.374-.18.561-.267,11.448-5.143,22.488,6.1,16.938,17.552a12.8,12.8,0,0,1-3.907,4.341,8.228,8.228,0,0,1-1.068.628,14.528,14.528,0,0,1-4.735,1.4A12.68,12.68,0,0,1,6855.523-2629.091Z" transform="translate(-6837.756 2654.205)" fill="#e8f1f8"/>
    </g>
    <g id="Grupo_74755" data-name="Grupo 74755" transform="translate(4122.371 -3363.03)">
      <path id="Trazado_111228" data-name="Trazado 111228" d="M5126.178-3304.083l-5.553-2.576a1.356,1.356,0,0,1-.773-1.186q-.026-.974-.132-1.961a22.693,22.693,0,0,0-.661-3.549,1.34,1.34,0,0,1,.483-1.43l5.089-3.877a1.314,1.314,0,0,0,.313-1.76l-3.129-4.941a1.3,1.3,0,0,0-1.663-.471l-5.288,2.6a1.3,1.3,0,0,1-1.541-.276,23.656,23.656,0,0,0-5.955-4.487,1.348,1.348,0,0,1-.667-1.5l.859-3.479a1.361,1.361,0,0,0-.844-1.588l-5.461-1.974a1.2,1.2,0,0,0-.338-.078,1.305,1.305,0,0,0-1.314.761l-1.929,4.146-.469,1.011a23.36,23.36,0,0,0-3.3.123,23.746,23.746,0,0,0-4.326.879,1.3,1.3,0,0,1-1.426-.457l-3.119-4.1a1.352,1.352,0,0,0-1.8-.322l-3.778,2.391-1.081.688a1.369,1.369,0,0,0-.5,1.761l2.165,4.421a1.3,1.3,0,0,1-.238,1.517,23.473,23.473,0,0,0-3.128,3.927,4.02,4.02,0,0,0-.23.354.74.74,0,0,1-.082.116,1.335,1.335,0,0,1-1.4.488l-5.652-1.383a.987.987,0,0,0-.192-.033,1.358,1.358,0,0,0-1.39.876l-1.976,5.441a1.35,1.35,0,0,0,.7,1.684l5.793,2.684a1.305,1.305,0,0,1,.762,1.268,23.888,23.888,0,0,0,.118,3.628q.105.976.289,1.924a1.376,1.376,0,0,1-.519,1.353l-4.89,3.728a1.313,1.313,0,0,0-.314,1.747l3.1,4.884a1.373,1.373,0,0,0,1.768.5l4.185-2.052a1.348,1.348,0,0,1,1.629.341,23.582,23.582,0,0,0,5.446,4.817,1.339,1.339,0,0,1,.588,1.461l-1.248,5.093a1.387,1.387,0,0,0,.868,1.626l5.42,1.972a1.324,1.324,0,0,0,1.658-.69l.115-.241,2.238-4.818a1.355,1.355,0,0,1,1.333-.782h.006a23.5,23.5,0,0,0,4.157-.081c.75-.082,1.483-.2,2.213-.348a1.33,1.33,0,0,1,1.337.493l3.165,4.165a1.375,1.375,0,0,0,1.83.332l4.865-3.087a1.488,1.488,0,0,0,.348-.32,1.368,1.368,0,0,0,.143-1.413l-1.739-3.526a1.368,1.368,0,0,1,.09-1.34,1.478,1.478,0,0,1,.251-.283,23.49,23.49,0,0,0,5.811-7.254,1.322,1.322,0,0,1,1.266-.715,1.338,1.338,0,0,1,.226.036l4.576,1.123a1.345,1.345,0,0,0,1.581-.843l.047-.126,1.931-5.3A1.37,1.37,0,0,0,5126.178-3304.083Zm-42.224-5.466a15.718,15.718,0,0,1,.754-2.829,12.361,12.361,0,0,1,4.221-5.248c.176-.113.352-.22.529-.326,10.827-6.346,23.014,3.639,18.731,15.625a12.811,12.811,0,0,1-3.417,4.737,8.305,8.305,0,0,1-.995.739,14.516,14.516,0,0,1-4.557,1.9A12.679,12.679,0,0,1,5083.954-3309.549Z" transform="translate(-5065.666 3336.628)" fill="#e8f1f8"/>
    </g>
    <g id="Grupo_74759" data-name="Grupo 74759" transform="translate(4170.625 -3271.46)">
      <g id="Grupo_74756" data-name="Grupo 74756" transform="translate(0 0)">
        <path id="Trazado_111229" data-name="Trazado 111229" d="M5673.332-2054.876a1.149,1.149,0,0,1,.205,1.227.014.014,0,0,1,0,.006,7.626,7.626,0,0,1-2.409,2.643c-.146.117-.274.224-.387.323-.029.026-.059.052-.087.077l-.067.06c-1.059.977-.661,1.2-2.563,3.181-2.169,2.258-3.663,2.3-4.088,2.093-.359-.175.371-1.373,1.181-2.718.039-.065.078-.13.118-.2.108-.179.215-.361.322-.541.949-1.619.705-2.379.48-4.79-.183-1.958-3.047-10.942-3.047-10.942l4.158-.716s1.252,7.154,2.632,8.255c.737.587,1.563.594,2.272,1.03.05.03.1.062.147.093A5.452,5.452,0,0,1,5673.332-2054.876Z" transform="translate(-5627.326 2152.217)" fill="#fa9960"/>
        <path id="Trazado_111230" data-name="Trazado 111230" d="M5678.551-1998.067a1.147,1.147,0,0,1,.2,1.227.009.009,0,0,1,0,.006,8.825,8.825,0,0,1-2.414,2.635c-.143.119-.27.228-.382.331-.03.026-.06.052-.087.078l-.067.06c-1.059.976-.66,1.2-2.563,3.181-2.169,2.258-3.663,2.3-4.088,2.093-.359-.175.371-1.373,1.18-2.718a9.244,9.244,0,0,0,3.868-2.85c1.306-1.667,2.178-3.809,3.067-5.05.05.03.1.061.147.093A5.452,5.452,0,0,1,5678.551-1998.067Z" transform="translate(-5632.545 2095.407)" fill="#e25345"/>
        <path id="Trazado_111231" data-name="Trazado 111231" d="M5421.635-2065.215c-.257,1.283-2.086,1.069-4.13.57s-1.558.094-4.467-.228-3.791-1.407-3.879-1.839c-.08-.384,1.357-.519,2.9-.7.194-.022.389-.046.583-.07,1.741-.218,3.016-1.341,4.6-2.264,1.5-.874,3.732-4.434,3.732-4.434l3.99.316s-2.093,3.179-2.9,4.562a4.825,4.825,0,0,0-.392,2.719A5.132,5.132,0,0,1,5421.635-2065.215Z" transform="translate(-5409.156 2159.958)" fill="#fa9960"/>
        <path id="Trazado_111232" data-name="Trazado 111232" d="M5417.5-2023.239c-2.044-.5-1.558.094-4.467-.228s-3.791-1.407-3.879-1.839c-.08-.384,1.357-.519,2.9-.7l.015.03a8.2,8.2,0,0,0,4.166,1.295c1.973.048,4.063-.517,5.426-.495a5.132,5.132,0,0,1-.031,1.365C5421.378-2022.526,5419.549-2022.74,5417.5-2023.239Z" transform="translate(-5409.156 2118.553)" fill="#e25345"/>
        <path id="Trazado_111233" data-name="Trazado 111233" d="M5520.212-2444.383s-.95-2.329-2-2.424-4.372-.618-4.609-.143a3.288,3.288,0,0,0,.712,2.8c.713.618,5.133,1.616,5.133,1.616Z" transform="translate(-5498.856 2480.533)" fill="#fa9960"/>
        <path id="Trazado_111234" data-name="Trazado 111234" d="M5606.813-2231.1l8.6,23.138a7.875,7.875,0,0,0,2.587-.237,11.154,11.154,0,0,0,2.5-1.218s-2.132-22.217-6.043-26.838S5606.813-2231.1,5606.813-2231.1Z" transform="translate(-5579.045 2300.33)" fill="#c33f3b"/>
        <path id="Trazado_111235" data-name="Trazado 111235" d="M5529.092-2300.354s-24.705-8.354-30.215-6.577-22.053,34.691-22.053,34.691a3.194,3.194,0,0,0,1.393.879,13.152,13.152,0,0,0,3.242.333s14.93-12.8,16.707-16.529,2.488-7.287,4.266-6.932,22.928,8.709,27.727,3.732a13.853,13.853,0,0,0,3.544-11.443Z" transform="translate(-5467.318 2360.229)" fill="#e25345"/>
        <path id="Trazado_111236" data-name="Trazado 111236" d="M5727.1-2663.791a14.036,14.036,0,0,1-1.052-4.84,14.847,14.847,0,0,0,1.729,5.35c5.138,3.373,14.985,14.637,14.791,16.771,0,0,3.469-5.883,3.528-5.918,0,0,6.4-8.137-1.185-12.8-3.854-2.369-3.834-5.409-3.673-8.05s-1.052-14.01-8.772-11.035a5.027,5.027,0,0,0-1.794-.468,1.513,1.513,0,0,1,.684.324,5.989,5.989,0,0,0-3.242.62C5725.28-2682.226,5722.748-2667.8,5727.1-2663.791Z" transform="translate(-5680.421 2684.803)" fill="#d04339"/>
        <path id="Trazado_111237" data-name="Trazado 111237" d="M5748.4-2576.947c-.025.012,2.481,1.313,4.367.8,1.773-.483,2.932-2.783,2.907-2.788-.75-.149-.967-1.181-.952-5.616l-.34.067-5.708,1.13s.13,1.8.134,3.489C5748.81-2578.447,5748.723-2577.1,5748.4-2576.947Z" transform="translate(-5700.74 2598.637)" fill="#fa9960"/>
        <path id="Trazado_111238" data-name="Trazado 111238" d="M5750.35-2582.948s.13,1.8.134,3.489c3.194-.09,4.883-3,5.575-4.62Z" transform="translate(-5702.418 2598.229)" fill="#eb8d5a"/>
        <path id="Trazado_111239" data-name="Trazado 111239" d="M5734.651-2660.269a16.789,16.789,0,0,0,2.076-4.907c.287-1.615-.536-7.6-6.551-6.739a8.171,8.171,0,0,0-3.389,1.281c-1.306.882-3.19,2.786-1.083,8.009l.547,1.764Z" transform="translate(-5680.421 2673.798)" fill="#d04339"/>
        <path id="Trazado_111240" data-name="Trazado 111240" d="M5727.354-2642.654s7.558.125,7.564-4.583.983-7.863-3.842-8.141-5.765,1.517-6.149,3.088S5725.388-2642.808,5727.354-2642.654Z" transform="translate(-5680.489 2659.537)" fill="#fa9960"/>
        <path id="Trazado_111241" data-name="Trazado 111241" d="M5744.746-2661.878s2.069,5.523,5.245,6.34,4.554-.034,4.554-.034a9,9,0,0,1-2.942-5.313S5746.307-2664.507,5744.746-2661.878Z" transform="translate(-5697.602 2665.921)" fill="#d04339"/>
        <path id="Trazado_111242" data-name="Trazado 111242" d="M5724.983-2658.343a6.673,6.673,0,0,0-1.922,2.432c-.377,1.2-.546,3.667-1.266,3.583,0,0-1.56-3.754.193-5.878C5723.847-2660.457,5724.983-2658.343,5724.983-2658.343Z" transform="translate(-5677.326 2662.834)" fill="#d04339"/>
        <path id="Trazado_111243" data-name="Trazado 111243" d="M5594.366-2522.274c.745-3.126-1.791-9.191-4.438-14.213-2.4-4.552-4.9-8.244-5.119-8.111-6.334,3.76-6.907.634-6.907.634s-5.754.764-7.384,3.569c-2.253,3.878-4.708,15.517-7.119,15.345-1.107-.079-12.245-4.266-12.245-4.266a4.881,4.881,0,0,0-1.5,3.871,116.3,116.3,0,0,0,10.15,6.032c2.46,1.243,4.683,2.113,5.728,1.866,2.119-.5,5.429-5.41,7.217-8.3l.012-.019c2.282,12.919-.821,15.862.75,17.224,1.659,1.438,4.029-.685,9.243,1.575,3.419,1.483,8.165,3.628,11.36,4,1.675.2,2.925-.095,3.333-1.226C5598.632-2507.582,5592.944-2516.315,5594.366-2522.274Z" transform="translate(-5529.878 2564.297)" fill="#469df0"/>
        <path id="Trazado_111244" data-name="Trazado 111244" d="M5737.336-2587.279s-.141.6-1.629.506c0,0-1.249-.077-1.211-.735A4.02,4.02,0,0,1,5737.336-2587.279Z" transform="translate(-5688.791 2601.308)" fill="#fff"/>
        <path id="Trazado_111245" data-name="Trazado 111245" d="M5798.417-2418.986c-.407,1.131-1.658,1.423-3.333,1.226-2.211-.963-11.763-4.664-11.657-7.171.159-3.712,1.837-3.831.652-8.413-.952-3.679,7.875-10.52,9.282-12.007,2.647,5.022,2.72,5.259,1.975,8.385C5793.914-2431.008,5799.6-2422.275,5798.417-2418.986Z" transform="translate(-5730.848 2478.991)" fill="#2776ce"/>
        <path id="Trazado_111246" data-name="Trazado 111246" d="M5635.127-2415.012c-1.788,2.891-5.1,7.8-7.216,8.3-1.045.247-3.268-.623-5.729-1.866a14.88,14.88,0,0,0,5.234.287c1.837-.178,2.37-2.429,5.273-5.806C5634.573-2416.286,5635.035-2415.735,5635.127-2415.012Z" transform="translate(-5592.256 2453.462)" fill="#2776ce"/>
        <path id="Trazado_111247" data-name="Trazado 111247" d="M5744.854-2366.589a4.554,4.554,0,0,0-3.11-.948c-1.511.3-2.252,1.333-2.192,1.807a2.694,2.694,0,0,0,2.014,1.925,21.778,21.778,0,0,0,4.444-.711Z" transform="translate(-5693.134 2412.147)" fill="#fa9960"/>
        <path id="Trazado_111248" data-name="Trazado 111248" d="M5776.845-2544.577s6.16.379,8.292,3.354c3,4.187,8.216,21.28,6.793,25.19l-18.742-.079s-.455-2.123.178-3.15,10.9-2.686,11.375-3.16-5.925-9.243-5.925-10.665S5776.845-2544.577,5776.845-2544.577Z" transform="translate(-5721.913 2564.276)" fill="#469df0"/>
      </g>
      <g id="Grupo_74758" data-name="Grupo 74758" transform="translate(23.332 39.661)">
        <g id="Grupo_74757" data-name="Grupo 74757">
          <path id="Trazado_111249" data-name="Trazado 111249" d="M5597.9-2402.48H5575.24l4.091,14.264h22.689Z" transform="translate(-5575.24 2402.48)" fill="#00448c"/>
          <rect id="Rectángulo_33246" data-name="Rectángulo 33246" width="29.663" height="0.556" transform="translate(4.168 13.709)" fill="#003261"/>
        </g>
        <path id="Trazado_111250" data-name="Trazado 111250" d="M5657.235-2358.915a1.3,1.3,0,0,0-1.168-.908.661.661,0,0,0-.647.908,1.3,1.3,0,0,0,1.168.908A.661.661,0,0,0,5657.235-2358.915Z" transform="translate(-5644.124 2365.815)" fill="#003261"/>
      </g>
    </g>
    <g id="Grupo_74764" data-name="Grupo 74764" transform="translate(4042.964 -3352.857)">
      <g id="Grupo_74762" data-name="Grupo 74762" transform="translate(49.166 159.125)">
        <path id="Rectángulo_33247" data-name="Rectángulo 33247" d="M5.292,0H34.986a5.292,5.292,0,0,1,5.292,5.292v0a5.292,5.292,0,0,1-5.292,5.292H5.292A5.292,5.292,0,0,1,0,5.292v0A5.292,5.292,0,0,1,5.292,0Z" transform="translate(0.422)" fill="#ff973d"/>
        <path id="Trazado_111251" data-name="Trazado 111251" d="M4893.683-2080.709v1.1a2.276,2.276,0,0,1-2.269,2.269h-35.74a2.276,2.276,0,0,1-2.269-2.269v-1.191h39.627A2.375,2.375,0,0,1,4893.683-2080.709Z" transform="translate(-4852.983 2087.924)" fill="#ff7e1c"/>
        <g id="Grupo_74760" data-name="Grupo 74760" transform="translate(0 10.529)">
          <path id="Trazado_111252" data-name="Trazado 111252" d="M4859.43-2056.5l-1.611,6.1,0,0-6.707,25.4h-.706l3.877-21.072c0-.021.009-.042.013-.064l1.917-10.421Z" transform="translate(-4850.403 2056.557)" fill="#f3c6a6"/>
        </g>
        <path id="Trazado_111253" data-name="Trazado 111253" d="M4883.228-2056.5l-1.611,6.1,0,0c-.092.045-3.025,1.562-3.523,4.262l1.917-10.421Z" transform="translate(-4874.202 2067.086)" fill="#d49d7a"/>
        <g id="Grupo_74761" data-name="Grupo 74761" transform="translate(31.674 10.529)">
          <path id="Trazado_111254" data-name="Trazado 111254" d="M5084.9-2025h-.705l-5.465-20.689v0l-1.243-4.7v0l-1.611-6.1,3.219-.055,1.1,5.958.82,4.463c0,.023.01.044.014.064Z" transform="translate(-5075.871 2056.557)" fill="#f3c6a6"/>
        </g>
        <path id="Trazado_111255" data-name="Trazado 111255" d="M5062.447-1999.433s-.008,0-.011-.008C5062.421-1999.467,5062.425-1999.461,5062.447-1999.433Z" transform="translate(-5032.642 2018.008)" fill="#f3c6a6"/>
        <path id="Trazado_111256" data-name="Trazado 111256" d="M5080.187-2050.6a8.885,8.885,0,0,0-1.46,4.906l-1.243-4.7v0l-1.611-6.1,3.219-.055Z" transform="translate(-5044.197 2067.086)" fill="#d49d7a"/>
      </g>
      <g id="man" transform="translate(0 0)">
        <path id="Trazado_111257" data-name="Trazado 111257" d="M4813.217-2982.421c.831-.866,1.395-.541,1.395-.541s9.808,7.531,10.744,8.079,13.693.917,13.693.917,5.109-.058,6.349,2.566a5.216,5.216,0,0,1-.794,5.684,5.281,5.281,0,0,1-5.662,1.825c-4.676-1.365-13.979-4.151-15.719-5.215-3.874-2.37-10.869-11.83-10.869-11.83A3.782,3.782,0,0,1,4813.217-2982.421Z" transform="translate(-4768.532 3022.524)" fill="#039dae"/>
        <g id="Grupo_74763" data-name="Grupo 74763">
          <path id="Trazado_111258" data-name="Trazado 111258" d="M4555.68-3231.427l-4.9-2.95a1.268,1.268,0,0,1-.6-1.179q.075-.907.075-1.834a21.206,21.206,0,0,0-.256-3.363,1.25,1.25,0,0,1,.593-1.279l5.116-3.088a1.228,1.228,0,0,0,.468-1.6l-2.408-4.9a1.214,1.214,0,0,0-1.5-.605l-5.172,1.878a1.218,1.218,0,0,1-1.4-.412,22.1,22.1,0,0,0-5.079-4.766,1.259,1.259,0,0,1-.468-1.46l1.148-3.144a1.271,1.271,0,0,0-.624-1.56l-4.872-2.383a1.1,1.1,0,0,0-.306-.106,1.219,1.219,0,0,0-1.3.574l-2.209,3.656-.536.892a21.849,21.849,0,0,0-3.082-.218,22.155,22.155,0,0,0-4.1.381,1.218,1.218,0,0,1-1.279-.568l-2.483-4.124a1.262,1.262,0,0,0-1.641-.48l-3.749,1.84-1.073.53a1.279,1.279,0,0,0-.643,1.585l1.565,4.323a1.216,1.216,0,0,1-.374,1.385,21.874,21.874,0,0,0-3.3,3.331,3.845,3.845,0,0,0-.25.306.7.7,0,0,1-.087.1,1.248,1.248,0,0,1-1.348.312l-5.109-1.853a.943.943,0,0,0-.175-.05,1.268,1.268,0,0,0-1.379.674l-2.383,4.854a1.262,1.262,0,0,0,.481,1.635l5.109,3.076a1.219,1.219,0,0,1,.581,1.254,22.287,22.287,0,0,0-.256,3.381q0,.917.075,1.815a1.285,1.285,0,0,1-.618,1.2l-4.916,2.969a1.226,1.226,0,0,0-.468,1.591l2.389,4.847a1.282,1.282,0,0,0,1.591.643l4.092-1.485a1.259,1.259,0,0,1,1.479.481,22.028,22.028,0,0,0,4.572,5.021,1.251,1.251,0,0,1,.4,1.417l-1.672,4.6a1.294,1.294,0,0,0,.643,1.6l4.835,2.377a1.237,1.237,0,0,0,1.609-.474l.131-.212,2.564-4.248a1.265,1.265,0,0,1,1.316-.593h.006a21.946,21.946,0,0,0,3.868.343c.705,0,1.4-.037,2.09-.1a1.241,1.241,0,0,1,1.192.593l2.52,4.186a1.284,1.284,0,0,0,1.666.493l4.829-2.377a1.407,1.407,0,0,0,.355-.262,1.279,1.279,0,0,0,.274-1.3l-1.26-3.45a1.276,1.276,0,0,1,.218-1.235,1.35,1.35,0,0,1,.262-.237,21.961,21.961,0,0,0,6.126-6.151,1.235,1.235,0,0,1,1.248-.537,1.239,1.239,0,0,1,.206.056l4.137,1.5a1.257,1.257,0,0,0,1.553-.624l.056-.112,2.327-4.729A1.28,1.28,0,0,0,4555.68-3231.427Zm-38.661-9.327a14.744,14.744,0,0,1,.985-2.552,11.55,11.55,0,0,1,4.448-4.448c.175-.087.35-.169.524-.25,10.693-4.8,21.006,5.7,15.821,16.4a11.972,11.972,0,0,1-3.649,4.055,7.8,7.8,0,0,1-1,.586,13.57,13.57,0,0,1-4.424,1.31A11.844,11.844,0,0,1,4517.019-3240.753Z" transform="translate(-4500.423 3264.212)" fill="#ff973d"/>
        </g>
        <path id="Trazado_111259" data-name="Trazado 111259" d="M4716.754-3002.206s.014-3.621-.558-4.675-1.882-2.37-2.628-1.949-.976,3.95-.747,4.582a28.085,28.085,0,0,0,1.924,3Z" transform="translate(-4682.911 3044.775)" fill="#ffb27b"/>
        <path id="Trazado_111260" data-name="Trazado 111260" d="M4986.733-2170.062c.807-.691.323-4.562.323-4.562s-4.157-3.326-4.729-.78-3.95,3.69-5.873,4a2.08,2.08,0,0,0-1.851,1.34Z" transform="translate(-4907.99 2329.187)" fill="#1f3765"/>
        <path id="Trazado_111261" data-name="Trazado 111261" d="M4963.285-2585.381c-3.85.6-5.257-.319-5.257-.319.05-3.792-1.119-12.34-2.722-22.155-2.113-12.942-4.979-28.085-6.79-37.421-1.042-5.37-1.735-8.818-1.735-8.818l3.146-.062,15.689-.311s-1.174,17.364-.853,25.94a16.03,16.03,0,0,0,.524,4.285C4967.961-2617.743,4963.285-2585.381,4963.285-2585.381Z" transform="translate(-4884.077 2740.124)" fill="#26468d"/>
        <path id="Trazado_111262" data-name="Trazado 111262" d="M4975.38-2628.526c-2.132,3.988-7.471,14.261-9.458,20.671-2.112-12.942-4.979-28.085-6.789-37.421a26.968,26.968,0,0,1,1.411-8.879l15.689-.311S4975.059-2637.1,4975.38-2628.526Z" transform="translate(-4894.692 2740.124)" fill="#1f3765"/>
        <path id="Trazado_111263" data-name="Trazado 111263" d="M4892.668-2170.062c.807-.691.323-4.562.323-4.562s-4.158-3.326-4.729-.78-3.949,3.69-5.873,4a2.08,2.08,0,0,0-1.851,1.34Z" transform="translate(-4827.14 2329.187)" fill="#1f3765"/>
        <path id="Trazado_111264" data-name="Trazado 111264" d="M4898.23-2654.506s6.164,57.029,4.943,68.53c0,0,1.317,1.032,5.2.794,0,0,7.041-32.854,5.55-38.17-1.036-3.7,3.093-29.8,3.093-29.8Z" transform="translate(-4842.345 2740.159)" fill="#26468d"/>
        <path id="Trazado_111265" data-name="Trazado 111265" d="M4934.5-3004.589s-7.837,3.915-11.725,2.129a11.891,11.891,0,0,1,3.462-2.992c-.04-.7-.062-1.327-.073-1.884-.034-1.854.059-2.9.059-2.9l3.38-2.458,2.293-1.668a14.837,14.837,0,0,0-.093,2.862A11.311,11.311,0,0,0,4934.5-3004.589Z" transform="translate(-4863.444 3049.461)" fill="#ffb27b"/>
        <path id="Trazado_111266" data-name="Trazado 111266" d="M4952.5-3001.292s-1.828,3.644-5.638,4.163c-.035-1.854.058-2.9.058-2.9l3.379-2.459A7.615,7.615,0,0,1,4952.5-3001.292Z" transform="translate(-4884.136 3039.253)" fill="#ff9759"/>
        <path id="Trazado_111267" data-name="Trazado 111267" d="M4936.3-3057.329s7.016,2.5,8.5-1.894,3.4-7.029-1.02-8.81-5.859-.4-6.712.944S4934.51-3058.092,4936.3-3057.329Z" transform="translate(-4874.389 3096.32)" fill="#ffb27b"/>
        <path id="Trazado_111268" data-name="Trazado 111268" d="M4911.58-2917.316c-1.1,2.288-25.41,2.186-26.611.573-.489-.656-1.049-7.218-1.369-14.849-.177-4.227-.281-8.781-.261-12.84.036-6.623.407-11.924,1.34-12.329,5.211-2.26,8.432-3.7,15.238-3.491a5.643,5.643,0,0,1,4.913,3.167,41.079,41.079,0,0,1,4.133,16.463C4909.237-2929.708,4912.963-2920.2,4911.58-2917.316Z" transform="translate(-4829.543 3002.969)" fill="#21b7c0"/>
        <path id="Trazado_111269" data-name="Trazado 111269" d="M4891.2-2879.589s-.791,11.413-7.6,17.335c-.177-4.227-.281-8.782-.261-12.84C4885.375-2877.817,4888.06-2879.776,4891.2-2879.589Z" transform="translate(-4829.543 2933.633)" fill="#039dae"/>
        <path id="Trazado_111270" data-name="Trazado 111270" d="M4751.26-2969.487s-7.478.047-9.824,2.226c-1.681,1.562-12.486,10.078-13.173,9.963s-7.642-14-7.642-14-3.43.29-4,1.775c0,0,3.234,17.338,10.214,21.107,0,0,17.643-3.346,22.877-9.181C4752.406-2960.6,4751.26-2969.487,4751.26-2969.487Z" transform="translate(-4686.248 3012.448)" fill="#21b7c0"/>
        <path id="Trazado_111271" data-name="Trazado 111271" d="M4943.261-3084.928s.415,4.19,1.674,5.334.926,2.718,1.063,2.947,1.44-.444,1.669-.058c.527.886-.3,1.533-.817,1.747s1.328,3.812,2.687,3.944c2.348.229,5.974-6.263,6.28-8.166.4-2.489-1.009-6.369-5.048-6.178C4944.419-3085.057,4943.133-3086.434,4943.261-3084.928Z" transform="translate(-4881.043 3110.732)" fill="#0d458d"/>
      </g>
    </g>
    <g id="Grupo_74765" data-name="Grupo 74765" transform="translate(4287.181 -3367.345)">
      <rect id="Rectángulo_33248" data-name="Rectángulo 33248" width="7.495" height="46.691" transform="translate(0 21.943)" fill="#77cfd9"/>
      <rect id="Rectángulo_33249" data-name="Rectángulo 33249" width="7.495" height="59.706" transform="translate(12.617 8.928)" fill="#77cfd9"/>
      <rect id="Rectángulo_33250" data-name="Rectángulo 33250" width="7.495" height="35.4" transform="translate(26.016 33.234)" fill="#77cfd9"/>
      <path id="Trazado_111272" data-name="Trazado 111272" d="M6336.214-3367.345h-6.347a.659.659,0,0,0-.657.656.659.659,0,0,0,.657.657h6.347a.659.659,0,0,0,.657-.657A.659.659,0,0,0,6336.214-3367.345Z" transform="translate(-6316.515 3367.345)" fill="#77cfd9"/>
      <path id="Trazado_111273" data-name="Trazado 111273" d="M6331.313-3349.024a.659.659,0,0,0,.657-.656.659.659,0,0,0-.657-.657h-1.445a.659.659,0,0,0-.657.657.659.659,0,0,0,.657.656Z" transform="translate(-6316.515 3352.726)" fill="#77cfd9"/>
      <path id="Trazado_111274" data-name="Trazado 111274" d="M6430.446-3180.378H6424.1a.659.659,0,0,0-.657.657h0a.659.659,0,0,0,.657.657h6.347a.659.659,0,0,0,.657-.657h0A.659.659,0,0,0,6430.446-3180.378Z" transform="translate(-6397.508 3206.644)" fill="#77cfd9"/>
      <path id="Trazado_111275" data-name="Trazado 111275" d="M6424.1-3162.055h1.445a.658.658,0,0,0,.656-.657.658.658,0,0,0-.656-.656H6424.1a.659.659,0,0,0-.657.656A.659.659,0,0,0,6424.1-3162.055Z" transform="translate(-6397.508 3192.024)" fill="#77cfd9"/>
    </g>
  </g>
</svg>
